<?xml version="1.0" encoding="UTF-8"?>
<svg version="1.1" xmlns="http://www.w3.org/2000/svg" width="861" height="861">
<path d="M0 0 C1.00906718 -0.00679667 1.00906718 -0.00679667 2.03851956 -0.01373065 C4.27373198 -0.02630571 6.50869858 -0.0247588 8.74394226 -0.02310181 C10.35434784 -0.02909138 11.96475056 -0.03589791 13.57514954 -0.04345703 C17.93685305 -0.0610806 22.29847803 -0.06581087 26.66021371 -0.0670886 C29.38890344 -0.06851282 32.11757337 -0.07278755 34.84625816 -0.07808304 C44.37613054 -0.09657125 53.90594707 -0.10475516 63.43583679 -0.10317993 C72.30237875 -0.10197886 81.16867716 -0.12307762 90.0351575 -0.15466726 C97.66173037 -0.18086569 105.28822386 -0.19154573 112.91484135 -0.19026911 C117.46358163 -0.18976053 122.01210533 -0.19538622 126.56080055 -0.21662521 C130.84140594 -0.23606788 135.12158949 -0.23609118 139.40221024 -0.22159195 C140.96704033 -0.2195102 142.53189725 -0.22416671 144.09668159 -0.23631287 C155.44901106 -0.31867651 164.85370419 1.07708288 173.96147156 8.26742554 C173.96147156 8.92742554 173.96147156 9.58742554 173.96147156 10.26742554 C174.62147156 10.26742554 175.28147156 10.26742554 175.96147156 10.26742554 C177.39897156 12.20883179 177.39897156 12.20883179 178.96147156 14.82992554 C179.47709656 15.6768396 179.99272156 16.52375366 180.52397156 17.39633179 C184.51987887 25.37728797 184.22565482 32.95734782 184.15678406 41.73226929 C184.15304864 43.13473813 184.15020417 44.53720961 184.14820862 45.93968201 C184.14061377 49.6106908 184.12100154 53.28153849 184.09880066 56.95248413 C184.07825228 60.70653098 184.06918777 64.46060415 184.05912781 68.21469116 C184.03775121 75.56567565 184.00366613 82.91652792 183.96147156 90.26742554 C185.12804794 90.49016647 185.12804794 90.49016647 186.31819153 90.71740723 C188.90190565 91.25503096 191.13644792 92.02010972 193.57865906 93.00961304 C194.4333075 93.35379272 195.28795593 93.69797241 196.16850281 94.05258179 C197.0489325 94.41223022 197.92936218 94.77187866 198.83647156 95.14242554 C199.70916687 95.4943396 200.58186218 95.84625366 201.48100281 96.20883179 C205.3119242 97.7584827 209.11897573 99.3327482 212.88725281 101.02914429 C216.4846064 102.47814186 218.31058238 102.54099153 221.96147156 101.26742554 C223.39784853 99.31579435 223.39784853 99.31579435 223.96147156 97.26742554 C224.62147156 97.26742554 225.28147156 97.26742554 225.96147156 97.26742554 C226.29147156 96.27742554 226.62147156 95.28742554 226.96147156 94.26742554 C227.62147156 94.26742554 228.28147156 94.26742554 228.96147156 94.26742554 C229.21203308 93.69161743 229.4625946 93.11580933 229.7207489 92.52255249 C231.13003855 89.96103961 232.74055919 88.24557604 234.81303406 86.18539429 C235.58260437 85.41775757 236.35217468 84.65012085 237.14506531 83.85922241 C237.95072937 83.06580444 238.75639343 82.27238647 239.58647156 81.45492554 C240.3689325 80.67310913 241.15139343 79.89129272 241.95756531 79.08578491 C246.23323486 74.84202335 250.58713262 70.74793137 255.16874695 66.83578491 C257.10143043 65.14498297 258.93395516 63.37061575 260.77397156 61.57992554 C267.74168796 55.54938737 275.87830154 53.53861629 284.97319031 53.88070679 C292.98070895 54.91697391 299.82325011 58.08403853 305.96147156 63.26742554 C305.96147156 63.92742554 305.96147156 64.58742554 305.96147156 65.26742554 C306.62147156 65.26742554 307.28147156 65.26742554 307.96147156 65.26742554 C307.96147156 65.92742554 307.96147156 66.58742554 307.96147156 67.26742554 C308.50964539 67.49107788 309.05781921 67.71473022 309.62260437 67.94515991 C312.66392875 69.66455582 314.94380777 71.96366552 317.38334656 74.42367554 C317.8881958 74.92661133 318.39304504 75.42954712 318.91319275 75.94772339 C319.97455153 77.0077254 321.03340575 78.07024042 322.08988953 79.13510132 C323.7128628 80.768826 325.34628224 82.39155847 326.98100281 84.01351929 C328.01159301 85.0454303 329.04156307 86.07796112 330.07084656 87.11117554 C330.80666962 87.8409259 330.80666962 87.8409259 331.55735779 88.5854187 C334.96147156 92.03748205 334.96147156 92.03748205 334.96147156 94.26742554 C335.95147156 94.59742554 336.94147156 94.92742554 337.96147156 95.26742554 C337.96147156 95.92742554 337.96147156 96.58742554 337.96147156 97.26742554 C339.28147156 97.92742554 340.60147156 98.58742554 341.96147156 99.26742554 C341.96147156 99.92742554 341.96147156 100.58742554 341.96147156 101.26742554 C343.28147156 101.92742554 344.60147156 102.58742554 345.96147156 103.26742554 C345.96147156 103.92742554 345.96147156 104.58742554 345.96147156 105.26742554 C346.54670593 105.51363647 347.13194031 105.75984741 347.73490906 106.01351929 C350.30549173 107.46116321 351.71602848 109.05985035 353.58647156 111.32992554 C355.91632708 114.24618265 355.91632708 114.24618265 358.96147156 116.26742554 C358.96147156 116.92742554 358.96147156 117.58742554 358.96147156 118.26742554 C359.88959656 118.63867554 359.88959656 118.63867554 360.83647156 119.01742554 C363.34857452 120.49513316 363.72254499 121.7069773 364.96147156 124.26742554 C365.95147156 124.59742554 366.94147156 124.92742554 367.96147156 125.26742554 C367.96147156 125.92742554 367.96147156 126.58742554 367.96147156 127.26742554 C368.92053406 127.66961304 368.92053406 127.66961304 369.89897156 128.07992554 C371.96147156 129.26742554 371.96147156 129.26742554 372.96147156 132.26742554 C373.62147156 132.26742554 374.28147156 132.26742554 374.96147156 132.26742554 C374.96147156 132.92742554 374.96147156 133.58742554 374.96147156 134.26742554 C375.84714058 134.6665918 375.84714058 134.6665918 376.7507019 135.07382202 C379.01495184 136.29629976 380.51257439 137.5589553 382.33378601 139.36508179 C382.97157486 139.99333862 383.60936371 140.62159546 384.26647949 141.26889038 C384.94570969 141.94903198 385.62493988 142.62917358 386.32475281 143.32992554 C387.03496078 144.03584839 387.74516876 144.74177124 388.47689819 145.46908569 C389.97975844 146.96620476 391.48000704 148.4659494 392.97782898 149.96810913 C395.24652744 152.23994348 397.52813805 154.49819853 399.81108093 156.75570679 C421.66038012 178.50639001 421.66038012 178.50639001 422.33647156 193.70492554 C421.70838066 208.51740257 413.71168057 216.8358904 403.62553406 226.79867554 C402.74618195 227.67519775 401.86682983 228.55171997 400.96083069 229.45480347 C398.17407095 232.23044256 395.38040951 234.999014 392.58647156 237.76742554 C390.68570137 239.65701758 388.78652798 241.54820485 386.88725281 243.43930054 C382.25059753 248.05400317 377.60826821 252.66293616 372.96147156 257.26742554 C374.16281838 260.99092578 375.46856183 264.59009847 377.05522156 268.16586304 C377.4458075 269.05789429 377.83639343 269.94992554 378.23881531 270.86898804 C379.05103679 272.71140738 379.86612245 274.55256684 380.68412781 276.39242554 C381.07471375 277.28703491 381.46529968 278.18164429 381.86772156 279.10336304 C382.22156921 279.90306519 382.57541687 280.70276733 382.93998718 281.52670288 C384.25554618 285.0564508 385.09501585 288.60153904 385.96147156 292.26742554 C387.13418861 292.25743279 387.13418861 292.25743279 388.33059692 292.24723816 C395.72999516 292.18690849 403.12927265 292.14134079 410.52885342 292.11198902 C414.33226527 292.09639124 418.13547241 292.07526205 421.93876648 292.04110718 C425.61517385 292.00830169 429.29138539 291.99052834 432.96792793 291.98279381 C434.36443727 291.97728803 435.76093695 291.9665374 437.15736198 291.95023537 C449.02373814 291.81732541 457.43076383 293.06456111 466.65678406 300.81039429 C473.26431345 307.85469257 476.07453142 316.41143298 476.10864258 325.86253357 C476.11231927 326.52380908 476.11599595 327.18508459 476.11978406 327.86639875 C476.1307915 330.08089281 476.13465977 332.29533989 476.13847351 334.50985718 C476.14474054 336.0984919 476.15138755 337.68712517 476.15838623 339.27575684 C476.17940596 344.49302148 476.18978876 349.71028634 476.19975281 354.92758179 C476.20380157 356.72648064 476.20791853 358.52537934 476.21210289 360.32427788 C476.23115238 368.77916019 476.2453822 377.23403379 476.25371486 385.68893343 C476.26347753 395.43290332 476.28977267 405.17664546 476.33021575 414.92053515 C476.36043471 422.46127925 476.37518933 430.00195829 476.37849587 437.54276174 C476.38084035 442.04185087 476.38972167 446.54069663 476.41495705 451.03972054 C476.43834327 455.27759139 476.44242895 459.51506047 476.43219566 463.75297928 C476.4317027 465.30126855 476.437952 466.84957831 476.45175171 468.39780617 C476.56285805 481.61152655 474.72151417 491.44164657 465.33256531 501.16976929 C462.12263946 504.00952247 458.98180818 505.83659007 454.96147156 507.26742554 C454.06314606 507.60756683 453.16482056 507.94770813 452.23927307 508.29815674 C448.80541195 509.31357345 446.06897844 509.50882115 442.49711609 509.49447632 C441.2362619 509.49432526 439.97540771 509.49417419 438.67634583 509.49401855 C437.31565693 509.48380771 435.95496968 509.47337576 434.59428406 509.46273804 C433.19038597 509.45900378 431.78648526 509.45615876 430.38258362 509.4541626 C426.70334059 509.44655858 423.02425767 509.42693824 419.34507751 509.40475464 C415.58441839 509.38422625 411.82373317 509.37514598 408.06303406 509.36508179 C400.69577389 509.34368896 393.32864523 509.30959252 385.96147156 509.26742554 C385.80509216 509.84283081 385.64871277 510.41823608 385.4875946 511.01107788 C383.4395935 518.21006891 380.70412122 525.01221677 377.77397156 531.89242554 C377.31055359 532.99199585 376.84713562 534.09156616 376.36967468 535.22445679 C375.23816649 537.90741436 374.10203254 540.58830697 372.96147156 543.26742554 C373.45006653 543.75157928 373.9386615 544.23573303 374.44206238 544.73455811 C379.50871379 549.75709469 384.56841614 554.78655312 389.62406921 559.82015991 C391.51333999 561.70047487 393.40545345 563.57779772 395.2988739 565.45394897 C398.01400409 568.14492572 400.72272055 570.84221316 403.43022156 573.54086304 C404.70983765 574.80499527 404.70983765 574.80499527 406.01530457 576.09466553 C406.79611389 576.87532379 407.57692322 577.65598206 408.38139343 578.46029663 C409.07422424 579.14868622 409.76705505 579.83707581 410.48088074 580.54632568 C411.96147156 582.26742554 411.96147156 582.26742554 411.96147156 584.26742554 C412.62147156 584.26742554 413.28147156 584.26742554 413.96147156 584.26742554 C419.69336486 591.03976151 422.61507498 600.17381121 422.24272156 608.98617554 C420.52477618 622.9206214 411.92301247 631.75706759 402.34135437 641.3074646 C401.27236182 642.38381139 400.20398919 643.46077415 399.13618469 644.53829956 C396.25467632 647.44188508 393.3637392 650.33589885 390.47022343 653.22751331 C388.04729251 655.65032393 385.6287304 658.07747369 383.21001887 660.50449538 C377.5007275 666.23296954 371.7833578 671.95329239 366.06108093 677.66879272 C360.17424346 683.54898661 354.30233042 689.44379171 348.43737912 695.34580827 C343.38458323 700.42936474 338.32210216 705.50313555 333.25195956 710.56939101 C330.23122344 713.58806699 327.21431899 716.61033049 324.20693207 719.6423111 C321.37802629 722.4935879 318.53715505 725.3323914 315.68694687 728.16236877 C314.64829369 729.1976307 313.61381272 730.23709975 312.58407211 731.28122711 C303.7267767 740.25359429 295.33336981 746.4621232 282.39897156 746.57992554 C268.69410498 746.56611324 261.47803748 740.77386035 252.03691101 731.34545898 C249.85300978 729.13554827 247.67730473 726.91787554 245.50444031 724.69711304 C244.37008545 723.54054451 244.37008545 723.54054451 243.21281433 722.36061096 C240.04798419 719.13198046 236.88377152 715.90324734 233.7429657 712.6512146 C231.42704369 710.25695124 229.09276241 707.88197665 226.75444031 705.50961304 C226.046035 704.76710297 225.3376297 704.0245929 224.60775757 703.25958252 C223.93968582 702.5878299 223.27161407 701.91607727 222.58329773 701.22396851 C222.0027916 700.6271225 221.42228546 700.03027649 220.82418823 699.41534424 C218.95361514 698.00186034 218.95361514 698.00186034 216.36294556 698.53361511 C214.11830998 699.21950094 212.05109899 699.98935769 209.92240906 700.97445679 C209.17604187 701.31412476 208.42967468 701.65379272 207.66069031 702.00375366 C206.89369812 702.35889038 206.12670593 702.7140271 205.33647156 703.07992554 C200.33776949 705.38868481 195.34357692 707.53542684 190.15922546 709.39901733 C189.18192474 709.75126877 188.20462402 710.1035202 187.19770813 710.46644592 C186.45975006 710.7307692 185.72179199 710.99509247 184.96147156 711.26742554 C184.95782593 712.03226761 184.9541803 712.79710968 184.95042419 713.58512878 C184.91236154 720.83703936 184.85530488 728.08844651 184.77756882 735.34003162 C184.73826776 739.0670667 184.70599525 742.79387166 184.69047546 746.52108765 C184.67519285 750.12646742 184.64054688 753.73121381 184.59316254 757.33630943 C184.57846699 758.70316714 184.57043743 760.07011534 184.56958771 761.43705177 C184.55347947 774.37155147 182.38138016 783.7407455 173.26615906 793.16976929 C166.83861343 799.01992523 159.72010325 801.50788354 151.05665588 801.5415802 C150.38620999 801.54681688 149.71576409 801.55205356 149.02500165 801.55744892 C146.79136125 801.57238129 144.5579513 801.57315258 142.32426453 801.57382202 C140.71725074 801.58144827 139.11024059 801.58987657 137.50323486 801.5990448 C133.1454783 801.62095551 128.7877919 801.62978451 124.42998648 801.63487124 C121.703129 801.63852 118.97628975 801.64476287 116.24943924 801.65187263 C106.72375434 801.67635882 97.19812381 801.68941646 87.67240906 801.69296265 C78.81439887 801.69659345 69.95673612 801.72645828 61.09883201 801.76836723 C53.47819241 801.80314915 45.85766746 801.81851248 38.23694909 801.81920868 C33.69254326 801.81999905 29.14849126 801.82862582 24.60416794 801.85720634 C20.32432609 801.88352167 16.04512796 801.88551789 11.76524162 801.8695507 C10.20285695 801.86774664 8.64043412 801.87433182 7.07813072 801.89036942 C-3.82763276 801.99540819 -13.006461 800.64224528 -22.03852844 794.09164429 C-29.2212134 786.41795547 -33.17304522 779.60194869 -33.15205383 768.93832397 C-33.1519783 767.65729797 -33.15190277 766.37627197 -33.15182495 765.056427 C-33.1467187 763.66321778 -33.14150271 762.27000896 -33.13618469 760.87680054 C-33.13431876 759.44762217 -33.13289568 758.01844316 -33.13189697 756.58926392 C-33.12808559 752.83442406 -33.11826711 749.07962311 -33.10719299 745.32479858 C-33.0969492 741.49057542 -33.092393 737.65634595 -33.08735657 733.82211304 C-33.07664358 726.30386617 -33.05958375 718.78565131 -33.03852844 711.26742554 C-33.70878555 711.07080322 -34.37904266 710.87418091 -35.0696106 710.67160034 C-36.40157722 710.27720764 -36.40157722 710.27720764 -37.76045227 709.87484741 C-38.63695938 709.6163501 -39.51346649 709.35785278 -40.41653442 709.09152222 C-44.28508509 707.8756309 -47.99597985 706.35070844 -51.72602844 704.76742554 C-52.78660461 704.32463257 -52.78660461 704.32463257 -53.86860657 703.87289429 C-59.40420176 701.55661759 -59.40420176 701.55661759 -62.0316925 700.35873413 C-65.59035237 698.59088401 -65.59035237 698.59088401 -69.41352844 698.89242554 C-71.32867741 700.27129419 -71.32867741 700.27129419 -72.03852844 703.26742554 C-73.97602844 705.45492554 -73.97602844 705.45492554 -76.03852844 707.26742554 C-76.69852844 707.26742554 -77.35852844 707.26742554 -78.03852844 707.26742554 C-78.36852844 708.25742554 -78.69852844 709.24742554 -79.03852844 710.26742554 C-79.69852844 710.26742554 -80.35852844 710.26742554 -81.03852844 710.26742554 C-81.29376282 710.84879272 -81.54899719 711.43015991 -81.81196594 712.02914429 C-85.18248997 718.17981394 -91.56973874 722.7911491 -96.85493469 727.28305054 C-99.48087183 729.66941201 -101.85589434 732.24721501 -104.28852844 734.82992554 C-111.70987173 742.34429402 -120.51588603 747.27629663 -131.22602844 747.51742554 C-140.18519385 747.368849 -148.2571134 744.14792795 -155.03852844 738.26742554 C-155.03852844 737.60742554 -155.03852844 736.94742554 -155.03852844 736.26742554 C-155.69852844 736.26742554 -156.35852844 736.26742554 -157.03852844 736.26742554 C-157.03852844 735.60742554 -157.03852844 734.94742554 -157.03852844 734.26742554 C-157.88109192 733.91164429 -157.88109192 733.91164429 -158.74067688 733.54867554 C-161.56435502 731.97423197 -163.51467687 730.05058009 -165.80415344 727.76742554 C-166.69360657 726.88055054 -167.58305969 725.99367554 -168.49946594 725.07992554 C-169.88005188 723.68773804 -169.88005188 723.68773804 -171.28852844 722.26742554 C-172.6923175 720.87523804 -172.6923175 720.87523804 -174.12446594 719.45492554 C-175.00876282 718.56805054 -175.89305969 717.68117554 -176.80415344 716.76742554 C-177.61658508 715.95273804 -178.42901672 715.13805054 -179.2660675 714.29867554 C-181.03852844 712.26742554 -181.03852844 712.26742554 -181.03852844 710.26742554 C-181.57477844 710.06117554 -182.11102844 709.85492554 -182.66352844 709.64242554 C-185.95830853 707.73492128 -188.63216472 705.2192317 -191.03852844 702.26742554 C-191.03852844 701.60742554 -191.03852844 700.94742554 -191.03852844 700.26742554 C-192.02852844 699.93742554 -193.01852844 699.60742554 -194.03852844 699.26742554 C-195.74978874 697.64657893 -197.40866609 695.97010116 -199.03852844 694.26742554 C-200.03214585 693.27627282 -201.02916905 692.28852564 -202.02911377 691.30375671 C-202.56582199 690.77282913 -203.10253021 690.24190155 -203.65550232 689.69488525 C-204.51206924 688.8477446 -204.51206924 688.8477446 -205.38594055 687.98348999 C-211.65672034 681.77818958 -217.91721344 675.56261478 -224.17200375 669.34119892 C-227.94833321 665.58573882 -231.72831137 661.83410871 -235.51679993 658.09091187 C-239.1948568 654.45652833 -242.86286357 650.81226901 -246.52430916 647.16115379 C-247.91413468 645.7786709 -249.30745314 644.39968962 -250.70443535 643.02443886 C-270.81679194 623.21271999 -270.81679194 623.21271999 -271.35102844 607.95492554 C-270.98324497 593.76622636 -263.4796564 584.34934356 -253.70259094 574.63070679 C-252.03852844 573.26742554 -252.03852844 573.26742554 -250.03852844 573.26742554 C-250.03852844 572.60742554 -250.03852844 571.94742554 -250.03852844 571.26742554 C-249.37852844 571.26742554 -248.71852844 571.26742554 -248.03852844 571.26742554 C-248.03852844 570.60742554 -248.03852844 569.94742554 -248.03852844 569.26742554 C-247.37852844 569.26742554 -246.71852844 569.26742554 -246.03852844 569.26742554 C-246.03852844 568.60742554 -246.03852844 567.94742554 -246.03852844 567.26742554 C-245.37852844 567.26742554 -244.71852844 567.26742554 -244.03852844 567.26742554 C-243.70852844 566.27742554 -243.37852844 565.28742554 -243.03852844 564.26742554 C-242.37852844 564.26742554 -241.71852844 564.26742554 -241.03852844 564.26742554 C-241.03852844 563.60742554 -241.03852844 562.94742554 -241.03852844 562.26742554 C-240.37852844 562.26742554 -239.71852844 562.26742554 -239.03852844 562.26742554 C-238.70852844 561.27742554 -238.37852844 560.28742554 -238.03852844 559.26742554 C-237.37852844 559.26742554 -236.71852844 559.26742554 -236.03852844 559.26742554 C-236.03852844 558.60742554 -236.03852844 557.94742554 -236.03852844 557.26742554 C-235.37852844 557.26742554 -234.71852844 557.26742554 -234.03852844 557.26742554 C-233.70852844 556.27742554 -233.37852844 555.28742554 -233.03852844 554.26742554 C-232.37852844 554.26742554 -231.71852844 554.26742554 -231.03852844 554.26742554 C-230.70852844 553.27742554 -230.37852844 552.28742554 -230.03852844 551.26742554 C-229.37852844 551.26742554 -228.71852844 551.26742554 -228.03852844 551.26742554 C-228.03852844 550.60742554 -228.03852844 549.94742554 -228.03852844 549.26742554 C-227.37852844 549.26742554 -226.71852844 549.26742554 -226.03852844 549.26742554 C-225.70852844 548.27742554 -225.37852844 547.28742554 -225.03852844 546.26742554 C-224.37852844 546.26742554 -223.71852844 546.26742554 -223.03852844 546.26742554 C-223.03852844 545.60742554 -223.03852844 544.94742554 -223.03852844 544.26742554 C-222.37852844 544.26742554 -221.71852844 544.26742554 -221.03852844 544.26742554 C-221.54641907 543.22586304 -222.05430969 542.18430054 -222.57759094 541.11117554 C-226.18928681 533.62113081 -229.62534606 526.1223739 -232.53852844 518.32992554 C-232.79327942 517.6505896 -233.0480304 516.97125366 -233.3105011 516.27133179 C-235.03852844 511.54377835 -235.03852844 511.54377835 -235.03852844 509.26742554 C-235.8181192 509.27630798 -236.59770996 509.28519043 -237.40092468 509.29434204 C-244.78527916 509.37483682 -252.16941778 509.43556564 -259.55409813 509.47467422 C-263.34971874 509.49545707 -267.14497368 509.52360147 -270.94038391 509.56918335 C-274.61032781 509.61297736 -278.27992232 509.63663241 -281.95010757 509.64693451 C-283.34302386 509.6542663 -284.73592327 509.66858199 -286.12868881 509.69034576 C-298.07016823 509.86934894 -306.77139478 507.85874872 -316.06196594 500.19320679 C-321.4187797 494.97401868 -324.7152127 488.44131423 -325.29579735 480.94617748 C-325.29914904 479.73188218 -325.30250072 478.51758688 -325.30595398 477.26649475 C-325.31048509 476.58576505 -325.31501621 475.90503535 -325.31968462 475.20367748 C-325.33228831 472.93538732 -325.3307109 470.66733851 -325.32905579 468.39901733 C-325.33504358 466.76743259 -325.3418497 465.13585067 -325.34941101 463.50427246 C-325.36705306 459.08059562 -325.37176564 454.65699619 -325.37304258 450.23328757 C-325.3744658 447.46692144 -325.37873864 444.7005749 -325.38403702 441.93421364 C-325.40253162 432.27582173 -325.41070838 422.61748496 -325.40913391 412.95907593 C-325.40793279 403.9681362 -325.42903085 394.97743663 -325.46062124 385.98655766 C-325.48680731 378.2572615 -325.49750022 370.52804366 -325.49622309 362.79870349 C-325.49571413 358.18682425 -325.50136093 353.5751585 -325.52257919 348.96332359 C-325.54200083 344.62364046 -325.54205939 340.28437361 -325.52754593 335.94467545 C-325.52546156 334.35685045 -325.53013649 332.76899913 -325.54226685 331.1812191 C-325.60187761 322.83439701 -325.51700714 315.57055917 -321.03852844 308.26742554 C-320.65026068 307.617102 -320.26199291 306.96677847 -319.86195946 306.29674816 C-315.41001301 299.17640015 -308.98398411 295.11342768 -301.02565002 292.85858154 C-295.15865823 291.69749474 -289.23646647 291.90350511 -283.28071594 291.97445679 C-281.88253743 291.98006519 -280.48435294 291.98432939 -279.08616638 291.98731995 C-275.43976521 291.99867108 -271.79373335 292.02805172 -268.1474762 292.06143188 C-264.4132944 292.09234517 -260.67905183 292.10587029 -256.94477844 292.12094116 C-249.64252835 292.15293303 -242.34058051 292.20400821 -235.03852844 292.26742554 C-234.88970718 291.48905334 -234.74088593 290.71068115 -234.58755493 289.90872192 C-234.05602527 287.35160052 -233.30732362 285.13855494 -232.33149719 282.72055054 C-231.99182922 281.87492554 -231.65216125 281.02930054 -231.30220032 280.15805054 C-230.76949524 278.85094116 -230.76949524 278.85094116 -230.22602844 277.51742554 C-229.88249329 276.66148804 -229.53895813 275.80555054 -229.18501282 274.92367554 C-226.92104931 269.31686159 -224.53119023 263.77619972 -222.03852844 258.26742554 C-223.15957377 256.95154613 -224.28549809 255.63982201 -225.41352844 254.32992554 C-226.04001282 253.5990271 -226.66649719 252.86812866 -227.31196594 252.11508179 C-228.91600558 250.18361647 -228.91600558 250.18361647 -231.03852844 249.26742554 C-231.03852844 248.60742554 -231.03852844 247.94742554 -231.03852844 247.26742554 C-232.02852844 246.93742554 -233.01852844 246.60742554 -234.03852844 246.26742554 C-234.03852844 245.60742554 -234.03852844 244.94742554 -234.03852844 244.26742554 C-234.69852844 244.26742554 -235.35852844 244.26742554 -236.03852844 244.26742554 C-237.66352844 242.89242554 -237.66352844 242.89242554 -239.03852844 241.26742554 C-239.03852844 240.60742554 -239.03852844 239.94742554 -239.03852844 239.26742554 C-239.69852844 239.26742554 -240.35852844 239.26742554 -241.03852844 239.26742554 C-242.46186829 237.81185913 -242.46186829 237.81185913 -244.12446594 235.79086304 C-246.71414234 232.74252826 -249.3780411 229.88766226 -252.26509094 227.11898804 C-252.98696594 226.42289429 -253.70884094 225.72680054 -254.45259094 225.00961304 C-255.92674367 223.59796855 -257.40856012 222.19428397 -258.89790344 220.79867554 C-266.45753393 213.45580864 -271.08150316 205.35826698 -271.35102844 194.70492554 C-271.12723807 177.96133656 -259.73628677 167.66671668 -248.59028625 156.49691772 C-247.5638802 155.46122719 -246.53786006 154.42515408 -245.51219177 153.38873291 C-242.75246451 150.60304086 -239.9863362 147.82379792 -237.21807194 145.04659176 C-235.48298785 143.30560546 -233.74906714 141.56346837 -232.01548004 139.82099152 C-226.57390031 134.35214871 -221.12839409 128.88726183 -215.67704701 123.42815471 C-209.41502034 117.15716027 -203.1663088 110.87328621 -196.92879987 104.57790637 C-192.08310762 99.68884347 -187.2258129 94.81150508 -182.35972095 89.9427464 C-179.46367549 87.04461647 -176.57257732 84.14195108 -173.69353485 81.22692108 C-170.9849059 78.48508696 -168.26200825 75.75823798 -165.52802658 73.04169083 C-164.5344654 72.04965697 -163.54589373 71.05259299 -162.5631218 70.04986954 C-153.86277556 61.18352025 -144.2412826 54.27788137 -131.47602844 53.95492554 C-114.23936528 54.18530621 -103.53976326 66.42261569 -92.17573547 77.86947632 C-90.38878159 79.66732325 -88.5911533 81.45401308 -86.79243469 83.24008179 C-85.65246853 84.38136673 -84.51312139 85.5232704 -83.37446594 86.66586304 C-82.83711823 87.19916229 -82.29977051 87.73246155 -81.74613953 88.28192139 C-78.03852844 92.03740419 -78.03852844 92.03740419 -78.03852844 94.26742554 C-77.04852844 94.59742554 -76.05852844 94.92742554 -75.03852844 95.26742554 C-75.03852844 95.92742554 -75.03852844 96.58742554 -75.03852844 97.26742554 C-73.71852844 97.92742554 -72.39852844 98.58742554 -71.03852844 99.26742554 C-71.03852844 99.92742554 -71.03852844 100.58742554 -71.03852844 101.26742554 C-64.64678541 102.850546 -61.02417927 101.43197895 -55.22602844 98.57992554 C-53.63541664 97.83529414 -52.04427396 97.09179566 -50.45259094 96.34945679 C-49.6936554 95.98932495 -48.93471985 95.62919312 -48.15278625 95.25814819 C-45.4996461 94.01491 -42.81599054 92.86862698 -40.10102844 91.76742554 C-39.37013 91.46836304 -38.63923157 91.16930054 -37.88618469 90.86117554 C-36.03852844 90.26742554 -36.03852844 90.26742554 -33.03852844 90.26742554 C-33.04741089 89.47308609 -33.05629333 88.67874664 -33.06544495 87.8603363 C-33.14587669 80.34322434 -33.20663699 72.82632354 -33.24577713 65.30889225 C-33.26657662 61.44486569 -33.29475233 57.58119723 -33.34028625 53.71737671 C-33.38401974 49.98259949 -33.40772288 46.24816486 -33.41803741 42.51315117 C-33.42537987 41.09428967 -33.43971714 39.67544511 -33.46144867 38.25673103 C-33.58237201 30.02881534 -33.307438 23.43776102 -29.03852844 16.26742554 C-28.58091125 15.46949585 -28.12329407 14.67156616 -27.65180969 13.84945679 C-20.68884476 4.37731531 -11.7796936 0.03297503 0 0 Z M-51.15229797 154.26547241 C-53.16131603 155.33264949 -55.18884351 156.35666439 -57.22212219 157.37680054 C-67.43705539 162.55378801 -76.77439685 168.55138515 -86.03852844 175.26742554 C-86.70239563 175.74051147 -87.36626282 176.21359741 -88.05024719 176.70101929 C-97.26763196 183.27977166 -105.67791226 190.37805153 -113.83149719 198.23617554 C-116.44627362 200.75239738 -119.20247642 203.00248898 -122.03852844 205.26742554 C-123.11575122 206.40134425 -124.15916272 207.56849682 -125.16352844 208.76742554 C-127.20454131 211.16835895 -129.26562748 213.50560258 -131.44087219 215.78695679 C-145.55927254 230.61024056 -156.70447582 247.66274583 -167.03852844 265.26742554 C-167.42734192 265.92629761 -167.8161554 266.58516968 -168.2167511 267.26400757 C-199.05713129 320.20831755 -207.69517998 385.38810512 -198.03852844 445.26742554 C-197.88964172 446.1968396 -197.740755 447.12625366 -197.58735657 448.08383179 C-190.98875749 487.45638561 -174.66783446 526.13951198 -151.03852844 558.26742554 C-150.12808889 559.53935822 -149.21794871 560.81150522 -148.30805969 562.08383179 C-142.13709007 570.60751586 -135.4667837 578.38635978 -128.16743469 585.96273804 C-126.13481496 588.07419877 -124.20924972 590.22448598 -122.35493469 592.49398804 C-120.46019233 594.76256658 -118.66704012 596.63122633 -116.41352844 598.51742554 C-114.13798203 600.44806473 -111.91080768 602.38861883 -109.74555969 604.44320679 C-58.85227722 652.65374258 13.45882559 675.82949238 82.63847351 674.17611694 C148.51978062 671.65183074 210.95708529 645.80494287 259.13725281 600.84555054 C261.10286705 599.05121389 263.06172831 597.34291958 265.11772156 595.66195679 C267.38592003 593.7520589 269.26196581 591.96629704 271.14897156 589.70492554 C273.16745327 587.32505627 275.20582502 585.01113298 277.35990906 582.75180054 C290.08818446 569.38897768 300.65170765 554.1696084 309.96147156 538.26742554 C310.62010193 537.15343384 310.62010193 537.15343384 311.29203796 536.01693726 C346.88065795 475.33070233 356.64967096 400.89268545 339.88529968 332.71127319 C330.90820452 299.24644645 316.88068988 268.62038983 296.96147156 240.26742554 C296.47420593 239.57374878 295.98694031 238.88007202 295.48490906 238.16537476 C288.97914514 229.00033634 281.8875623 220.66308147 274.09037781 212.57211304 C272.05775808 210.4606523 270.13219284 208.31036509 268.27787781 206.04086304 C266.38313545 203.77228449 264.58998324 201.90362474 262.33647156 200.01742554 C260.06092515 198.08678635 257.8337508 196.14623225 255.66850281 194.09164429 C242.56960978 181.68323554 227.52418904 171.33933422 211.96147156 162.26742554 C210.75829285 161.56021362 210.75829285 161.56021362 209.5308075 160.8387146 C195.21034863 152.49822757 180.49255013 146.01187402 164.96147156 140.26742554 C163.89388611 139.86402954 163.89388611 139.86402954 162.80473328 139.45248413 C95.28130448 114.12461625 12.09505665 120.28585225 -51.15229797 154.26547241 Z " fill="#116BA8" transform="translate(356.0385284423828,36.732574462890625)"/>
<path d="M0 0 C2.80156797 1.43537803 5.56410186 2.93722968 8.32348633 4.4519043 C12.02138621 6.45031215 15.76508269 8.35614099 19.50721741 10.27008057 C31.99241322 16.65903255 44.39140295 23.19233898 56.66918945 29.97290039 C60.45890216 32.06465719 64.27101449 34.10806799 68.09887695 36.12915039 C69.10571533 36.66515869 70.11255371 37.20116699 71.14990234 37.75341797 C73.07547952 38.77757354 75.00543561 39.7935542 76.94042969 40.79980469 C82.35459512 43.69659734 86.16886053 46.24568004 88.9934082 51.89477539 C89.75533421 58.72712828 89.14198421 63.36334071 84.9934082 68.89477539 C81.57945342 71.69909539 77.21791461 71.30210366 72.9934082 70.89477539 C69.6965332 69.67211914 69.6965332 69.67211914 66.2434082 67.83227539 C65.57696289 67.48285889 64.91051758 67.13344238 64.22387695 66.7734375 C61.80421529 65.49772743 59.39936607 64.19613922 56.9934082 62.89477539 C54.94706775 61.8026274 52.90015389 60.71155336 50.8527832 59.62133789 C46.1508979 57.11280064 41.45524973 54.59302011 36.76293945 52.06665039 C31.29070559 49.12148208 25.80786761 46.19685935 20.31762695 43.28540039 C19.23458786 42.71099464 19.23458786 42.71099464 18.12966919 42.12498474 C15.28633882 40.61744113 12.44275608 39.11038008 9.59814453 37.60525513 C7.62914394 36.56337 5.66084768 35.52016405 3.69262695 34.47680664 C2.56687256 33.88101807 1.44111816 33.28522949 0.28125 32.67138672 C-2.11280531 31.37773999 -4.45614703 30.04870672 -6.80029297 28.67089844 C-9.68728068 26.73325271 -9.68728068 26.73325271 -12.0065918 26.89477539 C-13.44126196 28.27434955 -13.44126196 28.27434955 -14.9440918 30.14477539 C-18.0151136 33.75849336 -21.16639598 37.28437165 -24.3815918 40.76977539 C-30.43440151 47.34986221 -36.4643102 53.94958772 -42.3190918 60.70727539 C-46.05597392 65.006888 -49.93925758 69.16943295 -53.83203125 73.32763672 C-55.23745872 74.83718684 -56.62282303 76.36534676 -58.0065918 77.89477539 C-58.81290039 78.76622192 -58.81290039 78.76622192 -59.63549805 79.65527344 C-62.36449437 84.11273128 -61.68473401 89.73256028 -61.72729492 94.83691406 C-61.75620959 96.92961337 -61.84912102 99.0131661 -61.9440918 101.10375977 C-62.15468476 110.00369961 -60.47204259 115.1389501 -54.29663086 121.66210938 C-53.54091797 122.39888916 -52.78520508 123.13566895 -52.0065918 123.89477539 C-51.08267453 124.91953449 -50.1642333 125.94932318 -49.2565918 126.98852539 C-48.5140918 127.78258789 -47.7715918 128.57665039 -47.0065918 129.39477539 C-43.73240756 132.95147783 -40.60016747 136.5663935 -37.5690918 140.33227539 C-33.9170895 144.86024297 -30.07891939 149.1446123 -26.1081543 153.38989258 C-22.13248684 157.67073451 -18.53135653 162.17176502 -14.97924805 166.81274414 C-12.81345608 169.09861963 -12.07115665 169.56708277 -9.0065918 169.89477539 C-6.69871495 169.07921668 -6.69871495 169.07921668 -4.3659668 167.68383789 C-3.01921875 166.93589966 -3.01921875 166.93589966 -1.64526367 166.17285156 C-0.69200195 165.62733643 0.26125977 165.08182129 1.2434082 164.51977539 C2.22760742 163.96974854 3.21180664 163.41972168 4.22583008 162.85302734 C7.15551079 161.21258723 10.07564776 159.55630622 12.9934082 157.89477539 C15.82576419 156.28887858 18.65931089 154.68509675 21.4934082 153.08227539 C22.46141357 152.53301392 22.46141357 152.53301392 23.44897461 151.97265625 C28.54641714 149.0984278 33.75560137 146.49651008 39.0090332 143.91821289 C45.15917749 140.84314075 51.15912499 137.47692443 57.17944336 134.15722656 C74.02804071 124.88367366 74.02804071 124.88367366 80.9934082 125.89477539 C84.79094359 128.02038701 87.40584379 130.83926993 88.9934082 134.89477539 C89.3293457 137.69946289 89.3293457 137.69946289 89.3684082 140.76977539 C89.39676758 141.77782227 89.42512695 142.78586914 89.4543457 143.82446289 C88.84173475 147.90507482 87.70355429 149.76194596 84.9934082 152.89477539 C82.05187822 154.97119292 78.93914186 156.61932054 75.7434082 158.26977539 C74.39170532 158.98955566 74.39170532 158.98955566 73.01269531 159.72387695 C67.28498907 162.75634117 61.50979317 165.69664223 55.69628906 168.56103516 C48.68569212 172.01797583 41.74701094 175.61353881 34.8059082 179.20727539 C34.18031006 179.53082001 33.55471191 179.85436462 32.91015625 180.18771362 C26.48173881 183.51280362 20.06102013 186.85086639 13.6652832 190.23852539 C12.23285278 190.99588989 12.23285278 190.99588989 10.77148438 191.76855469 C9.0168424 192.69816947 7.26424584 193.63165995 5.51416016 194.56982422 C-2.2527812 198.68504198 -9.09830047 201.22977143 -18.0065918 199.89477539 C-26.21037672 196.71685871 -31.97899233 188.77503699 -37.6730957 182.37036133 C-39.32606857 180.54125696 -41.05438708 178.80335819 -42.8190918 177.08227539 C-45.78065718 174.17793833 -48.47066813 171.08890787 -51.17456055 167.94555664 C-53.7289603 165.08615394 -56.45565869 162.42007864 -59.2097168 159.75415039 C-60.99663376 157.9050798 -62.50991532 155.98273146 -64.0065918 153.89477539 C-64.17674805 154.49805664 -64.3469043 155.10133789 -64.5222168 155.72290039 C-66.28707726 161.5431849 -67.83146938 164.98970194 -73.1940918 168.20727539 C-77.3272006 169.21759088 -80.90191975 168.99709015 -85.0065918 167.89477539 C-90.88318312 164.2357657 -91.674421 161.55911698 -95.0065918 154.89477539 C-95.0065918 142.35477539 -95.0065918 129.81477539 -95.0065918 116.89477539 C-120.4165918 116.89477539 -145.8265918 116.89477539 -172.0065918 116.89477539 C-172.3365918 119.86477539 -172.6665918 122.83477539 -173.0065918 125.89477539 C-174.3112793 129.25805664 -174.3112793 129.25805664 -175.8815918 132.20727539 C-176.39463867 133.1934082 -176.90768555 134.17954102 -177.4362793 135.19555664 C-179.0065918 137.89477539 -179.0065918 137.89477539 -180.8269043 139.87524414 C-181.21620117 140.54168945 -181.60549805 141.20813477 -182.0065918 141.89477539 C-180.85771674 146.10756619 -179.12521246 149.92855808 -177.20581055 153.84008789 C-176.64804932 154.98388916 -176.09028809 156.12769043 -175.515625 157.30615234 C-175.21951324 157.90964508 -174.92340149 158.51313782 -174.61831665 159.13491821 C-173.01702434 162.40058164 -171.42945487 165.67289303 -169.8425293 168.94555664 C-169.3547274 169.95119911 -169.3547274 169.95119911 -168.85707092 170.97715759 C-165.77127714 177.3535389 -162.78470313 183.77418004 -159.8190918 190.20727539 C-154.52274241 201.68269906 -149.12570092 213.10781836 -143.6940918 224.51977539 C-137.73124511 237.04963255 -131.78339797 249.58603863 -125.8815918 262.14477539 C-125.55879242 262.83162415 -125.23599304 263.5184729 -124.90341187 264.22613525 C-124.58063263 264.91294373 -124.25785339 265.5997522 -123.92529297 266.30737305 C-123.27271658 267.69588757 -122.62012868 269.08439668 -121.9675293 270.47290039 C-121.64466446 271.15988007 -121.32179962 271.84685974 -120.989151 272.55465698 C-117.17244837 280.67313646 -113.339232 288.78381126 -109.5065918 296.89477539 C-103.15675497 310.33355942 -96.81891852 323.77793372 -90.4987793 337.23071289 C-87.6844943 343.21916969 -84.86521371 349.20464854 -82.0065918 355.17211914 C-81.57540039 356.07373779 -81.14420898 356.97535645 -80.69995117 357.90429688 C-79.93384881 359.50311238 -79.16458792 361.10042043 -78.39135742 362.69580078 C-76.0065918 367.67417752 -76.0065918 367.67417752 -76.0065918 369.89477539 C-74.96898209 369.89255478 -73.93137238 369.89033417 -72.86231995 369.88804626 C-63.10582909 369.86781511 -53.34934246 369.85280338 -43.59283543 369.84296322 C-38.5763671 369.83773432 -33.55991565 369.83063656 -28.54345703 369.81933594 C-23.70649486 369.80850729 -18.86954896 369.80249861 -14.03257561 369.79989815 C-12.18290895 369.79804386 -10.33324322 369.79442317 -8.48358345 369.78904533 C-5.90212166 369.78183519 -3.32072798 369.78078444 -0.73925781 369.78125 C0.03325821 369.77765472 0.80577423 369.77405945 1.60169983 369.77035522 C6.87935604 369.78072323 6.87935604 369.78072323 7.9934082 370.89477539 C7.9934082 388.71477539 7.9934082 406.53477539 7.9934082 424.89477539 C-82.7565918 424.89477539 -173.5065918 424.89477539 -267.0065918 424.89477539 C-267.0065918 406.74477539 -267.0065918 388.59477539 -267.0065918 369.89477539 C-245.2265918 369.56477539 -223.4465918 369.23477539 -201.0065918 368.89477539 C-202.39104492 363.70887695 -203.77549805 358.52297852 -205.2019043 353.17993164 C-216.97365826 309.0731036 -228.71732032 264.95886329 -240.43080902 220.83652878 C-241.44599943 217.01258985 -242.46130275 213.18868092 -243.47662354 209.36477661 C-245.08175291 203.31933539 -246.68652159 197.27379853 -248.29097557 191.22817802 C-248.88582071 188.98688955 -249.48075065 186.74562357 -250.07576942 184.50438118 C-250.89080466 181.43423011 -251.70546795 178.36398059 -252.52001953 175.29370117 C-252.75929232 174.39265183 -252.9985651 173.4916025 -253.24508858 172.56324863 C-253.46415304 171.73720599 -253.68321751 170.91116335 -253.90892029 170.06008911 C-254.09805717 169.3473691 -254.28719404 168.63464909 -254.48206234 167.9003315 C-254.84235591 166.52273685 -255.15901822 165.13322049 -255.43847752 163.73698235 C-256.3391215 160.81649141 -258.41800116 160.12602448 -261.0065918 158.64477539 C-276.67486031 149.04947917 -285.38004937 136.40954314 -290.0065918 118.89477539 C-294.3978776 99.85593968 -291.62495996 78.70188724 -281.9128418 61.89086914 C-272.40562764 46.94817803 -259.33826475 36.1049773 -241.8815918 32.01977539 C-226.8039104 29.22577522 -210.64407393 31.18497897 -197.4675293 39.49633789 C-195.20341503 41.20025894 -193.09933471 42.98504802 -191.0065918 44.89477539 C-190.30791992 45.51352539 -189.60924805 46.13227539 -188.8894043 46.76977539 C-179.30279606 55.74139366 -173.15535265 68.00221027 -171.0065918 80.89477539 C-145.9265918 80.89477539 -120.8465918 80.89477539 -95.0065918 80.89477539 C-95.0065918 68.35477539 -95.0065918 55.81477539 -95.0065918 42.89477539 C-89.67325846 32.22810872 -89.67325846 32.22810872 -84.0065918 29.89477539 C-79.09686456 29.01553739 -75.24613076 29.38977804 -70.6315918 31.26977539 C-66.96381944 34.93754775 -65.58779948 39.02093522 -64.0065918 43.89477539 C-63.2228418 42.90477539 -62.4390918 41.91477539 -61.6315918 40.89477539 C-60.7653418 39.90477539 -59.8990918 38.91477539 -59.0065918 37.89477539 C-58.3465918 37.89477539 -57.6865918 37.89477539 -57.0065918 37.89477539 C-56.79389648 37.35336914 -56.58120117 36.81196289 -56.36206055 36.25415039 C-54.5163925 33.04151782 -51.96693206 30.68930105 -49.3190918 28.14477539 C-45.94530776 24.84267866 -42.61757245 21.56772343 -39.5690918 17.95727539 C-36.34555473 14.20308235 -32.95736245 10.62674537 -29.5065918 7.08227539 C-28.97235596 6.51839111 -28.43812012 5.95450684 -27.88769531 5.37353516 C-20.03374462 -2.59547418 -10.36523885 -4.94328892 0 0 Z M-253.0065918 77.89477539 C-259.13088273 85.98574003 -259.73008532 95.10427436 -259.0065918 104.89477539 C-257.59791551 113.89749749 -252.92325209 119.87225941 -246.6940918 126.26977539 C-239.71896819 130.48729199 -231.79159731 132.11911518 -223.79174805 130.42602539 C-215.7648318 128.1208597 -210.07958107 124.04390237 -205.6315918 116.95727539 C-200.24285743 107.11697785 -199.66259704 97.9725328 -202.5690918 87.20727539 C-205.38120945 78.8404801 -210.26199633 73.17901969 -218.0065918 68.89477539 C-231.22046565 62.60245451 -243.77587521 68.04503639 -253.0065918 77.89477539 Z " fill="#116BA7" transform="translate(537.006591796875,226.105224609375)"/>
</svg>
