<?xml version="1.0" encoding="UTF-8"?>
<svg version="1.1" xmlns="http://www.w3.org/2000/svg" width="1152" height="1317">
<path d="M0 0 C34.32 0 68.64 0 104 0 C112.09073089 27.73964877 112.09073089 27.73964877 115.62719727 41.14155579 C115.88574493 42.11983149 116.1442926 43.09810719 116.41067505 44.1060276 C116.67733978 45.11517912 116.94400452 46.12433064 117.21875 47.1640625 C117.79586818 49.33891459 118.37326899 51.5136917 118.95092773 53.68840027 C120.1717823 58.28651977 121.39093035 62.88508664 122.60864258 67.48403931 C124.52957808 74.73848418 126.45475543 81.99179894 128.38085938 89.24487305 C128.70446693 90.4635139 129.02807449 91.68215475 129.36148834 92.93772411 C130.01691584 95.40591475 130.6723546 97.8741024 131.32780457 100.34228706 C132.31340925 104.0542056 133.29865534 107.76621915 134.28381348 111.47825623 C140.33133912 134.26290483 146.40767711 157.03979262 152.5 179.8125 C152.7361565 180.69541214 152.972313 181.57832428 153.21562576 182.48799133 C160.75464106 210.67381056 168.3328551 238.84872056 176 267 C181.4061055 249.52850052 186.5031504 231.97262682 191.53808594 214.39157104 C193.37495466 207.98057118 195.21691183 201.57102935 197.05786514 195.16120148 C197.5504937 193.44586332 198.04305435 191.73050565 198.53554916 190.01512909 C202.63297759 175.74364929 206.7442982 161.47621047 210.86328125 147.2109375 C211.15486996 146.20105396 211.44645866 145.19117043 211.74688339 144.15068436 C214.42676495 134.86970592 217.10751942 125.58897969 219.78881836 116.30841064 C221.5639965 110.16404357 223.33883184 104.01957757 225.11328125 97.875 C225.40302952 96.87167004 225.69277779 95.86834007 225.9913063 94.83460617 C229.89046916 81.33061965 233.77647717 67.82292379 237.64822006 54.31105042 C238.40596909 51.666873 239.16411108 49.02280859 239.9223938 46.37878418 C240.40985628 44.67895657 240.89731363 42.97912749 241.38476562 41.27929688 C241.73845372 40.04596241 241.73845372 40.04596241 242.09928703 38.7877121 C243.47493219 33.98946966 244.84753469 29.19036959 246.21787548 24.39060974 C247.04783614 21.48593397 247.88039608 18.58200811 248.71367836 15.67828369 C249.09602086 14.34370362 249.47719848 13.0087892 249.85713768 11.67352295 C250.36947773 9.87329681 250.88614201 8.07430295 251.40307617 6.27539062 C251.68946457 5.27334595 251.97585297 4.27130127 252.2709198 3.2388916 C253 1 253 1 254 0 C257.13559886 -0.09534958 260.24913613 -0.12550879 263.38500977 -0.11352539 C264.86289474 -0.11374443 264.86289474 -0.11374443 266.37063599 -0.1139679 C269.64424807 -0.11326832 272.91780404 -0.10547385 276.19140625 -0.09765625 C278.45442168 -0.09579223 280.71743751 -0.09436825 282.98045349 -0.09336853 C288.94978948 -0.0895421 294.91910132 -0.07971075 300.88842773 -0.06866455 C306.97444329 -0.05845312 313.06046273 -0.05387149 319.14648438 -0.04882812 C331.09766689 -0.03808859 343.04883144 -0.02101068 355 0 C381.88510928 93.08862821 381.88510928 93.08862821 394.0625 135.4375 C394.37617083 136.52830557 394.37617083 136.52830557 394.69617844 137.64114761 C396.56674906 144.14619098 398.43713456 150.65128756 400.30729675 157.15644836 C404.33745885 171.17486034 408.36960695 185.19270045 412.40382862 199.20994473 C413.40461062 202.68725622 414.40527683 206.16460088 415.4055481 209.64205933 C420.90765475 228.76996068 426.44258974 247.88810509 432 267 C440.15674648 236.93687206 448.27359267 206.86340674 456.33183289 176.77372742 C457.42203277 172.70355137 458.51290291 168.63355505 459.60374451 164.56355095 C465.59440604 142.21119274 471.57485623 119.85612711 477.54203415 97.49748802 C478.47125914 94.01596384 479.4007054 90.53449882 480.33023071 87.05305481 C480.94134619 84.7641299 481.5524607 82.47520473 482.16357422 80.1862793 C482.46312578 79.06433702 482.76267735 77.94239473 483.07130623 76.7864542 C484.83189716 70.19156625 486.59071937 63.59620978 488.3481884 57.00048923 C489.44647465 52.88011138 490.54627854 48.76013961 491.64643478 44.6402607 C492.15052 42.75125109 492.65397542 40.86207327 493.15669632 38.97270012 C493.39128933 38.09112299 493.62588234 37.20954586 493.86758423 36.30125427 C494.06932566 35.54231086 494.27106709 34.78336744 494.47892189 34.00142574 C497.53105576 22.62419948 500.7619751 11.33308715 504 0 C537.66 0 571.32 0 606 0 C600.74789758 18.09057501 595.49373879 36.14805893 589.91308594 54.13525391 C589.50575615 55.44946386 589.09849136 56.76369395 588.69128418 58.07794189 C588.48628799 58.73937447 588.28129181 59.40080704 588.07008362 60.08228302 C586.07592113 66.52176306 584.09130302 72.96419797 582.10546875 79.40625 C581.88517124 80.12066883 581.66487373 80.83508766 581.43790054 81.57115555 C577.32619498 94.90770481 573.27150324 108.26096175 569.25 121.625 C562.87600315 142.80134587 556.46156502 163.96511342 550.02934265 185.1238327 C547.69110422 192.81552697 545.353309 200.50735596 543.015625 208.19921875 C542.75956734 209.04172432 542.50350967 209.88422989 542.23969269 210.75226593 C537.35133284 226.83708688 532.47413565 242.92527513 527.60124969 259.01478958 C518.9329739 287.63576282 510.24902263 316.2519623 501.55053711 344.86376953 C500.80139782 347.32796543 500.05225978 349.79216171 499.30312538 352.2563591 C498.81371898 353.86618893 498.32429724 355.4760141 497.83485985 357.0858345 C495.04147263 366.27408708 492.2523601 375.46360396 489.47265625 384.65600586 C488.13734499 389.07160971 486.79997093 393.48658725 485.46234131 397.90148926 C484.86846248 399.86395204 484.27570607 401.82675489 483.68414307 403.78991699 C482.89766418 406.39985412 482.10750961 409.00864915 481.31640625 411.6171875 C481.09162094 412.36710968 480.86683563 413.11703186 480.63523865 413.88967896 C479.11397133 418.88602867 479.11397133 418.88602867 478 420 C474.92545239 420.09532328 471.87340842 420.1255138 468.79858398 420.11352539 C467.34995972 420.11374443 467.34995972 420.11374443 465.87207031 420.1139679 C462.66338901 420.11326834 459.45476497 420.10547397 456.24609375 420.09765625 C454.02791882 420.09579222 451.80974348 420.09436825 449.59156799 420.09336853 C443.74059929 420.08954216 437.88965523 420.07971086 432.03869629 420.06866455 C426.07332696 420.05845299 420.10795367 420.05387146 414.14257812 420.04882812 C402.42837456 420.03808869 390.71418933 420.02101085 379 420 C370.10883609 389.36683557 361.34550835 358.69982891 352.6875 328 C352.43752384 327.11362728 352.18754768 326.22725456 351.92999649 325.31402206 C349.58892814 317.01247378 347.24857018 308.71072529 344.90873718 300.40882874 C340.96565651 286.41938754 337.01588581 272.4318448 333.0625 258.4453125 C332.77416605 257.42521843 332.4858321 256.40512436 332.18876076 255.35411835 C330.46645234 249.26093988 328.74395885 243.16781375 327.02139664 237.07470703 C324.65334808 228.69830981 322.28552193 220.32184974 319.91796875 211.9453125 C319.67157339 211.07356636 319.42517803 210.20182022 319.17131615 209.30365753 C313.77328011 190.20458129 308.38540772 171.1026404 303 152 C301.0542115 157.04784131 299.33013688 162.05266998 297.86889648 167.2668457 C297.67555001 167.95294544 297.48220354 168.63904518 297.28299809 169.34593582 C296.64249384 171.62166456 296.00684859 173.89872159 295.37109375 176.17578125 C294.90940512 177.81902163 294.4473592 179.46216165 293.98498535 181.10520935 C292.98980702 184.64357076 291.99657349 188.18246985 291.00485229 191.72180176 C288.584233 200.35933667 286.15224941 208.99367421 283.72024727 217.6280098 C283.15380923 219.63904488 282.5874791 221.65011036 282.02125359 223.66120529 C275.98543458 245.09653281 269.87559629 266.51043816 263.74765015 287.91958237 C261.32050927 296.39927266 258.89437025 304.87924962 256.46875 313.359375 C256.07055809 314.7513765 256.07055809 314.7513765 255.6643219 316.17149925 C251.52124958 330.65684787 247.39541886 345.14704159 243.28125 359.640625 C243.01058779 360.59411583 242.73992558 361.54760666 242.46106148 362.52999115 C239.86293588 371.68365705 237.26662804 380.83783741 234.67230034 389.99258041 C233.73837015 393.28785015 232.80396931 396.58298633 231.86950684 399.87810516 C231.23122768 402.12970392 230.59374082 404.38152594 229.95629883 406.63336182 C229.5749897 407.97824172 229.19364435 409.32311135 228.81225586 410.66796875 C228.48430527 411.82578857 228.15635468 412.9836084 227.81846619 414.17651367 C227.25227852 416.12970753 226.64308123 418.07075631 226 420 C193.33 420 160.66 420 127 420 C117.8125 389.8125 117.8125 389.8125 113.32943726 375.08198547 C109.35613416 362.02651125 105.38250476 348.97113655 101.40790939 335.91605568 C89.44990011 296.63806129 77.50904052 257.35487581 65.57695007 218.06900024 C60.79938945 202.33911179 56.02081913 186.60953016 51.24206924 170.88000298 C49.50293996 165.15553868 47.76390103 159.43104694 46.02490234 153.70654297 C40.62257825 135.92308208 35.21927619 118.13991886 29.81481552 100.35710716 C25.52566041 86.24393334 21.23856471 72.13013506 16.95315552 58.01582336 C14.51240323 49.97741639 12.06939248 41.93970534 9.62309265 33.90298462 C8.36031957 29.75291822 7.09963966 25.60221865 5.83969116 21.45129395 C5.287471 19.63369383 4.73429583 17.81638354 4.18008423 15.99938965 C3.45089039 13.60841629 2.72497507 11.21647399 2 8.82421875 C1.68792854 7.80563026 1.68792854 7.80563026 1.36955261 6.76646423 C0 2.22841206 0 2.22841206 0 0 Z " fill="#116BA7" transform="translate(493,836)"/>
<path d="M0 0 C38.61 0 77.22 0 117 0 C122.62478662 13.49948788 122.62478662 13.49948788 124.54174805 18.60131836 C124.97903732 19.76191269 125.4163266 20.92250702 125.86686707 22.11827087 C126.55731865 23.96044945 126.55731865 23.96044945 127.26171875 25.83984375 C127.76550148 27.17919427 128.26947968 28.51847128 128.77363586 29.85768127 C129.85039695 32.71911522 130.92585175 35.58103521 132.00024414 38.44335938 C133.72265598 43.03204663 135.44802681 47.61961789 137.17382812 52.20703125 C139.28323422 57.81465679 141.39198029 63.42252961 143.49984932 69.03073311 C147.18922221 78.84647581 150.88379488 88.6602498 154.58203125 98.47265625 C154.98064425 99.53029332 154.98064425 99.53029332 155.38731003 100.6092968 C156.72378282 104.15526217 158.06035439 107.70119029 159.39697266 111.24710083 C161.8237036 117.68510533 164.24957982 124.12343191 166.67551804 130.56173515 C167.48757189 132.71686741 168.29964507 134.87199238 169.11172485 137.02711487 C172.66761752 146.46386264 176.22330629 155.90068722 179.77892113 165.33753967 C193.23899809 201.06144599 206.70355524 236.78365912 220.17333984 272.50390625 C223.02848519 280.07545867 225.88341555 287.64709214 228.73828125 295.21875 C228.97617119 295.84967875 229.21406113 296.48060749 229.45915985 297.13065529 C231.84940056 303.4700248 234.23962005 309.80940232 236.62981415 316.14878941 C237.81440053 319.29060176 238.99899522 322.43241098 240.18359375 325.57421875 C240.41869911 326.19776937 240.65380447 326.82132 240.89603424 327.4637661 C244.17972697 336.17279359 247.46377774 344.881686 250.74807739 353.59048462 C252.59101892 358.47731717 254.43386454 363.36418589 256.27668953 368.25106239 C257.52926853 371.57267872 258.78190115 374.89427481 260.03466797 378.21582031 C260.27240999 378.84617502 260.51015202 379.47652973 260.75509834 380.1259861 C261.45390136 381.97879973 262.15271657 383.83160877 262.85153198 385.68441772 C264.1417133 389.10647637 265.43054238 392.52904191 266.71923828 395.95166016 C268.1325167 399.70402635 269.55190683 403.45392451 270.97998047 407.20068359 C271.2678392 407.95898972 271.55569794 408.71729584 271.85227966 409.49858093 C272.58415756 411.42590732 273.31914136 413.35205353 274.05444336 415.27807617 C275 418 275 418 275 420 C237.71 420 200.42 420 162 420 C158.86472177 412.47533224 155.89530665 405.12632154 153.328125 397.42578125 C153.00140808 396.45883835 152.67469116 395.49189545 152.33807373 394.49565125 C151.30471444 391.43593177 150.27687355 388.37440161 149.25 385.3125 C143.70049459 368.79681767 137.9032186 352.39782944 132 336 C82.83 336 33.66 336 -17 336 C-24.92 359.265 -24.92 359.265 -33 383 C-37.29 395.21 -41.58 407.42 -46 420 C-82.63 420 -119.26 420 -157 420 C-144.30902233 385.38824273 -144.30902233 385.38824273 -139.9765625 373.7265625 C-139.46737054 372.35478875 -138.95821141 370.98300281 -138.44908142 369.61120605 C-137.11689387 366.02248422 -135.78378936 362.43410384 -134.45030594 358.84586334 C-133.60612049 356.57419603 -132.76213903 354.302453 -131.91818237 352.03070068 C-121.94859471 325.19698948 -111.91763462 298.38666336 -101.85058594 271.58935547 C-96.58682321 257.57684169 -91.32936284 243.56196166 -86.07247543 229.54686737 C-85.48340502 227.97639043 -84.89431664 226.40592024 -84.30521011 224.83545685 C-76.62632023 204.36466154 -68.96657923 183.88702224 -61.35229492 163.39208984 C-57.25283702 152.35878245 -53.13514935 141.33248091 -49 130.3125 C-48.55821915 129.13513779 -48.55821915 129.13513779 -48.10751343 127.93399048 C-46.49896676 123.64758628 -44.88995034 119.36135855 -43.28076172 115.07519531 C-38.80170172 103.14483726 -34.32437226 91.2138302 -29.84837723 79.28232193 C-29.06579403 77.19628053 -28.28312958 75.11026963 -27.50045776 73.02426147 C-20.15032104 53.43326499 -12.82558011 33.83306573 -5.55688477 14.21166992 C-5.25004761 13.38458023 -4.94321045 12.55749054 -4.6270752 11.70533752 C-4.06376796 10.18684731 -3.50136347 8.66802177 -2.94006348 7.14878845 C-1.11266544 2.22533088 -1.11266544 2.22533088 0 0 Z M56 109 C55.57404541 110.20793213 55.14809082 111.41586426 54.70922852 112.66040039 C46.6929345 135.38376571 38.64042288 158.09324845 30.4375 180.75 C30.09245422 181.70355377 29.74740845 182.65710754 29.39190674 183.63955688 C25.79116891 193.58734911 22.17595392 203.52969846 18.5342865 213.46258545 C17.02736262 217.57331908 15.52350073 221.68517062 14.01956177 225.79699707 C12.95807741 228.69384317 11.89114971 231.5886449 10.82397461 234.48339844 C10.18317922 236.2336318 9.542622 237.98395239 8.90234375 239.734375 C8.60638306 240.53198242 8.31042236 241.32958984 8.00549316 242.15136719 C6.8854774 245.22713018 6 247.69945692 6 251 C39.99 251 73.98 251 109 251 C103.05565594 234.00945835 103.05565594 234.00945835 97.0234375 217.05078125 C96.57930008 215.81152893 96.13516266 214.57227661 95.67756653 213.29547119 C86.71206887 188.28957744 77.70834049 163.296836 68.5737915 138.35214233 C67.65037478 135.83001652 66.73025003 133.30672761 65.81292725 130.78237915 C64.54246904 127.29109874 63.26285427 123.80332008 61.98046875 120.31640625 C61.60445023 119.27792542 61.2284317 118.23944458 60.84101868 117.16949463 C60.49411484 116.23256775 60.147211 115.29564087 59.78979492 114.33032227 C59.49054611 113.51298111 59.1912973 112.69563995 58.88298035 111.85353088 C58.14578042 109.81657742 58.14578042 109.81657742 56 109 Z " fill="#116BA8" transform="translate(226,836)"/>
<path d="M0 0 C33 0 66 0 100 0 C100.01981934 7.72132324 100.03963867 15.44264648 100.06005859 23.39794922 C100.12499407 48.15994401 100.19953494 72.92190106 100.28005161 97.6838498 C100.29256909 101.53614052 100.30500208 105.3884315 100.31738281 109.24072266 C100.31984881 110.00757968 100.3223148 110.7744367 100.32485552 111.56453182 C100.36447842 123.94869116 100.39727185 136.33285951 100.42749982 148.71704493 C100.45871646 161.44335838 100.4973687 174.16963392 100.54279006 186.89590466 C100.57054173 194.73597615 100.5926318 202.57602021 100.60726251 210.41612734 C100.61914379 216.44828944 100.64141684 222.48036962 100.66738319 228.51248932 C100.67638932 230.97213118 100.68213274 233.4317877 100.68421364 235.89144516 C100.519485 276.7524209 100.519485 276.7524209 119.71484375 311.546875 C121 313 121 313 121 315 C121.56589844 315.26167969 122.13179687 315.52335937 122.71484375 315.79296875 C125.19362873 317.10227569 127.31288857 318.64104242 129.5625 320.3125 C134.76832449 323.99485526 140.09153632 326.63486904 146 329 C146.73863281 329.29777344 147.47726562 329.59554688 148.23828125 329.90234375 C170.30583023 338.01126029 198.21750004 336.04618068 219.5234375 326.6640625 C235.87061918 318.83945644 246.28786671 307.24530229 252.8125 290.25 C258.15020928 273.45861855 258.44461233 257.12940147 258.43237305 239.65209961 C258.44140493 237.0289311 258.45173562 234.40576679 258.46325684 231.78260803 C258.48589073 226.16855699 258.49790138 220.55456735 258.50238609 214.94047356 C258.5088858 206.82377591 258.5318895 198.70718856 258.55872939 190.59053571 C258.60185144 177.41706219 258.63190109 164.24359337 258.65356445 151.07006836 C258.6746181 138.2845632 258.70193118 125.49909628 258.73754883 112.71362305 C258.73974765 111.92354852 258.74194648 111.133474 258.74421193 110.31945782 C258.75528268 106.35529536 258.76647528 102.39113326 258.77772844 98.42697132 C258.87070676 65.61800415 258.93996181 32.80904808 259 0 C292.33 0 325.66 0 360 0 C360.06630557 33.60570553 360.12163253 67.21134687 360.15319599 100.81709826 C360.1569475 104.79684817 360.16083052 108.77659795 360.16479492 112.75634766 C360.16558185 113.54854635 360.16636878 114.34074504 360.16717956 115.15694976 C360.18018507 127.93478055 360.20381171 140.71257028 360.23145839 153.49037683 C360.2596485 166.63027435 360.2762048 179.77015058 360.28226548 192.9100771 C360.28635393 200.9989312 360.29920125 209.0876692 360.3237494 217.17648751 C360.3397752 222.7454379 360.34436293 228.31432949 360.34050413 233.8833012 C360.33860832 237.08223435 360.34294031 240.28092812 360.35761642 243.4798336 C360.58536417 295.74211089 347.45417785 345.01455721 310 383 C309.10152344 383.91136719 308.20304687 384.82273437 307.27734375 385.76171875 C294.69989384 397.88935615 279.81696918 406.75716824 264 414 C263.04609375 414.45761719 262.0921875 414.91523437 261.109375 415.38671875 C245.83026042 422.30597493 228.59440265 425.95130832 212 428 C211.27514404 428.0942627 210.55028809 428.18852539 209.8034668 428.28564453 C200.62103903 429.30459781 191.37973842 429.22196128 182.15258789 429.24023438 C179.23228492 429.2498525 176.31271416 429.28091229 173.39257812 429.3125 C156.43997477 429.40805773 139.6037072 427.842786 123.125 423.6875 C122.26753174 423.47585205 121.41006348 423.2642041 120.52661133 423.04614258 C78.92136569 412.40582066 45.45404606 385.68023632 23.41503906 349.16113281 C18.75602049 341.14984512 15.31418891 332.63657566 12 324 C11.52691406 322.77925781 11.05382812 321.55851562 10.56640625 320.30078125 C7.84325943 312.72517342 5.99679572 305.05064855 4.3125 297.1875 C4.10987549 296.25204346 3.90725098 295.31658691 3.69848633 294.3527832 C0.04305827 276.41114321 -0.2823512 258.69315828 -0.22705078 240.44677734 C-0.22648556 237.81360973 -0.22671774 235.18045325 -0.22793579 232.54728699 C-0.22897637 226.91468762 -0.22278731 221.28213515 -0.21146011 215.64954758 C-0.19509441 207.50612598 -0.18998589 199.3627267 -0.18748413 191.21929045 C-0.18312424 178.0019751 -0.16986182 164.78468466 -0.15087891 151.56738281 C-0.13247568 138.74023563 -0.11834102 125.91309525 -0.10986328 113.0859375 C-0.10933783 112.2931387 -0.10881239 111.50033991 -0.10827102 110.6835169 C-0.10566064 106.70564134 -0.1031333 102.72776573 -0.10064721 98.74989009 C-0.07996791 65.83323797 -0.04312715 32.91663226 0 0 Z " fill="#116BA8" transform="translate(700,116)"/>
<path d="M0 0 C2.98734818 0.01073708 5.97409536 0.00001465 8.96142578 -0.01269531 C27.32475379 -0.02861697 45.23563916 1.26746221 63.17626953 5.32324219 C63.84322845 5.47114197 64.51018738 5.61904175 65.19735718 5.77142334 C85.9273705 10.39849181 105.53258737 17.64837504 124.48876953 27.19824219 C125.16738037 27.53960205 125.84599121 27.88096191 126.54516602 28.23266602 C142.43140429 36.2631341 142.43140429 36.2631341 148.76733398 41.03759766 C150.69754315 42.45526502 150.69754315 42.45526502 153.80126953 44.11621094 C157.34840691 46.11859707 160.52392721 48.44018053 163.73876953 50.94824219 C164.29306641 51.37959473 164.84736328 51.81094727 165.41845703 52.25537109 C170.01929315 55.85174384 174.54945386 59.53344174 179.05126953 63.25292969 C180.77157558 64.66997666 182.52537163 66.04683211 184.30126953 67.39355469 C185.38408203 68.3178125 185.38408203 68.3178125 186.48876953 69.26074219 C186.48876953 69.92074219 186.48876953 70.58074219 186.48876953 71.26074219 C187.08689453 71.52886719 187.68501953 71.79699219 188.30126953 72.07324219 C190.48724807 73.25991625 191.90209547 74.35673331 193.48876953 76.26074219 C193.48876953 76.92074219 193.48876953 77.58074219 193.48876953 78.26074219 C194.05337891 78.49148437 194.61798828 78.72222656 195.19970703 78.95996094 C204.27268771 84.11576737 211.35488694 95.95454198 217.48876953 104.26074219 C217.9119043 104.83228027 218.33503906 105.40381836 218.77099609 105.99267578 C224.78993545 114.16319202 230.34720618 122.50436793 235.48876953 131.26074219 C235.97603516 132.08058594 236.46330078 132.90042969 236.96533203 133.74511719 C245.11035544 148.03303534 251.7634748 163.47682668 256.79882812 179.12695312 C257.26751182 180.57645612 257.7474248 182.02236636 258.23730469 183.46484375 C268.1760861 212.75875679 275.63765144 251.3687595 269.48876953 282.26074219 C265.58562848 280.68133162 263.24714816 278.15362245 260.36376953 275.13574219 C251.9467043 266.5350268 242.55942394 259.82712758 232.51611328 253.26464844 C229.48876953 251.26074219 229.48876953 251.26074219 228.48876953 250.26074219 C228.15484743 248.50435712 227.87636745 246.73737138 227.62158203 244.96777344 C227.37843262 243.31853882 227.37843262 243.31853882 227.13037109 241.63598633 C226.95989258 240.46028076 226.78941406 239.2845752 226.61376953 238.07324219 C225.34612247 229.53639513 223.98176004 221.10595186 222.00439453 212.70214844 C221.48876953 210.26074219 221.48876953 210.26074219 221.48876953 207.26074219 C186.83876953 207.26074219 152.18876953 207.26074219 116.48876953 207.26074219 C116.48876953 210.89074219 116.48876953 214.52074219 116.48876953 218.26074219 C102.95876953 218.26074219 89.42876953 218.26074219 75.48876953 218.26074219 C75.15876953 214.63074219 74.82876953 211.00074219 74.48876953 207.26074219 C27.62876953 207.26074219 -19.23123047 207.26074219 -67.51123047 207.26074219 C-70.06030406 232.16578677 -70.06030406 232.16578677 -70.69873047 256.93652344 C-70.68539842 258.38574155 -70.67398127 259.83497832 -70.66430664 261.28422546 C-70.63124758 265.71419039 -70.57302254 270.14359864 -70.51123047 274.57324219 C-70.43979593 279.82410122 -70.37936471 285.07471892 -70.34341431 290.32594872 C-70.32413488 292.39316147 -70.28674064 294.45951188 -70.24829102 296.52644348 C-70.23838135 297.76432114 -70.22847168 299.00219879 -70.21826172 300.27758789 C-70.19469604 301.90818901 -70.19469604 301.90818901 -70.1706543 303.57173157 C-70.56367915 306.67484947 -71.16523622 307.31959934 -73.51123047 309.26074219 C-74.89424598 311.57722158 -76.21426175 313.8974678 -77.51123047 316.26074219 C-78.28674219 317.61465779 -79.06414984 318.96748884 -79.84326172 320.31933594 C-88.1038417 334.83196985 -94.47169586 349.35069751 -99.51123047 365.26074219 C-112.15419507 366.07158285 -124.75828287 366.45487555 -137.42529297 366.57714844 C-139.26045111 366.59779303 -141.09560531 366.61879099 -142.93075562 366.64012146 C-147.69475042 366.6945693 -152.45878238 366.74430976 -157.22283936 366.79296875 C-162.1106689 366.84375884 -166.99844636 366.89914055 -171.88623047 366.95410156 C-181.42785236 367.06073344 -190.96952001 367.16237751 -200.51123047 367.26074219 C-199.10283939 369.62509078 -197.69238459 371.98816783 -196.28076172 374.35058594 C-195.69107605 375.34125061 -195.69107605 375.34125061 -195.08947754 376.35192871 C-190.7646657 383.58216113 -186.08315743 390.55374414 -181.28076172 397.47558594 C-179.51123047 400.26074219 -179.51123047 400.26074219 -179.51123047 402.26074219 C-178.85123047 402.26074219 -178.19123047 402.26074219 -177.51123047 402.26074219 C-176.05194505 404.04398302 -174.66894201 405.88994885 -173.32373047 407.76074219 C-167.56565048 415.64382789 -161.44820595 423.42087237 -153.69873047 429.44824219 C-152.97685547 430.04636719 -152.25498047 430.64449219 -151.51123047 431.26074219 C-151.51123047 431.92074219 -151.51123047 432.58074219 -151.51123047 433.26074219 C-150.61404297 433.69386719 -150.61404297 433.69386719 -149.69873047 434.13574219 C-147.51123047 435.26074219 -147.51123047 435.26074219 -144.51123047 437.26074219 C-144.51123047 437.92074219 -144.51123047 438.58074219 -144.51123047 439.26074219 C-143.98658203 439.4940625 -143.46193359 439.72738281 -142.92138672 439.96777344 C-139.72526157 441.68238839 -136.86905578 443.81120533 -133.94873047 445.94824219 C-123.91614382 453.19102563 -113.5924233 459.72014577 -102.51123047 465.26074219 C-101.81274414 467.09570312 -101.81274414 467.09570312 -101.17919922 469.49511719 C-100.94088379 470.37264648 -100.70256836 471.25017578 -100.45703125 472.15429688 C-100.08167236 473.5682373 -100.08167236 473.5682373 -99.69873047 475.01074219 C-96.26535285 487.42420328 -91.81841476 498.95142903 -86.18945312 510.52734375 C-85.8573584 511.2140918 -85.52526367 511.90083984 -85.18310547 512.60839844 C-84.88500977 513.2169165 -84.58691406 513.82543457 -84.27978516 514.45239258 C-83.46739948 516.36387311 -82.96313314 518.23638559 -82.51123047 520.26074219 C-124.71493472 508.41399037 -161.29304244 481.45700121 -191.94873047 450.94824219 C-192.96036255 449.94361938 -192.96036255 449.94361938 -193.99243164 448.91870117 C-204.51123047 438.36570342 -204.51123047 438.36570342 -204.51123047 435.26074219 C-205.17123047 435.26074219 -205.83123047 435.26074219 -206.51123047 435.26074219 C-207.49849573 433.8633496 -208.47571344 432.45738788 -209.39160156 431.01220703 C-210.48894127 429.29560977 -211.64601278 427.64715228 -212.84326172 425.99902344 C-225.96115565 407.88446174 -237.83492137 388.37059221 -245.51123047 367.26074219 C-246.09130859 365.68099609 -246.09130859 365.68099609 -246.68310547 364.06933594 C-247.54539277 361.68740033 -248.39381458 359.30041018 -249.22998047 356.90917969 C-250.03632497 354.61306456 -250.86639861 352.32501073 -251.72998047 350.04980469 C-254.82259662 341.54511026 -256.82433623 332.91687605 -258.69873047 324.07324219 C-258.94872803 322.91687256 -259.19872559 321.76050293 -259.45629883 320.5690918 C-262.99283316 303.25667532 -263.8447989 285.9779274 -263.77197266 268.34277344 C-263.76123885 265.26314624 -263.77195039 262.18410208 -263.78466797 259.10449219 C-263.7986214 241.73437145 -262.70506416 224.69774616 -258.94873047 207.69824219 C-258.56454956 205.94350586 -258.56454956 205.94350586 -258.17260742 204.15332031 C-253.58144617 184.06144088 -246.65114916 164.72354428 -237.51123047 146.26074219 C-237.17768555 145.5865625 -236.84414062 144.91238281 -236.50048828 144.21777344 C-226.40428016 124.08563307 -213.70711506 105.61785861 -198.82421875 88.75292969 C-197.69787154 87.4728564 -196.58554024 86.18047413 -195.47607422 84.88574219 C-189.62470384 78.06136489 -183.30726767 71.81045135 -176.48388672 65.95996094 C-175.22596309 64.87640296 -173.98198541 63.77628847 -172.75732422 62.65527344 C-153.27845157 44.94338276 -130.25003674 32.21474075 -106.51123047 21.26074219 C-105.33560547 20.71160156 -104.15998047 20.16246094 -102.94873047 19.59667969 C-87.87389113 12.8202495 -72.08833902 8.37363525 -55.94873047 4.94824219 C-54.82781006 4.70589844 -53.70688965 4.46355469 -52.55200195 4.21386719 C-35.18441059 0.70240729 -17.67817909 -0.07521398 0 0 Z M-7.51123047 50.26074219 C-10.68350336 53.80224685 -13.61036517 57.49545085 -16.51123047 61.26074219 C-17.14416016 62.03160156 -17.77708984 62.80246094 -18.42919922 63.59667969 C-33.66298402 83.00797661 -43.90434534 108.65173525 -50.51123047 132.26074219 C-51.3181476 134.82500568 -52.13106255 137.38738653 -52.94873047 139.94824219 C-55.63713691 148.6691704 -58.06873835 157.46777055 -60.51123047 166.26074219 C-18.27123047 166.26074219 23.96876953 166.26074219 67.48876953 166.26074219 C58.99027424 130.1421372 45.38979295 94.89166466 22.48876953 65.26074219 C21.215275 63.47096609 19.9445249 61.67923463 18.67626953 59.88574219 C15.4664672 55.46746847 12.06845733 51.24737434 8.55126953 47.07324219 C7.82363403 46.20723389 7.82363403 46.20723389 7.08129883 45.32373047 C5.90807303 43.94831088 4.70155301 42.60141145 3.48876953 41.26074219 C-0.04354347 41.26074219 -5.12537581 47.93233729 -7.51123047 50.26074219 Z M61.48876953 48.26074219 C61.95025391 49.06253906 62.41173828 49.86433594 62.88720703 50.69042969 C65.09686846 54.54205297 67.29462387 58.40026723 69.48876953 62.26074219 C69.90046387 62.98277832 70.3121582 63.70481445 70.73632812 64.44873047 C79.35392568 79.59692919 86.69534984 94.80177143 92.48876953 111.26074219 C92.78895996 112.1015332 93.08915039 112.94232422 93.3984375 113.80859375 C99.53617483 131.10897068 103.87645864 148.38803747 108.48876953 166.26074219 C140.82876953 166.26074219 173.16876953 166.26074219 206.48876953 166.26074219 C198.89446871 147.27499015 187.08108659 128.64360015 172.48876953 114.26074219 C171.20667061 112.81230309 169.93535343 111.35423162 168.67626953 109.88574219 C163.94826995 104.53210939 159.06065759 99.27043429 152.48876953 96.26074219 C152.48876953 95.60074219 152.48876953 94.94074219 152.48876953 94.26074219 C150.67107163 92.66680811 148.85676008 91.20791807 146.92626953 89.76074219 C146.34635254 89.32149414 145.76643555 88.88224609 145.16894531 88.4296875 C135.10557557 80.89489694 124.6969287 73.977053 113.48876953 68.26074219 C112.60584229 67.80103027 112.60584229 67.80103027 111.70507812 67.33203125 C99.08567007 60.76442868 86.21580979 55.44284349 72.73876953 50.88574219 C71.96355957 50.6226123 71.18834961 50.35948242 70.38964844 50.08837891 C67.31523221 49.07268086 64.74842235 48.26074219 61.48876953 48.26074219 Z M-57.51123047 48.26074219 C-90.61914895 58.81753116 -120.36052398 71.98033999 -146.51123047 95.26074219 C-147.45353516 96.0921875 -148.39583984 96.92363281 -149.36669922 97.78027344 C-165.05988655 111.75810499 -178.62406733 127.26742577 -189.51123047 145.26074219 C-190.03458984 146.11539063 -190.55794922 146.97003906 -191.09716797 147.85058594 C-197.33950974 156.57092065 -197.33950974 156.57092065 -200.51123047 166.26074219 C-167.84123047 166.26074219 -135.17123047 166.26074219 -101.51123047 166.26074219 C-99.86123047 158.67074219 -98.21123047 151.08074219 -96.51123047 143.26074219 C-87.94259477 111.53855895 -76.51520897 79.19183501 -57.52294922 52.05371094 C-57.02214844 51.16619141 -57.02214844 51.16619141 -56.51123047 50.26074219 C-56.84123047 49.60074219 -57.17123047 48.94074219 -57.51123047 48.26074219 Z M-215.51123047 207.26074219 C-220.60191481 226.29710757 -220.60191481 226.29710757 -222.67236328 245.56494141 C-222.68197083 246.52729706 -222.69157837 247.48965271 -222.70147705 248.48117065 C-222.70572693 249.49897614 -222.70997681 250.51678162 -222.71435547 251.56542969 C-222.72005554 252.64341827 -222.72575562 253.72140686 -222.73162842 254.83206177 C-222.74104198 257.10971101 -222.74759784 259.38737365 -222.75146484 261.66503906 C-222.76110295 265.09042272 -222.79213412 268.5151882 -222.82373047 271.94042969 C-222.91827671 290.93145694 -220.16061988 306.66318456 -215.51123047 325.26074219 C-180.86123047 325.26074219 -146.21123047 325.26074219 -110.51123047 325.26074219 C-111.00623047 316.35074219 -111.00623047 316.35074219 -111.51123047 307.26074219 C-111.69514035 302.11580653 -111.8745441 296.97398856 -112.01391602 291.828125 C-112.07392903 289.62846436 -112.13902403 287.42899359 -112.20458984 285.22949219 C-112.60295816 271.37753311 -112.67067667 257.54930619 -112.13623047 243.69824219 C-112.10529297 242.72306641 -112.07435547 241.74789062 -112.04248047 240.74316406 C-111.61978943 229.52071704 -110.48800842 218.49368859 -109.51123047 207.26074219 C-144.49123047 207.26074219 -179.47123047 207.26074219 -215.51123047 207.26074219 Z " fill="#116BA8" transform="translate(311.51123046875,49.7392578125)"/>
<path d="M0 0 C1.12254936 -0.01226624 1.12254936 -0.01226624 2.26777649 -0.02478027 C4.74532276 -0.04959789 7.22281176 -0.06614308 9.70043945 -0.08056641 C10.54824289 -0.08589008 11.39604633 -0.09121376 12.26954079 -0.09669876 C16.75911174 -0.12341765 21.24865504 -0.14279448 25.73828125 -0.15722656 C29.44654073 -0.17055247 33.1542482 -0.19838147 36.86230469 -0.23925781 C41.34622338 -0.28868323 45.82964233 -0.3133599 50.31382179 -0.32045364 C52.01820137 -0.32714952 53.72257053 -0.34232819 55.42679405 -0.36634445 C71.50161584 -0.57990604 71.50161584 -0.57990604 77.26026917 3.78793335 C83.90845633 10.62586926 83.27878899 19.14943674 83.3762207 28.19287109 C83.40442708 29.55358539 83.43436092 30.91426503 83.46606445 32.27490234 C83.53640591 35.58095094 83.58928299 38.8863087 83.6262207 42.19287109 C85.35223449 43.01204752 87.0821854 43.82293125 88.8137207 44.63037109 C89.77665039 45.08283203 90.73958008 45.53529297 91.73168945 46.00146484 C94.39253656 47.09668531 96.79406825 47.74241906 99.6262207 48.19287109 C99.6262207 47.53287109 99.6262207 46.87287109 99.6262207 46.19287109 C100.2862207 46.19287109 100.9462207 46.19287109 101.6262207 46.19287109 C101.87758789 45.61408203 102.12895508 45.03529297 102.38793945 44.43896484 C103.78214984 41.91003432 105.36412428 40.25856649 107.4387207 38.25537109 C109.766085 35.99929544 112.03828432 33.75137436 114.2512207 31.38037109 C119.24694238 26.7790485 123.47362247 25.85779992 130.0637207 25.79443359 C136.28585172 26.76189909 140.41191896 30.53907549 144.6809082 34.88427734 C145.22731964 35.43019028 145.77373108 35.97610321 146.33670044 36.53855896 C147.48141752 37.6856035 148.62247527 38.83631057 149.76000977 39.99047852 C151.50804363 41.76228682 153.26921307 43.52021006 155.0324707 45.27685547 C156.14524718 46.39520333 157.25725451 47.51431713 158.3684082 48.63427734 C158.89643036 49.16138809 159.42445251 49.68849884 159.96847534 50.23158264 C163.6262207 53.96179082 163.6262207 53.96179082 163.6262207 56.19287109 C164.45174438 56.53487549 164.45174438 56.53487549 165.29394531 56.88378906 C170.06413978 59.56124983 173.73428207 63.88907388 177.58984375 67.73095703 C179.17498922 69.30424235 180.77780843 70.85787574 182.38208008 72.41162109 C193.50962922 83.35910785 193.50962922 83.35910785 193.66699219 91.23291016 C193.07955374 98.62131124 189.98548209 103.33214565 184.6262207 108.19287109 C182.6262207 109.85953776 180.6262207 111.52620443 178.6262207 113.19287109 C176.9405083 114.84027185 175.26990211 116.50353187 173.6262207 118.19287109 C172.9662207 118.85287109 172.3062207 119.51287109 171.6262207 120.19287109 C171.88866958 124.52327752 173.93915583 128.25472156 175.78637695 132.10693359 C176.6262207 134.19287109 176.6262207 134.19287109 176.6262207 137.19287109 C177.5641748 137.17192383 178.50212891 137.15097656 179.46850586 137.12939453 C182.96860695 137.06097736 186.46799136 137.01095523 189.96850586 136.97314453 C191.47968806 136.95310318 192.99079343 136.92586204 194.50170898 136.89111328 C196.68142713 136.84226001 198.86011501 136.81982885 201.0402832 136.80224609 C202.3494873 136.78129883 203.65869141 136.76035156 205.00756836 136.73876953 C210.47624772 137.42502939 213.34147028 139.60545053 216.7673645 143.83843994 C218.94000356 147.75911338 219.19242655 150.85174129 219.14379883 155.21435547 C219.15431274 156.3862719 219.15431274 156.3862719 219.16503906 157.5818634 C219.18256639 160.15048334 219.17101565 162.71799101 219.1574707 165.28662109 C219.16016715 167.07971405 219.16405083 168.87280559 219.16906738 170.66589355 C219.17495528 174.41835493 219.16642244 178.17043466 219.14770508 181.92285156 C219.12491581 186.72477346 219.13804272 191.52580101 219.16199493 196.32769012 C219.17647215 200.02869362 219.17183813 203.72948625 219.16148376 207.43049622 C219.15882179 209.20066942 219.16206758 210.97086198 219.17140198 212.74101257 C219.18159955 215.21831733 219.16602316 217.69418833 219.14379883 220.17138672 C219.15594421 221.26100456 219.15594421 221.26100456 219.16833496 222.37263489 C219.08449653 227.43539079 217.73094326 230.2499122 214.6262207 234.19287109 C214.1724707 234.77037109 213.7187207 235.34787109 213.2512207 235.94287109 C208.94290458 239.25696042 203.93472239 239.43453925 198.6965332 239.38818359 C197.4074707 239.38173828 196.1184082 239.37529297 194.7902832 239.36865234 C193.44392628 239.35194573 192.09757212 239.33501589 190.7512207 239.31787109 C189.38143553 239.30782773 188.01164329 239.29870426 186.6418457 239.29052734 C183.30312315 239.26701521 179.96476309 239.23415039 176.6262207 239.19287109 C176.43286133 239.79615234 176.23950195 240.39943359 176.0402832 241.02099609 C175.64969727 242.21982422 175.64969727 242.21982422 175.2512207 243.44287109 C174.99598633 244.23177734 174.74075195 245.02068359 174.4777832 245.83349609 C173.6262207 248.19287109 173.6262207 248.19287109 172.52075195 250.36474609 C171.46904748 252.15338601 171.46904748 252.15338601 171.6887207 254.19287109 C173.02435367 257.04222143 175.14713711 258.27721559 177.6262207 260.19287109 C179.31354348 262.17547535 180.97988128 264.1761053 182.6262207 266.19287109 C184.963667 268.58732828 187.30890383 270.911819 189.8137207 273.13037109 C192.58906006 276.28851588 193.6262207 279.17795291 193.6262207 283.40380859 C193.01511454 291.06809845 189.87049976 295.1998247 184.45214844 300.60986328 C183.9379837 301.12592636 183.42381897 301.64198944 182.89407349 302.1736908 C181.20415778 303.86729218 179.50718406 305.55361791 177.80981445 307.23974609 C176.63025546 308.41811226 175.45106668 309.59684912 174.27223206 310.77593994 C171.8064782 313.24013292 169.33741037 315.70093892 166.86572266 318.15917969 C163.69398726 321.3138792 160.52892126 324.47516831 157.36607265 327.63877487 C154.93434437 330.07023167 152.50002206 332.49907692 150.06480598 334.9270401 C148.89638356 336.09227645 147.72856925 337.2581229 146.56136894 338.42458344 C144.93371347 340.05007735 143.30281216 341.6722397 141.67089844 343.29345703 C140.74284897 344.2176947 139.8147995 345.14193237 138.85862732 346.09417725 C134.47031581 350.21964539 129.9771499 349.72092688 124.1496582 349.63818359 C118.46019642 348.91911636 116.32393698 346.33978177 112.6262207 342.19287109 C110.79388782 340.34519824 108.94037862 338.52006535 107.0871582 336.69335938 C104.24338339 333.88286579 101.4355739 331.03773578 98.6262207 328.19287109 C97.08419454 328.64999347 95.54261856 329.10863456 94.0012207 329.56787109 C92.71344727 329.95072266 92.71344727 329.95072266 91.3996582 330.34130859 C88.4582626 331.24444133 85.54373275 332.21566331 82.6262207 333.19287109 C82.64978638 334.50892334 82.64978638 334.50892334 82.67382812 335.8515625 C82.72516446 339.12799061 82.76267067 342.40398707 82.79101562 345.68066406 C82.80603895 347.09479547 82.82646375 348.50888077 82.85253906 349.92285156 C82.88921025 351.96349506 82.90601107 354.00351902 82.91918945 356.04443359 C82.94275513 357.88255615 82.94275513 357.88255615 82.96679688 359.7578125 C82.33613291 366.11870282 79.34993881 370.05961775 74.6262207 374.19287109 C71.01638241 375.39615052 67.70409819 375.356163 63.9453125 375.36987305 C63.16447296 375.37644424 62.38363342 375.38301544 61.57913208 375.38978577 C58.99456688 375.40949942 56.41005972 375.42117673 53.82543945 375.43115234 C52.50034331 375.43726563 52.50034331 375.43726563 51.14847755 375.44350243 C46.47317362 375.46435442 41.79789896 375.47866019 37.12255859 375.48803711 C32.29711048 375.49910279 27.47212334 375.53350688 22.64683819 375.57320881 C18.93302053 375.5993691 15.21931284 375.60772839 11.50541115 375.61131859 C9.72683408 375.61618567 7.94826196 375.62780317 6.16977501 375.64635658 C3.67791694 375.6707372 1.18725364 375.6697854 -1.3046875 375.6628418 C-2.40137505 375.68205688 -2.40137505 375.68205688 -3.5202179 375.70166016 C-8.60821871 375.65011783 -11.44962065 374.37681313 -15.3737793 371.19287109 C-19.22400245 366.64602469 -19.85871729 363.50149588 -19.7644043 357.60693359 C-19.75874451 356.90514984 -19.75308472 356.20336609 -19.74725342 355.48031616 C-19.72502413 353.25878023 -19.67485986 351.03891186 -19.6237793 348.81787109 C-19.60369661 347.30357162 -19.58544894 345.78924664 -19.5690918 344.27490234 C-19.52520563 340.58035841 -19.45627507 336.88677776 -19.3737793 333.19287109 C-20.52499268 332.97655029 -20.52499268 332.97655029 -21.69946289 332.75585938 C-25.59371992 331.93605321 -29.15974647 330.40118551 -32.8503418 328.93505859 C-35.46351933 327.90552639 -35.46351933 327.90552639 -38.3737793 329.19287109 C-38.3737793 329.85287109 -38.3737793 330.51287109 -38.3737793 331.19287109 C-39.0337793 331.19287109 -39.6937793 331.19287109 -40.3737793 331.19287109 C-40.6419043 331.79099609 -40.9100293 332.38912109 -41.1862793 333.00537109 C-42.37295336 335.19134963 -43.46977042 336.60619703 -45.3737793 338.19287109 C-46.0337793 338.19287109 -46.6937793 338.19287109 -47.3737793 338.19287109 C-47.63674805 338.78841797 -47.8997168 339.38396484 -48.1706543 339.99755859 C-50.60900367 344.44675453 -54.73320578 347.35435574 -59.1862793 349.63037109 C-64.79896568 350.62084516 -69.79223586 350.6797094 -74.8425293 347.77099609 C-79.35167652 344.37410519 -82.90886386 340.62026304 -86.3737793 336.19287109 C-88.0197444 334.50575686 -89.68615078 332.83830889 -91.3737793 331.19287109 C-92.5803418 329.95537109 -92.5803418 329.95537109 -93.8112793 328.69287109 C-96.3718298 326.11923994 -96.3718298 326.11923994 -99.3737793 323.75537109 C-102.45281811 321.12535878 -104.82456331 318.33036769 -107.3737793 315.19287109 C-109.0197444 313.50575686 -110.68615078 311.83830889 -112.3737793 310.19287109 C-113.1781543 309.36787109 -113.9825293 308.54287109 -114.8112793 307.69287109 C-117.33942713 305.13569843 -117.33942713 305.13569843 -120.2487793 302.94287109 C-125.25458723 298.71922065 -129.85474527 294.57253538 -130.88549805 287.86083984 C-130.95910686 282.81580518 -131.01578474 278.61047534 -128.3737793 274.19287109 C-127.7137793 274.19287109 -127.0537793 274.19287109 -126.3737793 274.19287109 C-126.0644043 273.38849609 -126.0644043 273.38849609 -125.7487793 272.56787109 C-123.84127504 269.27309101 -121.32558546 266.59923481 -118.3737793 264.19287109 C-117.7137793 264.19287109 -117.0537793 264.19287109 -116.3737793 264.19287109 C-116.0334668 263.35755859 -116.0334668 263.35755859 -115.6862793 262.50537109 C-114.3737793 260.19287109 -114.3737793 260.19287109 -111.6862793 257.81787109 C-109.08397654 255.43177147 -109.08397654 255.43177147 -109.3112793 252.44287109 C-110.21549147 249.67704561 -111.24864698 247.13760957 -112.44018555 244.48974609 C-112.80184814 243.68375977 -113.16351074 242.87777344 -113.53613281 242.04736328 C-113.81255615 241.43538086 -114.08897949 240.82339844 -114.3737793 240.19287109 C-115.25114746 240.17828857 -116.12851562 240.16370605 -117.0324707 240.14868164 C-120.30927251 240.08737429 -123.58526873 240.01317776 -126.86157227 239.93041992 C-128.2755242 239.89730818 -129.68960394 239.86923393 -131.10375977 239.84643555 C-133.14483753 239.81263334 -135.18475858 239.76031145 -137.2253418 239.70458984 C-138.45075684 239.67840576 -139.67617187 239.65222168 -140.9387207 239.62524414 C-145.94015223 238.99571072 -150.05014326 237.22055082 -153.1862793 233.19287109 C-156.46396328 228.69776163 -156.53474636 225.08479603 -156.56665039 219.72729492 C-156.57891663 218.5901152 -156.57891663 218.5901152 -156.59143066 217.42996216 C-156.61624979 214.91995017 -156.63279379 212.40999472 -156.6472168 209.89990234 C-156.65254047 209.04106634 -156.65786415 208.18223034 -156.66334915 207.297369 C-156.69006859 202.74944324 -156.70944531 198.20154478 -156.72387695 193.65356445 C-156.7372034 189.89680565 -156.76503339 186.14059165 -156.8059082 182.3840332 C-156.85532877 177.84176083 -156.88000971 173.29998174 -156.88710403 168.75745201 C-156.89380066 167.03074446 -156.90898127 165.30404722 -156.93299484 163.57749367 C-157.15145676 146.91660124 -157.15145676 146.91660124 -152.83831787 141.54089355 C-148.25001868 137.31763138 -144.07365009 136.82469088 -138.0065918 136.89990234 C-137.32700409 136.90414719 -136.64741638 136.90839203 -135.94723511 136.9127655 C-133.79733005 136.92942844 -131.64839631 136.96705393 -129.4987793 137.00537109 C-128.0326471 137.0204341 -126.56650006 137.03411967 -125.1003418 137.04638672 C-121.52451055 137.07929029 -117.94923988 137.13098446 -114.3737793 137.19287109 C-114.17461914 136.58596436 -113.97545898 135.97905762 -113.77026367 135.35375977 C-113.37291016 134.1507019 -113.37291016 134.1507019 -112.9675293 132.92333984 C-112.70649414 132.13080811 -112.44545898 131.33827637 -112.17651367 130.52172852 C-111.47675412 128.4916171 -110.68288832 126.49443077 -109.8737793 124.50537109 C-108.97308328 121.04181005 -108.97308328 121.04181005 -111.4362793 118.06787109 C-112.39192596 117.08608212 -113.37593502 116.13174112 -114.3737793 115.19287109 C-116.04044596 113.52620443 -117.70711263 111.85953776 -119.3737793 110.19287109 C-120.68088867 108.90316406 -120.68088867 108.90316406 -122.0144043 107.58740234 C-122.87549805 106.73533203 -123.7365918 105.88326172 -124.6237793 105.00537109 C-125.93088867 103.71566406 -125.93088867 103.71566406 -127.2644043 102.39990234 C-130.5111514 99.00284288 -130.65694273 96.76525274 -130.8737793 92.13037109 C-130.9459668 91.04626953 -131.0181543 89.96216797 -131.0925293 88.84521484 C-129.21766858 79.31806938 -119.24265408 71.7504308 -112.61987305 65.13818359 C-111.59028406 64.10469698 -110.56091506 63.07099116 -109.53175354 62.03707886 C-107.38944885 59.88736976 -105.24338635 57.74150086 -103.09472656 55.59814453 C-100.35044973 52.8596918 -97.61778188 50.10996469 -94.88799953 47.35707283 C-92.77163051 45.22594387 -90.64834512 43.10181183 -88.52302742 40.97961044 C-87.51243871 39.96851088 -86.50418868 38.95506785 -85.49841118 37.93918228 C-84.09225881 36.520623 -82.67547029 35.11263114 -81.25830078 33.70507812 C-80.45778793 32.90393585 -79.65727509 32.10279358 -78.83250427 31.27737427 C-73.63842038 26.8738381 -69.30966027 25.72544128 -62.69018555 25.98193359 C-55.52983087 26.63397264 -50.57260482 31.62329221 -45.92456055 36.81005859 C-44.73127045 38.26308691 -43.55222432 39.72777728 -42.3737793 41.19287109 C-39.78092505 43.90919459 -37.50023149 46.10856963 -34.3737793 48.19287109 C-31.18054942 47.09676505 -31.18054942 47.09676505 -27.8112793 45.31787109 C-21.52624566 42.19287109 -21.52624566 42.19287109 -19.3737793 42.19287109 C-19.39734497 40.83137939 -19.39734497 40.83137939 -19.42138672 39.44238281 C-19.4727106 36.05414038 -19.51022346 32.66631491 -19.53857422 29.27783203 C-19.55360126 27.81520035 -19.57402885 26.35261327 -19.60009766 24.89013672 C-19.63675197 22.77999829 -19.65356606 20.67045883 -19.66674805 18.56005859 C-19.69031372 16.65909424 -19.69031372 16.65909424 -19.71435547 14.71972656 C-19.3398558 10.84157445 -18.42257264 8.48736196 -16.3737793 5.19287109 C-10.89067518 0.96631167 -6.748511 0.04071979 0 0 Z M-8.3737793 65.19287109 C-9.03458496 65.41491211 -9.69539063 65.63695312 -10.3762207 65.86572266 C-28.71135492 72.12524018 -44.37209185 81.77129123 -58.3737793 95.19287109 C-59.2606543 96.03849609 -60.1475293 96.88412109 -61.0612793 97.75537109 C-67.24213536 103.27131863 -67.24213536 103.27131863 -70.3737793 110.19287109 C-71.0337793 110.19287109 -71.6937793 110.19287109 -72.3737793 110.19287109 C-93.23529213 138.14660636 -100.92823088 172.5892673 -96.9128418 207.09130859 C-96.25964951 210.87982388 -95.42505648 214.49554906 -94.3737793 218.19287109 C-94.07576416 219.24958008 -94.07576416 219.24958008 -93.77172852 220.32763672 C-88.21668916 239.55181784 -79.08779905 255.78737539 -66.3737793 271.19287109 C-65.8581543 271.83353516 -65.3425293 272.47419922 -64.8112793 273.13427734 C-55.21588078 284.78955761 -41.92802476 294.6547401 -28.3737793 301.19287109 C-27.4451709 301.66055908 -27.4451709 301.66055908 -26.49780273 302.13769531 C3.42148228 317.11167385 37.3239692 319.07271987 69.1809082 309.35302734 C78.22053383 306.30907177 86.93234542 303.18481809 94.7277832 297.54833984 C96.6262207 296.19287109 96.6262207 296.19287109 100.0012207 294.38037109 C105.38385558 291.38308021 109.94856428 287.16179169 114.6262207 283.19287109 C115.36485352 282.57927734 116.10348633 281.96568359 116.86450195 281.33349609 C139.87796212 261.85025603 153.91869563 231.84910008 157.6262207 202.19287109 C158.53149133 185.58583747 158.35392807 169.22697161 153.6262207 153.19287109 C153.43898438 152.52803711 153.25174805 151.86320312 153.05883789 151.17822266 C149.11153046 137.37287283 142.59464983 125.0719277 134.6262207 113.19287109 C133.9662207 112.20287109 133.3062207 111.21287109 132.6262207 110.19287109 C131.9662207 110.19287109 131.3062207 110.19287109 130.6262207 110.19287109 C130.36711914 109.45552734 130.10801758 108.71818359 129.84106445 107.95849609 C125.96010072 99.12337608 117.04686607 92.93788686 109.6262207 87.19287109 C108.91208008 86.63599609 108.19793945 86.07912109 107.4621582 85.50537109 C105.53906885 84.03432267 103.59180966 82.60650679 101.6262207 81.19287109 C100.97782227 80.71333984 100.32942383 80.23380859 99.66137695 79.73974609 C83.81901702 68.52913757 63.83015831 61.95900738 44.6262207 60.19287109 C43.50860352 60.06009766 42.39098633 59.92732422 41.23950195 59.79052734 C24.66312512 58.16753775 7.41230985 59.87874207 -8.3737793 65.19287109 Z " fill="#116BA8" transform="translate(376.373779296875,276.80712890625)"/>
<path d="M0 0 C2.95451691 1.07246802 5.59697637 2.55262472 8.3125 4.125 C9.42661255 4.74242065 9.42661255 4.74242065 10.56323242 5.37231445 C12.71679016 6.56795624 14.85851437 7.78291539 17 9 C18.93515958 10.06675672 20.87228329 11.12996909 22.8125 12.1875 C23.65425781 12.65285156 24.49601563 13.11820312 25.36328125 13.59765625 C29.33038138 15.7075658 33.39611464 17.61082182 37.46875 19.5078125 C40.16228135 21.09566586 41.49265011 22.27241448 43 25 C43.25503062 27.9383963 42.66423469 30.05838921 42 33 C39 35 39 35 36.19848633 34.81152344 C32.74110751 33.93431352 29.97829594 32.67810328 26.82421875 31.015625 C25.66599609 30.40976562 24.50777344 29.80390625 23.31445312 29.1796875 C22.10541277 28.53656356 20.89642871 27.89333379 19.6875 27.25 C18.49062435 26.62165244 17.29336139 25.99404206 16.09570312 25.3671875 C10.24278632 22.28978033 4.46529702 19.18565144 -1.12182617 15.64355469 C-3.03996865 14.77045412 -3.03996865 14.77045412 -5.11132812 15.73486328 C-7.73046287 17.48930437 -9.37017935 19.64793743 -11.3125 22.125 C-21.03470274 34.32572482 -21.03470274 34.32572482 -25.13671875 37.8203125 C-28.3747599 41.6082097 -28.02713111 45.39132425 -27.90234375 50.203125 C-26.29653474 56.96003564 -21.51493294 60.81632819 -16.58642578 65.43310547 C-13.34324749 68.63635544 -10.69818512 72.33495435 -7.9375 75.953125 C-6.17166479 78.05959566 -6.17166479 78.05959566 -4.03125 78.95703125 C-1.18917462 79.01715208 0.14441155 78.00396632 2.5 76.4375 C7.10929271 73.51043091 11.79706926 71.04209124 16.70703125 68.66015625 C19.14853476 67.42926777 21.51422658 66.16072188 23.88671875 64.80859375 C24.54905518 64.43653809 25.2113916 64.06448242 25.89379883 63.68115234 C27.18640247 62.95130516 28.47188096 62.20864875 29.7487793 61.45166016 C32.8571673 59.71277824 34.76795249 58.9881278 38.359375 59.171875 C41 60 41 60 42.375 61.6875 C43.19641625 64.72674012 43.44860801 66.85974396 43 70 C39.11098252 74.70371284 34.53310998 77.12088379 29.1875 79.8125 C28.35524902 80.24046875 27.52299805 80.6684375 26.66552734 81.109375 C24.11548871 82.41663953 21.55858351 83.70955379 19 85 C17.45697134 85.7850385 15.91399976 86.57018923 14.37109375 87.35546875 C-2.61463562 95.95035842 -2.61463562 95.95035842 -8 95 C-13.52303861 91.3256292 -17.84745242 86.10719894 -22.140625 81.11328125 C-24.01394836 78.98414693 -25.97512655 76.98455517 -28 75 C-28.70125 75.825 -29.4025 76.65 -30.125 77.5 C-33 80 -33 80 -36.0625 80.5625 C-39.61734581 79.88178485 -40.777046 78.79927541 -43 76 C-44.1482685 73.703463 -44.11561175 72.41686833 -44.09765625 69.8671875 C-44.09515869 69.14128418 -44.09266113 68.41538086 -44.09008789 67.66748047 C-44.08098389 66.74596191 -44.07187988 65.82444336 -44.0625 64.875 C-44.041875 61.94625 -44.02125 59.0175 -44 56 C-55.55 56 -67.1 56 -79 56 C-79.33 58.31 -79.66 60.62 -80 63 C-80.556875 63.680625 -81.11375 64.36125 -81.6875 65.0625 C-82.120625 65.701875 -82.55375 66.34125 -83 67 C-81.91699371 70.94984858 -80.35191008 74.5691346 -78.56640625 78.24609375 C-77.84928467 79.7304895 -77.84928467 79.7304895 -77.11767578 81.24487305 C-76.60446777 82.29843994 -76.09125977 83.35200684 -75.5625 84.4375 C-74.46730791 86.70305732 -73.37225874 88.96868374 -72.27734375 91.234375 C-71.44952393 92.94270508 -71.44952393 92.94270508 -70.60498047 94.68554688 C-59.68026968 117.2462213 -48.98236771 139.92276757 -38.625 162.75 C-38.24972168 163.57137451 -37.87444336 164.39274902 -37.48779297 165.23901367 C-35 170.76297116 -35 170.76297116 -35 173 C-21.8 173 -8.6 173 5 173 C5 181.91 5 190.82 5 200 C-37.57 200 -80.14 200 -124 200 C-124 191.09 -124 182.18 -124 173 C-114.1 172.67 -104.2 172.34 -94 172 C-95.11375 167.83375 -96.2275 163.6675 -97.375 159.375 C-99.78208743 150.36107505 -102.17685308 141.3440602 -104.546875 132.3203125 C-104.75963074 131.51036331 -104.97238647 130.70041412 -105.19158936 129.86592102 C-106.05095982 126.59333539 -106.91001143 123.32066771 -107.76745605 120.0475769 C-109.79441547 112.3107019 -111.82412612 104.57638919 -113.96875 96.87109375 C-114.25347168 95.84757812 -114.53819336 94.8240625 -114.83154297 93.76953125 C-115.34019404 91.95403818 -115.85434978 90.14007303 -116.37548828 88.328125 C-117.46369182 84.45255097 -118.3113247 81.07179935 -118 77 C-119.0828125 76.62875 -119.0828125 76.62875 -120.1875 76.25 C-127.42786573 73.03205968 -131.17302084 67.41785205 -134.12109375 60.2890625 C-135.21179013 56.20743428 -135.38382248 52.4578804 -135.375 48.25 C-135.37338867 47.45376221 -135.37177734 46.65752441 -135.37011719 45.8371582 C-135.19492061 37.40968769 -133.11747369 30.11747369 -127 24 C-126.34 24 -125.68 24 -125 24 C-124.773125 23.401875 -124.54625 22.80375 -124.3125 22.1875 C-121.89548428 18.15914046 -118.24471179 16.92255236 -113.875 15.75 C-105.1424229 14.01803888 -96.78138491 15.3754673 -89.23046875 20.109375 C-82.84334925 24.84057463 -81.94634513 29.10730974 -78 37 C-66.78 37.33 -55.56 37.66 -44 38 C-44 32.39 -44 26.78 -44 21 C-41 16 -41 16 -40 15 C-34.80145059 14.48866727 -34.80145059 14.48866727 -32 15 C-29.5 17.5 -29.5 17.5 -28 20 C-27.57589844 19.50371094 -27.15179688 19.00742187 -26.71484375 18.49609375 C-22.65547482 13.79436315 -18.43473842 9.34648492 -14 5 C-12.8553125 3.824375 -12.8553125 3.824375 -11.6875 2.625 C-8.26566568 -0.67009971 -4.52166118 -0.58836073 0 0 Z M-118 39 C-120.48805915 42.83575786 -120.17337478 46.39973586 -119.53125 50.78515625 C-118.70039085 54.2491058 -117.38267662 56.36651531 -115 59 C-111.38445116 61.07559285 -109.05158459 62.04206338 -104.875 61.875 C-100.00000646 60.39130631 -97.20550203 58.82017987 -94.625 54.375 C-92.51877485 49.74471555 -92.70940463 45.85598116 -94 41 C-95.81124903 36.83412723 -97.78755162 34.73992433 -102 33 C-109.13625892 31.65859795 -113.36555275 33.51218428 -118 39 Z " fill="#116BA8" transform="translate(456,365)"/>
</svg>
