<?xml version="1.0" encoding="UTF-8"?>
<svg version="1.1" xmlns="http://www.w3.org/2000/svg" width="2475" height="923">
<path d="M0 0 C2.72770813 0.00460257 5.45496722 -0.00219813 8.18261719 -0.02050781 C56.41269571 -0.34079232 101.31236876 8.71888426 146.24316406 26.06567383 C147.29153442 26.46967407 147.29153442 26.46967407 148.36108398 26.88183594 C152.42270721 28.48701948 156.3183528 30.30435952 160.20751953 32.28930664 C164.40990248 34.40813824 168.70170274 36.34607149 172.97558594 38.31567383 C177.53995598 40.44211374 181.9033009 42.76080038 186.24316406 45.31567383 C186.24316406 45.97567383 186.24316406 46.63567383 186.24316406 47.31567383 C186.98566406 47.43942383 187.72816406 47.56317383 188.49316406 47.69067383 C191.04457891 48.27054084 192.96992137 49.05276122 195.24316406 50.31567383 C195.24316406 50.97567383 195.24316406 51.63567383 195.24316406 52.31567383 C197.71816406 52.81067383 197.71816406 52.81067383 200.24316406 53.31567383 C200.24316406 53.97567383 200.24316406 54.63567383 200.24316406 55.31567383 C200.96503906 55.58379883 201.68691406 55.85192383 202.43066406 56.12817383 C211.23673289 59.84629178 218.80060248 66.14815677 226.27050781 72.01098633 C228.65763741 73.86171755 231.06287434 75.6135265 233.55566406 77.31567383 C234.44253906 77.97567383 235.32941406 78.63567383 236.24316406 79.31567383 C236.24316406 79.97567383 236.24316406 80.63567383 236.24316406 81.31567383 C236.75878906 81.54254883 237.27441406 81.76942383 237.80566406 82.00317383 C242.33841648 84.44388667 246.82953065 87.42475428 250.24316406 91.31567383 C250.24316406 91.97567383 250.24316406 92.63567383 250.24316406 93.31567383 C251.09575806 93.6793103 251.09575806 93.6793103 251.96557617 94.05029297 C254.67884769 95.55773067 256.50500454 97.35200427 258.68457031 99.56176758 C259.93077148 100.81763672 259.93077148 100.81763672 261.20214844 102.09887695 C262.06130859 102.97479492 262.92046875 103.85071289 263.80566406 104.75317383 C265.10020508 106.06125 265.10020508 106.06125 266.42089844 107.39575195 C268.02352375 109.01581064 269.62408763 110.63791301 271.22192383 112.26269531 C272.46094391 113.52117096 273.72040522 114.7603833 275.01245117 115.96435547 C276.24316406 117.31567383 276.24316406 117.31567383 276.24316406 119.31567383 C276.90316406 119.31567383 277.56316406 119.31567383 278.24316406 119.31567383 C279.99553511 121.36405349 281.62943166 123.41249374 283.24316406 125.56567383 C283.69433594 126.15219727 284.14550781 126.7387207 284.61035156 127.34301758 C286.79281027 130.21637298 288.79823623 132.99890767 290.24316406 136.31567383 C290.90316406 136.31567383 291.56316406 136.31567383 292.24316406 136.31567383 C293.23156362 137.70957065 294.20970415 139.11233546 295.12402344 140.5559082 C296.23457127 142.3021623 297.40314753 143.98883389 298.60253906 145.67504883 C299.19228516 146.51229492 299.19228516 146.51229492 299.79394531 147.36645508 C300.6059833 148.51706265 301.42118642 149.66544184 302.23925781 150.81176758 C305.24316406 155.09308247 305.24316406 155.09308247 305.24316406 157.31567383 C305.90316406 157.31567383 306.56316406 157.31567383 307.24316406 157.31567383 C312.61446247 166.72569661 312.61446247 166.72569661 314.24316406 171.31567383 C314.90316406 171.31567383 315.56316406 171.31567383 316.24316406 171.31567383 C319.24316406 176.94067383 319.24316406 176.94067383 319.24316406 180.31567383 C319.90316406 180.31567383 320.56316406 180.31567383 321.24316406 180.31567383 C321.75105469 181.34305664 322.25894531 182.37043945 322.78222656 183.42895508 C323.47704917 184.8289379 324.17239906 186.22865912 324.86816406 187.62817383 C325.23135742 188.35931396 325.59455078 189.0904541 325.96875 189.84375 C328.04574361 194.00002063 330.20123276 198.08497194 332.49316406 202.12817383 C334.89963189 206.45981592 336.65124146 210.80802509 338.18847656 215.51489258 C339.06051826 217.83064776 340.02245796 219.8980486 341.15332031 222.08911133 C343.32876184 226.36330255 344.99032582 230.72436254 346.55566406 235.25317383 C346.85126221 236.10435791 347.14686035 236.95554199 347.45141602 237.83251953 C351.20044649 248.85191701 354.27876945 260.06370366 357.24316406 271.31567383 C357.45602051 272.12166016 357.66887695 272.92764648 357.88818359 273.75805664 C360.85195209 285.15716624 362.68447362 296.64925602 364.24316406 308.31567383 C364.34371094 309.03722656 364.44425781 309.7587793 364.54785156 310.50219727 C366.92473564 327.66233673 367.32073506 344.8847349 367.36816406 362.19067383 C367.37283691 363.37314697 367.37750977 364.55562012 367.38232422 365.77392578 C367.37125828 371.7167615 367.15257326 377.44060173 366.24316406 383.31567383 C364.92316406 382.65567383 363.60316406 381.99567383 362.24316406 381.31567383 C362.24316406 380.65567383 362.24316406 379.99567383 362.24316406 379.31567383 C361.58316406 379.31567383 360.92316406 379.31567383 360.24316406 379.31567383 C359.00878906 377.98754883 359.00878906 377.98754883 357.49316406 376.06567383 C347.30518924 364.16226998 333.98029253 355.24744208 321.24316406 346.31567383 C320.66356934 345.90849121 320.08397461 345.50130859 319.48681641 345.08178711 C317.29464323 343.54312202 315.09932459 342.00950093 312.89550781 340.48754883 C311.24316406 339.31567383 311.24316406 339.31567383 310.24316406 338.31567383 C310.09893497 336.88871437 310.01430182 335.45567097 309.95410156 334.02270508 C309.05864434 317.77877201 305.89870782 302.72140061 301.85400391 287.02929688 C301.24316406 284.31567383 301.24316406 284.31567383 301.24316406 281.31567383 C254.05316406 281.31567383 206.86316406 281.31567383 158.24316406 281.31567383 C158.57316406 283.62567383 158.90316406 285.93567383 159.24316406 288.31567383 C159.24316406 290.95567383 159.24316406 293.59567383 159.24316406 296.31567383 C140.76316406 296.31567383 122.28316406 296.31567383 103.24316406 296.31567383 C102.91316406 291.36567383 102.58316406 286.41567383 102.24316406 281.31567383 C38.22316406 281.31567383 -25.79683594 281.31567383 -91.75683594 281.31567383 C-91.75683594 284.61567383 -91.75683594 287.91567383 -91.75683594 291.31567383 C-91.91472062 293.1149354 -92.11160135 294.91205441 -92.37792969 296.69848633 C-92.57358521 298.08644409 -92.57358521 298.08644409 -92.77319336 299.50244141 C-92.91217041 300.47205811 -93.05114746 301.4416748 -93.19433594 302.44067383 C-95.7313579 321.72470044 -95.83684102 340.95803269 -95.88183594 360.37817383 C-95.88560242 361.30803101 -95.8893689 362.23788818 -95.89324951 363.19592285 C-95.92529397 372.60637902 -95.88279178 381.96178021 -95.14355469 391.34692383 C-93.96065782 407.00785071 -94.25868109 417.18518369 -104.41650391 429.6496582 C-106.1261627 431.77474229 -107.51268189 434.02213667 -108.88183594 436.37817383 C-109.33042969 437.13485352 -109.77902344 437.8915332 -110.24121094 438.67114258 C-120.6200769 456.7806587 -127.9638581 475.61603811 -134.75683594 495.31567383 C-143.00683594 495.31567383 -151.25683594 495.31567383 -159.75683594 495.31567383 C-159.75683594 495.97567383 -159.75683594 496.63567383 -159.75683594 497.31567383 C-196.71683594 497.31567383 -233.67683594 497.31567383 -271.75683594 497.31567383 C-269.77683594 500.94567383 -267.79683594 504.57567383 -265.75683594 508.31567383 C-265.42683594 509.63567383 -265.09683594 510.95567383 -264.75683594 512.31567383 C-264.09683594 512.31567383 -263.43683594 512.31567383 -262.75683594 512.31567383 C-259.75683594 518.06567383 -259.75683594 518.06567383 -259.75683594 520.31567383 C-259.09683594 520.31567383 -258.43683594 520.31567383 -257.75683594 520.31567383 C-255.9085616 523.92821003 -254.20634049 527.52466193 -252.75683594 531.31567383 C-252.09683594 531.31567383 -251.43683594 531.31567383 -250.75683594 531.31567383 C-249.46777344 532.99536133 -249.46777344 532.99536133 -248.13183594 535.19067383 C-247.68582031 535.9099707 -247.23980469 536.62926758 -246.78027344 537.37036133 C-245.75683594 539.31567383 -245.75683594 539.31567383 -245.75683594 541.31567383 C-245.09683594 541.31567383 -244.43683594 541.31567383 -243.75683594 541.31567383 C-240.75683594 545.70028921 -240.75683594 545.70028921 -240.75683594 548.31567383 C-240.09683594 548.31567383 -239.43683594 548.31567383 -238.75683594 548.31567383 C-237.46777344 549.77661133 -237.46777344 549.77661133 -236.13183594 551.69067383 C-235.4628125 552.63040039 -235.4628125 552.63040039 -234.78027344 553.58911133 C-233.75683594 555.31567383 -233.75683594 555.31567383 -233.75683594 557.31567383 C-232.76683594 557.64567383 -231.77683594 557.97567383 -230.75683594 558.31567383 C-229.40274273 560.30167719 -228.0722597 562.30384926 -226.75683594 564.31567383 C-224.55070279 566.62942322 -222.28305992 568.82574116 -219.94433594 571.00317383 C-218.75683594 572.31567383 -218.75683594 572.31567383 -218.75683594 574.31567383 C-218.09683594 574.31567383 -217.43683594 574.31567383 -216.75683594 574.31567383 C-216.75683594 574.97567383 -216.75683594 575.63567383 -216.75683594 576.31567383 C-216.11746094 576.58379883 -215.47808594 576.85192383 -214.81933594 577.12817383 C-212.75683594 578.31567383 -212.75683594 578.31567383 -211.75683594 581.31567383 C-211.09683594 581.31567383 -210.43683594 581.31567383 -209.75683594 581.31567383 C-209.75683594 581.97567383 -209.75683594 582.63567383 -209.75683594 583.31567383 C-209.11746094 583.58379883 -208.47808594 583.85192383 -207.81933594 584.12817383 C-205.75683594 585.31567383 -205.75683594 585.31567383 -204.75683594 588.31567383 C-202.74175236 589.04891179 -202.74175236 589.04891179 -200.75683594 589.31567383 C-200.75683594 589.97567383 -200.75683594 590.63567383 -200.75683594 591.31567383 C-200.09683594 591.31567383 -199.43683594 591.31567383 -198.75683594 591.31567383 C-198.75683594 591.97567383 -198.75683594 592.63567383 -198.75683594 593.31567383 C-198.13808594 593.62504883 -197.51933594 593.93442383 -196.88183594 594.25317383 C-195.50683594 594.94067383 -194.13183594 595.62817383 -192.75683594 596.31567383 C-192.75683594 596.97567383 -192.75683594 597.63567383 -192.75683594 598.31567383 C-192.19996094 598.58379883 -191.64308594 598.85192383 -191.06933594 599.12817383 C-188.5445826 600.42466879 -186.11969109 601.74043706 -183.75683594 603.31567383 C-183.75683594 603.97567383 -183.75683594 604.63567383 -183.75683594 605.31567383 C-183.03496094 605.58379883 -182.31308594 605.85192383 -181.56933594 606.12817383 C-178.75917211 607.31468745 -176.27267037 608.59053022 -173.75683594 610.31567383 C-173.75683594 610.97567383 -173.75683594 611.63567383 -173.75683594 612.31567383 C-172.90347656 612.55801758 -172.05011719 612.80036133 -171.17089844 613.05004883 C-167.44331093 614.43190049 -164.39032844 616.34407904 -161.13183594 618.56567383 C-155.66507917 622.19675969 -150.12069435 625.30388181 -144.18261719 628.12426758 C-139.02260292 630.6585741 -139.02260292 630.6585741 -137.9765625 633.24487305 C-137.78545898 634.02878418 -137.59435547 634.81269531 -137.39746094 635.62036133 C-137.1726001 636.50385254 -136.94773926 637.38734375 -136.71606445 638.29760742 C-136.48201904 639.25231934 -136.24797363 640.20703125 -136.00683594 641.19067383 C-130.69821028 661.65794689 -123.54153656 681.34994549 -113.04199219 699.74145508 C-111.75683594 702.31567383 -111.75683594 702.31567383 -111.75683594 705.31567383 C-121.56697857 702.64018038 -130.92523805 699.40009359 -140.11621094 695.02661133 C-142.83591872 693.73406179 -145.57750956 692.50218501 -148.33496094 691.29223633 C-149.52581299 690.76968262 -149.52581299 690.76968262 -150.74072266 690.23657227 C-152.29326925 689.55747184 -153.84692116 688.88089073 -155.40185547 688.20727539 C-160.04682012 686.16792162 -164.38851517 683.89626564 -168.75683594 681.31567383 C-169.85382813 680.69047852 -170.95082031 680.0652832 -172.08105469 679.42114258 C-174.41868896 678.08806658 -176.7545875 676.75224468 -179.08886719 675.41333008 C-181.49581464 674.03309115 -183.91011911 672.66730389 -186.33105469 671.31176758 C-187.96494141 670.38557617 -187.96494141 670.38557617 -189.63183594 669.44067383 C-190.61925781 668.88637695 -191.60667969 668.33208008 -192.62402344 667.76098633 C-193.67976563 667.04555664 -193.67976563 667.04555664 -194.75683594 666.31567383 C-194.75683594 665.65567383 -194.75683594 664.99567383 -194.75683594 664.31567383 C-195.47871094 664.04754883 -196.20058594 663.77942383 -196.94433594 663.50317383 C-199.75449977 662.31666021 -202.2410015 661.04081744 -204.75683594 659.31567383 C-204.75683594 658.65567383 -204.75683594 657.99567383 -204.75683594 657.31567383 C-205.48257813 657.04754883 -206.20832031 656.77942383 -206.95605469 656.50317383 C-209.72547617 655.32897002 -212.06603028 653.97624143 -214.56933594 652.31567383 C-215.35953125 651.80004883 -216.14972656 651.28442383 -216.96386719 650.75317383 C-217.85138672 650.04161133 -217.85138672 650.04161133 -218.75683594 649.31567383 C-218.75683594 648.65567383 -218.75683594 647.99567383 -218.75683594 647.31567383 C-219.28019531 647.10040039 -219.80355469 646.88512695 -220.34277344 646.66333008 C-223.72479224 644.77530987 -226.47015304 642.29114743 -229.38183594 639.75317383 C-233.31504525 636.16993705 -233.31504525 636.16993705 -237.75683594 633.31567383 C-237.75683594 632.65567383 -237.75683594 631.99567383 -237.75683594 631.31567383 C-238.56556152 630.99373047 -238.56556152 630.99373047 -239.390625 630.6652832 C-242.60753425 628.83046332 -245.02822848 626.32981765 -247.61621094 623.72192383 C-248.16545227 623.17459595 -248.7146936 622.62726807 -249.28057861 622.06335449 C-250.43609453 620.90919602 -251.58910279 619.75252216 -252.73974609 618.59350586 C-254.50757093 616.81493436 -256.28585724 615.04732619 -258.06542969 613.28051758 C-259.18716565 612.15746075 -260.30828145 611.03378407 -261.42871094 609.90942383 C-261.9630072 609.37917603 -262.49730347 608.84892822 -263.04779053 608.3026123 C-266.75683594 604.54561236 -266.75683594 604.54561236 -266.75683594 602.31567383 C-267.41683594 602.31567383 -268.07683594 602.31567383 -268.75683594 602.31567383 C-270.29774999 600.61979119 -271.7660689 598.8574571 -273.19433594 597.06567383 C-273.97679687 596.09114258 -274.75925781 595.11661133 -275.56542969 594.11254883 C-276.28859375 593.18958008 -277.01175781 592.26661133 -277.75683594 591.31567383 C-278.3459375 590.57833008 -278.93503906 589.84098633 -279.54199219 589.08129883 C-280.75683594 587.31567383 -280.75683594 587.31567383 -280.75683594 585.31567383 C-281.41683594 585.31567383 -282.07683594 585.31567383 -282.75683594 585.31567383 C-284.08544922 583.78686523 -284.08544922 583.78686523 -285.57714844 581.66723633 C-286.11210937 580.90926758 -286.64707031 580.15129883 -287.19824219 579.37036133 C-287.75382812 578.56856445 -288.30941406 577.76676758 -288.88183594 576.94067383 C-289.44515625 576.14661133 -290.00847656 575.35254883 -290.58886719 574.53442383 C-294.75683594 568.58018276 -294.75683594 568.58018276 -294.75683594 566.31567383 C-295.41683594 566.31567383 -296.07683594 566.31567383 -296.75683594 566.31567383 C-297.1603125 565.4674707 -297.56378906 564.61926758 -297.97949219 563.74536133 C-300.16083985 559.53607947 -302.72847875 555.64069557 -305.35253906 551.70239258 C-307.75306159 548.04251272 -309.8139502 544.33627923 -311.72729492 540.40063477 C-312.79918295 538.22991536 -313.93338367 536.10314724 -315.08886719 533.97583008 C-319.95790909 524.9724386 -324.35602216 515.97317105 -328.08886719 506.44067383 C-329.34549705 503.24233921 -330.75580875 500.13992098 -332.20996094 497.02661133 C-334.76772112 491.44517033 -336.795402 485.7748762 -338.69433594 479.94067383 C-339.0356958 478.89758057 -339.37705566 477.8544873 -339.72875977 476.77978516 C-340.75067622 473.62893585 -341.75718811 470.4736522 -342.75683594 467.31567383 C-343.18512695 465.97206787 -343.18512695 465.97206787 -343.62207031 464.60131836 C-346.87831656 454.25504927 -349.41209631 443.84542691 -351.44433594 433.19067383 C-351.63471436 432.2105835 -351.82509277 431.23049316 -352.02124023 430.22070312 C-355.97264457 408.3371952 -357.2800613 386.40961784 -357.20288086 364.21069336 C-357.19371229 361.45419877 -357.20060163 358.69855354 -357.22338867 355.94213867 C-357.59490178 310.70284428 -350.83918369 262.24556102 -331.05761719 221.13598633 C-330.02373235 218.89435014 -329.08131442 216.66396625 -328.17480469 214.37036133 C-324.87610364 206.02575387 -321.24553106 198.28937712 -316.65527344 190.57739258 C-314.88843743 187.54177927 -313.33387155 184.48281045 -311.81933594 181.31567383 C-308.66364324 174.87565965 -304.81568924 168.98720037 -300.86621094 163.01733398 C-298.55468387 159.47170378 -296.36972706 155.8436796 -294.16699219 152.22973633 C-293.70164062 151.5980957 -293.23628906 150.96645508 -292.75683594 150.31567383 C-292.09683594 150.31567383 -291.43683594 150.31567383 -290.75683594 150.31567383 C-290.29277344 149.14004883 -290.29277344 149.14004883 -289.81933594 147.94067383 C-288.75683594 145.31567383 -288.75683594 145.31567383 -287.75683594 143.31567383 C-287.09683594 143.31567383 -286.43683594 143.31567383 -285.75683594 143.31567383 C-285.55058594 142.65567383 -285.34433594 141.99567383 -285.13183594 141.31567383 C-283.26559342 137.24387196 -280.78122067 133.62770385 -277.75683594 130.31567383 C-277.09683594 130.31567383 -276.43683594 130.31567383 -275.75683594 130.31567383 C-275.50933594 129.76395508 -275.26183594 129.21223633 -275.00683594 128.64379883 C-273.5144912 125.86430675 -271.7201107 123.53420313 -269.75683594 121.06567383 C-269.05558594 120.17364258 -268.35433594 119.28161133 -267.63183594 118.36254883 C-267.01308594 117.68708008 -266.39433594 117.01161133 -265.75683594 116.31567383 C-265.09683594 116.31567383 -264.43683594 116.31567383 -263.75683594 116.31567383 C-263.75683594 115.65567383 -263.75683594 114.99567383 -263.75683594 114.31567383 C-263.09683594 114.31567383 -262.43683594 114.31567383 -261.75683594 114.31567383 C-261.75683594 113.65567383 -261.75683594 112.99567383 -261.75683594 112.31567383 C-261.09683594 112.31567383 -260.43683594 112.31567383 -259.75683594 112.31567383 C-259.35368164 111.4257373 -259.35368164 111.4257373 -258.94238281 110.51782227 C-257.75392862 108.31027349 -256.54941205 106.85024501 -254.78808594 105.08129883 C-253.93150391 104.22084961 -253.93150391 104.22084961 -253.05761719 103.34301758 C-252.46335937 102.75649414 -251.86910156 102.1699707 -251.25683594 101.56567383 C-250.66257812 100.96368164 -250.06832031 100.36168945 -249.45605469 99.74145508 C-248.885 99.17297852 -248.31394531 98.60450195 -247.72558594 98.01879883 C-247.20416016 97.49962891 -246.68273437 96.98045898 -246.14550781 96.44555664 C-244.75683594 95.31567383 -244.75683594 95.31567383 -242.75683594 95.31567383 C-242.75683594 94.65567383 -242.75683594 93.99567383 -242.75683594 93.31567383 C-242.09683594 93.31567383 -241.43683594 93.31567383 -240.75683594 93.31567383 C-240.26183594 91.83067383 -240.26183594 91.83067383 -239.75683594 90.31567383 C-238.00394538 88.68658292 -236.18110417 87.13163036 -234.31933594 85.62817383 C-232.83626953 84.41581055 -232.83626953 84.41581055 -231.32324219 83.17895508 C-228.75683594 81.31567383 -228.75683594 81.31567383 -226.75683594 81.31567383 C-226.75683594 80.65567383 -226.75683594 79.99567383 -226.75683594 79.31567383 C-225.09835416 78.30215719 -223.43017633 77.30446588 -221.75683594 76.31567383 C-221.07621094 75.61442383 -220.39558594 74.91317383 -219.69433594 74.19067383 C-217.65626587 72.21834796 -216.51846178 71.71019181 -213.75683594 71.31567383 C-213.75683594 70.65567383 -213.75683594 69.99567383 -213.75683594 69.31567383 C-211.68502646 67.7610425 -209.61806838 66.34142658 -207.44433594 64.94067383 C-206.78079102 64.50658203 -206.11724609 64.07249023 -205.43359375 63.62524414 C-203.21397745 62.17927003 -200.98630988 60.74639739 -198.75683594 59.31567383 C-197.56985107 58.5504541 -197.56985107 58.5504541 -196.35888672 57.76977539 C-181.99104068 48.52447874 -167.46371167 40.56909099 -151.98095703 33.35571289 C-150.07472821 32.46432598 -148.17487936 31.55931749 -146.27636719 30.65161133 C-130.74889284 23.29131297 -114.76732207 17.8688171 -98.29052734 13.06176758 C-96.17276486 12.43815203 -94.06327165 11.78654377 -91.95605469 11.12817383 C-77.00473555 6.54429634 -61.24145723 4.28780076 -45.75683594 2.31567383 C-44.52392822 2.14672607 -43.29102051 1.97777832 -42.02075195 1.80371094 C-28.04394469 0.02321996 -14.06988767 -0.02578917 0 0 Z M0.18066406 58.69067383 C-0.91955078 59.63040039 -0.91955078 59.63040039 -2.04199219 60.58911133 C-3.99173422 62.14660137 -3.99173422 62.14660137 -3.75683594 64.31567383 C-4.41683594 64.31567383 -5.07683594 64.31567383 -5.75683594 64.31567383 C-5.75683594 64.97567383 -5.75683594 65.63567383 -5.75683594 66.31567383 C-6.41683594 66.31567383 -7.07683594 66.31567383 -7.75683594 66.31567383 C-9.34217296 68.02900136 -10.85224808 69.8125643 -12.31933594 71.62817383 C-13.52783203 73.10737305 -13.52783203 73.10737305 -14.76074219 74.61645508 C-16.89327587 77.20863005 -16.89327587 77.20863005 -17.75683594 80.31567383 C-18.74683594 80.64567383 -19.73683594 80.97567383 -20.75683594 81.31567383 C-22.66722481 83.78991231 -22.66722481 83.78991231 -24.44433594 86.75317383 C-25.06695312 87.74188477 -25.68957031 88.7305957 -26.33105469 89.74926758 C-27.91871691 92.11774904 -27.91871691 92.11774904 -27.75683594 94.31567383 C-28.41683594 94.31567383 -29.07683594 94.31567383 -29.75683594 94.31567383 C-31.40583667 96.76465447 -32.91043945 99.19917684 -34.38183594 101.75317383 C-35.04517944 102.89061035 -35.04517944 102.89061035 -35.72192383 104.05102539 C-39.5691849 110.76006266 -42.88383829 117.66256629 -46.06542969 124.70629883 C-47.75683594 128.31567383 -47.75683594 128.31567383 -49.35839844 130.97583008 C-50.82918912 133.43673404 -51.76239227 135.7953375 -52.69433594 138.50317383 C-53.91736297 141.97454755 -55.17370753 145.41010194 -56.56933594 148.81567383 C-61.4923042 161.02618567 -65.92146029 173.38852065 -69.71386719 185.99536133 C-70.75683594 189.31567383 -70.75683594 189.31567383 -71.73217773 191.71166992 C-72.72040314 194.22308573 -73.48586208 196.69730801 -74.19433594 199.30004883 C-74.44957031 200.2359082 -74.70480469 201.17176758 -74.96777344 202.13598633 C-75.22816406 203.1027832 -75.48855469 204.06958008 -75.75683594 205.06567383 C-76.14742188 206.49266602 -76.14742188 206.49266602 -76.54589844 207.94848633 C-78.11202009 213.72257122 -79.45575252 219.46079844 -80.75683594 225.31567383 C-23.66683594 225.31567383 33.42316406 225.31567383 92.24316406 225.31567383 C90.83619605 212.6529617 86.91330118 200.9691879 82.88867188 188.93652344 C82.23827378 186.98852703 81.5960102 185.03796627 80.95410156 183.0871582 C78.92967522 176.98428145 76.83076291 170.98774571 74.08886719 165.16479492 C73.20076216 163.22296251 72.4653131 161.26219244 71.74316406 159.25317383 C70.76834967 156.59131904 69.67379978 154.07619804 68.38769531 151.55004883 C68.03465332 150.85258545 67.68161133 150.15512207 67.31787109 149.43652344 C66.96321777 148.73664307 66.60856445 148.0367627 66.24316406 147.31567383 C65.61024266 146.04163423 64.97869518 144.76691101 64.34863281 143.49145508 C57.67950892 130.03602371 50.61315856 117.00021796 42.52929688 104.33959961 C41.23094642 102.29644751 39.95044964 100.2429478 38.67285156 98.18676758 C37.86330502 96.89618383 37.05342348 95.60581014 36.24316406 94.31567383 C35.86949707 93.70989502 35.49583008 93.10411621 35.11083984 92.47998047 C34.20838515 91.0565576 33.23243642 89.68018742 32.24316406 88.31567383 C31.58316406 88.31567383 30.92316406 88.31567383 30.24316406 88.31567383 C29.93378906 87.53192383 29.62441406 86.74817383 29.30566406 85.94067383 C28.31441368 83.39237255 28.31441368 83.39237255 27.24316406 81.31567383 C26.58316406 81.31567383 25.92316406 81.31567383 25.24316406 81.31567383 C24.24316406 79.31567383 23.24316406 77.31567383 22.24316406 75.31567383 C21.58316406 75.31567383 20.92316406 75.31567383 20.24316406 75.31567383 C19.84097656 74.20192383 19.84097656 74.20192383 19.43066406 73.06567383 C18.29039656 70.42505434 17.149361 68.46014539 15.24316406 66.31567383 C14.58316406 66.31567383 13.92316406 66.31567383 13.24316406 66.31567383 C12.97632813 65.73301758 12.70949219 65.15036133 12.43457031 64.55004883 C11.21929655 62.27091245 9.87247234 60.51104551 8.18066406 58.56567383 C7.6534375 57.95208008 7.12621094 57.33848633 6.58300781 56.70629883 C6.14085937 56.24739258 5.69871094 55.78848633 5.24316406 55.31567383 C3.24362055 55.31567383 1.60413186 57.46051647 0.18066406 58.69067383 Z M84.24316406 65.31567383 C84.24316406 65.97567383 84.24316406 66.63567383 84.24316406 67.31567383 C84.90316406 67.31567383 85.56316406 67.31567383 86.24316406 67.31567383 C86.49839844 68.00790039 86.75363281 68.70012695 87.01660156 69.41333008 C88.40350512 72.69507959 90.07971308 75.6714804 91.86816406 78.75317383 C92.22152832 79.36733154 92.57489258 79.98148926 92.93896484 80.61425781 C94.67152768 83.62338524 96.42335976 86.61912338 98.19628906 89.60473633 C106.26892357 103.35446745 113.12912011 117.7948137 118.79394531 132.69848633 C119.99611415 135.69904791 121.29335697 138.59277093 122.66113281 141.51879883 C125.26801707 147.20751559 127.31323207 152.99308466 129.24316406 158.94067383 C129.58855225 159.99335449 129.93394043 161.04603516 130.28979492 162.13061523 C135.54477067 178.25341703 139.97931534 194.56477743 144.33935547 210.94995117 C145.62628716 215.74239859 146.93751448 220.52829202 148.24316406 225.31567383 C192.13316406 225.31567383 236.02316406 225.31567383 281.24316406 225.31567383 C279.55848328 220.20304005 279.55848328 220.20304005 277.36035156 215.46801758 C277.00142822 214.78602295 276.64250488 214.10402832 276.27270508 213.40136719 C275.89170654 212.69246338 275.51070801 211.98355957 275.11816406 211.25317383 C274.72363037 210.51526611 274.32909668 209.7773584 273.92260742 209.01708984 C268.51054645 198.90251591 268.51054645 198.90251591 262.24316406 189.31567383 C261.58316406 189.31567383 260.92316406 189.31567383 260.24316406 189.31567383 C260.02144531 188.4674707 259.79972656 187.61926758 259.57128906 186.74536133 C257.97973771 182.635414 255.77723184 179.80825107 252.99316406 176.44067383 C251.99884514 175.21217795 251.00535022 173.98301466 250.01269531 172.75317383 C249.53525879 172.16536133 249.05782227 171.57754883 248.56591797 170.97192383 C246.86698581 168.84465256 245.27066637 166.65010632 243.68066406 164.44067383 C242.47410156 162.89379883 242.47410156 162.89379883 241.24316406 161.31567383 C240.58316406 161.31567383 239.92316406 161.31567383 239.24316406 161.31567383 C238.97616699 160.72794189 238.70916992 160.14020996 238.43408203 159.53466797 C237.22181674 157.27589814 235.93468749 155.67981322 234.18847656 153.81176758 C233.5789917 153.15821289 232.96950684 152.5046582 232.34155273 151.83129883 C231.69033447 151.14551758 231.03911621 150.45973633 230.36816406 149.75317383 C229.70212158 149.04805664 229.0360791 148.34293945 228.34985352 147.61645508 C222.60202629 141.58702612 216.7434541 135.54248285 210.24316406 130.31567383 C209.58316406 130.31567383 208.92316406 130.31567383 208.24316406 130.31567383 C207.91316406 129.32567383 207.58316406 128.33567383 207.24316406 127.31567383 C205.33042296 125.48628599 205.33042296 125.48628599 202.99316406 123.75317383 C202.22488281 123.15375977 201.45660156 122.5543457 200.66503906 121.93676758 C198.25504908 120.32362912 195.96746053 119.28656672 193.24316406 118.31567383 C193.24316406 117.65567383 193.24316406 116.99567383 193.24316406 116.31567383 C190.02202249 113.99975361 190.02202249 113.99975361 186.24316406 113.31567383 C186.24316406 112.65567383 186.24316406 111.99567383 186.24316406 111.31567383 C184.27756872 109.79551293 184.27756872 109.79551293 181.68066406 108.25317383 C180.67777344 107.63313477 179.67488281 107.0130957 178.64160156 106.37426758 C177.52011719 105.69493164 176.39863281 105.0155957 175.24316406 104.31567383 C174.64922852 103.95489746 174.05529297 103.59412109 173.44335938 103.22241211 C169.65046334 100.92122822 165.84280902 98.64609657 162.02734375 96.38256836 C160.42658207 95.42535318 158.83793187 94.44795212 157.25097656 93.46801758 C138.67975774 82.17609921 106.39802527 65.31567383 84.24316406 65.31567383 Z M-97.75683594 72.31567383 C-99.79414059 72.93439015 -101.83643002 73.53679004 -103.88183594 74.12817383 C-109.67221304 75.86859575 -114.98811076 78.13147284 -120.43261719 80.74536133 C-123.87809515 82.37295491 -127.36453199 83.85045015 -130.88183594 85.31567383 C-137.07950058 87.95617996 -142.9141908 90.97242709 -148.75683594 94.31567383 C-149.86929688 94.93442383 -150.98175781 95.55317383 -152.12792969 96.19067383 C-163.63419463 102.6160236 -174.38123054 109.8540771 -184.75292969 117.97973633 C-187.93469884 120.45398594 -191.17662094 122.82785124 -194.46386719 125.15942383 C-194.89054687 125.54098633 -195.31722656 125.92254883 -195.75683594 126.31567383 C-195.75683594 126.97567383 -195.75683594 127.63567383 -195.75683594 128.31567383 C-196.29308594 128.54254883 -196.82933594 128.76942383 -197.38183594 129.00317383 C-200.58143755 130.77137472 -203.04720817 132.85237586 -205.75683594 135.31567383 C-205.75683594 135.97567383 -205.75683594 136.63567383 -205.75683594 137.31567383 C-207.07683594 137.64567383 -208.39683594 137.97567383 -209.75683594 138.31567383 C-209.75683594 138.97567383 -209.75683594 139.63567383 -209.75683594 140.31567383 C-210.41683594 140.31567383 -211.07683594 140.31567383 -211.75683594 140.31567383 C-213.53355291 141.9952722 -213.53355291 141.9952722 -215.31933594 144.12817383 C-215.939375 144.83586914 -216.55941406 145.54356445 -217.19824219 146.27270508 C-218.94108348 148.32840851 -218.94108348 148.32840851 -219.75683594 151.31567383 C-220.31886719 151.57477539 -220.88089844 151.83387695 -221.45996094 152.10083008 C-224.89315446 153.91668584 -227.05556735 156.8157032 -229.50683594 159.75317383 C-230.03180664 160.37482422 -230.55677734 160.99647461 -231.09765625 161.63696289 C-239.3854873 170.24934514 -239.3854873 170.24934514 -243.75683594 180.31567383 C-244.41683594 180.31567383 -245.07683594 180.31567383 -245.75683594 180.31567383 C-247.12321247 182.03368665 -247.12321247 182.03368665 -248.38183594 184.19067383 C-248.82785156 184.9099707 -249.27386719 185.62926758 -249.73339844 186.37036133 C-250.91203592 188.24432145 -250.91203592 188.24432145 -250.75683594 190.31567383 C-251.41683594 190.31567383 -252.07683594 190.31567383 -252.75683594 190.31567383 C-253.24152344 191.17547852 -253.72621094 192.0352832 -254.22558594 192.92114258 C-258.33303313 200.17456556 -262.55709934 207.32055518 -266.99511719 214.37817383 C-270.38394664 219.51980304 -270.38394664 219.51980304 -271.75683594 225.31567383 C-227.53683594 225.31567383 -183.31683594 225.31567383 -137.75683594 225.31567383 C-134.62283233 213.67552843 -134.62283233 213.67552843 -132.00683594 202.00317383 C-129.43311605 189.87185198 -125.53148335 178.1150269 -121.75683594 166.31567383 C-121.24500164 164.68550177 -120.73327105 163.05529714 -120.22167969 161.42504883 C-114.9708929 144.94975405 -108.30954285 128.8665037 -100.75683594 113.31567383 C-100.45422852 112.68999512 -100.15162109 112.06431641 -99.83984375 111.41967773 C-95.9843407 103.47657418 -91.94807212 95.72261986 -87.42089844 88.13598633 C-85.21999677 84.40581965 -83.16487315 80.60367571 -81.11621094 76.78833008 C-80.15462104 75.0392312 -79.13818785 73.31976605 -78.08496094 71.62426758 C-76.5906146 69.47063646 -76.5906146 69.47063646 -76.75683594 67.31567383 C-76.09683594 66.98567383 -75.43683594 66.65567383 -74.75683594 66.31567383 C-82.87742903 66.31567383 -90.39356774 69.08617023 -97.75683594 72.31567383 Z M-290.75683594 281.31567383 C-293.07156274 287.48827863 -294.81954305 293.08876653 -296.25683594 299.44067383 C-296.45664062 300.26954102 -296.65644531 301.0984082 -296.86230469 301.95239258 C-301.03449919 320.20906532 -302.22777947 338.32074523 -302.09301758 357.00292969 C-302.06928701 360.51040528 -302.07250523 364.01712164 -302.07910156 367.5246582 C-302.05865748 384.93910808 -301.0913404 401.83992456 -297.31933594 418.87817383 C-297.11501953 419.85334961 -296.91070312 420.82852539 -296.70019531 421.83325195 C-295.17466082 432.2787463 -295.17466082 432.2787463 -290.75683594 441.31567383 C-288.92189107 441.41213411 -287.08319007 441.43754727 -285.24571228 441.43592834 C-284.04952774 441.43730301 -282.8533432 441.43867767 -281.62091064 441.44009399 C-280.28332495 441.43655439 -278.9457395 441.43291958 -277.6081543 441.42919922 C-276.20900983 441.42891735 -274.80986521 441.42907507 -273.41072083 441.42964172 C-269.60097134 441.42992971 -265.79125308 441.4240328 -261.98151088 441.41706777 C-258.00432285 441.41083442 -254.02713418 441.41023044 -250.04994202 441.40904236 C-242.51345054 441.40592899 -234.9769735 441.39771552 -227.4404884 441.38769287 C-218.86263765 441.37653191 -210.28478623 441.37102133 -201.70693004 441.36599743 C-184.05689048 441.35553291 -166.40686437 441.33793336 -148.75683594 441.31567383 C-148.81525351 440.31165433 -148.87367107 439.30763483 -148.93385887 438.2731905 C-149.15314767 434.49949787 -149.37105894 430.72572668 -149.58858299 426.95193195 C-149.68238987 425.32772574 -149.77655578 423.70354022 -149.8711071 422.07937717 C-150.55128968 410.38987979 -151.12782146 398.71073331 -151.38183594 387.00317383 C-151.41869653 385.43302398 -151.45556188 383.86287424 -151.49243164 382.29272461 C-151.59089898 377.96721297 -151.67440298 373.64151859 -151.75683594 369.31567383 C-151.7802002 368.30424316 -151.80356445 367.2928125 -151.82763672 366.25073242 C-152.12393696 352.77778623 -151.48506268 339.33477029 -150.88183594 325.87817383 C-150.84263031 324.98354431 -150.80342468 324.08891479 -150.76303101 323.16717529 C-150.13802712 309.16329735 -148.9726209 295.29720092 -147.75683594 281.31567383 C-194.94683594 281.31567383 -242.13683594 281.31567383 -290.75683594 281.31567383 Z " fill="#116BA8" transform="translate(432.7568359375,62.684326171875)"/>
<path d="M0 0 C34.32 0 68.64 0 104 0 C105.74140555 5.22421665 107.4088361 10.25278719 108.81152344 15.54174805 C109.30188583 17.38205345 109.30188583 17.38205345 109.80215454 19.25953674 C110.15459822 20.59358768 110.50700374 21.92764869 110.859375 23.26171875 C111.23943352 24.69191833 111.61976167 26.12204628 112.00033569 27.55210876 C112.82034765 30.63541637 113.63865154 33.71917025 114.45562744 36.80328369 C115.77844291 41.79657791 117.10538803 46.788769 118.43310547 51.78076172 C118.89450544 53.51568478 119.35590066 55.25060911 119.81729126 56.98553467 C120.16448652 58.29103901 120.16448652 58.29103901 120.51869583 59.62291718 C121.23355769 62.31146468 121.94805175 65.0001097 122.66244507 67.68878174 C127.56212649 86.12747533 132.48866471 104.55895833 137.41982651 122.989254 C138.12509249 125.62534571 138.83022336 128.26147353 139.53530884 130.89761353 C151.67117478 176.27017226 163.83528489 221.6351691 176 267 C182.50340886 246.32809336 188.50620643 225.52379295 194.46281815 204.68944168 C196.656758 197.01955639 198.85734698 189.35157328 201.05662727 181.683218 C201.92380512 178.65933586 202.79069286 175.63537063 203.65757751 172.61140442 C207.85633965 157.96818255 212.07341088 143.33029942 216.30078125 128.6953125 C216.60246531 127.65085779 216.90414936 126.60640308 217.21497536 125.53029823 C219.62936786 117.17204304 222.04466252 108.8140486 224.4603157 100.45615768 C233.4168554 69.47261065 233.4168554 69.47261065 242.2890625 38.46484375 C242.48521338 37.77600161 242.68136425 37.08715946 242.88345909 36.37744331 C244.8113329 29.60695453 246.73454539 22.83517844 248.64868164 16.06079102 C249.22797567 14.01967934 249.80731762 11.97858127 250.38671875 9.9375 C250.77043137 8.57038124 250.77043137 8.57038124 251.16189575 7.17564392 C252.886837 1.113163 252.886837 1.113163 254 0 C257.13559886 -0.09534958 260.24913613 -0.12550879 263.38500977 -0.11352539 C264.86289474 -0.11374443 264.86289474 -0.11374443 266.37063599 -0.1139679 C269.64424807 -0.11326832 272.91780404 -0.10547385 276.19140625 -0.09765625 C278.45442168 -0.09579223 280.71743751 -0.09436825 282.98045349 -0.09336853 C288.94978948 -0.0895421 294.91910132 -0.07971075 300.88842773 -0.06866455 C306.97444329 -0.05845312 313.06046273 -0.05387149 319.14648438 -0.04882812 C331.09766689 -0.03808859 343.04883144 -0.02101068 355 0 C364.52542451 32.74569092 374.0214701 65.49952002 383.44647408 98.27427387 C384.44729539 101.75449075 385.44822173 105.23467741 386.44921875 108.71484375 C386.75955488 109.79381833 386.75955488 109.79381833 387.07616043 110.89459038 C391.21623789 125.28742119 395.36723626 139.67709611 399.51953125 154.06640625 C399.84927067 155.20914001 400.17901009 156.35187378 400.51874161 157.52923584 C403.51548006 167.91462627 406.51232544 178.29998581 409.51037598 188.68499756 C417.04355785 214.77959849 424.55973675 240.87873467 432 267 C439.62951515 239.9100345 446.90808826 212.73087856 454.12005615 185.52716064 C457.0070602 174.63749216 459.90117801 163.74971317 462.79482651 152.86180878 C463.43575284 150.45012862 464.07661457 148.03843128 464.71741104 145.62671661 C470.07772347 125.4526043 475.45623009 105.2834923 480.875 85.125 C481.05059196 84.47167946 481.22618393 83.81835892 481.40709686 83.14524078 C488.86270884 55.40950262 496.42432746 27.70319469 504 0 C537.66 0 571.32 0 606 0 C599.11438714 24.099645 599.11438714 24.099645 595.5234375 35.82421875 C595.11638634 37.15840898 594.70951698 38.49265468 594.30281067 39.82695007 C593.44241506 42.64859403 592.58096141 45.46991161 591.71859741 48.29095459 C590.33424531 52.81982597 588.95260368 57.34952148 587.5715332 61.87939453 C587.3360291 62.65184132 587.100525 63.4242881 586.85788441 64.22014236 C586.37902825 65.79082608 585.90018493 67.36151371 585.42135429 68.9322052 C584.69724115 71.3072677 583.97291081 73.68226388 583.24855042 76.05725098 C578.74564176 90.8231825 574.26710163 105.59644914 569.79409027 120.37145996 C567.93494124 126.51214453 566.07495385 132.65257524 564.21484375 138.79296875 C564.00578651 139.48309933 563.79672928 140.1732299 563.58133698 140.88427353 C558.14734502 158.82165415 552.6989444 176.75465705 547.25 194.6875 C546.7444555 196.35132839 546.23891147 198.01515692 545.73336792 199.6789856 C541.89904136 212.29824282 538.06413846 224.91732488 534.22918701 237.53639221 C517.85319577 291.42013216 517.85319577 291.42013216 501.50109863 345.31112671 C500.69364009 347.97446862 499.88594914 350.63773983 499.07800293 353.30093384 C492.33827192 375.52002067 485.67192548 397.76024839 479 420 C446 420 413 420 379 420 C370.0993549 389.3524179 361.35173826 358.66979516 352.75 327.9375 C350.76068572 320.83065382 348.77127299 313.72383527 346.78125 306.6171875 C346.41319968 305.30277711 346.41319968 305.30277711 346.037714 303.96181297 C341.14328668 286.48547572 336.20754486 269.02102648 331.25 251.5625 C330.96582781 250.56165752 330.96582781 250.56165752 330.67591476 249.54059601 C328.96656664 243.52051797 327.25663557 237.50060565 325.54588318 231.48092651 C322.55957028 220.97267117 319.57770636 210.46315805 316.59765625 199.953125 C316.37448856 199.16606108 316.15132088 198.37899715 315.92139053 197.56808281 C314.81624003 193.67039161 313.71114499 189.77268468 312.6060791 185.87496948 C310.75161447 179.33410737 308.89670545 172.79337129 307.04180717 166.25263214 C306.17539556 163.19747933 305.30901223 160.14231849 304.44262695 157.0871582 C304.16240189 156.09899612 303.88217682 155.11083405 303.59346008 154.09272766 C303.39761826 153.40212753 303.20177643 152.7115274 303 152 C298.69242017 165.3582111 294.71567283 178.78456746 290.921875 192.296875 C290.35249577 194.31609421 289.78282677 196.33523173 289.21289062 198.35429382 C288.01089301 202.61431777 286.81058561 206.87481248 285.61169434 211.13571167 C282.77157455 221.22886442 279.92189478 231.31932022 277.07328033 241.41007805 C276.12729453 244.76140245 275.18163725 248.11281942 274.23602295 251.46424866 C269.43857472 268.4643206 264.61147481 285.45563002 259.75 302.4375 C259.41287994 303.61530029 259.07575989 304.79310059 258.72842407 306.0065918 C257.3369574 310.86737461 255.94519686 315.72807303 254.55281067 320.58859253 C251.5115672 331.20595994 248.47875114 341.82572722 245.44719315 352.44586372 C244.60919194 355.38148844 243.77109052 358.31708452 242.93295288 361.25267029 C242.65695692 362.21935292 242.38096096 363.18603556 242.09660149 364.1820116 C241.53952087 366.13319337 240.98243901 368.08437478 240.42535591 370.03555584 C239.04994782 374.8530452 237.67473395 379.67058985 236.29992676 384.48825073 C235.01287681 388.99829087 233.7251903 393.50814879 232.43703651 398.01787376 C231.95871836 399.6928659 231.48063572 401.3679253 231.00279808 403.04305458 C230.34614105 405.34495764 229.68867405 407.64662785 229.03100586 409.94824219 C228.83841564 410.6241059 228.64582542 411.29996962 228.44739914 411.99631405 C227.67868865 414.68381862 226.88411814 417.34764558 226 420 C193.33 420 160.66 420 127 420 C124.195 410.739375 121.39 401.47875 118.5 391.9375 C116.651315 385.83585451 114.8025695 379.73422777 112.953125 373.6328125 C112.71693703 372.85361576 112.48074905 372.07441902 112.23740387 371.27161026 C104.04335573 344.24051012 95.82884251 317.21562286 87.6158905 290.19026184 C84.29015653 279.2465435 80.96541099 268.30252533 77.6414299 257.35827446 C67.51174543 224.0061676 57.37651872 190.6557673 47.2244873 157.31045532 C42.0942961 140.45966299 36.96781822 123.607749 31.84765625 106.75390625 C31.58777294 105.89847292 31.32788963 105.04303959 31.06013107 104.16168404 C28.45907366 95.59984118 25.85848716 87.03785557 23.259058 78.47551823 C22.01790421 74.38728007 20.77658439 70.29909235 19.53515625 66.2109375 C19.29540699 65.42140623 19.05565773 64.63187496 18.80864334 63.8184185 C15.67286547 53.49303793 12.52748646 43.1706604 9.37109375 32.8515625 C8.69781087 30.64836358 8.0245513 28.44515754 7.35131836 26.24194336 C6.15596375 22.33035559 4.95712655 18.41986028 3.75610352 14.51000977 C3.24351858 12.83353699 2.7310578 11.15702624 2.21875 9.48046875 C1.98880844 8.73572296 1.75886688 7.99097717 1.5219574 7.22366333 C0 2.22747412 0 2.22747412 0 0 Z " fill="#116BA7" transform="translate(1783,257)"/>
<path d="M0 0 C1.58896843 -0.01533279 1.58896843 -0.01533279 3.21003723 -0.03097534 C6.70560422 -0.058734 10.20038093 -0.05685623 13.69604492 -0.05224609 C16.132139 -0.06002267 18.56823037 -0.06869256 21.00431824 -0.07821655 C26.10941355 -0.09313437 31.21423225 -0.09256401 36.31933594 -0.08203125 C42.84968102 -0.07045136 49.37888984 -0.10428216 55.90904713 -0.1507206 C60.94067465 -0.18024098 65.97203009 -0.18193242 71.00372887 -0.17570114 C73.41060318 -0.17672558 75.81749313 -0.18716379 78.22428322 -0.20732498 C81.5968785 -0.23210658 84.96728139 -0.21844316 88.33984375 -0.1953125 C89.32664124 -0.21059998 90.31343872 -0.22588745 91.33013916 -0.24163818 C98.42539255 -0.13452406 103.02569643 1.85333915 108.36401367 6.54931641 C113.36724833 12.27467066 114.06587024 17.29431025 113.85229492 24.73681641 C113.84522018 25.67992676 113.83814545 26.62303711 113.83085632 27.59472656 C113.80306817 30.58042769 113.74036018 33.56419082 113.67651367 36.54931641 C113.65141062 38.5844454 113.62860098 40.61960405 113.6081543 42.65478516 C113.55329271 47.62036538 113.46712979 52.58451336 113.36401367 57.54931641 C113.98605682 57.68168198 114.60809998 57.81404755 115.24899292 57.95042419 C116.06280426 58.12670853 116.8766156 58.30299286 117.71508789 58.48461914 C118.52275604 58.65823471 119.33042419 58.83185028 120.16256714 59.01072693 C122.5077944 59.58449273 124.41116057 60.38653532 126.48901367 61.61181641 C130.16270286 63.59619872 133.21639705 64.20368169 137.36401367 64.54931641 C137.62593506 63.96142334 137.88785645 63.37353027 138.15771484 62.76782227 C139.42877175 60.43021973 140.77139323 58.91279036 142.66479492 57.05322266 C143.63642578 56.09125977 143.63642578 56.09125977 144.62768555 55.10986328 C145.30379883 54.45050781 145.97991211 53.79115234 146.67651367 53.11181641 C147.34102539 52.45632813 148.00553711 51.80083984 148.69018555 51.12548828 C149.98531228 49.84829605 151.28355345 48.57425266 152.58520508 47.30371094 C154.15809206 45.75241175 155.68986688 44.17026695 157.21948242 42.57666016 C159.36401367 40.54931641 159.36401367 40.54931641 161.36401367 40.54931641 C161.36401367 39.88931641 161.36401367 39.22931641 161.36401367 38.54931641 C166.97022737 34.54487805 172.597871 34.02884389 179.36401367 34.54931641 C186.54582631 36.27295144 191.61982791 40.55253672 196.76245117 45.68212891 C197.48218613 46.39899368 197.48218613 46.39899368 198.21646118 47.13034058 C199.21878559 48.13131478 200.21863234 49.13477574 201.21606445 50.140625 C202.74884266 51.68421472 204.29213824 53.21671567 205.83666992 54.74853516 C206.81257309 55.72575828 207.78785657 56.70360073 208.76245117 57.68212891 C209.64594238 58.56787598 210.52943359 59.45362305 211.43969727 60.36621094 C213.36401367 62.54931641 213.36401367 62.54931641 213.36401367 64.54931641 C213.92088867 64.77619141 214.47776367 65.00306641 215.05151367 65.23681641 C218.02560955 66.92481677 220.08410232 69.01608157 222.36401367 71.54931641 C222.36401367 72.20931641 222.36401367 72.86931641 222.36401367 73.54931641 C223.02401367 73.54931641 223.68401367 73.54931641 224.36401367 73.54931641 C224.36401367 74.20931641 224.36401367 74.86931641 224.36401367 75.54931641 C224.90026367 75.75556641 225.43651367 75.96181641 225.98901367 76.17431641 C229.28379376 78.08182067 231.95764995 80.59751025 234.36401367 83.54931641 C234.36401367 84.20931641 234.36401367 84.86931641 234.36401367 85.54931641 C234.92572266 85.78650391 235.48743164 86.02369141 236.06616211 86.26806641 C238.88984025 87.84250998 240.84016209 89.76616186 243.12963867 92.04931641 C244.46381836 93.37962891 244.46381836 93.37962891 245.82495117 94.73681641 C246.7453418 95.66494141 247.66573242 96.59306641 248.61401367 97.54931641 C249.54987305 98.47744141 250.48573242 99.40556641 251.44995117 100.36181641 C252.33424805 101.24869141 253.21854492 102.13556641 254.12963867 103.04931641 C254.94207031 103.86400391 255.75450195 104.67869141 256.59155273 105.51806641 C258.36401367 107.54931641 258.36401367 107.54931641 258.36401367 109.54931641 C259.02401367 109.54931641 259.68401367 109.54931641 260.36401367 109.54931641 C264.06424819 115.50186759 265.29698125 122.28792397 263.78588867 129.18994141 C262.83078237 132.09271546 261.72990161 134.81754053 260.36401367 137.54931641 C259.70401367 137.54931641 259.04401367 137.54931641 258.36401367 137.54931641 C258.36401367 138.20931641 258.36401367 138.86931641 258.36401367 139.54931641 C257.70401367 139.54931641 257.04401367 139.54931641 256.36401367 139.54931641 C256.03401367 140.53931641 255.70401367 141.52931641 255.36401367 142.54931641 C254.70401367 142.54931641 254.04401367 142.54931641 253.36401367 142.54931641 C253.36401367 143.20931641 253.36401367 143.86931641 253.36401367 144.54931641 C252.70401367 144.54931641 252.04401367 144.54931641 251.36401367 144.54931641 C251.09588867 145.18869141 250.82776367 145.82806641 250.55151367 146.48681641 C249.36401367 148.54931641 249.36401367 148.54931641 246.36401367 149.54931641 C246.36401367 150.20931641 246.36401367 150.86931641 246.36401367 151.54931641 C245.70401367 151.54931641 245.04401367 151.54931641 244.36401367 151.54931641 C244.09588867 152.18869141 243.82776367 152.82806641 243.55151367 153.48681641 C242.36401367 155.54931641 242.36401367 155.54931641 239.36401367 156.54931641 C239.36401367 157.20931641 239.36401367 157.86931641 239.36401367 158.54931641 C238.70401367 158.54931641 238.04401367 158.54931641 237.36401367 158.54931641 C237.03401367 159.53931641 236.70401367 160.52931641 236.36401367 161.54931641 C235.70401367 161.54931641 235.04401367 161.54931641 234.36401367 161.54931641 C234.36401367 165.14776059 234.53807036 166.44249085 235.89526367 169.55322266 C236.21108398 170.29378906 236.5269043 171.03435547 236.85229492 171.79736328 C237.18616211 172.56113281 237.5200293 173.32490234 237.86401367 174.11181641 C238.52511942 175.63184913 239.18157698 177.15391423 239.83276367 178.67822266 C240.27265625 179.68477905 240.27265625 179.68477905 240.72143555 180.71166992 C241.36401367 182.54931641 241.36401367 182.54931641 241.36401367 185.54931641 C242.62995361 185.52836914 243.89589355 185.50742187 245.20019531 185.48583984 C249.91703895 185.41319499 254.63383355 185.36742766 259.35107422 185.32958984 C261.38891936 185.30953008 263.42670733 185.28227541 265.46435547 185.24755859 C268.40110414 185.19879207 271.33708885 185.176291 274.27416992 185.15869141 C275.63083519 185.12772369 275.63083519 185.12772369 277.01490784 185.09613037 C282.99287241 185.09403116 286.42548523 186.14911457 291.36401367 189.54931641 C291.36401367 190.20931641 291.36401367 190.86931641 291.36401367 191.54931641 C291.96213867 191.75556641 292.56026367 191.96181641 293.17651367 192.17431641 C296.36072878 194.17582305 296.99912515 196.03262786 298.36401367 199.54931641 C298.79413816 203.07658683 298.77404645 206.57529595 298.75219727 210.12524414 C298.7600827 211.70440109 298.7600827 211.70440109 298.76812744 213.31546021 C298.78130788 216.78809541 298.77259532 220.26027045 298.76245117 223.73291016 C298.76447261 226.15137317 298.76738463 228.56983558 298.77114868 230.98829651 C298.77556953 236.05467538 298.76914904 241.12089546 298.75512695 246.18725586 C298.73804461 252.67488736 298.74787208 259.16214626 298.76584435 265.64976406 C298.77669631 270.64352718 298.77322914 275.63720229 298.76546097 280.63096809 C298.76346241 283.02272651 298.76590613 285.41449296 298.77289963 287.80624199 C298.78053607 291.15237392 298.76887801 294.49790671 298.75219727 297.84399414 C298.75826996 298.82863144 298.76434265 299.81326874 298.77059937 300.82774353 C298.71826302 306.50773275 297.99843205 310.49569709 295.36401367 315.54931641 C294.70401367 315.54931641 294.04401367 315.54931641 293.36401367 315.54931641 C293.36401367 316.20931641 293.36401367 316.86931641 293.36401367 317.54931641 C292.70401367 317.54931641 292.04401367 317.54931641 291.36401367 317.54931641 C291.36401367 318.20931641 291.36401367 318.86931641 291.36401367 319.54931641 C286.50855971 322.08739461 282.71769989 323.6801825 277.23803711 323.6628418 C276.43750916 323.66276627 275.6369812 323.66269073 274.81219482 323.66261292 C273.53073578 323.65487099 273.53073578 323.65487099 272.22338867 323.64697266 C271.34120667 323.64555771 270.45902466 323.64414276 269.55010986 323.64268494 C266.73804302 323.63709642 263.92605637 323.62454602 261.11401367 323.61181641 C259.20516066 323.60679992 257.29630639 323.60223727 255.38745117 323.59814453 C250.7129412 323.58713075 246.03849102 323.56987399 241.36401367 323.54931641 C241.22809814 324.2935083 241.09218262 325.0377002 240.95214844 325.80444336 C240.44737529 328.16026094 239.82570876 330.23072249 238.95385742 332.46728516 C238.68637695 333.16402344 238.41889648 333.86076172 238.14331055 334.57861328 C237.86551758 335.29082031 237.58772461 336.00302734 237.30151367 336.73681641 C235.21065768 341.50964741 235.21065768 341.50964741 234.36401367 346.54931641 C235.02401367 346.54931641 235.68401367 346.54931641 236.36401367 346.54931641 C238.98901367 348.92431641 238.98901367 348.92431641 241.36401367 351.54931641 C241.36401367 352.20931641 241.36401367 352.86931641 241.36401367 353.54931641 C242.02401367 353.54931641 242.68401367 353.54931641 243.36401367 353.54931641 C245.98901367 355.92431641 245.98901367 355.92431641 248.36401367 358.54931641 C248.36401367 359.20931641 248.36401367 359.86931641 248.36401367 360.54931641 C249.02401367 360.54931641 249.68401367 360.54931641 250.36401367 360.54931641 C251.98901367 361.92431641 251.98901367 361.92431641 253.36401367 363.54931641 C253.36401367 364.20931641 253.36401367 364.86931641 253.36401367 365.54931641 C254.02401367 365.54931641 254.68401367 365.54931641 255.36401367 365.54931641 C260.96187455 371.37161982 263.92730242 376.83283486 264.67651367 384.92431641 C263.96340559 393.19637019 261.14704219 398.69363678 255.36401367 404.54931641 C254.8922168 405.05849609 254.42041992 405.56767578 253.93432617 406.09228516 C252.7953988 407.29523507 251.58516553 408.4299272 250.36401367 409.54931641 C249.70401367 409.54931641 249.04401367 409.54931641 248.36401367 409.54931641 C248.36401367 410.20931641 248.36401367 410.86931641 248.36401367 411.54931641 C246.75463867 413.10009766 246.75463867 413.10009766 244.61401367 414.86181641 C241.44866163 417.54874968 238.88894555 420.24078497 236.36401367 423.54931641 C233.73901367 426.36181641 233.73901367 426.36181641 231.36401367 428.54931641 C230.70401367 428.54931641 230.04401367 428.54931641 229.36401367 428.54931641 C229.36401367 429.20931641 229.36401367 429.86931641 229.36401367 430.54931641 C227.75463867 432.10009766 227.75463867 432.10009766 225.61401367 433.86181641 C222.44866163 436.54874968 219.88894555 439.24078497 217.36401367 442.54931641 C214.73901367 445.36181641 214.73901367 445.36181641 212.36401367 447.54931641 C211.70401367 447.54931641 211.04401367 447.54931641 210.36401367 447.54931641 C210.36401367 448.20931641 210.36401367 448.86931641 210.36401367 449.54931641 C208.75463867 451.10009766 208.75463867 451.10009766 206.61401367 452.86181641 C203.44866163 455.54874968 200.88894555 458.24078497 198.36401367 461.54931641 C195.73901367 464.36181641 195.73901367 464.36181641 193.36401367 466.54931641 C192.70401367 466.54931641 192.04401367 466.54931641 191.36401367 466.54931641 C191.36401367 467.20931641 191.36401367 467.86931641 191.36401367 468.54931641 C190.04401367 468.87931641 188.72401367 469.20931641 187.36401367 469.54931641 C187.36401367 470.20931641 187.36401367 470.86931641 187.36401367 471.54931641 C183.25404943 473.51089025 179.8975491 473.81885751 175.36401367 473.79931641 C174.16776367 473.80447266 172.97151367 473.80962891 171.73901367 473.81494141 C168.50596393 473.56048842 166.26983908 472.93618763 163.36401367 471.54931641 C163.36401367 470.88931641 163.36401367 470.22931641 163.36401367 469.54931641 C162.80713867 469.50806641 162.25026367 469.46681641 161.67651367 469.42431641 C158.78829765 468.33147791 157.51606884 466.55474031 155.64916992 464.16259766 C153.7406123 461.76674873 151.55513007 459.6856549 149.36401367 457.54931641 C146.85310571 455.03840844 144.34375977 452.52855616 141.86401367 449.98681641 C139.47403352 447.65658576 136.98292896 445.61389463 134.36401367 443.54931641 C132.70112305 444.28988281 132.70112305 444.28988281 131.00463867 445.04541016 C129.5411711 445.69271312 128.07762532 446.33983928 126.61401367 446.98681641 C125.51959961 447.47504883 125.51959961 447.47504883 124.40307617 447.97314453 C123.6940918 448.28574219 122.98510742 448.59833984 122.25463867 448.92041016 C121.28059082 449.35244751 121.28059082 449.35244751 120.28686523 449.79321289 C118.332199 450.56182657 116.40348016 451.05812343 114.36401367 451.54931641 C114.34943115 452.82049316 114.33484863 454.09166992 114.31982422 455.40136719 C114.2617156 460.13162933 114.18448319 464.8614217 114.1015625 469.59130859 C114.06837226 471.63582721 114.04032204 473.68043615 114.01757812 475.72509766 C113.98392374 478.66949847 113.93160201 481.61307595 113.87573242 484.55712891 C113.8693425 485.4667337 113.86295258 486.3763385 113.85636902 487.31350708 C113.73761317 492.47574606 113.15318837 496.03598365 110.36401367 500.54931641 C109.70401367 500.54931641 109.04401367 500.54931641 108.36401367 500.54931641 C108.36401367 501.20931641 108.36401367 501.86931641 108.36401367 502.54931641 C107.70401367 502.54931641 107.04401367 502.54931641 106.36401367 502.54931641 C106.36401367 503.20931641 106.36401367 503.86931641 106.36401367 504.54931641 C101.94069596 507.62106482 98.27085755 508.668941 92.95062256 508.6897583 C92.07319901 508.69546844 91.19577545 508.70117859 90.29176331 508.70706177 C89.33688522 508.70817963 88.38200714 508.70929749 87.39819336 508.71044922 C86.38633469 508.71541412 85.37447601 508.72037903 84.33195496 508.72549438 C80.98325928 508.74010333 77.63461099 508.74691621 74.28588867 508.75244141 C71.95664468 508.75819425 69.6274007 508.76395196 67.29815674 508.76971436 C62.41239196 508.78022097 57.52664362 508.78606575 52.64086914 508.78955078 C46.38872261 508.79503236 40.13679421 508.81905485 33.88471603 508.84752274 C29.07193371 508.86617236 24.25920365 508.87135598 19.44638824 508.87288666 C17.14196837 508.87590884 14.83754932 508.88392268 12.53316498 508.89707184 C9.30441331 508.91417926 6.07619106 508.91224031 2.84741211 508.90576172 C1.90063095 508.9149765 0.95384979 508.92419128 -0.0216217 508.9336853 C-6.69055785 508.89189369 -12.57054401 508.10207151 -17.87817383 503.68212891 C-18.41700195 503.01955078 -18.95583008 502.35697266 -19.51098633 501.67431641 C-20.34243164 500.68818359 -20.34243164 500.68818359 -21.19067383 499.68212891 C-24.83689209 494.30149331 -24.96641819 489.39845084 -25.05004883 483.09228516 C-25.07909805 481.7378405 -25.07909805 481.7378405 -25.10873413 480.35603333 C-25.16832715 477.48305593 -25.21483402 474.61003804 -25.26098633 471.73681641 C-25.29918478 469.78432535 -25.33823759 467.83185081 -25.37817383 465.87939453 C-25.47401202 461.10283657 -25.55811784 456.32619974 -25.63598633 451.54931641 C-26.61180664 451.21158203 -27.58762695 450.87384766 -28.59301758 450.52587891 C-29.87825096 450.07557816 -31.16340298 449.62504515 -32.44848633 449.17431641 C-33.09108398 448.95259766 -33.73368164 448.73087891 -34.39575195 448.50244141 C-37.45285349 447.42532791 -39.92191424 446.3586978 -42.63598633 444.54931641 C-46.40268742 444.64844012 -47.55465724 445.47177006 -50.32348633 448.11181641 C-51.46817383 449.31837891 -51.46817383 449.31837891 -52.63598633 450.54931641 C-53.29598633 450.54931641 -53.95598633 450.54931641 -54.63598633 450.54931641 C-54.88348633 451.12166016 -55.13098633 451.69400391 -55.38598633 452.28369141 C-56.82914832 454.89942252 -58.51814855 456.69705097 -60.63598633 458.79931641 C-61.68786133 459.85892578 -61.68786133 459.85892578 -62.76098633 460.93994141 C-64.63598633 462.54931641 -64.63598633 462.54931641 -66.63598633 462.54931641 C-66.63598633 463.20931641 -66.63598633 463.86931641 -66.63598633 464.54931641 C-67.29598633 464.54931641 -67.95598633 464.54931641 -68.63598633 464.54931641 C-68.89508789 465.15388672 -69.15418945 465.75845703 -69.42114258 466.38134766 C-71.52946733 470.14379215 -74.74652457 471.86262425 -78.63598633 473.54931641 C-84.88519792 474.94598834 -90.68686616 475.13101006 -96.63598633 472.54931641 C-99.47328724 470.74330394 -102.20083987 468.87693692 -104.63598633 466.54931641 C-104.63598633 465.88931641 -104.63598633 465.22931641 -104.63598633 464.54931641 C-105.29598633 464.54931641 -105.95598633 464.54931641 -106.63598633 464.54931641 C-106.63598633 463.88931641 -106.63598633 463.22931641 -106.63598633 462.54931641 C-107.62598633 462.21931641 -108.61598633 461.88931641 -109.63598633 461.54931641 C-109.63598633 460.88931641 -109.63598633 460.22931641 -109.63598633 459.54931641 C-110.29598633 459.54931641 -110.95598633 459.54931641 -111.63598633 459.54931641 C-111.63598633 458.88931641 -111.63598633 458.22931641 -111.63598633 457.54931641 C-112.29598633 457.54931641 -112.95598633 457.54931641 -113.63598633 457.54931641 C-113.63598633 456.88931641 -113.63598633 456.22931641 -113.63598633 455.54931641 C-114.62598633 455.21931641 -115.61598633 454.88931641 -116.63598633 454.54931641 C-116.63598633 453.88931641 -116.63598633 453.22931641 -116.63598633 452.54931641 C-117.29598633 452.54931641 -117.95598633 452.54931641 -118.63598633 452.54931641 C-118.63598633 451.88931641 -118.63598633 451.22931641 -118.63598633 450.54931641 C-119.50223633 450.20900391 -119.50223633 450.20900391 -120.38598633 449.86181641 C-123.20026246 448.22015533 -124.66336366 446.11372588 -126.63598633 443.54931641 C-127.29598633 443.21931641 -127.95598633 442.88931641 -128.63598633 442.54931641 C-128.63598633 441.88931641 -128.63598633 441.22931641 -128.63598633 440.54931641 C-129.29598633 440.54931641 -129.95598633 440.54931641 -130.63598633 440.54931641 C-130.63598633 439.88931641 -130.63598633 439.22931641 -130.63598633 438.54931641 C-131.29598633 438.54931641 -131.95598633 438.54931641 -132.63598633 438.54931641 C-132.63598633 437.88931641 -132.63598633 437.22931641 -132.63598633 436.54931641 C-133.62598633 436.21931641 -134.61598633 435.88931641 -135.63598633 435.54931641 C-135.63598633 434.88931641 -135.63598633 434.22931641 -135.63598633 433.54931641 C-136.29598633 433.54931641 -136.95598633 433.54931641 -137.63598633 433.54931641 C-137.63598633 432.88931641 -137.63598633 432.22931641 -137.63598633 431.54931641 C-138.27536133 431.28119141 -138.91473633 431.01306641 -139.57348633 430.73681641 C-141.63598633 429.54931641 -141.63598633 429.54931641 -142.63598633 426.54931641 C-143.29598633 426.54931641 -143.95598633 426.54931641 -144.63598633 426.54931641 C-144.63598633 425.88931641 -144.63598633 425.22931641 -144.63598633 424.54931641 C-145.62598633 424.21931641 -146.61598633 423.88931641 -147.63598633 423.54931641 C-147.63598633 422.88931641 -147.63598633 422.22931641 -147.63598633 421.54931641 C-148.29598633 421.54931641 -148.95598633 421.54931641 -149.63598633 421.54931641 C-149.63598633 420.88931641 -149.63598633 420.22931641 -149.63598633 419.54931641 C-150.29598633 419.54931641 -150.95598633 419.54931641 -151.63598633 419.54931641 C-151.63598633 418.88931641 -151.63598633 418.22931641 -151.63598633 417.54931641 C-152.62598633 417.21931641 -153.61598633 416.88931641 -154.63598633 416.54931641 C-154.63598633 415.88931641 -154.63598633 415.22931641 -154.63598633 414.54931641 C-155.29598633 414.54931641 -155.95598633 414.54931641 -156.63598633 414.54931641 C-156.63598633 413.88931641 -156.63598633 413.22931641 -156.63598633 412.54931641 C-157.27536133 412.28119141 -157.91473633 412.01306641 -158.57348633 411.73681641 C-160.63598633 410.54931641 -160.63598633 410.54931641 -161.63598633 407.54931641 C-162.29598633 407.54931641 -162.95598633 407.54931641 -163.63598633 407.54931641 C-163.63598633 406.88931641 -163.63598633 406.22931641 -163.63598633 405.54931641 C-164.62598633 405.21931641 -165.61598633 404.88931641 -166.63598633 404.54931641 C-166.63598633 403.88931641 -166.63598633 403.22931641 -166.63598633 402.54931641 C-167.29598633 402.54931641 -167.95598633 402.54931641 -168.63598633 402.54931641 C-168.63598633 401.88931641 -168.63598633 401.22931641 -168.63598633 400.54931641 C-169.29598633 400.54931641 -169.95598633 400.54931641 -170.63598633 400.54931641 C-174.67339039 394.82966065 -176.7131155 388.55699211 -175.63598633 381.54931641 C-174.53042873 378.42273949 -173.15681094 375.49324195 -171.63598633 372.54931641 C-171.30598633 371.88931641 -170.97598633 371.22931641 -170.63598633 370.54931641 C-169.97598633 370.54931641 -169.31598633 370.54931641 -168.63598633 370.54931641 C-168.29567383 369.68306641 -168.29567383 369.68306641 -167.94848633 368.79931641 C-166.29511703 365.96496904 -164.20634688 364.58169452 -161.63598633 362.54931641 C-160.71811752 361.48458859 -159.82222979 360.40054337 -158.94848633 359.29931641 C-158.18536133 358.39181641 -157.42223633 357.48431641 -156.63598633 356.54931641 C-155.97598633 356.54931641 -155.31598633 356.54931641 -154.63598633 356.54931641 C-154.30598633 355.55931641 -153.97598633 354.56931641 -153.63598633 353.54931641 C-152.97598633 353.54931641 -152.31598633 353.54931641 -151.63598633 353.54931641 C-151.63598633 352.88931641 -151.63598633 352.22931641 -151.63598633 351.54931641 C-150.97598633 351.54931641 -150.31598633 351.54931641 -149.63598633 351.54931641 C-149.63598633 350.88931641 -149.63598633 350.22931641 -149.63598633 349.54931641 C-148.26098633 347.92431641 -148.26098633 347.92431641 -146.63598633 346.54931641 C-145.97598633 346.54931641 -145.31598633 346.54931641 -144.63598633 346.54931641 C-146.35696156 341.20523543 -148.22291451 335.95396517 -150.24926758 330.71728516 C-150.6969751 329.55865967 -151.14468262 328.40003418 -151.60595703 327.20629883 C-151.9458667 326.32949463 -152.28577637 325.45269043 -152.63598633 324.54931641 C-153.80581055 324.53473389 -154.97563477 324.52015137 -156.1809082 324.50512695 C-160.54969801 324.44685258 -164.91798803 324.36962278 -169.28637695 324.28686523 C-171.17171068 324.25375236 -173.05714028 324.22567858 -174.94262695 324.20288086 C-177.66374305 324.16908264 -180.38399121 324.1167561 -183.10473633 324.06103516 C-183.93839722 324.05464523 -184.77205811 324.04825531 -185.63098145 324.04167175 C-193.32244474 323.8514179 -199.95294988 322.06998039 -205.63598633 316.54931641 C-208.73183739 312.12667204 -209.75576216 308.4330703 -209.77642822 303.0912323 C-209.78213837 302.20394943 -209.78784851 301.31666656 -209.79373169 300.40249634 C-209.79484955 299.43669647 -209.79596741 298.47089661 -209.79711914 297.47583008 C-209.80208405 296.45261154 -209.80704895 295.42939301 -209.81216431 294.37516785 C-209.82677265 290.98920011 -209.83358565 287.60327923 -209.83911133 284.21728516 C-209.84486375 281.86322529 -209.85062147 279.50916543 -209.85638428 277.15510559 C-209.8668904 272.21806622 -209.87273566 267.28104312 -209.8762207 262.34399414 C-209.88170542 256.02224806 -209.90573483 249.70071735 -209.93419266 243.37903881 C-209.95282887 238.51568476 -209.95802516 233.65238249 -209.95955658 228.78899574 C-209.96258126 226.45862971 -209.97060352 224.12826454 -209.98374176 221.79793358 C-210.00082283 218.53545172 -209.99891676 215.27349494 -209.99243164 212.01098633 C-210.00164642 211.05125916 -210.01086121 210.09153198 -210.02035522 209.10272217 C-209.97676008 202.09088057 -208.97207934 197.25426621 -204.26098633 191.79931641 C-200.02981191 188.17259548 -196.18171006 185.41893999 -190.5534668 185.43579102 C-189.29238602 185.43590431 -189.29238602 185.43590431 -188.00582886 185.4360199 C-186.64326462 185.44376183 -186.64326462 185.44376183 -185.25317383 185.45166016 C-184.32376984 185.4530751 -183.39436584 185.45449005 -182.4367981 185.45594788 C-179.46149508 185.46155588 -176.48626668 185.47410973 -173.51098633 185.48681641 C-171.4966645 185.49183038 -169.48234149 185.49639346 -167.46801758 185.50048828 C-162.52397831 185.51152791 -157.57999498 185.52879792 -152.63598633 185.54931641 C-152.44552734 184.88399902 -152.25506836 184.21868164 -152.05883789 183.53320312 C-150.52224033 178.27021259 -148.7973129 173.44583452 -146.30786133 168.55712891 C-145.48074176 166.08538787 -145.66684707 164.95002684 -146.63598633 162.54931641 C-148.28245318 160.86269183 -149.947817 159.19419934 -151.63598633 157.54931641 C-151.63598633 156.88931641 -151.63598633 156.22931641 -151.63598633 155.54931641 C-152.29598633 155.54931641 -152.95598633 155.54931641 -153.63598633 155.54931641 C-154.87484675 154.1095597 -156.10750473 152.66361956 -157.29614258 151.18212891 C-159.8779392 148.03579949 -162.85343893 145.26826455 -165.84692383 142.51806641 C-172.19586583 136.51841895 -175.11029563 132.28053267 -176.07348633 123.61181641 C-175.83455752 117.55497106 -172.82003166 110.92354561 -168.63598633 106.54931641 C-167.97598633 106.54931641 -167.31598633 106.54931641 -166.63598633 106.54931641 C-166.36786133 105.90994141 -166.09973633 105.27056641 -165.82348633 104.61181641 C-164.63598633 102.54931641 -164.63598633 102.54931641 -161.63598633 101.54931641 C-160.93447481 100.2339823 -160.27072707 98.89814049 -159.63598633 97.54931641 C-158.13598633 95.79931641 -158.13598633 95.79931641 -156.63598633 94.54931641 C-155.97598633 94.54931641 -155.31598633 94.54931641 -154.63598633 94.54931641 C-154.36786133 93.90994141 -154.09973633 93.27056641 -153.82348633 92.61181641 C-152.63598633 90.54931641 -152.63598633 90.54931641 -149.63598633 89.54931641 C-149.63598633 88.88931641 -149.63598633 88.22931641 -149.63598633 87.54931641 C-148.97598633 87.54931641 -148.31598633 87.54931641 -147.63598633 87.54931641 C-147.36786133 86.90994141 -147.09973633 86.27056641 -146.82348633 85.61181641 C-145.63598633 83.54931641 -145.63598633 83.54931641 -142.63598633 82.54931641 C-141.93447481 81.2339823 -141.27072707 79.89814049 -140.63598633 78.54931641 C-139.13598633 76.79931641 -139.13598633 76.79931641 -137.63598633 75.54931641 C-136.97598633 75.54931641 -136.31598633 75.54931641 -135.63598633 75.54931641 C-135.36786133 74.90994141 -135.09973633 74.27056641 -134.82348633 73.61181641 C-133.63598633 71.54931641 -133.63598633 71.54931641 -130.63598633 70.54931641 C-130.63598633 69.88931641 -130.63598633 69.22931641 -130.63598633 68.54931641 C-129.97598633 68.54931641 -129.31598633 68.54931641 -128.63598633 68.54931641 C-128.36786133 67.90994141 -128.09973633 67.27056641 -127.82348633 66.61181641 C-126.63598633 64.54931641 -126.63598633 64.54931641 -123.63598633 63.54931641 C-122.93447481 62.2339823 -122.27072707 60.89814049 -121.63598633 59.54931641 C-120.13598633 57.79931641 -120.13598633 57.79931641 -118.63598633 56.54931641 C-117.97598633 56.54931641 -117.31598633 56.54931641 -116.63598633 56.54931641 C-116.36786133 55.90994141 -116.09973633 55.27056641 -115.82348633 54.61181641 C-114.63598633 52.54931641 -114.63598633 52.54931641 -111.63598633 51.54931641 C-111.63598633 50.88931641 -111.63598633 50.22931641 -111.63598633 49.54931641 C-110.97598633 49.54931641 -110.31598633 49.54931641 -109.63598633 49.54931641 C-109.36786133 48.90994141 -109.09973633 48.27056641 -108.82348633 47.61181641 C-107.63598633 45.54931641 -107.63598633 45.54931641 -104.63598633 44.54931641 C-104.3240332 43.92412109 -104.01208008 43.29892578 -103.69067383 42.65478516 C-102.41421161 40.10658835 -101.18621933 39.3123803 -98.76098633 37.86181641 C-98.08293945 37.44544922 -97.40489258 37.02908203 -96.70629883 36.60009766 C-91.3650336 33.88915361 -85.23540472 33.73301974 -79.44848633 35.04541016 C-74.74352968 36.62263994 -71.99020203 38.82241007 -68.63598633 42.54931641 C-67.87286133 43.10619141 -67.10973633 43.66306641 -66.32348633 44.23681641 C-65.76661133 44.66994141 -65.20973633 45.10306641 -64.63598633 45.54931641 C-64.63598633 46.20931641 -64.63598633 46.86931641 -64.63598633 47.54931641 C-63.97598633 47.54931641 -63.31598633 47.54931641 -62.63598633 47.54931641 C-61.01489258 49.22900391 -61.01489258 49.22900391 -59.19848633 51.42431641 C-57.05197749 54.01125362 -55.46822071 55.66116015 -52.63598633 57.54931641 C-52.63598633 58.20931641 -52.63598633 58.86931641 -52.63598633 59.54931641 C-51.97598633 59.54931641 -51.31598633 59.54931641 -50.63598633 59.54931641 C-48.92917686 61.17484924 -47.25938438 62.84047635 -45.63598633 64.54931641 C-43.99049805 63.91703125 -43.99049805 63.91703125 -42.31176758 63.27197266 C-40.85741868 62.71838179 -39.40298723 62.16500778 -37.94848633 61.61181641 C-37.22725586 61.33402344 -36.50602539 61.05623047 -35.76293945 60.77001953 C-35.05717773 60.50253906 -34.35141602 60.23505859 -33.62426758 59.95947266 C-32.98013916 59.71334229 -32.33601074 59.46721191 -31.67236328 59.21362305 C-29.3519863 58.45666995 -27.03495997 57.98830855 -24.63598633 57.54931641 C-24.659552 55.7412854 -24.659552 55.7412854 -24.68359375 53.89672852 C-24.7380982 49.40347028 -24.77241085 44.91024101 -24.80078125 40.41674805 C-24.81582124 38.47594276 -24.83625847 36.5351712 -24.86230469 34.59448242 C-24.89889928 31.79679008 -24.91576081 28.99954907 -24.92895508 26.20166016 C-24.94443893 25.3409642 -24.95992279 24.48026825 -24.97587585 23.5934906 C-24.97773935 16.84719054 -23.84146953 12.11244553 -19.32348633 6.86181641 C-12.68490689 1.14955038 -8.58213732 -0.04282842 0 0 Z M7.36401367 83.54931641 C6.31600586 83.77192139 6.31600586 83.77192139 5.24682617 83.99902344 C-9.1776193 87.06812364 -22.26491447 91.52714613 -35.19067383 98.67822266 C-39.25720269 100.88668901 -43.37381987 102.75472 -47.63598633 104.54931641 C-47.63598633 105.20931641 -47.63598633 105.86931641 -47.63598633 106.54931641 C-48.3552832 106.80583984 -49.07458008 107.06236328 -49.81567383 107.32666016 C-58.11929689 110.92643026 -65.27691044 117.76348712 -72.17895508 123.51025391 C-73.64270858 124.72500641 -75.12009534 125.92404912 -76.62426758 127.08837891 C-78.92904163 128.88159213 -80.46185014 130.08909934 -81.51098633 132.86181641 C-81.55223633 133.41869141 -81.59348633 133.97556641 -81.63598633 134.54931641 C-82.29598633 134.54931641 -82.95598633 134.54931641 -83.63598633 134.54931641 C-83.63598633 135.20931641 -83.63598633 135.86931641 -83.63598633 136.54931641 C-84.19286133 136.75556641 -84.74973633 136.96181641 -85.32348633 137.17431641 C-88.60611004 139.12614672 -90.34271879 141.49162635 -92.63598633 144.54931641 C-92.63598633 145.20931641 -92.63598633 145.86931641 -92.63598633 146.54931641 C-93.29598633 146.54931641 -93.95598633 146.54931641 -94.63598633 146.54931641 C-96.95190655 149.77045798 -96.95190655 149.77045798 -97.63598633 153.54931641 C-98.29598633 153.54931641 -98.95598633 153.54931641 -99.63598633 153.54931641 C-114.79533274 173.7487548 -124.5706255 199.78023059 -128.63598633 224.54931641 C-128.84094727 225.63212891 -129.0459082 226.71494141 -129.25708008 227.83056641 C-133.77870738 255.02269751 -130.55449941 283.58714183 -121.63598633 309.54931641 C-121.25700195 310.65919922 -120.87801758 311.76908203 -120.48754883 312.91259766 C-116.1393573 324.86282873 -110.21002613 336.11319082 -103.76098633 347.04931641 C-103.18912598 348.02940674 -103.18912598 348.02940674 -102.60571289 349.02929688 C-101.67432124 350.57282958 -100.66236307 352.06724543 -99.63598633 353.54931641 C-98.97598633 353.54931641 -98.31598633 353.54931641 -97.63598633 353.54931641 C-97.32661133 354.33306641 -97.01723633 355.11681641 -96.69848633 355.92431641 C-95.70723594 358.47261769 -95.70723594 358.47261769 -94.63598633 360.54931641 C-93.97598633 360.54931641 -93.31598633 360.54931641 -92.63598633 360.54931641 C-92.40911133 361.08556641 -92.18223633 361.62181641 -91.94848633 362.17431641 C-90.18028544 365.37391802 -88.0992843 367.83968864 -85.63598633 370.54931641 C-84.97598633 370.54931641 -84.31598633 370.54931641 -83.63598633 370.54931641 C-83.63598633 371.20931641 -83.63598633 371.86931641 -83.63598633 372.54931641 C-82.97598633 372.54931641 -82.31598633 372.54931641 -81.63598633 372.54931641 C-81.53801758 373.14486328 -81.44004883 373.74041016 -81.33911133 374.35400391 C-79.98956991 378.56757212 -75.99038965 380.86478642 -72.63598633 383.54931641 C-71.83499512 384.19054443 -71.83499512 384.19054443 -71.01782227 384.84472656 C-69.27252956 386.23456952 -67.51896471 387.613061 -65.76098633 388.98681641 C-64.9039209 389.66091553 -64.9039209 389.66091553 -64.02954102 390.34863281 C-61.16376517 392.78332503 -61.16376517 392.78332503 -57.63598633 393.54931641 C-57.63598633 394.20931641 -57.63598633 394.86931641 -57.63598633 395.54931641 C-55.91797351 396.91569294 -55.91797351 396.91569294 -53.76098633 398.17431641 C-53.04168945 398.62033203 -52.32239258 399.06634766 -51.58129883 399.52587891 C-49.7073387 400.70451639 -49.7073387 400.70451639 -47.63598633 400.54931641 C-47.63598633 401.20931641 -47.63598633 401.86931641 -47.63598633 402.54931641 C-46.57379883 403.08041016 -45.51161133 403.61150391 -44.41723633 404.15869141 C-41.58390299 405.57535807 -38.75056966 406.99202474 -35.91723633 408.40869141 C-35.2040625 408.76326416 -34.49088867 409.11783691 -33.75610352 409.4831543 C-32.39072055 410.16977652 -31.03137235 410.86860269 -29.67993164 411.58227539 C-24.41689983 414.33002433 -19.02675216 416.27934832 -13.38598633 418.11181641 C-12.4564917 418.41627686 -11.52699707 418.7207373 -10.56933594 419.03442383 C22.64025185 429.78731436 57.84966284 430.22200391 91.36401367 420.54931641 C92.27022461 420.30181641 93.17643555 420.05431641 94.11010742 419.79931641 C105.8238481 416.50072703 116.57299706 411.06240238 127.36401367 405.54931641 C129.36309792 404.547487 131.36280595 403.5468973 133.36401367 402.54931641 C133.36401367 401.88931641 133.36401367 401.22931641 133.36401367 400.54931641 C135.34401367 399.88931641 137.32401367 399.22931641 139.36401367 398.54931641 C139.36401367 397.88931641 139.36401367 397.22931641 139.36401367 396.54931641 C140.46036133 396.16259766 140.46036133 396.16259766 141.57885742 395.76806641 C144.48052993 394.49833033 146.48976132 393.06138941 148.92651367 391.04931641 C149.79018555 390.33775391 150.65385742 389.62619141 151.54370117 388.89306641 C152.4744043 388.11962891 153.40510742 387.34619141 154.36401367 386.54931641 C155.3772168 385.73462891 156.39041992 384.91994141 157.43432617 384.08056641 C163.32886288 379.31696898 168.60254404 374.45049951 173.36401367 368.54931641 C174.12198242 367.67919922 174.12198242 367.67919922 174.89526367 366.79150391 C177.54076408 364.06722549 177.54076408 364.06722549 178.36401367 360.54931641 C179.02401367 360.54931641 179.68401367 360.54931641 180.36401367 360.54931641 C182.11673071 358.14229115 183.75633221 355.73790942 185.36401367 353.23681641 C186.04077148 352.20137695 186.04077148 352.20137695 186.73120117 351.14501953 C187.57419235 349.85434517 188.41433252 348.56180117 189.25073242 347.2668457 C190.27551549 345.68584814 191.31891763 344.11696047 192.36401367 342.54931641 C192.36401367 341.55931641 192.36401367 340.56931641 192.36401367 339.54931641 C193.02401367 339.54931641 193.68401367 339.54931641 194.36401367 339.54931641 C196.7230825 334.56206168 199.07242008 329.57044797 201.41137695 324.57373047 C202.13432196 323.03742601 202.86941349 321.50683026 203.61010742 319.97900391 C208.42651012 309.78661645 211.25762668 298.71941935 213.61401367 287.73681641 C213.77708008 286.9854541 213.94014648 286.2340918 214.1081543 285.45996094 C218.09954263 265.95735816 218.03999055 244.07648021 214.36401367 224.54931641 C214.1068457 222.87482422 214.1068457 222.87482422 213.84448242 221.16650391 C211.00064249 204.47041138 205.39923362 187.94690869 196.93041992 173.27978516 C195.36401367 170.54931641 195.36401367 170.54931641 194.36401367 167.54931641 C193.70401367 167.54931641 193.04401367 167.54931641 192.36401367 167.54931641 C192.22286133 166.75267578 192.22286133 166.75267578 192.07885742 165.93994141 C191.12955748 162.76523339 189.58952645 160.16204941 187.92651367 157.29931641 C187.30905273 156.22166016 186.6915918 155.14400391 186.05541992 154.03369141 C185.49725586 153.21384766 184.9390918 152.39400391 184.36401367 151.54931641 C183.70401367 151.54931641 183.04401367 151.54931641 182.36401367 151.54931641 C181.70401367 149.89931641 181.04401367 148.24931641 180.36401367 146.54931641 C179.70401367 146.54931641 179.04401367 146.54931641 178.36401367 146.54931641 C178.30213867 145.99244141 178.24026367 145.43556641 178.17651367 144.86181641 C177.01604033 141.55893073 174.89275363 139.96811115 172.36401367 137.54931641 C171.31591763 136.30470236 170.27479114 135.05420065 169.23901367 133.79931641 C165.63468526 129.64107605 161.58598149 126.27923916 157.28198242 122.86572266 C153.37351878 119.76301992 149.57944399 116.5273545 145.77416992 113.29931641 C143.5188368 111.66173255 142.08473731 110.95332177 139.36401367 110.54931641 C139.36401367 109.88931641 139.36401367 109.22931641 139.36401367 108.54931641 C137.38401367 107.88931641 135.40401367 107.22931641 133.36401367 106.54931641 C133.36401367 105.88931641 133.36401367 105.22931641 133.36401367 104.54931641 C129.34349964 102.51193448 125.31492938 100.49207692 121.2746582 98.49414062 C119.57242531 97.65237711 117.87236208 96.80622926 116.17260742 95.95947266 C100.8353753 88.57487941 85.06712208 84.47779642 68.36401367 81.54931641 C67.37272461 81.36240234 66.38143555 81.17548828 65.36010742 80.98291016 C46.05081969 78.18847608 26.34274918 79.33540942 7.36401367 83.54931641 Z " fill="#116BA8" transform="translate(519.635986328125,371.45068359375)"/>
<path d="M0 0 C38.61 0 77.22 0 117 0 C119.89294048 6.94305715 122.76289406 13.83670559 125.3984375 20.87109375 C125.859086 22.09258873 125.859086 22.09258873 126.32904053 23.33876038 C127.3463059 26.03761193 128.36063501 28.73755715 129.375 31.4375 C130.11551847 33.40372275 130.85624767 35.36986614 131.59716797 37.3359375 C133.20709176 41.60882258 134.81585368 45.88214269 136.42382812 50.15576172 C139.08648127 57.23141211 141.75377778 64.30530721 144.421875 71.37890625 C145.36214602 73.87182463 146.30241399 76.36474416 147.24267578 78.85766602 C147.47860758 79.48318454 147.71453938 80.10870306 147.95762062 80.75317669 C150.65227818 87.8976331 153.34568311 95.04256166 156.0390625 102.1875 C157.03547583 104.83073141 158.03189568 107.47396035 159.02832031 110.1171875 C159.39786426 111.09748129 159.39786426 111.09748129 159.77487373 112.097579 C162.44076209 119.16933228 165.10706385 126.24092968 167.7734375 133.3125 C168.00998865 133.93986557 168.2465398 134.56723114 168.49025917 135.21360779 C169.68328867 138.37767773 170.8763252 141.54174503 172.06936646 144.70581055 C174.45903234 151.04344662 176.84866178 157.38109643 179.23828125 163.71875 C179.4751383 164.3469313 179.71199535 164.97511261 179.95602989 165.62232971 C183.34511134 174.61070949 186.73397899 183.59916986 190.12272263 192.587677 C192.31093492 198.39180232 194.49919987 204.19590779 196.6875 210 C196.92725555 210.63591064 197.16701111 211.27182129 197.41403198 211.92700195 C204.27300763 230.11913889 211.13495622 248.31015198 218 266.5 C223.18523293 280.23896539 228.36950018 293.9782937 233.55078125 307.71875 C233.78622398 308.3431044 234.02166672 308.9674588 234.26424408 309.61073303 C236.66315818 315.97228043 239.06174986 322.33394875 241.45870209 328.69623566 C242.65850208 331.88088554 243.85849983 335.06546087 245.05859375 338.25 C245.29772743 338.88457626 245.53686111 339.51915253 245.78324127 340.17295837 C249.14353168 349.0887941 252.5136439 358.00086784 255.89060974 366.91040039 C257.77578222 371.88418173 259.65845389 376.85890855 261.54057026 381.83384705 C263.07874607 385.89894056 264.62028845 389.96273627 266.16433239 394.02560425 C267.33920043 397.12007116 268.50903572 400.21643568 269.6796875 403.3125 C270.10455948 404.4272168 270.52943146 405.54193359 270.96717834 406.69042969 C271.54779274 408.23005371 271.54779274 408.23005371 272.14013672 409.80078125 C272.47713593 410.68934814 272.81413513 411.57791504 273.16134644 412.4934082 C274 415 274 415 275 420 C237.71 420 200.42 420 162 420 C157.50031668 408.7507917 157.50031668 408.7507917 155.89697266 404.08569336 C155.35588364 402.51742043 155.35588364 402.51742043 154.80386353 400.91746521 C154.23966202 399.27029259 154.23966202 399.27029259 153.6640625 397.58984375 C153.26222748 396.42352921 152.86039246 395.25721466 152.44638062 394.05555725 C151.17025999 390.35033415 149.89747693 386.64397584 148.625 382.9375 C147.36213855 379.26528277 146.09856326 375.59331259 144.83441162 371.92153931 C144.01868818 369.5516848 143.20377481 367.1815513 142.38970947 364.81112671 C140.63942719 359.7215032 138.87977958 354.63658728 137.06152344 349.57080078 C136.7765097 348.77565567 136.49149597 347.98051056 136.19784546 347.16127014 C135.68401541 345.73442323 135.16613933 344.30902336 134.64321899 342.88548279 C133.63736783 340.0954558 133 337.99551357 133 335 C58.75 335.495 58.75 335.495 -17 336 C-27.395 366.69 -27.395 366.69 -38 398 C-41.96 408.89 -41.96 408.89 -46 420 C-82.3 420 -118.6 420 -156 420 C-155.26918961 415.61513763 -154.56123085 412.4208965 -153.0324707 408.38012695 C-152.62215607 407.28726883 -152.21184143 406.19441071 -151.78909302 405.06843567 C-151.33920013 403.88698471 -150.88930725 402.70553375 -150.42578125 401.48828125 C-149.94951736 400.22546603 -149.47377137 398.96245537 -148.99850464 397.69926453 C-147.97821509 394.99046292 -146.95459254 392.28295428 -145.92831421 389.57641602 C-144.28754153 385.24900216 -142.65438714 380.91873906 -141.02270508 376.58789062 C-140.46526922 375.10854595 -139.90781981 373.62920637 -139.35035706 372.14987183 C-139.07282656 371.41338284 -138.79529606 370.67689384 -138.50935555 369.91808701 C-137.6592607 367.66304352 -136.80842899 365.40827935 -135.9573822 363.15359497 C-131.10413925 350.29392709 -126.29625028 337.4176812 -121.50308228 324.53549194 C-112.74878264 301.0092128 -103.9446588 277.50183496 -95.125 254 C-87.76033511 234.37529025 -80.40281293 214.74826882 -73.10812378 195.09741211 C-65.75734751 175.30021733 -58.32900866 155.5321167 -50.90890503 135.76083374 C-44.46672652 118.59484287 -38.02969442 101.4271206 -31.64013672 84.24145508 C-21.18081484 56.12571211 -10.59178664 28.06823459 0 0 Z M57 109 C54.07018844 115.33706497 51.55381456 121.74818717 49.2265625 128.328125 C48.69181053 129.82594261 48.69181053 129.82594261 48.14625549 131.35401917 C47.37395429 133.51824618 46.60319857 135.6830252 45.83383179 137.84829712 C44.17584966 142.51392771 42.50997106 147.17672613 40.84446716 151.8396759 C39.95752176 154.32293601 39.07094234 156.80632686 38.18470764 159.2898407 C33.36106134 172.80532196 28.50003641 186.30729765 23.6317749 199.8067627 C22.67770755 202.45244102 21.72429695 205.09835438 20.77154541 207.74450684 C19.42569609 211.4824394 18.07835426 215.21983237 16.73046875 218.95703125 C16.10437714 220.69422928 16.10437714 220.69422928 15.46563721 222.46652222 C12.71523253 230.07807671 9.88713632 237.65486667 6.9543457 245.19799805 C5.83879655 247.97995626 5.83879655 247.97995626 6 251 C39.99 251 73.98 251 109 251 C103.46527445 234.28559593 103.46527445 234.28559593 97.53125 217.73046875 C96.71506926 215.52987345 95.89890803 213.32927091 95.08276367 211.12866211 C94.66207611 209.99830536 94.24138855 208.86794861 93.80795288 207.70333862 C91.51508857 201.54001193 89.23454982 195.3721352 86.95703125 189.203125 C86.71925776 188.55924269 86.48148426 187.91536037 86.23650551 187.25196648 C80.12127566 170.68286986 74.14982221 154.06210433 68.1875 137.4375 C67.92997955 136.71959164 67.67245911 136.00168327 67.40713501 135.26202011 C64.26760948 126.50937776 61.13164801 117.75546441 58 109 C57.67 109 57.34 109 57 109 Z " fill="#116BA8" transform="translate(1516,257)"/>
<path d="M0 0 C33 0 66 0 100 0 C100.029729 11.7418689 100.029729 11.7418689 100.06005859 23.72094727 C100.12495796 48.80852342 100.19949658 73.89606213 100.28005161 98.9835926 C100.29256948 102.88481345 100.30500241 106.78603457 100.31738281 110.68725586 C100.31984881 111.46387166 100.3223148 112.24048746 100.32485552 113.04063707 C100.36450683 125.59171963 100.3972878 138.14281112 100.42749982 150.69391955 C100.45868744 163.58633012 100.49732771 176.47870307 100.54279006 189.37107128 C100.57057813 197.3170992 100.59265277 205.26309981 100.60726251 213.20916306 C100.61911746 219.3170186 100.6413749 225.4247973 100.66738319 231.53260803 C100.67640975 234.02737378 100.68213762 236.52215413 100.68421364 239.01693535 C100.7095502 264.85253116 101.58341457 294.32550926 121 314 C128.57654875 320.67271893 136.6595472 325.25415218 146 329 C146.77988281 329.31710937 147.55976562 329.63421875 148.36328125 329.9609375 C170.14622527 338.00509599 198.34364748 336.1307123 219.390625 326.79296875 C235.17104031 319.26372323 246.56844837 307.02151171 252.45263672 290.56225586 C252.7157666 289.79921143 252.97889648 289.03616699 253.25 288.25 C253.49637207 287.54818604 253.74274414 286.84637207 253.99658203 286.12329102 C258.96594485 270.85975746 258.3058845 254.93080935 258.31884766 239.08447266 C258.32815761 236.47160028 258.33832785 233.85873084 258.34928894 231.24586487 C258.37144015 225.64486855 258.38652594 220.04389013 258.39665604 214.44285965 C258.41131245 206.3449617 258.43686822 198.24712617 258.46498732 190.1492651 C258.51032963 177.00740428 258.54699602 163.86553442 258.578125 150.72363281 C258.60836222 137.96612969 258.64273605 125.20864865 258.68261719 112.45117188 C258.68507874 111.66329618 258.68754028 110.87542048 258.69007643 110.06366976 C258.70245203 106.11067954 258.71490837 102.15768959 258.72740483 98.20469975 C258.83078432 65.46982606 258.91843619 32.73493712 259 0 C292.33 0 325.66 0 360 0 C360.06630648 33.47831146 360.12163308 66.95655849 360.15319599 100.43491599 C360.15694749 104.39964463 360.16083052 108.36437313 360.16479492 112.32910156 C360.16558185 113.11830964 360.16636878 113.90751772 360.16717956 114.7206412 C360.18018481 127.44997312 360.20381131 140.17926383 360.23145839 152.90857142 C360.25964923 165.99874839 360.27620495 179.08890398 360.28226548 192.17911005 C360.28635378 200.23725488 360.29920027 208.29528317 360.3237494 216.35339206 C360.34168802 222.56315992 360.34333156 228.77284146 360.33932304 234.98263168 C360.3401396 237.50749803 360.34598767 240.03236932 360.35761642 242.55720901 C360.59019664 295.72155226 347.19750261 344.9869594 309.4375 383.8125 C296.22595516 396.62793151 280.70650267 406.4288883 264 414 C263.38688965 414.27827637 262.7737793 414.55655273 262.14208984 414.84326172 C246.25682937 421.91333333 229.2013718 425.79718779 212 428 C211.27079346 428.09571289 210.54158691 428.19142578 209.7902832 428.29003906 C200.61297174 429.30720855 191.37448273 429.22197169 182.15258789 429.24023438 C179.23228492 429.2498525 176.31271416 429.28091229 173.39257812 429.3125 C156.43980541 429.40805869 139.60392902 427.84239856 123.125 423.6875 C122.26680664 423.47585205 121.40861328 423.2642041 120.52441406 423.04614258 C112.42036859 420.97492456 104.69155253 418.27068009 97 415 C96.32018066 414.71817871 95.64036133 414.43635742 94.93994141 414.14599609 C57.57221296 398.47007388 29.05661198 366.5672285 13.8125 329.4375 C4.72860044 306.41751474 -0.1913587 281.36683077 -0.12025452 256.62313843 C-0.12110894 255.52020215 -0.12196337 254.41726587 -0.12284368 253.28090727 C-0.12448258 249.60831586 -0.11900327 245.93577076 -0.11352539 242.26318359 C-0.11324315 239.62134702 -0.11335801 236.97951323 -0.1139679 234.337677 C-0.11449061 228.66184388 -0.11137026 222.98602232 -0.10573006 217.31019211 C-0.09758075 209.10403535 -0.09499633 200.89788414 -0.09374207 192.69172378 C-0.09155693 179.37569681 -0.08491145 166.05967598 -0.07543945 152.74365234 C-0.0662514 139.81331411 -0.05917739 126.88297756 -0.05493164 113.95263672 C-0.05466892 113.15474914 -0.05440619 112.35686156 -0.05413551 111.53479557 C-0.05283041 107.53177083 -0.05156672 103.52874607 -0.05032361 99.52572131 C-0.03996776 66.35047542 -0.02153849 33.17524098 0 0 Z " fill="#116BA7" transform="translate(957,257)"/>
<path d="M0 0 C0.60626221 0.31799561 1.21252441 0.63599121 1.8371582 0.96362305 C3.69115131 1.94063957 5.53366449 2.93687226 7.375 3.9375 C8.40753906 4.48921875 9.44007813 5.0409375 10.50390625 5.609375 C12.59037316 6.72855265 14.67358242 7.85381958 16.75390625 8.984375 C20.31944327 10.91650923 23.90814052 12.80344401 27.49926758 14.6875 C29.96258467 15.98036271 32.42279372 17.27899997 34.8828125 18.578125 C37.55471036 19.9874531 40.23342564 21.37142944 42.9296875 22.734375 C44.38761719 23.48460937 44.38761719 23.48460937 45.875 24.25 C46.6896875 24.65863281 47.504375 25.06726563 48.34375 25.48828125 C50.9035392 27.31459239 52.00195713 29.12685113 53.375 31.9375 C53.87900717 35.96955738 53.72757383 38.21702304 51.9375 41.875 C48.69863614 44.48189043 46.75832506 44.58940099 42.69140625 44.375 C38.98918381 43.67576069 36.51000782 42.00660516 33.375 39.9375 C32.385 39.6075 31.395 39.2775 30.375 38.9375 C30.375 38.2775 30.375 37.6175 30.375 36.9375 C29.79186035 36.80939941 29.2087207 36.68129883 28.60791016 36.54931641 C26.42883417 35.95225054 24.6518426 35.18213419 22.6484375 34.1484375 C21.95202148 33.79104492 21.25560547 33.43365234 20.53808594 33.06542969 C19.82426758 32.69321289 19.11044922 32.32099609 18.375 31.9375 C17.68954102 31.58333008 17.00408203 31.22916016 16.29785156 30.86425781 C14.19399153 29.77215508 12.09594235 28.66971789 10 27.5625 C8.89180908 26.97758789 8.89180908 26.97758789 7.76123047 26.38085938 C2.82406007 23.75606198 -2.00358831 21.00319374 -6.7421875 18.03125 C-8.73644633 16.7875216 -8.73644633 16.7875216 -11.625 15.9375 C-11.8828125 16.50984375 -12.140625 17.0821875 -12.40625 17.671875 C-13.73865942 20.14878995 -15.27556118 22.0716166 -17.125 24.1875 C-17.7334375 24.89390625 -18.341875 25.6003125 -18.96875 26.328125 C-20.625 27.9375 -20.625 27.9375 -22.625 27.9375 C-23.01365234 28.80375 -23.01365234 28.80375 -23.41015625 29.6875 C-24.71837457 32.11043811 -26.21365731 33.90178504 -28.0625 35.9375 C-29.90397059 37.97385624 -31.63195871 39.94730004 -33.22265625 42.1875 C-33.91681641 43.05375 -33.91681641 43.05375 -34.625 43.9375 C-35.285 43.9375 -35.945 43.9375 -36.625 43.9375 C-36.955 44.9275 -37.285 45.9175 -37.625 46.9375 C-38.285 46.9375 -38.945 46.9375 -39.625 46.9375 C-42.14070565 51.39044361 -42.02811214 55.29951482 -42.0625 60.3125 C-42.11180664 61.56933594 -42.11180664 61.56933594 -42.16210938 62.8515625 C-42.21571943 69.05083427 -40.9413674 71.53248682 -36.625 75.9375 C-36.625 76.5975 -36.625 77.2575 -36.625 77.9375 C-35.965 77.9375 -35.305 77.9375 -34.625 77.9375 C-33.03966298 79.65082754 -31.52958785 81.43439047 -30.0625 83.25 C-28.85400391 84.72919922 -28.85400391 84.72919922 -27.62109375 86.23828125 C-25.625 88.9375 -25.625 88.9375 -24.625 91.9375 C-23.965 91.9375 -23.305 91.9375 -22.625 91.9375 C-20.85075703 94.03641114 -19.28186734 96.25380503 -17.671875 98.48046875 C-15.23318907 101.40782267 -12.60469544 103.56805292 -9.625 105.9375 C-9.13209473 105.66075439 -8.63918945 105.38400879 -8.13134766 105.09887695 C8.0777005 96.01084003 8.0777005 96.01084003 15.75 92.28125 C20.07264466 90.06846761 24.27892551 87.64663454 28.49267578 85.23413086 C43.27977208 76.80522713 43.27977208 76.80522713 48.375 77.9375 C51.31742435 80.49612987 53.03875195 82.1280002 53.75390625 85.9765625 C53.86138929 89.8029588 53.59291816 92.82759301 51.375 95.9375 C48.90909542 97.46274062 46.52495317 98.78034262 43.9375 100.0625 C42.38399423 100.85783787 40.8306133 101.65341964 39.27734375 102.44921875 C38.46894043 102.85833496 37.66053711 103.26745117 36.82763672 103.68896484 C32.862201 105.70760293 28.93349937 107.79503551 25 109.875 C23.41811721 110.70601183 21.83608448 111.5367383 20.25390625 112.3671875 C16.85919178 114.15170353 13.4725486 115.95063954 10.08984375 117.7578125 C9.2272998 118.21679932 8.36475586 118.67578613 7.47607422 119.14868164 C5.8208764 120.02976646 4.1674618 120.91421192 2.51611328 121.80249023 C1.3963208 122.39719116 1.3963208 122.39719116 0.25390625 123.00390625 C-0.4002124 123.35396729 -1.05433105 123.70402832 -1.72827148 124.06469727 C-6.15657087 126.10243318 -10.79893217 126.58409938 -15.625 125.9375 C-20.49701514 123.55120687 -23.58325499 119.92576788 -27.01171875 115.8359375 C-28.69490426 113.7950482 -28.69490426 113.7950482 -31.0625 111.5625 C-32.625 109.9375 -32.625 109.9375 -32.625 107.9375 C-33.285 107.9375 -33.945 107.9375 -34.625 107.9375 C-34.625 107.2775 -34.625 106.6175 -34.625 105.9375 C-35.285 105.9375 -35.945 105.9375 -36.625 105.9375 C-36.625 105.2775 -36.625 104.6175 -36.625 103.9375 C-37.615 103.6075 -38.605 103.2775 -39.625 102.9375 C-39.625 102.2775 -39.625 101.6175 -39.625 100.9375 C-40.285 100.9375 -40.945 100.9375 -41.625 100.9375 C-42.285 99.9475 -42.945 98.9575 -43.625 97.9375 C-44.058125 98.88625 -44.49125 99.835 -44.9375 100.8125 C-46.625 103.9375 -46.625 103.9375 -49.625 105.9375 C-52.64047986 106.2779574 -54.7195307 106.50497447 -57.625 105.9375 C-60.66222197 103.49451712 -62.46924433 101.1711335 -64.625 97.9375 C-64.85205078 95.30200195 -64.85205078 95.30200195 -64.8203125 92.17578125 C-64.81531738 91.16813721 -64.81032227 90.16049316 -64.80517578 89.12231445 C-64.78696777 87.84445068 -64.76875977 86.56658691 -64.75 85.25 C-64.70875 81.186875 -64.6675 77.12375 -64.625 72.9375 C-80.465 72.9375 -96.305 72.9375 -112.625 72.9375 C-112.955 75.9075 -113.285 78.8775 -113.625 81.9375 C-115.09765625 84.00390625 -115.09765625 84.00390625 -116.6875 85.5 C-118.180853 87.44880923 -118.180853 87.44880923 -118.625 89.9375 C-117.00246806 94.82811046 -114.48456587 99.10705846 -111.93359375 103.56738281 C-109.60781294 107.77982314 -107.60324294 112.14434337 -105.5625 116.5 C-104.71385944 118.29051523 -103.86490574 120.08088208 -103.015625 121.87109375 C-99.04366107 130.2807328 -95.08916613 138.69702606 -91.2578125 147.171875 C-88.68491361 152.83910848 -86.01076976 158.4541049 -83.3125 164.0625 C-78.1267417 174.87402034 -72.9885336 185.70661173 -67.9296875 196.578125 C-67.37539063 197.76921875 -66.82109375 198.9603125 -66.25 200.1875 C-65.97687988 200.77571533 -65.70375977 201.36393066 -65.42236328 201.9699707 C-63.64162474 205.79385645 -61.82935269 209.60145731 -60 213.40234375 C-59.54544434 214.34883789 -59.09088867 215.29533203 -58.62255859 216.27050781 C-57.72243192 218.14248951 -56.81921643 220.01298979 -55.91259766 221.88183594 C-55.29457275 223.16815918 -55.29457275 223.16815918 -54.6640625 224.48046875 C-54.29490723 225.24383545 -53.92575195 226.00720215 -53.54541016 226.79370117 C-52.625 228.9375 -52.625 228.9375 -51.625 232.9375 C-34.135 232.9375 -16.645 232.9375 1.375 232.9375 C1.375 244.8175 1.375 256.6975 1.375 268.9375 C-56.375 268.9375 -114.125 268.9375 -173.625 268.9375 C-173.625 257.0575 -173.625 245.1775 -173.625 232.9375 C-159.765 232.9375 -145.905 232.9375 -131.625 232.9375 C-132.65625 229.1425 -133.6875 225.3475 -134.75 221.4375 C-137.20141882 212.37708363 -139.56315584 203.30015279 -141.8125 194.1875 C-143.5799029 187.03669423 -145.42826423 179.93307957 -147.5 172.86328125 C-150.37993119 162.93780411 -152.96059135 152.92242968 -155.625 142.9375 C-155.86395996 142.04240723 -156.10291992 141.14731445 -156.34912109 140.22509766 C-156.98510083 137.83818183 -157.61817634 135.45051894 -158.25 133.0625 C-158.44770996 132.31967773 -158.64541992 131.57685547 -158.84912109 130.81152344 C-159.93132906 126.70930396 -160.94622289 122.59838367 -161.90234375 118.46484375 C-162.11745605 117.5526709 -162.33256836 116.64049805 -162.55419922 115.70068359 C-162.96534811 113.94735706 -163.36481622 112.19123504 -163.75048828 110.43212891 C-164.8318943 105.85178193 -165.72056866 102.90609515 -169.625 99.9375 C-171.75809192 98.70237921 -171.75809192 98.70237921 -173.625 97.9375 C-173.625 97.2775 -173.625 96.6175 -173.625 95.9375 C-174.2128125 95.69644531 -174.800625 95.45539063 -175.40625 95.20703125 C-182.4492114 91.17716778 -185.92776564 82.01775865 -187.96875 74.56640625 C-190.66259475 59.67008617 -188.52807266 46.691687 -180.24609375 33.95703125 C-179.71113281 33.29058594 -179.17617188 32.62414062 -178.625 31.9375 C-177.965 31.9375 -177.305 31.9375 -176.625 31.9375 C-176.625 31.2775 -176.625 30.6175 -176.625 29.9375 C-175.965 29.9375 -175.305 29.9375 -174.625 29.9375 C-174.37363281 29.33164062 -174.12226563 28.72578125 -173.86328125 28.1015625 C-172.44459254 25.62221378 -171.24974427 24.75713809 -168.8125 23.3125 C-168.14605469 22.90773438 -167.47960937 22.50296875 -166.79296875 22.0859375 C-158.23914492 17.55472271 -147.92886918 16.68571149 -138.58203125 19.26953125 C-133.65032204 20.95280924 -128.92202498 22.9426038 -124.625 25.9375 C-124.625 26.5975 -124.625 27.2575 -124.625 27.9375 C-123.965 27.9375 -123.305 27.9375 -122.625 27.9375 C-122.625 28.5975 -122.625 29.2575 -122.625 29.9375 C-121.965 29.9375 -121.305 29.9375 -120.625 29.9375 C-116.12298898 35.26882884 -111.625 42.73991162 -111.625 49.9375 C-96.115 49.9375 -80.605 49.9375 -64.625 49.9375 C-64.78244446 42.35377635 -64.78244446 42.35377635 -64.98535156 34.77124023 C-65.05329496 28.26237268 -64.59790098 24.18320074 -60.625 18.9375 C-58.17117866 17.71058933 -56.42515897 17.73574069 -53.6875 17.6875 C-52.81222656 17.66171875 -51.93695312 17.6359375 -51.03515625 17.609375 C-48.16176639 18.00056584 -47.37525601 18.68173526 -45.625 20.9375 C-44.4375 23.125 -44.4375 23.125 -43.625 24.9375 C-42.965 24.9375 -42.305 24.9375 -41.625 24.9375 C-41.625 24.2775 -41.625 23.6175 -41.625 22.9375 C-40.965 22.9375 -40.305 22.9375 -39.625 22.9375 C-39.52445313 22.33421875 -39.42390625 21.7309375 -39.3203125 21.109375 C-38.49265785 18.52411666 -37.63442435 17.81463964 -35.5 16.1875 C-32.02888713 13.37653743 -29.21584258 10.28435644 -26.31640625 6.8984375 C-18.46628773 -2.20262369 -11.5538427 -6.15573586 0 0 Z M-162.625 46.9375 C-166.26578124 52.67787288 -168.17809084 58.0791736 -167.625 64.9375 C-166.50414941 68.05040777 -165.12038856 70.98876191 -163.625 73.9375 C-163.295 74.5975 -162.965 75.2575 -162.625 75.9375 C-161.965 75.9375 -161.305 75.9375 -160.625 75.9375 C-160.625 76.5975 -160.625 77.2575 -160.625 77.9375 C-155.65656419 80.61723505 -151.31290989 82.81108481 -145.60546875 81.671875 C-139.97757508 79.58500319 -134.93822474 75.46323374 -132.25 70.05078125 C-130.47262714 64.04103926 -130.64232069 57.33694607 -133.125 51.5625 C-135.74562461 47.21299109 -138.96251193 44.01559436 -143.625 41.9375 C-150.92704449 40.58957944 -157.59922132 41.06941204 -162.625 46.9375 Z " fill="#116BA8" transform="translate(634.625,493.0625)"/>
</svg>
