<?xml version="1.0" encoding="UTF-8"?>
<svg version="1.1" xmlns="http://www.w3.org/2000/svg" width="4214" height="780">
<path d="M0 0 C1.12201813 0.00182281 2.24403625 0.00364563 3.40005493 0.00552368 C36.05606842 0.09479146 69.23768786 3.39252196 99.9375 15.3125 C100.83533203 15.65861328 101.73316406 16.00472656 102.65820312 16.36132812 C115.74165488 21.43450329 128.57544336 26.66071664 140.9375 33.3125 C142.15010498 33.95687012 142.15010498 33.95687012 143.38720703 34.61425781 C152.92414791 39.69327055 162.32515305 44.74650557 170.9375 51.3125 C171.90816406 52.03179687 172.87882812 52.75109375 173.87890625 53.4921875 C176.91256314 55.74749688 179.92672725 58.02677048 182.9375 60.3125 C184.09572266 61.17488281 184.09572266 61.17488281 185.27734375 62.0546875 C190.35456451 65.89244207 195.04692176 70.06055762 199.68945312 74.40576172 C201.93365773 76.50271872 204.18832121 78.51102075 206.59765625 80.41796875 C208.72930451 82.14392769 210.38282861 83.83256284 212.125 85.9375 C215.65579214 90.08502439 219.48153601 93.8555621 223.41015625 97.625 C226.56643776 100.98129317 229.21570239 104.60257813 231.9375 108.3125 C232.91093041 109.58963295 233.88744802 110.86441931 234.8671875 112.13671875 C241.08431668 120.26913154 246.77832567 128.45757098 251.9375 137.3125 C252.39125 138.06789062 252.845 138.82328125 253.3125 139.6015625 C255.9375 144.03125 255.9375 144.03125 255.9375 146.3125 C256.5975 146.3125 257.2575 146.3125 257.9375 146.3125 C263.62453378 157.39052603 269.25815625 168.39700534 273.68359375 180.046875 C274.81292411 182.98805935 276.07163521 185.82093565 277.375 188.6875 C284.97940496 206.97719424 288.56109625 226.89259891 291.9375 246.3125 C292.20699463 247.78275635 292.20699463 247.78275635 292.48193359 249.28271484 C295.01906207 263.54909347 295.06813253 277.68733181 295 292.125 C294.99497239 293.99283733 294.99041173 295.86067599 294.98632812 297.72851562 C294.97542834 302.25654359 294.95823403 306.78450683 294.9375 311.3125 C291.77729349 309.81096316 289.77283997 308.31356541 287.375 305.75 C280.6457359 298.85933289 272.97080889 293.08047293 265.375 287.1875 C264.83238525 286.76138428 264.28977051 286.33526855 263.73071289 285.89624023 C261.20335709 283.93760593 258.70031082 282.1762162 255.92578125 280.58203125 C253.17100368 278.99046932 251.12136541 277.62711333 248.9375 275.3125 C248.40917969 272.61621094 248.40917969 272.61621094 248.359375 269.484375 C248.01745073 262.05477513 246.58640833 255.11230755 244.9375 247.875 C244.39475379 245.43904236 243.85304922 243.00285235 243.3125 240.56640625 C243.07273437 239.50752197 242.83296875 238.4486377 242.5859375 237.35766602 C241.94764766 234.36015503 241.44133626 231.33551754 240.9375 228.3125 C202.9875 228.3125 165.0375 228.3125 125.9375 228.3125 C125.9375 232.2725 125.9375 236.2325 125.9375 240.3125 C111.0875 240.3125 96.2375 240.3125 80.9375 240.3125 C79.9375 237.3125 79.9375 237.3125 79.9375 228.3125 C27.7975 228.3125 -24.3425 228.3125 -78.0625 228.3125 C-78.0625 231.2825 -78.0625 234.2525 -78.0625 237.3125 C-78.33642258 240.26182176 -78.64426009 243.18653816 -79 246.125 C-80.64574033 260.98455492 -81.14478992 275.77528889 -81.18170166 290.72039795 C-81.18556979 292.19944958 -81.19155406 293.67849718 -81.199646 295.15753174 C-81.23628744 302.6868315 -81.16255816 310.1127742 -80.4140625 317.61328125 C-78.94963668 332.9377674 -81.1281279 340.94658147 -90.47753906 353.15380859 C-92.92727354 356.49030771 -94.89396164 360.02616397 -96.8125 363.6875 C-97.17029541 364.36562744 -97.52809082 365.04375488 -97.89672852 365.74243164 C-101.97848668 373.74267764 -105.01883618 382.17934696 -108.0168457 390.6328125 C-109.55852557 394.58365961 -111.34007209 398.43703721 -113.0625 402.3125 C-119.6625 402.3125 -126.2625 402.3125 -133.0625 402.3125 C-133.0625 402.9725 -133.0625 403.6325 -133.0625 404.3125 C-177.6125 404.8075 -177.6125 404.8075 -223.0625 405.3125 C-216.31188409 417.55892201 -216.31188409 417.55892201 -208.875 429.3125 C-208.45412109 429.93366699 -208.03324219 430.55483398 -207.59960938 431.19482422 C-204.54763158 435.67286097 -201.38632591 440.0344657 -198.0625 444.3125 C-197.24653618 445.38736879 -196.43152045 446.46295762 -195.6171875 447.5390625 C-194.72419723 448.71372332 -193.83096676 449.88820157 -192.9375 451.0625 C-192.51726562 451.61824707 -192.09703125 452.17399414 -191.6640625 452.74658203 C-189.8048567 455.17575797 -187.94138787 457.43155938 -185.7578125 459.578125 C-184.0625 461.3125 -184.0625 461.3125 -184.0625 463.3125 C-183.22525391 463.63734375 -183.22525391 463.63734375 -182.37109375 463.96875 C-179.2845931 465.76529183 -177.44726477 468.10260908 -175.125 470.8125 C-170.58704423 475.98638271 -165.71708048 480.1854133 -160.12719727 484.18945312 C-158.74245089 485.19042393 -157.3979689 486.24667267 -156.0625 487.3125 C-156.0625 487.9725 -156.0625 488.6325 -156.0625 489.3125 C-155.37800781 489.54839844 -154.69351563 489.78429687 -153.98828125 490.02734375 C-150.44585661 491.58336205 -147.41129451 493.67614682 -144.25 495.875 C-138.12642974 500.0577917 -131.8556391 503.81242469 -125.3425293 507.35571289 C-123.57209167 508.32245167 -121.81653323 509.31630691 -120.0625 510.3125 C-119.29292969 510.745625 -118.52335938 511.17875 -117.73046875 511.625 C-115.19133289 514.19386813 -114.85643159 516.89091626 -114.0625 520.375 C-112.7872248 525.64225023 -111.30950423 530.61743755 -109.18359375 535.60546875 C-108.03679875 538.37455912 -107.01482663 541.17804265 -105.99829102 543.99707031 C-103.31220838 551.41118421 -100.1859124 558.36321976 -96.48046875 565.32421875 C-95.17249802 568.080686 -94.5915577 570.33753162 -94.0625 573.3125 C-101.72604491 571.24356568 -108.88142923 568.41675732 -116.125 565.1875 C-117.22263672 564.70031494 -118.32027344 564.21312988 -119.45117188 563.71118164 C-128.54807595 559.62836639 -137.38538622 555.22049248 -146.0625 550.3125 C-146.7946875 549.90112793 -147.526875 549.48975586 -148.28125 549.06591797 C-155.84100754 544.79575527 -163.25708093 540.54301763 -169.9765625 535.0078125 C-172.34949854 533.0792465 -174.81667176 531.32888847 -177.3125 529.5625 C-194.37331426 517.2130403 -211.4830213 502.24824452 -224.2734375 485.5390625 C-225.99433539 483.30386952 -225.99433539 483.30386952 -227.94140625 481.48828125 C-230.8379334 478.51707384 -233.1942573 475.23080267 -235.625 471.875 C-236.10646484 471.21951172 -236.58792969 470.56402344 -237.08398438 469.88867188 C-244.0625 460.31841042 -244.0625 460.31841042 -244.0625 457.3125 C-244.7225 457.3125 -245.3825 457.3125 -246.0625 457.3125 C-249.57234847 451.24288427 -253.05324689 445.15747569 -256.50683594 439.05566406 C-257.44514904 437.4010994 -258.38733292 435.74870953 -259.33691406 434.10058594 C-267.14939362 420.50405983 -272.59368633 405.97684985 -278.0625 391.3125 C-278.4958667 390.17167969 -278.4958667 390.17167969 -278.93798828 389.0078125 C-288.66196156 363.23500976 -293.1490531 334.23299123 -293.265625 306.7421875 C-293.27132507 305.66284943 -293.27702515 304.58351135 -293.28289795 303.47146606 C-293.29228939 301.19404053 -293.29885843 298.91660176 -293.30273438 296.63916016 C-293.31233772 293.2448579 -293.34337587 289.85118934 -293.375 286.45703125 C-293.46967643 267.00177555 -291.92140462 247.69922139 -287.625 228.6875 C-287.40674561 227.69282715 -287.18849121 226.6981543 -286.96362305 225.67333984 C-286.34377836 222.88301741 -285.70490869 220.09769381 -285.0625 217.3125 C-284.91232422 216.62607422 -284.76214844 215.93964844 -284.60742188 215.23242188 C-281.65407314 201.77827766 -276.17968904 189.0551396 -271.0625 176.3125 C-270.75441406 175.53197266 -270.44632813 174.75144531 -270.12890625 173.94726562 C-260.25233464 149.0668113 -244.99403557 125.92546951 -228.0625 105.3125 C-227.28990845 104.37120239 -227.28990845 104.37120239 -226.50170898 103.41088867 C-219.95944542 95.53406137 -213.02724647 88.07661131 -205.8125 80.8125 C-204.71446045 79.70068359 -204.71446045 79.70068359 -203.59423828 78.56640625 C-199.31857841 74.31477234 -194.89663549 70.48810214 -190.08935547 66.84912109 C-187.57138802 64.940173 -185.16471772 62.91229773 -182.75 60.875 C-177.12190144 56.24657769 -171.17143281 52.27029231 -165.0625 48.3125 C-164.40217773 47.86165039 -163.74185547 47.41080078 -163.06152344 46.94628906 C-153.81983558 40.65312026 -143.95098925 35.5064721 -134.0625 30.3125 C-133.340625 29.93303223 -132.61875 29.55356445 -131.875 29.16259766 C-110.03110948 17.86683582 -86.09465289 10.18529844 -62.0625 5.3125 C-61.27101563 5.14814453 -60.47953125 4.98378906 -59.6640625 4.81445312 C-39.91168369 0.77734412 -20.1107115 -0.06789823 0 0 Z M-0.0625 45.3125 C-7.21945031 51.49589457 -13.40693429 57.69384536 -19.0625 65.3125 C-20.02929688 66.57320312 -20.02929688 66.57320312 -21.015625 67.859375 C-42.12886477 95.95494604 -69.0625 147.33952147 -69.0625 183.3125 C-22.8625 183.3125 23.3375 183.3125 70.9375 183.3125 C70.24214767 176.23830799 70.24214767 176.23830799 68.7734375 169.54296875 C68.54277588 168.72844238 68.31211426 167.91391602 68.07446289 167.07470703 C67.82301514 166.22505371 67.57156738 165.37540039 67.3125 164.5 C66.90729126 163.12497314 66.90729126 163.12497314 66.49389648 161.72216797 C65.65521454 158.9146687 64.7985262 156.11321715 63.9375 153.3125 C63.57857666 152.11536377 63.57857666 152.11536377 63.21240234 150.89404297 C55.69376047 126.16897606 43.11731151 102.80149271 28.9375 81.3125 C28.17898941 80.12758009 27.42228426 78.94150114 26.66796875 77.75390625 C22.85405668 71.84873668 18.69368525 66.37621818 14.17578125 60.9921875 C11.28429827 57.53048187 8.52302922 53.97221908 5.76171875 50.40625 C3.97344373 48.35375447 2.17309124 46.85224496 -0.0625 45.3125 Z M65.9375 53.3125 C67.32902666 57.05442398 69.04713171 60.36270439 71.09765625 63.78515625 C81.14049621 80.74127325 89.79194993 97.7582492 96.453125 116.34375 C97.6305442 119.60096179 98.98724102 122.76166905 100.359375 125.94140625 C103.07388282 132.41438562 105.0613083 138.99306269 106.9375 145.75 C107.2785376 146.95833496 107.6195752 148.16666992 107.97094727 149.41162109 C110.56922116 158.72266547 112.88642449 168.08224401 115.02734375 177.5078125 C115.73261953 181.09177943 115.73261953 181.09177943 116.9375 183.3125 C152.5775 183.3125 188.2175 183.3125 224.9375 183.3125 C223.2246184 178.1738552 221.32734571 173.85607674 218.8125 169.125 C218.41506592 168.37541016 218.01763184 167.62582031 217.6081543 166.85351562 C214.70788836 161.49421588 211.47582382 156.56490393 207.765625 151.72265625 C206.04849547 149.45883377 204.51894084 147.14942578 203 144.75 C200.14904246 140.41192136 196.79470071 136.69837141 193.26953125 132.8984375 C190.9876927 130.36815757 188.90507315 127.75013632 186.8125 125.0625 C170.95652775 105.59169469 147.21610682 86.12943662 123.9375 76.3125 C123.2775 76.3125 122.6175 76.3125 121.9375 76.3125 C121.9375 75.6525 121.9375 74.9925 121.9375 74.3125 C108.33892139 67.75455634 94.68807807 61.8365421 80.375 57 C79.62484619 56.74524902 78.87469238 56.49049805 78.10180664 56.22802734 C74.06248291 54.89356323 70.17122161 53.88100922 65.9375 53.3125 Z M-87.39453125 60.1953125 C-90.00711786 61.28930924 -92.6436781 62.30740533 -95.28710938 63.32397461 C-118.26989713 72.25549221 -140.4406165 84.61179603 -159.078125 100.765625 C-161.51804958 102.8478643 -163.97317482 104.79904479 -166.5625 106.6875 C-171.83422291 110.56150097 -175.98630499 115.29883791 -180.21875 120.25 C-181.58259124 121.77565291 -183.00529183 123.24913985 -184.45703125 124.69140625 C-196.33965219 136.64528729 -224.0625 165.99325631 -224.0625 183.3125 C-188.0925 183.3125 -152.1225 183.3125 -115.0625 183.3125 C-111.7625 170.1125 -108.4625 156.9125 -105.0625 143.3125 C-91.6784851 103.42813559 -91.6784851 103.42813559 -82.25 85.9375 C-81.8276709 85.1444043 -81.4053418 84.35130859 -80.97021484 83.53417969 C-76.79119872 75.7244194 -72.45826678 68.00191266 -68.0625 60.3125 C-67.49547363 59.31959961 -67.49547363 59.31959961 -66.91699219 58.30664062 C-65.96593984 56.64167278 -65.01428172 54.977051 -64.0625 53.3125 C-71.63848552 53.3125 -80.48775783 57.28838339 -87.39453125 60.1953125 Z M-240.0625 228.3125 C-245.54171013 251.14254219 -248.46243812 270.1624402 -248.375 293 C-248.37350952 293.96572937 -248.37201904 294.93145874 -248.3704834 295.92645264 C-248.33081726 310.23379211 -247.8829003 324.24209158 -245.0625 338.3125 C-244.89137695 339.18052246 -244.72025391 340.04854492 -244.54394531 340.94287109 C-243.03389859 349.86657475 -243.03389859 349.86657475 -240.0625 358.3125 C-201.7825 358.3125 -163.5025 358.3125 -124.0625 358.3125 C-124.7225 348.7425 -125.3825 339.1725 -126.0625 329.3125 C-126.22087658 323.85209378 -126.34638667 318.4470223 -126.328125 312.9921875 C-126.32948689 311.61858045 -126.3314396 310.24497389 -126.33392334 308.87136841 C-126.33680179 306.05075298 -126.3328208 303.23026773 -126.32324219 300.40966797 C-126.3118266 296.88653205 -126.31863989 293.36369808 -126.33014679 289.84057236 C-126.37668444 272.88250375 -125.82044429 256.0751128 -124.24212646 239.17752075 C-124.0154746 235.56245041 -124.0625 231.9346685 -124.0625 228.3125 C-162.3425 228.3125 -200.6225 228.3125 -240.0625 228.3125 Z " fill="#116BA8" transform="translate(335.0625,62.6875)"/>
<path d="M0 0 C0.8588681 -0.0049649 1.71773621 -0.00992981 2.60263062 -0.01504517 C5.44692788 -0.02966244 8.29116937 -0.03646824 11.13549805 -0.04199219 C13.11223858 -0.0477442 15.0889791 -0.05350193 17.0657196 -0.05926514 C21.21259827 -0.06977403 25.35945755 -0.07561736 29.50634766 -0.07910156 C34.81597344 -0.08458462 40.12534257 -0.10860914 45.43488789 -0.13707352 C49.5192896 -0.15571222 53.60362965 -0.16090617 57.6880703 -0.16243744 C59.6452595 -0.16546194 61.60244767 -0.17348364 63.55959511 -0.18662262 C66.30034439 -0.20370802 69.04046884 -0.20179672 71.78125 -0.1953125 C72.58718094 -0.20452728 73.39311188 -0.21374207 74.22346497 -0.22323608 C79.08211795 -0.18729084 82.35739353 0.51375496 86.5847168 3.16113281 C91.90849898 8.63279784 92.82022809 14.30743656 92.9987793 21.74707031 C93.01814545 22.44885406 93.0375116 23.15063782 93.0574646 23.87368774 C93.11679249 26.0943828 93.16345597 28.31513104 93.2097168 30.53613281 C93.24793982 32.05047715 93.28699401 33.56480075 93.3269043 35.07910156 C93.42245414 38.77292112 93.50665616 42.46689752 93.5847168 46.16113281 C96.20825198 47.16512805 98.83339475 48.16447727 101.4597168 49.16113281 C102.20608398 49.44730469 102.95245117 49.73347656 103.72143555 50.02832031 C107.54456691 51.5944993 107.54456691 51.5944993 111.5847168 52.16113281 C111.5847168 51.50113281 111.5847168 50.84113281 111.5847168 50.16113281 C112.2447168 50.16113281 112.9047168 50.16113281 113.5847168 50.16113281 C113.80901367 49.61199219 114.03331055 49.06285156 114.2644043 48.49707031 C118.77916404 40.50941847 128.37758521 32.26469861 136.5847168 28.16113281 C143.76138498 27.4241349 149.71815258 27.7583946 155.5847168 32.16113281 C160.44551288 36.52144131 164.86654872 41.24413683 169.0847168 46.22363281 C171.25124125 49.15743424 171.25124125 49.15743424 173.5847168 50.16113281 C173.5847168 50.82113281 173.5847168 51.48113281 173.5847168 52.16113281 C174.2447168 52.16113281 174.9047168 52.16113281 175.5847168 52.16113281 C175.5847168 52.82113281 175.5847168 53.48113281 175.5847168 54.16113281 C176.2240918 54.42925781 176.8634668 54.69738281 177.5222168 54.97363281 C179.5847168 56.16113281 179.5847168 56.16113281 180.5847168 59.16113281 C181.5747168 59.49113281 182.5647168 59.82113281 183.5847168 60.16113281 C185.12768555 61.76269531 185.12768555 61.76269531 186.7722168 63.78613281 C189.19770827 66.65493891 191.64694474 69.18181949 194.5222168 71.59863281 C198.30994656 74.80645821 201.52515636 78.34100983 204.7644043 82.09472656 C206.68145061 84.33055388 206.68145061 84.33055388 209.3972168 86.84863281 C214.0510309 91.76837915 214.92014641 96.04581217 214.9831543 102.59863281 C214.07525718 108.43765741 210.80684335 112.30668129 206.69799805 116.34082031 C205.29130859 117.73300781 205.29130859 117.73300781 203.85620117 119.15332031 C202.87003647 120.11442552 201.88370628 121.07536096 200.8972168 122.03613281 C199.89847784 123.01980563 198.90042395 124.00417451 197.90307617 124.98925781 C195.47026716 127.38680872 193.03072465 129.77706127 190.5847168 132.16113281 C192.4523486 137.88323877 194.43760712 143.53775032 196.5847168 149.16113281 C197.55296387 149.17571533 198.52121094 149.19029785 199.51879883 149.20532227 C203.13098003 149.26354849 206.74255363 149.34077818 210.35424805 149.42358398 C211.91371761 149.45671948 213.47330381 149.48478651 215.03295898 149.50756836 C217.28248532 149.54132562 219.53095367 149.59364785 221.7800293 149.64941406 C222.8163298 149.65899895 222.8163298 149.65899895 223.87356567 149.66877747 C229.93332709 149.85045292 233.83616449 151.61127963 238.3347168 155.59863281 C242.60412599 160.46101551 242.88932509 164.29834165 242.90698242 170.65820312 C242.91691223 171.51400467 242.92684204 172.36980621 242.93707275 173.25154114 C242.96626482 176.08081287 242.97991189 178.90986026 242.9909668 181.73925781 C243.00247505 183.70977787 243.01399046 185.68029789 243.0255127 187.65081787 C243.04651886 191.78333579 243.05821281 195.91577606 243.06518555 200.04833984 C243.07614496 205.3322967 243.1241814 210.61522015 243.18112946 215.8988533 C243.21846321 219.97048901 243.22879767 224.04187796 243.2318573 228.11367035 C243.23789458 230.06087639 243.25389871 232.00807889 243.28022766 233.95511627 C243.31452094 236.68636061 243.31055104 239.41510936 243.29760742 242.14648438 C243.31603699 242.94365372 243.33446655 243.74082306 243.35345459 244.56214905 C243.26059972 250.84853276 240.9163407 254.67146588 236.5847168 259.16113281 C232.07395743 262.25044728 227.89819802 262.62500457 222.5612793 262.67285156 C221.44201553 262.69977837 221.44201553 262.69977837 220.30014038 262.72724915 C217.93672189 262.78106386 215.57350193 262.81515348 213.2097168 262.84863281 C211.59901225 262.88183153 209.98833382 262.91632354 208.37768555 262.95214844 C204.44683992 263.036773 200.51605021 263.10372025 196.5847168 263.16113281 C195.52370663 265.57088471 194.48598451 267.98663135 193.4597168 270.41113281 C193.15678711 271.09304688 192.85385742 271.77496094 192.54174805 272.47753906 C190.87529028 276.31736364 190.87529028 276.31736364 191.13964844 280.37451172 C192.91789519 282.57306042 194.79100369 284.53595673 196.83081055 286.49707031 C197.66805664 287.31433594 198.50530273 288.13160156 199.36791992 288.97363281 C201.13152674 290.67624661 202.89714065 292.37678396 204.66479492 294.07519531 C205.50333008 294.89503906 206.34186523 295.71488281 207.20581055 296.55957031 C208.35714478 297.66824463 208.35714478 297.66824463 209.53173828 298.79931641 C214.05526602 304.00333679 215.21429488 308.70580453 214.98706055 315.42285156 C213.86476644 323.06098914 208.47034065 327.40544907 202.83862305 332.16503906 C200.72950284 334.03290808 198.95347707 335.94222279 197.1472168 338.09863281 C194.49887905 341.23854138 191.66971198 343.94838441 188.5847168 346.66113281 C185.54387592 349.33615825 182.74992618 351.99660268 180.1472168 355.09863281 C176.53827057 359.39012206 172.40465606 362.98705314 168.22143555 366.70800781 C165.92380057 368.84565932 163.90358211 371.00533092 161.8972168 373.41113281 C157.95096864 378.110409 152.38538267 383.80932611 146.01049805 384.39941406 C144.98311523 384.42390625 143.95573242 384.44839844 142.8972168 384.47363281 C141.88272461 384.51101563 140.86823242 384.54839844 139.82299805 384.58691406 C130.78922585 383.39912013 125.18452521 376.11795528 119.1472168 369.91113281 C118.22489258 368.97527344 117.30256836 368.03941406 116.35229492 367.07519531 C114.08945695 364.77718369 111.83395115 362.47244794 109.5847168 360.16113281 C108.52510742 360.59425781 107.46549805 361.02738281 106.3737793 361.47363281 C104.98583197 362.03631416 103.5978071 362.59880426 102.2097168 363.16113281 C101.51104492 363.44730469 100.81237305 363.73347656 100.0925293 364.02832031 C94.8112793 366.16113281 94.8112793 366.16113281 92.5847168 366.16113281 C92.60566406 367.11890625 92.62661133 368.07667969 92.64819336 369.06347656 C92.72111158 372.64909658 92.76670237 376.23465234 92.80444336 379.82080078 C92.82444183 381.36681169 92.85165011 382.91274808 92.88647461 384.45849609 C93.23729982 400.44168018 93.23729982 400.44168018 88.5847168 407.16113281 C83.07572742 412.52886605 77.82638039 413.46053696 70.34130859 413.45166016 C69.52437531 413.45837738 68.70744202 413.4650946 67.86575317 413.47201538 C65.17175165 413.49097398 62.47799959 413.49491862 59.78393555 413.49707031 C57.90452473 413.50350018 56.02511491 413.51022868 54.14570618 413.51724243 C50.20746542 413.52921017 46.26931234 413.53292382 42.33105469 413.53173828 C37.2973295 413.53153523 32.26416974 413.5588257 27.23057842 413.5932827 C23.34853052 413.61557792 19.46661807 413.619575 15.58451271 413.61851883 C13.72945013 413.62087128 11.87438362 413.62967469 10.01938438 413.64518356 C7.41796264 413.66489505 4.81775202 413.65898554 2.21630859 413.64697266 C1.45811325 413.65821167 0.69991791 413.66945068 -0.08125305 413.68103027 C-5.59671944 413.61667595 -9.7863215 412.18359629 -14.4152832 409.16113281 C-18.98456494 404.47160681 -20.64337209 400.10189051 -20.64187622 393.5632782 C-20.63155365 392.86724991 -20.62123108 392.17122162 -20.6105957 391.45410156 C-20.60776581 390.72870682 -20.60493591 390.00331207 -20.60202026 389.25593567 C-20.5908812 386.95332913 -20.56578887 384.65112054 -20.5402832 382.34863281 C-20.53024527 380.78158116 -20.52112084 379.21452338 -20.51293945 377.64746094 C-20.4909625 373.81853303 -20.4564766 369.98990025 -20.4152832 366.16113281 C-21.09510254 365.96342285 -21.77492188 365.76571289 -22.4753418 365.56201172 C-23.37075684 365.2982373 -24.26617187 365.03446289 -25.1887207 364.76269531 C-26.07479004 364.50311035 -26.96085938 364.24352539 -27.8737793 363.97607422 C-30.4152832 363.16113281 -30.4152832 363.16113281 -34.0402832 361.53613281 C-37.33061788 360.81849369 -37.33061788 360.81849369 -39.4465332 362.42285156 C-41.55969046 364.2403245 -43.49461921 366.14239236 -45.4152832 368.16113281 C-46.6527832 369.36769531 -46.6527832 369.36769531 -47.9152832 370.59863281 C-49.38846526 372.10864443 -50.85857432 373.62168322 -52.3215332 375.14160156 C-58.2537085 381.21765425 -62.19747539 384.27208296 -70.7199707 385.34082031 C-77.18167264 384.91004018 -81.57880167 381.51639408 -86.12768555 377.18603516 C-86.89507585 376.46129533 -86.89507585 376.46129533 -87.67796898 375.72191429 C-89.26820845 374.21278139 -90.84347269 372.68943273 -92.4152832 371.16113281 C-93.14113995 370.45951397 -93.14113995 370.45951397 -93.88166046 369.74372101 C-97.28857262 366.44507685 -100.65737511 363.10944022 -104.0168457 359.76269531 C-104.53290752 359.24946087 -105.04896935 358.73622643 -105.5806694 358.20743942 C-108.29591752 355.50697467 -111.00844527 352.8038149 -113.71850586 350.09814453 C-116.50466726 347.31753121 -119.30004524 344.54637125 -122.09749794 341.7771244 C-124.26609915 339.62713524 -126.42797442 337.47047848 -128.58805466 335.31193161 C-129.6165872 334.28641409 -130.64760655 333.26338411 -131.68120193 332.24296951 C-133.11867109 330.82257807 -134.54577973 329.3917247 -135.97241211 327.96044922 C-137.19053085 326.74779892 -137.19053085 326.74779892 -138.43325806 325.51065063 C-142.52303696 320.66257469 -142.8721947 316.00654782 -142.71606445 309.86816406 C-141.8886244 302.42120354 -137.11861503 298.77891889 -131.72387695 294.20800781 C-128.8683104 291.67616877 -126.45047596 288.90158789 -123.98950195 285.99316406 C-121.91663249 283.58081722 -119.69769021 281.37437597 -117.4152832 279.16113281 C-117.75301758 278.50886719 -118.09075195 277.85660156 -118.4387207 277.18457031 C-118.88473633 276.31058594 -119.33075195 275.43660156 -119.7902832 274.53613281 C-120.23114258 273.67761719 -120.67200195 272.81910156 -121.1262207 271.93457031 C-122.46173124 269.06119916 -123.43601755 266.17173764 -124.4152832 263.16113281 C-125.44411621 263.15178711 -126.47294922 263.14244141 -127.53295898 263.1328125 C-131.36884032 263.09278512 -135.20393032 263.02699228 -139.03930664 262.95361328 C-140.69577835 262.92547719 -142.35238247 262.90422611 -144.0090332 262.89013672 C-146.39773996 262.86860391 -148.78486706 262.82190526 -151.1730957 262.77050781 C-151.90771027 262.76927917 -152.64232483 262.76805054 -153.39920044 262.76678467 C-158.52983063 262.62231391 -161.44460987 261.36569108 -165.4152832 258.16113281 C-170.1693875 252.8930713 -170.56888569 248.83733746 -170.59228516 241.96118164 C-170.59885635 241.12503326 -170.60542755 240.28888489 -170.61219788 239.42739868 C-170.63192232 236.65765288 -170.64359277 233.88796134 -170.65356445 231.11816406 C-170.65763998 230.17106756 -170.66171551 229.22397106 -170.66591454 228.24817467 C-170.68677356 223.23340447 -170.70107492 218.21866161 -170.71044922 213.20385742 C-170.72150164 208.03335077 -170.75588861 202.86327589 -170.79562092 197.69292164 C-170.82181518 193.70966309 -170.83014365 189.72650688 -170.8337307 185.74316978 C-170.83859089 183.83785785 -170.85018868 181.93255031 -170.86876869 180.02732277 C-170.89321571 177.35389027 -170.89218489 174.68156758 -170.88525391 172.00805664 C-170.89806396 171.22801773 -170.91087402 170.44797882 -170.92407227 169.64430237 C-170.87203218 164.10820379 -169.57165358 159.7581967 -166.4152832 155.16113281 C-160.60897789 150.44350974 -156.34907927 150.0344114 -149.0246582 150.06347656 C-147.96773773 150.06559898 -147.96773773 150.06559898 -146.88946533 150.06776428 C-144.64802736 150.07334348 -142.40669078 150.08589208 -140.1652832 150.09863281 C-138.64184715 150.1036505 -137.11840952 150.10821294 -135.5949707 150.11230469 C-131.86837548 150.12330607 -128.14183925 150.14055635 -124.4152832 150.16113281 C-124.22409912 149.57017822 -124.03291504 148.97922363 -123.8359375 148.37036133 C-122.46646683 144.19029841 -121.06948808 140.0995779 -119.2277832 136.09863281 C-118.88360352 135.34453125 -118.53942383 134.59042969 -118.18481445 133.81347656 C-117.93086914 133.26820313 -117.67692383 132.72292969 -117.4152832 132.16113281 C-118.4052832 131.83113281 -119.3952832 131.50113281 -120.4152832 131.16113281 C-120.4152832 130.50113281 -120.4152832 129.84113281 -120.4152832 129.16113281 C-121.4052832 128.83113281 -122.3952832 128.50113281 -123.4152832 128.16113281 C-124.88793945 126.66503906 -124.88793945 126.66503906 -126.4777832 124.72363281 C-130.14278188 120.36948908 -134.15045609 116.46883263 -138.27856445 112.55566406 C-142.5301857 107.79105012 -142.92328684 103.12705213 -142.7902832 96.94238281 C-141.86060913 90.04730007 -137.43709539 85.87275113 -132.2199707 81.70800781 C-130.31245057 80.07299055 -128.77577723 78.33756107 -127.1652832 76.41113281 C-124.30445744 73.03484295 -121.21975818 70.10446299 -117.9152832 67.16113281 C-114.69906808 64.29450629 -111.68371059 61.46195008 -108.9152832 58.16113281 C-105.33027774 53.88670323 -101.20962029 50.31263433 -97.0480957 46.61035156 C-94.77160644 44.49260858 -92.77457541 42.35939809 -90.7902832 39.97363281 C-86.16575267 34.47781391 -80.39580752 28.80615153 -73.0324707 27.85253906 C-65.30800206 27.48942302 -61.16089023 29.06763456 -55.4152832 34.16113281 C-51.57695377 37.72346197 -47.83303752 41.38045134 -44.16137695 45.11425781 C-43.63213623 45.65211914 -43.10289551 46.18998047 -42.55761719 46.74414062 C-41.4152832 48.16113281 -41.4152832 48.16113281 -41.4152832 50.16113281 C-40.7552832 50.16113281 -40.0952832 50.16113281 -39.4152832 50.16113281 C-39.4152832 50.82113281 -39.4152832 51.48113281 -39.4152832 52.16113281 C-35.23952153 51.47696847 -31.53447914 50.14748273 -27.6027832 48.59863281 C-25.86061523 47.91607422 -25.86061523 47.91607422 -24.08325195 47.21972656 C-23.20282227 46.87039063 -22.32239258 46.52105469 -21.4152832 46.16113281 C-21.40126465 44.72447266 -21.40126465 44.72447266 -21.38696289 43.25878906 C-21.34679983 39.67255785 -21.28097195 36.08716102 -21.20776367 32.50146484 C-21.17970534 30.95567624 -21.15841614 29.4097482 -21.14428711 27.86376953 C-20.98920244 11.84869311 -20.98920244 11.84869311 -16.4152832 5.16113281 C-11.23146529 0.23018406 -6.88040378 0.00947203 0 0 Z M-62.59936523 103.18359375 C-72.54692907 112.8099745 -80.48656275 123.20800966 -87.4152832 135.16113281 C-87.79120605 135.79229004 -88.16712891 136.42344727 -88.55444336 137.07373047 C-106.56369337 167.49984232 -110.7651028 206.16258312 -102.07299805 240.23803711 C-101.5378658 242.2177405 -100.97879371 244.1893474 -100.4152832 246.16113281 C-100.09043945 247.37414062 -99.7655957 248.58714844 -99.4309082 249.83691406 C-94.00474975 268.14036884 -82.90534455 287.76292452 -68.8137207 300.82910156 C-67.4152832 302.16113281 -67.4152832 302.16113281 -65.6027832 304.59863281 C-65.0149707 305.37207031 -65.0149707 305.37207031 -64.4152832 306.16113281 C-63.7552832 306.16113281 -63.0952832 306.16113281 -62.4152832 306.16113281 C-62.15875977 306.75877441 -61.90223633 307.35641602 -61.63793945 307.97216797 C-60.29288996 310.38025777 -59.03665378 311.52295363 -56.8527832 313.18457031 C-55.78894409 313.99933838 -55.78894409 313.99933838 -54.70361328 314.83056641 C-53.57088989 315.67482178 -53.57088989 315.67482178 -52.4152832 316.53613281 C-51.64144287 317.11830566 -50.86760254 317.70047852 -50.0703125 318.30029297 C-44.70658166 322.29485945 -39.33294024 326.02662385 -33.4152832 329.16113281 C-32.3634082 329.7321875 -31.3115332 330.30324219 -30.2277832 330.89160156 C-21.88013529 335.26107352 -13.47462257 338.49335189 -4.4152832 341.16113281 C-3.19583008 341.53238281 -1.97637695 341.90363281 -0.7199707 342.28613281 C33.37724665 351.80814834 70.48205276 346.87403852 101.5847168 330.16113281 C135.34935544 311.00442476 160.07480139 280.58625575 170.98706055 243.34082031 C180.63149502 208.16700046 176.29906708 169.97876395 158.5847168 138.16113281 C157.98401367 137.05898438 157.38331055 135.95683594 156.7644043 134.82128906 C137.75530701 101.02260264 105.40246295 79.37797455 68.9987793 68.37988281 C22.09961976 56.29382489 -27.43791129 70.62407167 -62.59936523 103.18359375 Z " fill="#116BA8" transform="translate(402.415283203125,313.8388671875)"/>
<path d="M0 0 C14.52 0 29.04 0 44 0 C53.57 35.97 63.14 71.94 73 109 C77.30914691 94.84137443 81.5794858 80.69206905 85.64453125 66.46484375 C86.14520147 64.71841304 86.64607599 62.97204089 87.1471405 61.22572327 C88.44163767 56.71275197 89.73417049 52.1992211 91.02600098 47.68548584 C93.10950897 40.40581952 95.19489283 33.12669282 97.28262901 25.84823799 C98.00496057 23.32817773 98.72566529 20.80765625 99.44624329 18.28709412 C99.88832907 16.74468058 100.33047947 15.20228556 100.77270508 13.65991211 C100.9695842 12.96955872 101.16646332 12.27920532 101.36930847 11.56793213 C102.48864059 7.67079735 103.71620653 3.8513804 105 0 C119.19 0 133.38 0 148 0 C152.18028973 13.54990463 156.22315593 27.12916471 160.13671875 40.7578125 C160.36109745 41.53918327 160.58547615 42.32055405 160.81665421 43.12560272 C162.20718599 47.97035435 163.5951856 52.81582897 164.9822998 57.66156006 C166.85191405 64.19258832 168.72346897 70.72305808 170.59723854 77.25289536 C171.24078757 79.49731366 171.88275851 81.74217879 172.52458191 83.98709106 C174.92175998 92.3551961 177.40268583 100.69152614 180 109 C180.26007339 108.01790558 180.52014679 107.03581116 180.7881012 106.0239563 C183.27239347 96.64300617 185.75725865 87.26220794 188.24264622 77.88154793 C189.51954278 73.06205536 190.79625631 68.24251448 192.07250977 63.42285156 C197.67379383 42.27060311 203.29075326 21.12341219 209 0 C223.19 0 237.38 0 252 0 C249.75012933 11.24935334 249.75012933 11.24935334 248.22607422 16.21557617 C247.88236786 17.34418564 247.5386615 18.4727951 247.18453979 19.63560486 C246.81168854 20.84253494 246.43883728 22.04946503 246.0546875 23.29296875 C245.65183458 24.60973446 245.2494333 25.92663841 244.84744263 27.2436676 C243.98225613 30.0751187 243.11413012 32.90564481 242.24365234 35.73547363 C240.85416768 40.25282371 239.4714134 44.77221608 238.08984375 49.29199219 C236.6195982 54.10089243 235.14897634 58.90967549 233.6762085 63.71780396 C228.28595649 81.31645833 222.93262496 98.92629748 217.58355713 116.5375061 C216.27964353 120.83018481 214.97448964 125.12248516 213.66888237 129.41464901 C212.67871653 132.67023958 211.68920891 135.92602996 210.6998558 139.1818676 C210.24481828 140.67892924 209.78954215 142.17591838 209.33398819 143.67282295 C209.12122112 144.37203299 208.90845406 145.07124302 208.6892395 145.79164124 C208.41429248 146.69476594 208.41429248 146.69476594 208.13379097 147.6161356 C205.37081973 156.73072705 202.68782902 165.86138132 200 175 C185.81 175 171.62 175 157 175 C156.09644775 171.80465576 155.19289551 168.60931152 154.26196289 165.31713867 C151.28103665 154.77570692 148.29934327 144.23449226 145.31726933 133.69338512 C143.50874982 127.30049618 141.70049118 120.90753381 139.89282227 114.5144043 C138.14927036 108.34807176 136.40504157 102.18193107 134.66033745 96.01592445 C133.99384744 93.66000543 133.32760397 91.30401665 132.66160774 88.94795799 C131.73086259 85.65547023 130.79925188 82.36322856 129.86743164 79.07104492 C129.45204132 77.60045624 129.45204132 77.60045624 129.02825928 76.10015869 C128.77445999 75.20413437 128.52066071 74.30811005 128.25917053 73.38493347 C128.03886201 72.6060184 127.81855349 71.82710333 127.59156895 71.02458477 C127.09882593 69.33822173 126.55557322 67.66671965 126 66 C120.1415875 84.79447008 114.79092054 103.72149996 109.48126221 122.67614746 C108.14101739 127.4585598 106.79734725 132.24001069 105.45413494 137.02159023 C104.4095288 140.7403899 103.36539311 144.45931892 102.32295227 148.1787262 C101.5776544 150.83774309 100.83065027 153.49626948 100.0819397 156.15432739 C99.33923851 158.79420244 98.60033218 161.43493409 97.86508179 164.07687378 C97.50354151 165.3656613 97.14186316 166.65441011 96.7800293 167.94311523 C96.46116257 169.08570297 96.14229584 170.22829071 95.81376648 171.40550232 C95 174 95 174 94 175 C90.89748799 175.08874135 87.8173188 175.11518455 84.71484375 175.09765625 C83.78402481 175.0962413 82.85320587 175.09482635 81.8941803 175.09336853 C78.90858809 175.08775172 75.92306971 175.0751964 72.9375 175.0625 C70.91862087 175.05748716 68.89974057 175.05292388 66.88085938 175.04882812 C61.92054428 175.03777683 56.96028468 175.02050095 52 175 C51.80273315 174.34857529 51.60546631 173.69715057 51.40222168 173.02598572 C41.21809602 139.39665563 31.02483169 105.77010335 20.8137207 72.1489563 C19.78275287 68.75438587 18.75199554 65.35975164 17.72143555 61.96505737 C16.49430299 57.92290299 15.26656443 53.88093302 14.0385437 49.83904839 C13.33809655 47.53283127 12.63838931 45.22639055 11.9387207 42.91993713 C9.825011 35.95806163 7.69586072 29.00178139 5.52148438 22.05859375 C5.14336609 20.846875 4.7652478 19.63515625 4.37567139 18.38671875 C3.67919751 16.15989375 2.97807301 13.9345155 2.27130127 11.7109375 C1.96875427 10.74285156 1.66620728 9.77476562 1.35449219 8.77734375 C1.09093933 7.94452881 0.82738647 7.11171387 0.55584717 6.25366211 C0 4 0 4 0 0 Z " fill="#116BA7" transform="translate(3588,314)"/>
<path d="M0 0 C3.53012184 3.17895789 5.93640266 6.88908655 8.23828125 11.015625 C8.91890625 10.314375 9.59953125 9.613125 10.30078125 8.890625 C11.27764902 7.92994841 12.2569761 6.97176848 13.23828125 6.015625 C13.69976563 5.54640625 14.16125 5.0771875 14.63671875 4.59375 C25.28297736 -5.45804747 39.91260195 -9.87300065 54.30078125 -10.296875 C70.38774615 -9.68123408 83.61687384 -6.35855756 94.8359375 5.73828125 C102.24800215 15.32636488 104.56803094 27.65805146 104.46533203 39.48266602 C104.46562408 40.38130875 104.46591614 41.27995148 104.46621704 42.20582581 C104.46483587 45.14382963 104.44933235 48.08157233 104.43359375 51.01953125 C104.4298593 53.06932944 104.42701437 55.11912943 104.42501831 57.16893005 C104.41741587 62.53977466 104.39779673 67.91050951 104.37561035 73.28131104 C104.3514629 79.73836245 104.3423548 86.19545075 104.33070374 92.65253448 C104.31137019 102.44030744 104.27302393 112.22784001 104.23828125 122.015625 C90.37828125 122.015625 76.51828125 122.015625 62.23828125 122.015625 C62.20089844 116.55 62.16351562 111.084375 62.125 105.453125 C62.09470651 101.98043785 62.06354966 98.5078011 62.02929688 95.03515625 C61.97506972 89.52916062 61.92395597 84.02326467 61.8918457 78.51708984 C61.8657427 74.0754304 61.82529126 69.63410767 61.77509499 65.19265747 C61.75847345 63.50233158 61.74692992 61.81194752 61.74066734 60.12155151 C61.73097457 57.74474192 61.7028554 55.36878466 61.6706543 52.9921875 C61.67208939 52.30094284 61.67352448 51.60969818 61.67500305 50.89750671 C61.56447523 45.08920287 60.20182346 39.77952408 56.80078125 34.9921875 C51.81119962 30.67619939 46.79815422 29.28281084 40.23828125 29.015625 C34.85870438 29.50543215 30.74548441 31.01082289 26.23828125 34.015625 C25.57828125 34.015625 24.91828125 34.015625 24.23828125 34.015625 C23.5505372 35.33820972 22.89116752 36.67549003 22.23828125 38.015625 C21.72770676 39.0587233 21.21713226 40.10182159 20.69108582 41.17652893 C19.05090426 45.04341951 18.79730901 48.71511153 18.8059082 52.87866211 C18.79571655 53.63070923 18.7855249 54.38275635 18.77502441 55.15759277 C18.74506312 57.61946221 18.73565467 60.08094149 18.7265625 62.54296875 C18.70970325 64.2593361 18.69155133 65.9756912 18.67216492 67.69203186 C18.62479398 72.19149954 18.59490135 76.69091752 18.56872559 81.19055176 C18.5335953 86.59894365 18.47661944 92.00714477 18.42333221 97.41538239 C18.34496967 105.6154386 18.29424993 113.81524768 18.23828125 122.015625 C4.37828125 122.015625 -9.48171875 122.015625 -23.76171875 122.015625 C-23.81779297 113.92546875 -23.81779297 113.92546875 -23.875 105.671875 C-23.90529401 102.24476037 -23.93645119 98.81769678 -23.97070312 95.390625 C-24.02492726 89.95705811 -24.0760411 84.52359217 -24.1081543 79.08984375 C-24.13426006 74.70653665 -24.17471339 70.3235706 -24.22490501 65.94047546 C-24.2415247 64.27247883 -24.25306938 62.60442327 -24.25933266 60.93635559 C-24.26902749 58.59067458 -24.29714892 56.24585648 -24.3293457 53.90039062 C-24.32791061 53.2184967 -24.32647552 52.53660278 -24.32499695 51.83404541 C-24.46165863 44.74410302 -26.61119566 38.02307801 -31.76171875 33.015625 C-38.85966562 29.26576628 -44.97438641 28.41945716 -52.6796875 30.3359375 C-55.30429881 31.19275245 -57.47170183 32.48894706 -59.76171875 34.015625 C-60.42171875 34.015625 -61.08171875 34.015625 -61.76171875 34.015625 C-62.02984375 34.551875 -62.29796875 35.088125 -62.57421875 35.640625 C-63.4281408 37.3484691 -64.34843605 39.0237092 -65.30891418 40.67398071 C-66.97490271 44.50597655 -67.20240495 47.75688441 -67.1940918 51.85693359 C-67.20428345 52.61858826 -67.2144751 53.38024292 -67.22497559 54.16497803 C-67.25499903 56.66474871 -67.26435498 59.16413553 -67.2734375 61.6640625 C-67.29029213 63.4042792 -67.30844342 65.14448379 -67.32783508 66.88467407 C-67.37525623 71.45156061 -67.4051165 76.018398 -67.43127441 80.58544922 C-67.4663727 86.07224201 -67.52336297 91.55884614 -67.57666779 97.04548645 C-67.65508926 105.36884179 -67.70576453 113.69195174 -67.76171875 122.015625 C-81.62171875 122.015625 -95.48171875 122.015625 -109.76171875 122.015625 C-109.76171875 79.775625 -109.76171875 37.535625 -109.76171875 -5.984375 C-95.90171875 -5.984375 -82.04171875 -5.984375 -67.76171875 -5.984375 C-67.26671875 0.450625 -67.26671875 0.450625 -66.76171875 7.015625 C-66.10171875 6.314375 -65.44171875 5.613125 -64.76171875 4.890625 C-47.01042053 -12.66177913 -20.2683505 -14.86992222 0 0 Z " fill="#116BA7" transform="translate(2757.76171875,366.984375)"/>
<path d="M0 0 C1.60037408 0.81270178 3.19247882 1.64182854 4.77734375 2.484375 C5.63207275 2.92604004 6.48680176 3.36770508 7.36743164 3.82275391 C10.15985558 5.27516798 12.93819384 6.75204642 15.71484375 8.234375 C16.70323242 8.75805664 17.69162109 9.28173828 18.70996094 9.82128906 C21.69622836 11.40735241 24.67592655 13.00490982 27.65234375 14.609375 C28.58119385 15.10856445 29.51004395 15.60775391 30.46704102 16.12207031 C41.73847783 22.28164315 41.73847783 22.28164315 43.71484375 26.234375 C43.99240959 29.42638221 43.96448973 31.6414658 42.71484375 34.609375 C40.19534165 36.65647046 38.26025516 36.69870554 35.07373047 36.62695312 C30.32471897 35.83659808 26.38025709 33.2023425 22.27734375 30.796875 C20.33366506 29.69993283 18.3896505 28.60358561 16.4453125 27.5078125 C15.00357666 26.68361816 15.00357666 26.68361816 13.53271484 25.84277344 C9.40970214 23.4894198 5.26133346 21.18797747 1.08984375 18.921875 C0.39834229 18.53136963 -0.29315918 18.14086426 -1.00561523 17.73852539 C-4.46441484 15.75879559 -4.46441484 15.75879559 -8.32495117 15.46606445 C-11.75331115 16.80982443 -13.71639498 19.93807041 -15.97265625 22.734375 C-20.26787482 27.91677883 -24.67563675 32.80254588 -29.54296875 37.46484375 C-33.87469731 41.86455908 -33.74799079 45.5954742 -33.8046875 51.52807617 C-33.69741067 55.78459392 -33.14446753 58.37061176 -30.28515625 61.546875 C-29.72828125 62.03800781 -29.17140625 62.52914062 -28.59765625 63.03515625 C-28.16453125 63.43089844 -27.73140625 63.82664062 -27.28515625 64.234375 C-27.28515625 64.894375 -27.28515625 65.554375 -27.28515625 66.234375 C-25.80015625 66.729375 -25.80015625 66.729375 -24.28515625 67.234375 C-22.48828125 69.23828125 -22.48828125 69.23828125 -20.53515625 71.796875 C-17.35281966 75.90444649 -14.04840054 79.81369818 -10.53515625 83.640625 C-9.28515625 85.234375 -9.28515625 85.234375 -9.28515625 87.234375 C-8.29515625 87.234375 -7.30515625 87.234375 -6.28515625 87.234375 C-6.28515625 86.574375 -6.28515625 85.914375 -6.28515625 85.234375 C-5.30417969 84.7496875 -4.32320312 84.265 -3.3125 83.765625 C3.73722897 80.2698116 10.76320676 76.73455798 17.71484375 73.046875 C18.34148926 72.71558594 18.96813477 72.38429688 19.61376953 72.04296875 C22.9273371 70.26863538 26.06330436 68.37201435 29.15234375 66.234375 C33.15784672 63.66315694 36.01948819 63.43855202 40.71484375 64.234375 C43.23544996 66.91251909 43.65642102 68.66183225 44.02734375 72.296875 C43.69880522 75.38513721 43.47592239 76.70823761 41.71484375 79.234375 C39.32425108 80.63748488 37.03288491 81.83004792 34.52734375 82.984375 C33.070743 83.68308173 31.61503365 84.38364939 30.16015625 85.0859375 C29.41926758 85.44075195 28.67837891 85.79556641 27.91503906 86.16113281 C24.53266826 87.81103317 21.21603535 89.57643449 17.90234375 91.359375 C17.28544678 91.6898584 16.6685498 92.0203418 16.03295898 92.36083984 C11.36092745 94.87045945 6.71391644 97.42492325 2.08203125 100.0078125 C-2.8376969 102.55697857 -6.68234507 104.08904111 -12.28515625 103.234375 C-20.7988981 98.13379993 -27.62642299 88.51210095 -34.28515625 81.234375 C-34.88457031 82.03875 -35.48398437 82.843125 -36.1015625 83.671875 C-38.28515625 86.234375 -38.28515625 86.234375 -41.22265625 87.234375 C-44.88807766 87.234375 -46.41571648 86.46616148 -49.28515625 84.234375 C-51.45442284 80.98047512 -51.52595674 80.10041543 -51.48046875 76.34765625 C-51.47547363 75.50243408 -51.47047852 74.65721191 -51.46533203 73.78637695 C-51.44712402 72.71734131 -51.42891602 71.64830566 -51.41015625 70.546875 C-51.36890625 67.14375 -51.32765625 63.740625 -51.28515625 60.234375 C-64.15515625 60.234375 -77.02515625 60.234375 -90.28515625 60.234375 C-90.61515625 62.214375 -90.94515625 64.194375 -91.28515625 66.234375 C-91.82140625 67.059375 -92.35765625 67.884375 -92.91015625 68.734375 C-94.80382872 72.17741586 -94.25312533 73.40070798 -93.28515625 77.234375 C-91.8055445 80.94912861 -90.11402047 84.55547463 -88.41015625 88.171875 C-87.919104 89.22874512 -87.42805176 90.28561523 -86.92211914 91.37451172 C-83.12771001 99.51498009 -79.24895712 107.61520969 -75.35107422 115.70654297 C-72.15268673 122.36270844 -69.06831735 129.06397485 -66.03515625 135.796875 C-62.91276083 142.72668732 -59.66338189 149.54308135 -56.21484375 156.31640625 C-53.50063543 161.7463093 -51.00060442 167.27859411 -48.47265625 172.796875 C-47.75154663 174.36961182 -47.75154663 174.36961182 -47.01586914 175.97412109 C-45.01048124 180.36938455 -43.08039066 184.74628897 -41.28515625 189.234375 C-27.09515625 189.234375 -12.90515625 189.234375 1.71484375 189.234375 C1.71484375 198.804375 1.71484375 208.374375 1.71484375 218.234375 C-45.14515625 218.234375 -92.00515625 218.234375 -140.28515625 218.234375 C-140.28515625 208.664375 -140.28515625 199.094375 -140.28515625 189.234375 C-129.39515625 188.904375 -118.50515625 188.574375 -107.28515625 188.234375 C-109.26376453 180.51968263 -111.24298267 172.80518213 -113.2273407 165.09197235 C-114.15188257 161.4976417 -115.07548928 157.90307755 -115.99658203 154.30786133 C-119.63409402 140.11245245 -123.28961565 125.93248535 -127.38549805 111.86056519 C-129.32455261 105.18358207 -130.9847482 98.46697541 -132.44921875 91.66992188 C-133.52706507 87.05539232 -134.41879445 84.26709745 -138.28515625 81.234375 C-138.94515625 80.68136719 -139.60515625 80.12835938 -140.28515625 79.55859375 C-141.27515625 78.74841797 -141.27515625 78.74841797 -142.28515625 77.921875 C-147.98601173 72.96276652 -151.67792742 66.72483896 -152.52441406 59.07104492 C-153.1819332 47.22230658 -152.89454824 36.82583852 -145.59375 26.9453125 C-139.8246735 20.51381594 -132.36803184 16.08343323 -123.82421875 14.65625 C-114.01215915 14.17972613 -106.26252919 16.86811732 -98.8671875 23.35546875 C-93.97183467 28.50049349 -90.28515625 33.89649918 -90.28515625 41.234375 C-77.41515625 41.234375 -64.54515625 41.234375 -51.28515625 41.234375 C-51.48201277 34.59244851 -51.48201277 34.59244851 -51.7355957 27.95263672 C-51.80223057 23.48251213 -51.80636861 20.19567187 -48.95703125 16.59375 C-46.28515625 14.234375 -46.28515625 14.234375 -43.22265625 13.609375 C-39.69137972 14.36071043 -38.55024381 15.48391153 -36.28515625 18.234375 C-35.29515625 19.224375 -35.29515625 19.224375 -34.28515625 20.234375 C-33.50011719 19.37714844 -32.71507812 18.51992188 -31.90625 17.63671875 C-22.408737 7.28775673 -22.408737 7.28775673 -18.28515625 3.046875 C-17.79015625 2.53769531 -17.29515625 2.02851563 -16.78515625 1.50390625 C-11.57201947 -2.90825378 -6.06992778 -2.79343163 0 0 Z M-132.09765625 39.734375 C-135.6833518 43.83231277 -135.57550452 47.52327395 -135.4921875 52.734375 C-135.14083259 56.97715126 -133.81046634 59.67599586 -130.84375 62.70703125 C-126.90685175 65.98625741 -123.53248206 66.96919822 -118.4296875 66.65625 C-113.98790547 65.78245681 -111.29198897 63.44951794 -108.47265625 60.046875 C-106.222785 54.71823257 -105.56801345 49.55497289 -107.34765625 43.984375 C-109.15230061 39.91173164 -111.47152348 37.60890107 -115.28515625 35.234375 C-122.27728914 32.98740216 -126.80627774 35.03092743 -132.09765625 39.734375 Z " fill="#116BA8" transform="translate(495.28515625,411.765625)"/>
<path d="M0 0 C16.5 0 33 0 50 0 C52.289375 6.166875 54.57875 12.33375 56.9375 18.6875 C64.35519093 38.63845194 71.85927441 58.55579946 79.39323425 78.46307373 C84.10017011 90.90304312 88.79247661 103.34853211 93.48483276 115.79400635 C94.47762294 118.42716031 95.47055852 121.06025935 96.46365356 123.69329834 C98.76915897 129.80611512 101.0735012 135.91936477 103.375 142.03369141 C105.13948572 146.72068864 106.91113826 151.40489396 108.6875 156.08740234 C109.52087258 158.29132631 110.35420774 160.49526442 111.1875 162.69921875 C111.57446045 163.71490433 111.9614209 164.7305899 112.36010742 165.77705383 C112.70920166 166.70229355 113.0582959 167.62753326 113.41796875 168.58081055 C113.72500732 169.39003464 114.0320459 170.19925873 114.34838867 171.03300476 C115 173 115 173 115 175 C99.16 175 83.32 175 67 175 C63.04 163.78 59.08 152.56 55 141 C34.54 140.67 14.08 140.34 -7 140 C-7.99 143.63 -8.98 147.26 -10 151 C-10.65867538 153.11515129 -11.33546243 155.22489671 -12.04296875 157.32421875 C-12.36031982 158.27127686 -12.6776709 159.21833496 -13.00463867 160.1940918 C-13.59015503 161.92332886 -13.59015503 161.92332886 -14.1875 163.6875 C-15.445625 167.420625 -16.70375 171.15375 -18 175 C-33.51 175 -49.02 175 -65 175 C-61.6246682 163.748894 -61.6246682 163.748894 -60.25195312 160.05029297 C-59.93785492 159.19950668 -59.62375671 158.3487204 -59.30014038 157.47215271 C-58.96390656 156.57126419 -58.62767273 155.67037567 -58.28125 154.7421875 C-57.91512604 153.75384415 -57.54900208 152.76550079 -57.17178345 151.74720764 C-55.95111103 148.45525297 -54.72569216 145.16508867 -53.5 141.875 C-52.62470849 139.51900942 -51.74954929 137.16296968 -50.87451172 134.80688477 C-36.15393466 95.20455926 -21.31076771 55.64664996 -6.375 16.125 C-6.09045959 15.3712912 -5.80591919 14.6175824 -5.51275635 13.84103394 C-4.746701 11.81282992 -3.9791668 9.7851939 -3.2109375 7.7578125 C-2.80149902 6.6764502 -2.39206055 5.59508789 -1.97021484 4.48095703 C-1 2 -1 2 0 0 Z M24 47 C20.95383391 53.58358977 18.34753778 60.26675727 15.890625 67.08984375 C15.51895203 68.11557999 15.14727905 69.14131622 14.76434326 70.19813538 C13.98630033 72.34805932 13.20989418 74.49857625 12.43505859 76.6496582 C11.24413518 79.95377143 10.04623182 83.2552966 8.84765625 86.55664062 C8.09072931 88.65089117 7.33420434 90.74528705 6.578125 92.83984375 C6.21881897 93.82935532 5.85951294 94.81886688 5.48931885 95.83836365 C5.16187683 96.7501387 4.83443481 97.66191376 4.49707031 98.60131836 C4.06216278 99.80636269 4.06216278 99.80636269 3.61846924 101.03575134 C2.89989077 102.97472625 2.89989077 102.97472625 3 105 C16.86 105 30.72 105 45 105 C44.25070241 101.25351203 43.42184812 98.11757855 42.14233398 94.56713867 C41.76201523 93.50641647 41.38169647 92.44569427 40.98985291 91.35282898 C40.37419212 89.65257317 40.37419212 89.65257317 39.74609375 87.91796875 C39.32578384 86.74865311 38.90547394 85.57933746 38.47242737 84.37458801 C37.35868913 81.27810633 36.2419191 78.18274081 35.12365723 75.08789062 C33.98156997 71.92474982 32.84349643 68.76016582 31.70507812 65.59570312 C29.47374007 59.39580189 27.23839741 53.19735579 25 47 C24.67 47 24.34 47 24 47 Z " fill="#116BA8" transform="translate(2091,314)"/>
<path d="M0 0 C14.19 0 28.38 0 43 0 C43.01458252 3.40103027 43.02916504 6.80206055 43.04418945 10.30615234 C43.0945988 21.56190486 43.16105672 32.81752478 43.23571491 44.0731411 C43.2805763 50.89526189 43.32001285 57.7173316 43.34643555 64.53955078 C43.3719657 71.12730854 43.41293504 77.71485557 43.46318626 84.30247879 C43.47982977 86.81174498 43.49135966 89.32105063 43.49761391 91.83036423 C43.50728205 95.3537852 43.53537524 98.87662543 43.56762695 102.39990234 C43.56619186 103.42993378 43.56475677 104.45996521 43.5632782 105.52120972 C43.67263252 114.00710494 44.99889558 122.52182602 50.34375 129.3984375 C59.22032654 137.98191953 68.64248781 138.44933112 80.265625 138.28515625 C88.1892945 137.97500475 94.16086758 135.33543729 100 130 C101.82611026 127.14158041 101.82611026 127.14158041 103.25 124 C104.00023437 122.453125 104.00023437 122.453125 104.765625 120.875 C106.49015535 116.85837235 107.12457059 113.55570054 107.15821838 109.19110107 C107.1680072 108.22638885 107.17779602 107.26167664 107.18788147 106.26773071 C107.19363693 105.21612762 107.1993924 104.16452454 107.20532227 103.08105469 C107.21522186 101.96856354 107.22512146 100.85607239 107.23532104 99.70986938 C107.26692316 96.03055962 107.29168852 92.35123693 107.31640625 88.671875 C107.33697688 86.12168033 107.35797338 83.57148906 107.37937927 81.02130127 C107.42894485 74.99365862 107.47421311 68.96599849 107.51740164 62.938308 C107.56681736 56.0749532 107.62171939 49.21164571 107.67708123 42.3483367 C107.7908235 28.23226692 107.89695514 14.11615171 108 0 C122.19 0 136.38 0 151 0 C151.06801586 14.45703336 151.12295419 28.9139589 151.15543652 43.37111664 C151.1708316 50.08552758 151.19216146 56.79981542 151.22631836 63.51416016 C151.25912619 70.00458401 151.27689793 76.49489691 151.28463173 82.98539734 C151.29013699 85.4506759 151.30088641 87.91594901 151.31719017 90.38117981 C151.48166536 116.30261415 148.92530349 139.92301342 130.33984375 159.68359375 C115.36316725 174.51025346 96.38953195 179.34224035 75.875 179.4375 C54.22032751 179.22817874 36.01537148 174.25444763 19.8125 159.3125 C-0.02483213 138.49956137 -0.47729954 111.00360131 -0.29296875 84.08203125 C-0.28735878 81.64296228 -0.28309533 79.20388988 -0.28010559 76.76481628 C-0.26876704 70.4109631 -0.23939706 64.05732261 -0.20599365 57.70355225 C-0.17505307 51.19367345 -0.16154948 44.68375958 -0.14648438 38.17382812 C-0.11451468 25.44911128 -0.06183921 12.72460677 0 0 Z " fill="#116BA8" transform="translate(810,314)"/>
<path d="M0 0 C13.86 0 27.72 0 42 0 C42.33 30.36 42.66 60.72 43 92 C52.73923833 81.6602658 52.73923833 81.6602658 62.1484375 71.1015625 C65.3012139 67.52309477 68.56732543 64.04731948 71.82666016 60.56591797 C74.81039258 57.37516638 74.81039258 57.37516638 77.36457825 53.84381104 C79 52 79 52 81.22099304 51.51898193 C82.51671989 51.5323056 82.51671989 51.5323056 83.83862305 51.54589844 C84.8194133 51.54620056 85.80020355 51.54650269 86.81071472 51.54681396 C88.39521172 51.57778168 88.39521172 51.57778168 90.01171875 51.609375 C91.09508011 51.61503479 92.17844147 51.62069458 93.29463196 51.62652588 C96.7593683 51.64894034 100.22307553 51.69914782 103.6875 51.75 C106.03449029 51.77005836 108.38149676 51.78831028 110.72851562 51.8046875 C116.486029 51.84882169 122.24294099 51.91578459 128 52 C126.28877436 55.63401577 124.20066113 58.12637103 121.4375 61.0625 C117.98537429 64.77478591 114.68074816 68.54816138 111.5 72.5 C107.67150179 77.24518087 103.6254047 81.73513 99.49609375 86.21875 C96.16258934 89.93307729 93.02937726 93.7927195 89.91015625 97.6875 C88.34960398 99.57675756 86.77142472 101.31187111 85 103 C86.35616875 106.6618608 88.01216832 109.8376068 90.08984375 113.140625 C91.01035522 114.60943115 91.01035522 114.60943115 91.94946289 116.10791016 C92.60551514 117.1447998 93.26156738 118.18168945 93.9375 119.25 C94.61482178 120.32685059 95.29214355 121.40370117 95.98999023 122.51318359 C100.66019433 129.92299778 105.39387729 137.2896913 110.16796875 144.6328125 C113.59376504 149.90688213 116.98838313 155.20070676 120.375 160.5 C121.25007202 161.8624585 121.25007202 161.8624585 122.14282227 163.25244141 C122.70155029 164.12819824 123.26027832 165.00395508 123.8359375 165.90625 C124.32626465 166.67259766 124.8165918 167.43894531 125.32177734 168.22851562 C127.66027808 172.09040977 129.82758163 176.04288545 132 180 C87.46511116 184.70404359 87.46511116 184.70404359 78.140625 177.54199219 C72.13607239 171.61382513 69.16278975 163.39605991 66.38378906 155.59179688 C64.3843659 150.40204501 61.50773981 145.98400378 58.4375 141.375 C54 134.34463819 54 134.34463819 54 132 C53.34 132 52.68 132 52 132 C51.74355713 132.60706787 51.48711426 133.21413574 51.22290039 133.83959961 C49.86655674 136.23574354 48.66021315 137.00855638 46.43359375 138.56640625 C41.8790107 142.98873281 42.18787574 147.98308229 42.04551697 153.97010803 C42.02487768 156.62583119 42.0461199 159.28174716 42.0625 161.9375 C42.041875 167.898125 42.02125 173.85875 42 180 C28.14 180 14.28 180 0 180 C0 120.6 0 61.2 0 0 Z " fill="#116BA7" transform="translate(3935,309)"/>
<path d="M0 0 C13.77676286 11.66680818 21.17385035 25.88887191 23.16796875 43.8359375 C23.27915292 45.93809394 23.34236132 48.04338363 23.35546875 50.1484375 C23.36964844 51.17582031 23.38382813 52.20320313 23.3984375 53.26171875 C23.10337859 57.83763235 22.06724292 62.33956663 21.16796875 66.8359375 C-10.18203125 66.8359375 -41.53203125 66.8359375 -73.83203125 66.8359375 C-70.9288405 76.51324 -69.54452328 80.84079049 -61.20703125 85.69921875 C-47.67901228 92.17397783 -31.64694448 91.30432327 -17.74804688 86.56005859 C-12.9565162 84.74919213 -8.36111301 82.51120404 -3.78125 80.2265625 C-0.83203125 78.8359375 -0.83203125 78.8359375 1.16796875 78.8359375 C2.91033179 82.458469 4.63710767 86.08797705 6.34985352 89.72460938 C6.93449273 90.9603425 7.52333156 92.19409791 8.11645508 93.42578125 C8.96890455 95.19784722 9.80498774 96.97775681 10.640625 98.7578125 C11.14859619 99.82612305 11.65656738 100.89443359 12.17993164 101.99511719 C13.19816393 104.92275517 13.50313701 106.06909679 12.16796875 108.8359375 C9.87090706 110.37650021 7.76499098 111.58161144 5.29296875 112.7734375 C4.23722656 113.29176147 4.23722656 113.29176147 3.16015625 113.82055664 C-19.30609297 124.34424659 -47.45273358 126.71300581 -70.9921875 118.76953125 C-80.15530223 115.25951385 -88.231614 110.14991338 -94.83203125 102.8359375 C-95.36183594 102.31 -95.89164063 101.7840625 -96.4375 101.2421875 C-109.24106687 87.90160568 -113.21964689 69.57017321 -113.046875 51.62109375 C-111.95288494 32.34697796 -104.31259407 16.29457185 -90.4375 2.96875 C-65.85355528 -17.15543863 -25.67443412 -19.69663455 0 0 Z M-67.17578125 26.56640625 C-69.61602274 29.66889971 -69.61602274 29.66889971 -71.83203125 37.8359375 C-54.34203125 37.8359375 -36.85203125 37.8359375 -18.83203125 37.8359375 C-19.86771054 29.55050321 -20.60848314 26.81477599 -26.83203125 21.8359375 C-40.36621399 14.27209283 -55.58343023 16.86518029 -67.17578125 26.56640625 Z " fill="#116BA7" transform="translate(1476.83203125,370.1640625)"/>
<path d="M0 0 C0.93457031 0.42023438 1.86914062 0.84046875 2.83203125 1.2734375 C19.17114115 9.36118003 30.08603046 23.81109324 36.0703125 40.7734375 C41.46506999 59.49641936 39.36929732 77.38625996 30.11328125 94.39453125 C27.49561002 98.97278238 24.53855206 103.08725623 21 107 C20.47019531 107.60972656 19.94039062 108.21945312 19.39453125 108.84765625 C7.51033128 121.69162534 -10.06774603 128.55275486 -27.29296875 129.28515625 C-48.27794426 129.7981344 -66.47468065 125.49273499 -82.5390625 111.40625 C-96.42257094 97.83126397 -104.25043631 80.96151145 -104.5 61.5 C-104.24855322 41.89164153 -96.24254404 25.97063261 -82.94921875 11.81640625 C-61.37054703 -9.03078507 -26.53030299 -12.16113761 0 0 Z M-54 37 C-60.96441764 44.81660376 -63.59628769 53.68110796 -63.28125 64.01171875 C-62.40420995 73.33026933 -59.02650113 80.48517863 -52.04296875 86.7578125 C-43.97053517 93.14784596 -36.11028346 93.89175598 -26 93 C-18.62606216 91.24382536 -12.16820443 87.48911725 -7.75390625 81.234375 C-2.25629266 71.97099679 -0.78486952 62.24498715 -3.0625 51.6875 C-5.68448724 42.72313821 -11.1026122 36.82441231 -19 32 C-30.92373837 26.78336446 -43.98254242 28.77514009 -54 37 Z " fill="#116BA8" transform="translate(3318,364)"/>
<path d="M0 0 C13.25217712 12.19714943 19.63657166 29.5470925 20.91796875 47.09765625 C21.50967502 65.66244051 14.59929716 81.74826157 2.5703125 95.54296875 C-9.77601508 108.59606284 -26.80583083 116.65198234 -44.75 117.38671875 C-65.93840365 117.88166867 -84.44714039 113.94984839 -100.7734375 99.63671875 C-114.6858192 85.68133123 -122.13645126 69.08695224 -122.73828125 49.2265625 C-122.57424542 30.67029019 -115.02060208 14.53739973 -102.30078125 1.1015625 C-92.04367731 -8.90449344 -78.3321035 -15.38665759 -64.30078125 -17.8984375 C-63.12515625 -18.1253125 -61.94953125 -18.3521875 -60.73828125 -18.5859375 C-37.43084464 -20.70479537 -17.89022812 -14.76171624 0 0 Z M-72.30078125 25.1015625 C-79.22555461 32.74218796 -81.9264336 42.19687419 -81.58203125 52.37109375 C-80.57955073 62.10350876 -76.60836729 69.33817991 -69.42578125 75.9140625 C-61.24635301 81.63966227 -53.12145833 82.31411549 -43.30078125 81.1015625 C-35.40425341 78.61797713 -28.53562991 74.34445129 -24.30078125 67.1015625 C-21.2730733 59.96159451 -19.3796484 52.85922824 -20.30078125 45.1015625 C-20.38328125 44.37582031 -20.46578125 43.65007812 -20.55078125 42.90234375 C-21.79622482 35.46860247 -25.01546561 28.97820399 -30.71875 23.984375 C-43.82458221 14.86891883 -59.79919123 14.85903173 -72.30078125 25.1015625 Z " fill="#116BA7" transform="translate(2604.30078125,375.8984375)"/>
<path d="M0 0 C2.875 2.625 2.875 2.625 5 5 C5.99 6.0828125 5.99 6.0828125 7 7.1875 C17.79445327 22.3671999 17.15155845 39.08400935 17.09765625 56.9140625 C17.09578814 58.73822999 17.09436609 60.56239799 17.09336853 62.38656616 C17.08957431 67.15730201 17.07977089 71.92800679 17.06866455 76.69873047 C17.05657167 82.43913633 17.05203344 88.17955266 17.04621124 93.91996765 C17.03655713 102.6133333 17.01737901 111.30663092 17 120 C3.14 120 -10.72 120 -25 120 C-25.04898438 115.06289063 -25.09796875 110.12578125 -25.1484375 105.0390625 C-25.18386045 101.89451187 -25.21984129 98.74998713 -25.2578125 95.60546875 C-25.3179103 90.6242257 -25.37604221 85.64301849 -25.421875 80.66162109 C-25.45899368 76.64145969 -25.50542218 72.62149994 -25.55806351 68.60151291 C-25.57646732 67.07471664 -25.59162583 65.54787738 -25.60334396 64.02101517 C-25.53718277 47.63827828 -25.53718277 47.63827828 -32 33 C-36.91043607 28.56863087 -42.54461635 27.41111522 -49 27 C-54.68867806 27.45928421 -59.26115588 28.74204467 -64 32 C-64.66 32 -65.32 32 -66 32 C-66.2869574 32.5843129 -66.57391479 33.16862579 -66.86956787 33.77064514 C-67.55374843 35.11993556 -68.27169812 36.45374851 -69.04888916 37.75169373 C-73.20936628 45.43910909 -72.60500309 53.79766455 -72.609375 62.28515625 C-72.62437589 63.95382782 -72.64110701 65.62248464 -72.65948486 67.29112244 C-72.7029568 71.65579963 -72.72311241 76.02027661 -72.73822021 80.38513184 C-72.76132602 85.63673521 -72.8137322 90.88812004 -72.86116028 96.13954926 C-72.92974537 104.09308951 -72.96137899 112.04600384 -73 120 C-86.86 120 -100.72 120 -115 120 C-115 77.76 -115 35.52 -115 -8 C-101.14 -8 -87.28 -8 -73 -8 C-72.505 -2.555 -72.505 -2.555 -72 3 C-70.1128125 1.1746875 -70.1128125 1.1746875 -68.1875 -0.6875 C-49.56111771 -17.15683646 -18.64670831 -15.46908573 0 0 Z " fill="#116BA7" transform="translate(3495,369)"/>
<path d="M0 0 C0.72058594 0.58523438 1.44117188 1.17046875 2.18359375 1.7734375 C9.84839382 8.64133019 15.2984182 19.78989932 16.17969131 30.10279655 C16.24459002 32.48420619 16.24756256 34.8577795 16.22705078 37.23999023 C16.22734283 38.13834091 16.22763489 39.03669159 16.22793579 39.96226501 C16.22655016 42.91114189 16.21102517 45.85976139 16.1953125 48.80859375 C16.19157964 50.86125043 16.18873396 52.91390889 16.18673706 54.96656799 C16.17912208 60.35388153 16.15949196 65.74108623 16.1373291 71.12835693 C16.11321585 77.60037741 16.10407952 84.0724344 16.09242249 90.544487 C16.07306632 100.36306689 16.03472876 110.18140825 16 120 C2.14 120 -11.72 120 -26 120 C-26.03738281 114.52277344 -26.07476563 109.04554688 -26.11328125 103.40234375 C-26.14356991 99.9250992 -26.17472359 96.44790527 -26.20898438 92.97070312 C-26.2632401 87.45583695 -26.31435282 81.94107094 -26.34643555 76.42602539 C-26.37251261 71.97788623 -26.412946 67.53008478 -26.46318626 63.08215523 C-26.47982526 61.38821182 -26.49135798 59.69421003 -26.49761391 58.00019646 C-26.50728752 55.62078624 -26.53538437 53.24223422 -26.56762695 50.86303711 C-26.56619186 50.16819717 -26.56475677 49.47335724 -26.5632782 48.75746155 C-26.69465801 41.86777759 -29.00517072 35.85983389 -34 31 C-42.17879485 26.71416864 -50.25240877 26.42220742 -59 29 C-65.07232582 31.24335441 -68.30094857 35.28961019 -71 41 C-72.22101871 44.72468859 -72.17282171 48.45987017 -72.20532227 52.33886719 C-72.21522186 53.07096909 -72.22512146 53.80307098 -72.23532104 54.55735779 C-72.2668382 56.97049761 -72.29165464 59.38365709 -72.31640625 61.796875 C-72.33698423 63.47268172 -72.35798093 65.14848334 -72.37937927 66.82427979 C-72.43451274 71.23008087 -72.48396042 75.63592812 -72.53222656 80.04180908 C-72.5913489 85.33075498 -72.65752879 90.61961671 -72.72252655 95.90849304 C-72.82042628 103.93894385 -72.90935738 111.96944922 -73 120 C-86.86 120 -100.72 120 -115 120 C-115 77.76 -115 35.52 -115 -8 C-101.14 -8 -87.28 -8 -73 -8 C-72.505 -3.05 -72.505 -3.05 -72 2 C-71.31035156 1.46890625 -70.62070313 0.9378125 -69.91015625 0.390625 C-49.22704715 -15.15717169 -20.74682045 -17.29494809 0 0 Z " fill="#116BA7" transform="translate(1112,369)"/>
<path d="M0 0 C13.86 0 27.72 0 42 0 C42.04898438 5.15367187 42.09796875 10.30734375 42.1484375 15.6171875 C42.18385786 18.89845614 42.21983723 22.17969986 42.2578125 25.4609375 C42.31792478 30.65946731 42.37606031 35.85796258 42.421875 41.05664062 C42.45897669 45.25186123 42.50540114 49.44688797 42.55806351 53.64194107 C42.57647618 55.23572485 42.59163158 56.82954997 42.60334396 58.42339706 C42.2010932 74.43461759 42.2010932 74.43461759 48.54296875 88.59375 C53.04313615 92.93707511 57.56224122 93.20434418 63.5625 93.375 C70.03519434 93.20447083 73.59355854 91.94807166 78.625 87.875 C85.95779203 78.99846228 85.6037991 69.46958327 85.609375 58.49609375 C85.62437541 56.80500214 85.64110644 55.11392509 85.65948486 53.42286682 C85.70296204 48.99900598 85.7231136 44.5753427 85.73822021 40.15130615 C85.76132361 34.82878672 85.81373041 29.506483 85.86116028 24.18413544 C85.92975123 16.12270101 85.96138019 8.06188441 86 0 C99.86 0 113.72 0 128 0 C128 42.24 128 84.48 128 128 C116.12 128 104.24 128 92 128 C91.67 124.37 91.34 120.74 91 117 C89.3603125 118.546875 89.3603125 118.546875 87.6875 120.125 C74.0197618 132.00894168 59.38586156 133.11383754 42 132 C28.61991395 130.27004948 17.69646127 124.42266017 9.2421875 113.7890625 C-0.97127113 98.34056478 -0.15285095 79.16941073 -0.09765625 61.42578125 C-0.09578756 59.6478835 -0.09436579 57.86998524 -0.09336853 56.09208679 C-0.08957881 51.44795267 -0.07977944 46.8038506 -0.06866455 42.159729 C-0.05655926 36.56864331 -0.05203129 30.97754681 -0.04621124 25.38645172 C-0.03656528 16.92427896 -0.01738406 8.46217631 0 0 Z " fill="#116BA7" transform="translate(2219,361)"/>
<path d="M0 0 C11.78457605 10.80047784 16.53422985 23.00947865 17.87109375 38.71484375 C17.99092716 41.56613679 17.99858834 44.41044269 17.98461914 47.26391602 C17.98476517 48.06502304 17.98491119 48.86613007 17.98506165 49.69151306 C17.9843723 52.30478754 17.97662637 54.91798818 17.96875 57.53125 C17.96688234 59.35684673 17.96546008 61.18244397 17.96446228 63.00804138 C17.96066453 67.78701183 17.95085797 72.56595135 17.9397583 77.34490967 C17.92767511 83.0928 17.92312887 88.84070073 17.91730499 94.58860016 C17.9076445 103.29736946 17.88846882 112.00607104 17.87109375 120.71484375 C5.66109375 120.71484375 -6.54890625 120.71484375 -19.12890625 120.71484375 C-19.45890625 117.41484375 -19.78890625 114.11484375 -20.12890625 110.71484375 C-21.22203125 111.76671875 -22.31515625 112.81859375 -23.44140625 113.90234375 C-35.79611167 124.66640809 -51.09511659 125.62920371 -66.75537109 124.91015625 C-77.75723109 124.00483965 -88.50489121 118.94259305 -96.00390625 110.83984375 C-103.97708214 100.93434524 -106.12964003 89.77060416 -104.88671875 77.28125 C-103.38296084 67.44544571 -98.33410888 59.83986523 -90.73828125 53.53125 C-73.48385296 41.52030815 -45.83466401 37.6749299 -25.1484375 41.2265625 C-24.48199219 41.38769531 -23.81554688 41.54882812 -23.12890625 41.71484375 C-24.19472534 35.40407284 -25.27425673 29.59869265 -30.7109375 25.53125 C-42.45307778 18.78260938 -56.11150848 20.54710488 -68.6875 23.5703125 C-74.57855309 25.23887667 -79.63680823 27.20440148 -84.640625 30.76171875 C-86.12890625 31.71484375 -86.12890625 31.71484375 -88.12890625 31.71484375 C-89.43242917 28.57379737 -90.71946114 25.42623427 -92.00390625 22.27734375 C-92.36871094 21.39884766 -92.73351563 20.52035156 -93.109375 19.61523438 C-95.38004003 14.02114145 -96.98281185 8.64437425 -98.12890625 2.71484375 C-72.35137856 -14.56916675 -25.89700514 -21.15909152 0 0 Z M-64.62890625 73.90234375 C-66.71520329 77.81415069 -66.79848237 81.36259898 -66.12890625 85.71484375 C-64.43367301 90.15976153 -61.31672865 91.80380689 -57.12890625 93.71484375 C-49.47715058 96.06923011 -41.31675323 95.00927361 -34.12890625 91.71484375 C-27.8038575 87.64455775 -24.18619063 83.42731229 -22.48046875 76.05859375 C-22.05781411 73.24089615 -21.90452045 70.55706387 -22.12890625 67.71484375 C-33.84914 61.85472688 -55.28263069 65.72435264 -64.62890625 73.90234375 Z " fill="#116BA8" transform="translate(2990.12890625,368.28515625)"/>
<path d="M0 0 C10.78778035 10.29097467 15.7592698 22.99897139 16.40162849 37.89497375 C16.43425715 40.07974008 16.43640681 42.26228269 16.42602539 44.44726562 C16.42617142 45.26773376 16.42631744 46.0882019 16.4264679 46.93353271 C16.42577706 49.6171747 16.41802389 52.3007453 16.41015625 54.984375 C16.40828912 56.85624148 16.40686661 58.72810844 16.40586853 60.59997559 C16.40206659 65.50554779 16.39225632 70.41108997 16.38116455 75.31665039 C16.36909284 81.21386088 16.36453712 87.11108145 16.35871124 93.00830078 C16.34904317 101.94826301 16.3298704 110.88815948 16.3125 119.828125 C4.1025 119.828125 -8.1075 119.828125 -20.6875 119.828125 C-21.0175 116.528125 -21.3475 113.228125 -21.6875 109.828125 C-22.780625 110.88 -23.87375 111.931875 -25 113.015625 C-37.35470542 123.77968934 -52.65371034 124.74248496 -68.31396484 124.0234375 C-79.30162567 123.11928931 -90.020447 118.0530247 -97.5625 110.015625 C-105.52833448 100.11924711 -107.50161083 88.32437382 -106.22265625 75.90234375 C-104.60919343 66.63376536 -99.308489 58.49937283 -92 52.640625 C-74.39101895 40.36769882 -47.24065443 37.25313818 -26.19921875 40.33984375 C-25.37035156 40.50097656 -24.54148437 40.66210938 -23.6875 40.828125 C-26.24786359 31.69312496 -26.24786359 31.69312496 -32.125 24.640625 C-45.51677074 17.82726796 -60.2016718 19.34188563 -74.23046875 23.83203125 C-78.15495485 25.42303913 -81.78477508 27.48860804 -85.4375 29.62109375 C-87.6875 30.828125 -87.6875 30.828125 -89.6875 30.828125 C-91.39299326 26.58512529 -93.07373294 22.3327466 -94.75 18.078125 C-95.47799805 16.26828125 -95.47799805 16.26828125 -96.22070312 14.421875 C-96.90229492 12.68164062 -96.90229492 12.68164062 -97.59765625 10.90625 C-98.02183838 9.83793945 -98.44602051 8.76962891 -98.88305664 7.66894531 C-99.69896684 4.78763088 -99.92140482 3.52641084 -98.6875 0.828125 C-72.26847371 -17.17386395 -25.7739828 -20.82897448 0 0 Z M-66.1875 73.015625 C-68.32748076 77.02808892 -68.56606477 80.38039083 -67.6875 84.828125 C-64.73895487 89.96430039 -61.66434925 91.7912262 -56.0078125 93.359375 C-47.64192577 95.04945313 -40.66701602 92.86519974 -32.9375 89.703125 C-28.49704858 86.00274882 -24.65667903 80.60899287 -23.6875 74.828125 C-23.62293121 73.41277722 -23.60138961 71.99474811 -23.625 70.578125 C-23.645625 69.340625 -23.66625 68.103125 -23.6875 66.828125 C-35.40773375 60.96800813 -56.84122444 64.83763389 -66.1875 73.015625 Z " fill="#116BA8" transform="translate(1861.6875,369.171875)"/>
<path d="M0 0 C1.48468336 4.33962453 0.59454878 6.81909785 -1.23828125 10.921875 C-1.72876953 12.02917969 -2.21925781 13.13648438 -2.72460938 14.27734375 C-3.51061523 15.99630859 -3.51061523 15.99630859 -4.3125 17.75 C-4.82490234 18.91144531 -5.33730469 20.07289063 -5.86523438 21.26953125 C-9.71791957 29.85895979 -9.71791957 29.85895979 -12 31 C-13.85546875 29.9609375 -13.85546875 29.9609375 -16.1875 28.375 C-29.02462784 20.34711685 -45.77393404 16.48541906 -60.75390625 19.56640625 C-64.34494616 20.82955288 -65.85929261 21.78893892 -68 25 C-68.31708771 28.02080135 -68.31708771 28.02080135 -67 31 C-60.13894147 35.25771931 -52.7500522 36.6521807 -44.9375 38.375 C-11.1059146 46.14011966 -11.1059146 46.14011966 -1 61 C4.56495697 70.00416951 4.57291432 81.98374174 2.3046875 92.1015625 C-1.86214151 103.41152695 -10.40466309 111.94720369 -21.0625 117.25 C-43.30077308 126.77704941 -71.06456884 125.16900422 -93.3996582 116.48730469 C-99.60747574 113.91176305 -105.34064692 110.62284345 -111 107 C-109.99128842 100.78492093 -107.18391348 95.42584317 -104.5625 89.75 C-104.05912109 88.63625 -103.55574219 87.5225 -103.03710938 86.375 C-102.55177734 85.31796875 -102.06644531 84.2609375 -101.56640625 83.171875 C-101.12240479 82.2034668 -100.67840332 81.23505859 -100.22094727 80.23730469 C-99 78 -99 78 -97 77 C-94.4601584 78.16047072 -92.02469673 79.37932589 -89.5625 80.6875 C-74.28116381 88.50018269 -57.1994647 94.35888366 -40 89 C-37.19856996 87.54865673 -36.6452594 86.84756435 -35 84 C-35.05728998 80.25639659 -35.05728998 80.25639659 -36 77 C-42.7382445 74.22928632 -49.51591298 72.66243231 -56.625 71.125 C-90.83192018 63.44083677 -90.83192018 63.44083677 -101 49 C-106.87038418 39.15636799 -107.58047749 27.9119084 -105.3515625 16.75390625 C-101.79235885 6.03066449 -94.77519833 -1.53297834 -85 -7 C-60.80383942 -18.33161806 -21.62897655 -17.78192538 0 0 Z " fill="#116BA8" transform="translate(1735,370)"/>
<path d="M0 0 C14.85 0 29.7 0 45 0 C46.93879574 5.17012198 48.7056509 10.12643317 50.25244141 15.39404297 C50.45609818 16.08450211 50.65975494 16.77496124 50.86958313 17.48634338 C51.5329257 19.73751183 52.19220035 21.98985035 52.8515625 24.2421875 C53.31539315 25.81789152 53.77954016 27.39350246 54.24398804 28.96902466 C55.45929448 33.09384139 56.67140982 37.21958783 57.88250732 41.34564209 C59.82717886 47.97031394 61.7750125 54.59405102 63.72611618 61.21683121 C64.40637894 63.52857637 65.08421331 65.84102411 65.76187134 68.15353394 C66.17660003 69.56315916 66.59142041 70.97275742 67.00634766 72.38232422 C67.54903793 74.23142899 67.54903793 74.23142899 68.10269165 76.1178894 C68.88579311 78.90585045 68.88579311 78.90585045 70 81 C70.27117645 80.04422058 70.54235291 79.08844116 70.82174683 78.10369873 C73.37757866 69.09747789 75.93759228 60.09245498 78.50170708 51.08858871 C79.81981412 46.45955693 81.13644317 41.83011538 82.44970703 37.19970703 C83.7170778 32.73131869 84.98831441 28.26404692 86.26224136 23.7975235 C86.74764029 22.09308332 87.23164383 20.38824511 87.71422958 18.68300629 C88.39027168 16.29508981 89.07125649 13.90863531 89.75341797 11.52246094 C90.05120651 10.46402229 90.05120651 10.46402229 90.35501099 9.38420105 C91.32463868 6.01178977 92.41845917 3.16308166 94 0 C108.19 0 122.38 0 137 0 C136.23382936 5.36319451 135.20675708 9.8684753 133.4375 14.89453125 C133.17447083 15.65849716 132.91144165 16.42246307 132.64044189 17.20957947 C131.76593891 19.74587568 130.88285979 22.27910191 130 24.8125 C129.37655466 26.61661195 128.75385037 28.42098014 128.13183594 30.22558594 C127.1407539 33.10073574 126.14920781 35.9757166 125.15545654 38.84994507 C121.51079924 49.39442226 117.92758005 59.95958826 114.34423828 70.52502441 C111.23605114 79.68557729 108.11824036 88.84286515 105 98 C104.71068604 98.84967346 104.42137207 99.69934692 104.12329102 100.57476807 C102.63337092 104.94870407 101.1403587 109.32155371 99.64099121 113.69226074 C99.01821164 115.50936335 98.39822366 117.32742197 97.77832031 119.14550781 C97.41834961 120.1919043 97.05837891 121.23830078 96.6875 122.31640625 C96.38199219 123.20787354 96.07648438 124.09934082 95.76171875 125.01782227 C95 127 95 127 94 128 C92.4651703 128.09319449 90.92607918 128.117458 89.38842773 128.11352539 C88.40748642 128.11344986 87.4265451 128.11337433 86.4158783 128.11329651 C85.3492244 128.10813522 84.2825705 128.10297394 83.18359375 128.09765625 C81.55430687 128.09553383 81.55430687 128.09553383 79.8921051 128.09336853 C76.40720925 128.08775048 72.92237658 128.07519492 69.4375 128.0625 C67.08138113 128.05748733 64.72526126 128.05292402 62.36914062 128.04882812 C56.57940536 128.03777519 50.78970719 128.02101951 45 128 C35.6310365 101.90722077 26.38463989 75.77303239 17.23144531 49.60375977 C16.42916888 47.31131433 15.62676131 45.01891478 14.82421875 42.7265625 C14.43493195 41.61431808 14.04564514 40.50207367 13.64456177 39.35612488 C11.50603897 33.25735939 9.34952252 27.16541093 7.17041016 21.08105469 C6.82054346 20.10389401 6.82054346 20.10389401 6.46360874 19.10699272 C5.33258791 15.94965548 4.19908291 12.79325012 3.06266785 9.6378479 C2.66147232 8.52034149 2.26027679 7.40283508 1.84692383 6.25146484 C1.31099358 4.76348892 1.31099358 4.76348892 0.76423645 3.24545288 C0 1 0 1 0 0 Z " fill="#116BA7" transform="translate(1220,361)"/>
<path d="M0 0 C13.86 0 27.72 0 42 0 C42 11.88 42 23.76 42 36 C51.9 36 61.8 36 72 36 C72 46.89 72 57.78 72 69 C62.1 69 52.2 69 42 69 C42.07404127 76.15391878 42.15691448 83.30659723 42.26245117 90.45996094 C42.29566947 92.8925124 42.32371099 95.32514037 42.34643555 97.7578125 C42.38003758 101.25814358 42.43235834 104.75777555 42.48828125 108.2578125 C42.49467117 109.34240753 42.5010611 110.42700256 42.50764465 111.54446411 C42.61502982 117.08134288 42.81998793 121.25020726 46 126 C49.75824015 129.40590513 53.14148506 130.16481171 58.125 130.25 C59.01445312 130.27578125 59.90390625 130.3015625 60.8203125 130.328125 C65.12690614 129.88370993 68.95202565 128.48728567 73 127 C73.7151014 131.35945592 74.42709978 135.71940384 75.13623047 140.07983398 C75.37789104 141.56304604 75.62039811 143.04612044 75.86376953 144.52905273 C76.21349305 146.66093873 76.56016665 148.79330169 76.90625 150.92578125 C77.11572266 152.20880127 77.32519531 153.49182129 77.54101562 154.8137207 C78 158 78 158 78 161 C76.02422092 161.80008365 74.04416153 162.58959921 72.0625 163.375 C70.40927734 164.03628906 70.40927734 164.03628906 68.72265625 164.7109375 C54.09047858 169.77769367 36.25516064 170.57616293 22 164 C11.48383411 158.53159374 5.97171103 151.16103744 1.9453125 140.1484375 C0.3835257 134.94678396 -0.12458554 130.04691535 -0.11352539 124.62744141 C-0.11344986 123.38660797 -0.11337433 122.14577454 -0.11329651 120.86734009 C-0.10819113 119.52874714 -0.10297515 118.19015461 -0.09765625 116.8515625 C-0.09578906 115.47008312 -0.09436658 114.08860308 -0.09336853 112.7071228 C-0.08956702 109.08711897 -0.07975716 105.46715583 -0.06866455 101.84716797 C-0.05839935 98.14681549 -0.05386 94.44645639 -0.04882812 90.74609375 C-0.03813257 83.49737521 -0.02055516 76.24869851 0 69 C-8.25 69 -16.5 69 -25 69 C-25 58.11 -25 47.22 -25 36 C-16.75 36 -8.5 36 0 36 C0 24.12 0 12.24 0 0 Z " fill="#116BA7" transform="translate(2391,325)"/>
<path d="M0 0 C13.86 0 27.72 0 42 0 C42 11.88 42 23.76 42 36 C51.9 36 61.8 36 72 36 C72 46.89 72 57.78 72 69 C62.1 69 52.2 69 42 69 C42.07415494 75.83248301 42.15713029 82.66369462 42.26245117 89.49560547 C42.29561153 91.81747755 42.32367087 94.13942851 42.34643555 96.46142578 C42.38014472 99.80795768 42.43247009 103.15377244 42.48828125 106.5 C42.49467117 107.5305249 42.5010611 108.5610498 42.50764465 109.62280273 C42.63131966 115.74847506 43.32787003 120.45161628 46 126 C50.8661055 130.05508791 54.94703406 130.55603271 61.19921875 130.33984375 C65.37208654 129.83351251 69.12932775 128.60561219 73 127 C78.17494495 151.94323465 78.17494495 151.94323465 78 161 C62.91327914 168.67980364 44.34162583 170.92123009 27.875 166.5 C16.86832827 162.40814147 9.05583591 155.61725541 4 145 C0.22936419 134.62376888 -0.14340837 124.55482546 -0.09765625 113.62890625 C-0.0962413 112.35144028 -0.09482635 111.0739743 -0.09336853 109.75779724 C-0.08873516 106.38275254 -0.07977023 103.00777703 -0.06866455 99.63275146 C-0.05838426 96.18030389 -0.05385681 92.72784913 -0.04882812 89.27539062 C-0.03782466 82.51690569 -0.02057322 75.7584623 0 69 C-7.92 69 -15.84 69 -24 69 C-24 58.11 -24 47.22 -24 36 C-16.08 36 -8.16 36 0 36 C0 24.12 0 12.24 0 0 Z " fill="#116BA7" transform="translate(3047,325)"/>
<path d="M0 0 C13.86 0 27.72 0 42 0 C42 59.4 42 118.8 42 180 C28.14 180 14.28 180 0 180 C0 120.6 0 61.2 0 0 Z " fill="#116CA7" transform="translate(1909,309)"/>
<path d="M0 0 C0.80457642 0.18322815 1.60915283 0.3664563 2.43811035 0.55523682 C3.35336487 0.76717682 3.35336487 0.76717682 4.28710938 0.98339844 C3.73878382 6.30394725 3.18734652 11.62416102 2.63305664 16.9440918 C2.4450315 18.75292284 2.25784843 20.56184164 2.0715332 22.37084961 C1.80317382 24.97500911 1.53176136 27.57883529 1.25976562 30.18261719 C1.17743179 30.98801437 1.09509796 31.79341156 1.01026917 32.62321472 C0.60654999 36.460262 0.13635755 40.21300088 -0.71289062 43.98339844 C-1.95683594 43.74363281 -3.20078125 43.50386719 -4.48242188 43.25683594 C-16.09061363 41.13755613 -26.67751327 39.30575615 -36.99023438 46.42089844 C-41.49382776 50.5057904 -44.55947504 55.9831612 -44.87110901 62.07756042 C-44.88665329 63.34997086 -44.90219757 64.62238129 -44.91821289 65.93334961 C-44.92811249 66.63604477 -44.93801208 67.33873993 -44.94821167 68.06272888 C-44.97978296 70.38390745 -45.00456675 72.70510648 -45.02929688 75.02636719 C-45.04987018 76.63634267 -45.07086676 78.2463128 -45.0922699 79.85627747 C-45.14745168 84.09275982 -45.19687812 88.3292906 -45.24511719 92.56585693 C-45.30419512 97.6495366 -45.37040168 102.73312779 -45.43541718 107.81673431 C-45.53337773 115.53890163 -45.6222672 123.26112582 -45.71289062 130.98339844 C-59.57289062 130.98339844 -73.43289063 130.98339844 -87.71289062 130.98339844 C-87.71289062 88.74339844 -87.71289062 46.50339844 -87.71289062 2.98339844 C-73.85289063 2.98339844 -59.99289062 2.98339844 -45.71289062 2.98339844 C-45.21789063 8.42839844 -45.21789063 8.42839844 -44.71289062 13.98339844 C-43.59914063 12.76652344 -42.48539063 11.54964844 -41.33789062 10.29589844 C-30.38844516 -0.61492465 -14.81506667 -3.39835356 0 0 Z " fill="#116BA7" transform="translate(1610.712890625,358.0166015625)"/>
<path d="M0 0 C13.86 0 27.72 0 42 0 C42 42.24 42 84.48 42 128 C28.14 128 14.28 128 0 128 C0 85.76 0 43.52 0 0 Z " fill="#116BA7" transform="translate(4086,361)"/>
<path d="M0 0 C13.86 0 27.72 0 42 0 C42 42.24 42 84.48 42 128 C28.14 128 14.28 128 0 128 C0 85.76 0 43.52 0 0 Z " fill="#116BA7" transform="translate(3860,361)"/>
<path d="M0 0 C13.86 0 27.72 0 42 0 C42 42.24 42 84.48 42 128 C28.14 128 14.28 128 0 128 C0 85.76 0 43.52 0 0 Z " fill="#116BA7" transform="translate(3149,361)"/>
<path d="M0 0 C13.86 0 27.72 0 42 0 C42 42.24 42 84.48 42 128 C28.14 128 14.28 128 0 128 C0 85.76 0 43.52 0 0 Z " fill="#116BA7" transform="translate(1160,361)"/>
<path d="M0 0 C5.37454001 3.81762961 9.75734316 8.80300024 10.96875 15.3984375 C11.81818249 22.36917711 10.4810333 28.30633549 6.96875 34.3984375 C2.29003273 40.03658794 -3.65316971 42.90794718 -10.85546875 43.71484375 C-18.82400599 44.03113652 -26.01622633 42.96651976 -32.13671875 37.52734375 C-37.94421835 31.19297821 -39.52458631 25.95051681 -39.3359375 17.3984375 C-38.57515251 9.90763144 -34.75500747 5.65595919 -29.2265625 0.84375 C-21.03330809 -4.55038546 -8.59138916 -4.52009654 0 0 Z " fill="#116BA7" transform="translate(3184.03125,299.6015625)"/>
<path d="M0 0 C5.18255097 3.69153928 9.00639309 8.33101416 10.96875 14.40234375 C11.92235548 21.72071143 11.07289519 28.19164616 6.96875 34.40234375 C2.14388882 39.98452492 -3.61349543 42.97308825 -10.92578125 43.68359375 C-19.93125759 43.95545719 -26.79066308 42.41390734 -33.48828125 36.19140625 C-38.12535595 30.81474748 -39.70428432 24.82192339 -39.3359375 17.8125 C-38.35579322 10.05930745 -35.33814406 6.1982614 -29.48046875 1.06640625 C-21.24554847 -4.52861135 -8.74038132 -4.58217752 0 0 Z " fill="#116BA7" transform="translate(4121.03125,299.59765625)"/>
<path d="M0 0 C6.57228562 4.07481708 12.08873409 8.17423623 14.125 15.9375 C14.93480362 23.35899138 14.75012191 29.83888792 10.125 35.9375 C5.15337912 41.46292169 -0.35792824 44.43766009 -7.734375 45.25390625 C-16.21265096 45.58744249 -22.50033619 43.67437774 -29.25 38.5625 C-34.22517193 33.58732807 -35.60030665 28.50851357 -36.125 21.6875 C-35.63574921 14.34873816 -34.04374711 9.59368418 -28.5625 4.5 C-21.09075936 -1.95464506 -9.30571868 -3.48158528 0 0 Z " fill="#116BA7" transform="translate(3891.875,298.0625)"/>
<path d="M0 0 C4.7905317 3.87519796 9.03212932 7.7088406 10 14 C10.65550069 21.4642498 10.65986326 27.85557853 6 34 C1.13008577 39.41238569 -4.38321711 42.50754316 -11.63671875 43.28125 C-19.66100664 43.54984541 -26.50709726 42.26317143 -32.875 37.1875 C-38.155075 32.17631771 -39.61475826 27.00639828 -40.05078125 19.875 C-39.95051679 14.19848913 -38.97030665 9.35108502 -35.26171875 4.92578125 C-26.0769802 -3.58124844 -11.24677757 -7.29586217 0 0 Z " fill="#116BA8" transform="translate(1196,300)"/>
</svg>
