<?xml version="1.0" encoding="UTF-8"?>
<svg version="1.1" xmlns="http://www.w3.org/2000/svg" width="1580" height="605">
<path d="M0 0 C34.32 0 68.64 0 104 0 C112.09073089 27.73964877 112.09073089 27.73964877 115.62719727 41.14155579 C115.88574493 42.11983149 116.1442926 43.09810719 116.41067505 44.1060276 C116.67733978 45.11517912 116.94400452 46.12433064 117.21875 47.1640625 C117.79586818 49.33891459 118.37326899 51.5136917 118.95092773 53.68840027 C120.1717823 58.28651977 121.39093035 62.88508664 122.60864258 67.48403931 C124.52957808 74.73848418 126.45475543 81.99179894 128.38085938 89.24487305 C128.70446693 90.4635139 129.02807449 91.68215475 129.36148834 92.93772411 C130.01691584 95.40591475 130.6723546 97.8741024 131.32780457 100.34228706 C132.31340925 104.0542056 133.29865534 107.76621915 134.28381348 111.47825623 C140.33133912 134.26290483 146.40767711 157.03979262 152.5 179.8125 C152.7361565 180.69541214 152.972313 181.57832428 153.21562576 182.48799133 C160.75464106 210.67381056 168.3328551 238.84872056 176 267 C181.4061055 249.52850052 186.5031504 231.97262682 191.53808594 214.39157104 C193.37495466 207.98057118 195.21691183 201.57102935 197.05786514 195.16120148 C197.5504937 193.44586332 198.04305435 191.73050565 198.53554916 190.01512909 C202.63297759 175.74364929 206.7442982 161.47621047 210.86328125 147.2109375 C211.15486996 146.20105396 211.44645866 145.19117043 211.74688339 144.15068436 C214.42676495 134.86970592 217.10751942 125.58897969 219.78881836 116.30841064 C221.5639965 110.16404357 223.33883184 104.01957757 225.11328125 97.875 C225.40302952 96.87167004 225.69277779 95.86834007 225.9913063 94.83460617 C229.89046916 81.33061965 233.77647717 67.82292379 237.64822006 54.31105042 C238.40596909 51.666873 239.16411108 49.02280859 239.9223938 46.37878418 C240.40985628 44.67895657 240.89731363 42.97912749 241.38476562 41.27929688 C241.73845372 40.04596241 241.73845372 40.04596241 242.09928703 38.7877121 C243.47493219 33.98946966 244.84753469 29.19036959 246.21787548 24.39060974 C247.04783614 21.48593397 247.88039608 18.58200811 248.71367836 15.67828369 C249.09602086 14.34370362 249.47719848 13.0087892 249.85713768 11.67352295 C250.36947773 9.87329681 250.88614201 8.07430295 251.40307617 6.27539062 C251.68946457 5.27334595 251.97585297 4.27130127 252.2709198 3.2388916 C253 1 253 1 254 0 C257.13559886 -0.09534958 260.24913613 -0.12550879 263.38500977 -0.11352539 C264.86289474 -0.11374443 264.86289474 -0.11374443 266.37063599 -0.1139679 C269.64424807 -0.11326832 272.91780404 -0.10547385 276.19140625 -0.09765625 C278.45442168 -0.09579223 280.71743751 -0.09436825 282.98045349 -0.09336853 C288.94978948 -0.0895421 294.91910132 -0.07971075 300.88842773 -0.06866455 C306.97444329 -0.05845312 313.06046273 -0.05387149 319.14648438 -0.04882812 C331.09766689 -0.03808859 343.04883144 -0.02101068 355 0 C381.88510928 93.08862821 381.88510928 93.08862821 394.0625 135.4375 C394.37617083 136.52830557 394.37617083 136.52830557 394.69617844 137.64114761 C396.56674906 144.14619098 398.43713456 150.65128756 400.30729675 157.15644836 C404.33745885 171.17486034 408.36960695 185.19270045 412.40382862 199.20994473 C413.40461062 202.68725622 414.40527683 206.16460088 415.4055481 209.64205933 C420.90765475 228.76996068 426.44258974 247.88810509 432 267 C440.15674648 236.93687206 448.27359267 206.86340674 456.33183289 176.77372742 C457.42203277 172.70355137 458.51290291 168.63355505 459.60374451 164.56355095 C465.59440604 142.21119274 471.57485623 119.85612711 477.54203415 97.49748802 C478.47125914 94.01596384 479.4007054 90.53449882 480.33023071 87.05305481 C480.94134619 84.7641299 481.5524607 82.47520473 482.16357422 80.1862793 C482.46312578 79.06433702 482.76267735 77.94239473 483.07130623 76.7864542 C484.83189716 70.19156625 486.59071937 63.59620978 488.3481884 57.00048923 C489.44647465 52.88011138 490.54627854 48.76013961 491.64643478 44.6402607 C492.15052 42.75125109 492.65397542 40.86207327 493.15669632 38.97270012 C493.39128933 38.09112299 493.62588234 37.20954586 493.86758423 36.30125427 C494.06932566 35.54231086 494.27106709 34.78336744 494.47892189 34.00142574 C497.53105576 22.62419948 500.7619751 11.33308715 504 0 C537.66 0 571.32 0 606 0 C600.74789758 18.09057501 595.49373879 36.14805893 589.91308594 54.13525391 C589.50575615 55.44946386 589.09849136 56.76369395 588.69128418 58.07794189 C588.48628799 58.73937447 588.28129181 59.40080704 588.07008362 60.08228302 C586.07592113 66.52176306 584.09130302 72.96419797 582.10546875 79.40625 C581.88517124 80.12066883 581.66487373 80.83508766 581.43790054 81.57115555 C577.32619498 94.90770481 573.27150324 108.26096175 569.25 121.625 C562.87600315 142.80134587 556.46156502 163.96511342 550.02934265 185.1238327 C547.69110422 192.81552697 545.353309 200.50735596 543.015625 208.19921875 C542.75956734 209.04172432 542.50350967 209.88422989 542.23969269 210.75226593 C537.35133284 226.83708688 532.47413565 242.92527513 527.60124969 259.01478958 C518.9329739 287.63576282 510.24902263 316.2519623 501.55053711 344.86376953 C500.80139782 347.32796543 500.05225978 349.79216171 499.30312538 352.2563591 C498.81371898 353.86618893 498.32429724 355.4760141 497.83485985 357.0858345 C495.04147263 366.27408708 492.2523601 375.46360396 489.47265625 384.65600586 C488.13734499 389.07160971 486.79997093 393.48658725 485.46234131 397.90148926 C484.86846248 399.86395204 484.27570607 401.82675489 483.68414307 403.78991699 C482.89766418 406.39985412 482.10750961 409.00864915 481.31640625 411.6171875 C481.09162094 412.36710968 480.86683563 413.11703186 480.63523865 413.88967896 C479.11397133 418.88602867 479.11397133 418.88602867 478 420 C474.92545239 420.09532328 471.87340842 420.1255138 468.79858398 420.11352539 C467.34995972 420.11374443 467.34995972 420.11374443 465.87207031 420.1139679 C462.66338901 420.11326834 459.45476497 420.10547397 456.24609375 420.09765625 C454.02791882 420.09579222 451.80974348 420.09436825 449.59156799 420.09336853 C443.74059929 420.08954216 437.88965523 420.07971086 432.03869629 420.06866455 C426.07332696 420.05845299 420.10795367 420.05387146 414.14257812 420.04882812 C402.42837456 420.03808869 390.71418933 420.02101085 379 420 C370.10883609 389.36683557 361.34550835 358.69982891 352.6875 328 C352.43752384 327.11362728 352.18754768 326.22725456 351.92999649 325.31402206 C349.58892814 317.01247378 347.24857018 308.71072529 344.90873718 300.40882874 C340.96565651 286.41938754 337.01588581 272.4318448 333.0625 258.4453125 C332.77416605 257.42521843 332.4858321 256.40512436 332.18876076 255.35411835 C330.46645234 249.26093988 328.74395885 243.16781375 327.02139664 237.07470703 C324.65334808 228.69830981 322.28552193 220.32184974 319.91796875 211.9453125 C319.67157339 211.07356636 319.42517803 210.20182022 319.17131615 209.30365753 C313.77328011 190.20458129 308.38540772 171.1026404 303 152 C301.0542115 157.04784131 299.33013688 162.05266998 297.86889648 167.2668457 C297.67555001 167.95294544 297.48220354 168.63904518 297.28299809 169.34593582 C296.64249384 171.62166456 296.00684859 173.89872159 295.37109375 176.17578125 C294.90940512 177.81902163 294.4473592 179.46216165 293.98498535 181.10520935 C292.98980702 184.64357076 291.99657349 188.18246985 291.00485229 191.72180176 C288.584233 200.35933667 286.15224941 208.99367421 283.72024727 217.6280098 C283.15380923 219.63904488 282.5874791 221.65011036 282.02125359 223.66120529 C275.98543458 245.09653281 269.87559629 266.51043816 263.74765015 287.91958237 C261.32050927 296.39927266 258.89437025 304.87924962 256.46875 313.359375 C256.07055809 314.7513765 256.07055809 314.7513765 255.6643219 316.17149925 C251.52124958 330.65684787 247.39541886 345.14704159 243.28125 359.640625 C243.01058779 360.59411583 242.73992558 361.54760666 242.46106148 362.52999115 C239.86293588 371.68365705 237.26662804 380.83783741 234.67230034 389.99258041 C233.73837015 393.28785015 232.80396931 396.58298633 231.86950684 399.87810516 C231.23122768 402.12970392 230.59374082 404.38152594 229.95629883 406.63336182 C229.5749897 407.97824172 229.19364435 409.32311135 228.81225586 410.66796875 C228.48430527 411.82578857 228.15635468 412.9836084 227.81846619 414.17651367 C227.25227852 416.12970753 226.64308123 418.07075631 226 420 C193.33 420 160.66 420 127 420 C117.8125 389.8125 117.8125 389.8125 113.32943726 375.08198547 C109.35613416 362.02651125 105.38250476 348.97113655 101.40790939 335.91605568 C89.44990011 296.63806129 77.50904052 257.35487581 65.57695007 218.06900024 C60.79938945 202.33911179 56.02081913 186.60953016 51.24206924 170.88000298 C49.50293996 165.15553868 47.76390103 159.43104694 46.02490234 153.70654297 C40.62257825 135.92308208 35.21927619 118.13991886 29.81481552 100.35710716 C25.52566041 86.24393334 21.23856471 72.13013506 16.95315552 58.01582336 C14.51240323 49.97741639 12.06939248 41.93970534 9.62309265 33.90298462 C8.36031957 29.75291822 7.09963966 25.60221865 5.83969116 21.45129395 C5.287471 19.63369383 4.73429583 17.81638354 4.18008423 15.99938965 C3.45089039 13.60841629 2.72497507 11.21647399 2 8.82421875 C1.68792854 7.80563026 1.68792854 7.80563026 1.36955261 6.76646423 C0 2.22841206 0 2.22841206 0 0 Z " fill="#116BA7" transform="translate(925,99)"/>
<path d="M0 0 C38.61 0 77.22 0 117 0 C122.62478662 13.49948788 122.62478662 13.49948788 124.54174805 18.60131836 C124.97903732 19.76191269 125.4163266 20.92250702 125.86686707 22.11827087 C126.55731865 23.96044945 126.55731865 23.96044945 127.26171875 25.83984375 C127.76550148 27.17919427 128.26947968 28.51847128 128.77363586 29.85768127 C129.85039695 32.71911522 130.92585175 35.58103521 132.00024414 38.44335938 C133.72265598 43.03204663 135.44802681 47.61961789 137.17382812 52.20703125 C139.28323422 57.81465679 141.39198029 63.42252961 143.49984932 69.03073311 C147.18922221 78.84647581 150.88379488 88.6602498 154.58203125 98.47265625 C154.98064425 99.53029332 154.98064425 99.53029332 155.38731003 100.6092968 C156.72378282 104.15526217 158.06035439 107.70119029 159.39697266 111.24710083 C161.8237036 117.68510533 164.24957982 124.12343191 166.67551804 130.56173515 C167.48757189 132.71686741 168.29964507 134.87199238 169.11172485 137.02711487 C172.66761752 146.46386264 176.22330629 155.90068722 179.77892113 165.33753967 C193.23899809 201.06144599 206.70355524 236.78365912 220.17333984 272.50390625 C223.02848519 280.07545867 225.88341555 287.64709214 228.73828125 295.21875 C228.97617119 295.84967875 229.21406113 296.48060749 229.45915985 297.13065529 C231.84940056 303.4700248 234.23962005 309.80940232 236.62981415 316.14878941 C237.81440053 319.29060176 238.99899522 322.43241098 240.18359375 325.57421875 C240.41869911 326.19776937 240.65380447 326.82132 240.89603424 327.4637661 C244.17972697 336.17279359 247.46377774 344.881686 250.74807739 353.59048462 C252.59101892 358.47731717 254.43386454 363.36418589 256.27668953 368.25106239 C257.52926853 371.57267872 258.78190115 374.89427481 260.03466797 378.21582031 C260.27240999 378.84617502 260.51015202 379.47652973 260.75509834 380.1259861 C261.45390136 381.97879973 262.15271657 383.83160877 262.85153198 385.68441772 C264.1417133 389.10647637 265.43054238 392.52904191 266.71923828 395.95166016 C268.1325167 399.70402635 269.55190683 403.45392451 270.97998047 407.20068359 C271.2678392 407.95898972 271.55569794 408.71729584 271.85227966 409.49858093 C272.58415756 411.42590732 273.31914136 413.35205353 274.05444336 415.27807617 C275 418 275 418 275 420 C237.71 420 200.42 420 162 420 C158.86472177 412.47533224 155.89530665 405.12632154 153.328125 397.42578125 C153.00140808 396.45883835 152.67469116 395.49189545 152.33807373 394.49565125 C151.30471444 391.43593177 150.27687355 388.37440161 149.25 385.3125 C143.70049459 368.79681767 137.9032186 352.39782944 132 336 C82.83 336 33.66 336 -17 336 C-24.92 359.265 -24.92 359.265 -33 383 C-37.29 395.21 -41.58 407.42 -46 420 C-82.63 420 -119.26 420 -157 420 C-144.30902233 385.38824273 -144.30902233 385.38824273 -139.9765625 373.7265625 C-139.46737054 372.35478875 -138.95821141 370.98300281 -138.44908142 369.61120605 C-137.11689387 366.02248422 -135.78378936 362.43410384 -134.45030594 358.84586334 C-133.60612049 356.57419603 -132.76213903 354.302453 -131.91818237 352.03070068 C-121.94859471 325.19698948 -111.91763462 298.38666336 -101.85058594 271.58935547 C-96.58682321 257.57684169 -91.32936284 243.56196166 -86.07247543 229.54686737 C-85.48340502 227.97639043 -84.89431664 226.40592024 -84.30521011 224.83545685 C-76.62632023 204.36466154 -68.96657923 183.88702224 -61.35229492 163.39208984 C-57.25283702 152.35878245 -53.13514935 141.33248091 -49 130.3125 C-48.55821915 129.13513779 -48.55821915 129.13513779 -48.10751343 127.93399048 C-46.49896676 123.64758628 -44.88995034 119.36135855 -43.28076172 115.07519531 C-38.80170172 103.14483726 -34.32437226 91.2138302 -29.84837723 79.28232193 C-29.06579403 77.19628053 -28.28312958 75.11026963 -27.50045776 73.02426147 C-20.15032104 53.43326499 -12.82558011 33.83306573 -5.55688477 14.21166992 C-5.25004761 13.38458023 -4.94321045 12.55749054 -4.6270752 11.70533752 C-4.06376796 10.18684731 -3.50136347 8.66802177 -2.94006348 7.14878845 C-1.11266544 2.22533088 -1.11266544 2.22533088 0 0 Z M56 109 C55.57404541 110.20793213 55.14809082 111.41586426 54.70922852 112.66040039 C46.6929345 135.38376571 38.64042288 158.09324845 30.4375 180.75 C30.09245422 181.70355377 29.74740845 182.65710754 29.39190674 183.63955688 C25.79116891 193.58734911 22.17595392 203.52969846 18.5342865 213.46258545 C17.02736262 217.57331908 15.52350073 221.68517062 14.01956177 225.79699707 C12.95807741 228.69384317 11.89114971 231.5886449 10.82397461 234.48339844 C10.18317922 236.2336318 9.542622 237.98395239 8.90234375 239.734375 C8.60638306 240.53198242 8.31042236 241.32958984 8.00549316 242.15136719 C6.8854774 245.22713018 6 247.69945692 6 251 C39.99 251 73.98 251 109 251 C103.05565594 234.00945835 103.05565594 234.00945835 97.0234375 217.05078125 C96.57930008 215.81152893 96.13516266 214.57227661 95.67756653 213.29547119 C86.71206887 188.28957744 77.70834049 163.296836 68.5737915 138.35214233 C67.65037478 135.83001652 66.73025003 133.30672761 65.81292725 130.78237915 C64.54246904 127.29109874 63.26285427 123.80332008 61.98046875 120.31640625 C61.60445023 119.27792542 61.2284317 118.23944458 60.84101868 117.16949463 C60.49411484 116.23256775 60.147211 115.29564087 59.78979492 114.33032227 C59.49054611 113.51298111 59.1912973 112.69563995 58.88298035 111.85353088 C58.14578042 109.81657742 58.14578042 109.81657742 56 109 Z " fill="#116BA8" transform="translate(658,99)"/>
<path d="M0 0 C33 0 66 0 100 0 C100.01458252 7.83202148 100.02916504 15.66404297 100.04418945 23.73339844 C100.0930579 48.85911986 100.15649743 73.98478451 100.22898628 99.11044823 C100.240253 103.02024642 100.25139168 106.93004497 100.26245117 110.83984375 C100.26465486 111.61813861 100.26685854 112.39643347 100.269129 113.19831303 C100.30439811 125.76218536 100.32932066 138.32605765 100.35034702 150.88996097 C100.37219219 163.80387855 100.40532435 176.71773249 100.44870156 189.63159585 C100.47506904 197.58530184 100.49287376 205.5389287 100.49934604 213.49267617 C100.50527699 219.61540805 100.52699291 225.73799636 100.55427551 231.86066818 C100.56299783 234.35494362 100.56679052 236.84924251 100.56500816 239.34353256 C100.55278376 264.36662759 101.81464612 288.08842676 117 309 C117.7425 310.051875 118.485 311.10375 119.25 312.1875 C134.36227744 327.64323829 155.249482 333.84791455 176.31030273 334.28759766 C199.10185015 334.47664684 220.8959889 329.81945716 238.1640625 313.92578125 C253.81909395 297.50465252 258.13683827 274.77565947 258.15821838 252.89524841 C258.16562535 251.26662694 258.16562535 251.26662694 258.17318195 249.60510403 C258.18848037 245.98470298 258.19689674 242.36431955 258.20532227 238.74389648 C258.21490681 236.14161526 258.22491723 233.53933557 258.23532104 230.9370575 C258.25701347 225.34361435 258.27518416 219.75016879 258.29092598 214.15670586 C258.31369083 206.06961431 258.34182427 197.98254836 258.37124526 189.89547861 C258.41884035 176.77302247 258.46212629 163.65055581 258.50268555 150.52807617 C258.5420817 137.7849038 258.58351772 125.04174075 258.62768555 112.29858398 C258.63177196 111.1192805 258.63177196 111.1192805 258.63594092 109.91615271 C258.64962107 105.97179349 258.66334121 102.02743441 258.67708123 98.0830754 C258.79091895 65.38873526 258.89695932 32.6943764 259 0 C292.33 0 325.66 0 360 0 C360.0663175 33.33389564 360.12163979 66.66772649 360.15319599 100.00166839 C360.15694745 103.95008699 360.16083048 107.89850544 360.16479492 111.84692383 C360.16558185 112.63287898 360.16636878 113.41883414 360.16717956 114.22860611 C360.18018167 126.90229711 360.20380637 139.57594668 360.23145839 152.24961322 C360.25965808 165.28442439 360.27620678 178.31921409 360.28226548 191.35405451 C360.28635198 199.37688083 360.29918834 207.39958997 360.3237494 215.42238016 C360.34170147 221.60691663 360.3433294 227.79136649 360.33932304 233.97592545 C360.34013898 236.48908388 360.34597837 239.00224733 360.35761642 241.51537895 C360.59598019 295.71029543 347.1413355 344.40617359 309 384 C301.18430199 391.85445354 292.28077492 398.02139057 283 404 C282.41734375 404.37543945 281.8346875 404.75087891 281.234375 405.13769531 C254.64074696 421.96065043 221.79236122 429.05309574 190.6015625 429.203125 C189.645914 429.20882507 188.6902655 429.21452515 187.70565796 429.22039795 C185.69391968 429.22977496 183.68216654 429.23635255 181.67041016 429.24023438 C178.66670235 429.24986627 175.66370214 429.28093046 172.66015625 429.3125 C155.97022877 429.40405124 139.60562423 427.77808891 123.375 423.75 C122.5200293 423.54020508 121.66505859 423.33041016 120.78417969 423.11425781 C79.1633538 412.49059949 46.08297233 386.78121648 23.9140625 350.20849609 C15.4508878 335.87916411 9.84178696 320.19150015 5.6875 304.125 C5.45724121 303.25496338 5.22698242 302.38492676 4.98974609 301.48852539 C0.18720147 281.78329369 -0.4322871 261.87129426 -0.34057617 241.69555664 C-0.33972766 239.04194224 -0.34007815 236.38835261 -0.34190369 233.73474121 C-0.34346019 228.07328529 -0.3342237 222.41193484 -0.31719017 216.75050545 C-0.29258035 208.56552259 -0.28497273 200.38058958 -0.2812262 192.19557374 C-0.27469572 178.9089182 -0.25482813 165.62231861 -0.22631836 152.33569336 C-0.19868885 139.4457222 -0.17749908 126.55576636 -0.16479492 113.66577148 C-0.16400675 112.86831231 -0.16321858 112.07085314 -0.16240653 111.24922854 C-0.15849079 107.24773806 -0.15469982 103.24624748 -0.15097082 99.24475682 C-0.11998117 66.1631216 -0.06473633 33.08159067 0 0 Z " fill="#116BA8" transform="translate(99,99)"/>
</svg>
