<?xml version="1.0" encoding="UTF-8"?>
<svg version="1.1" xmlns="http://www.w3.org/2000/svg" width="3471" height="583">
<path d="M0 0 C14.85 0 29.7 0 45 0 C48.375 9 48.375 9 49.3478241 12.68249512 C49.57071609 13.51807953 49.79360809 14.35366394 50.02325439 15.21456909 C50.25558777 16.10217926 50.48792114 16.98978943 50.72729492 17.90429688 C51.10834129 19.33982407 51.10834129 19.33982407 51.49708557 20.80435181 C52.32877453 23.94146836 53.15465897 27.0800812 53.98046875 30.21875 C54.55874874 32.40459526 55.13739283 34.59034422 55.71638489 36.77600098 C57.23409215 42.50917639 58.74686927 48.24364136 60.25860596 53.97839355 C61.80418066 59.83794865 63.35443856 65.69626427 64.90429688 71.5546875 C67.94076967 83.03525349 70.97203289 94.51718797 74 106 C78.18804371 93.0500399 82.22399354 80.07436458 85.9384861 66.98052597 C86.67138962 64.39752964 87.40877407 61.81584525 88.1471405 59.23440552 C89.97241047 52.85003971 91.7910875 46.46380164 93.60876465 40.07727051 C95.16316687 34.6163006 96.72066535 29.15623422 98.28262901 23.69742203 C99.00695873 21.16120969 99.72666892 18.623716 100.44624329 16.08615112 C100.8881559 14.54027523 101.33029715 12.99446468 101.77270508 11.44873047 C102.06802376 10.40005798 102.06802376 10.40005798 102.36930847 9.3302002 C103.33476295 5.97557883 104.42627917 3.14744167 106 0 C120.52 0 135.04 0 150 0 C152.93815182 10.04147639 155.87582 20.08309321 158.8125 30.125 C159.02889885 30.86493446 159.2452977 31.60486893 159.46825409 32.36722565 C165.32963944 52.40967062 171.18052409 72.4549515 176.96411133 92.52001953 C177.16880539 93.22950745 177.37349945 93.93899536 177.58439636 94.66998291 C178.11628003 96.51402552 178.64729428 98.35831884 179.17822266 100.20263672 C179.74916043 102.14613197 180.35944214 104.07832641 181 106 C181.50072525 104.11865105 181.50072525 104.11865105 182.01156616 102.19929504 C185.1569551 90.38291978 188.30560824 78.56741858 191.45746422 66.75276661 C193.07778005 60.67863206 194.69694188 54.60419477 196.31347656 48.52905273 C197.87338246 42.66689913 199.43630633 36.80555785 201.00133133 30.94476891 C201.59806637 28.70795073 202.19371097 26.47084137 202.78824997 24.23343849 C203.62076489 21.10121962 204.45714078 17.97005583 205.29443359 14.83911133 C205.53971298 13.91266312 205.78499237 12.9862149 206.03770447 12.0316925 C206.26763596 11.17498962 206.49756744 10.31828674 206.73446655 9.43562317 C206.93173025 8.6954234 207.12899395 7.95522364 207.33223534 7.19259357 C208.07723749 4.74639206 209.05030458 2.37423855 210 0 C224.52 0 239.04 0 254 0 C253.34564191 5.2348647 252.81750374 9.18381907 251.30444336 14.03393555 C250.95512756 15.165672 250.60581177 16.29740845 250.24591064 17.46343994 C249.86440857 18.67562195 249.48290649 19.88780396 249.08984375 21.13671875 C248.68619491 22.4367134 248.28319595 23.73690999 247.88079834 25.03729248 C247.0216726 27.80962767 246.15860057 30.58068934 245.29232788 33.35079956 C243.91992052 37.74020491 242.55710417 42.13254801 241.1965332 46.52563477 C240.96833484 47.2624092 240.74013647 47.99918364 240.505023 48.75828457 C240.04258714 50.25143343 239.58018707 51.74459337 239.11782265 53.23776436 C238.41973297 55.49128974 237.72083319 57.74456258 237.02177429 59.99778748 C232.84728186 73.45871026 228.74990733 86.94232781 224.6875 100.4375 C224.36965546 101.49249695 224.05181091 102.5474939 223.72433472 103.63446045 C221.47893318 111.08845325 219.23872364 118.54399928 217 126 C216.28597492 128.37728011 215.57194485 130.75455872 214.85791016 133.13183594 C210.56700003 147.41974489 206.28166772 161.7093188 202 176 C187.15 176 172.3 176 157 176 C154.63134766 167.53859375 154.63134766 167.53859375 152.21484375 158.90625 C151.1987088 155.27860618 150.18249692 151.65098425 149.16601562 148.0234375 C147.56152178 142.29740577 145.95727473 136.57130591 144.35473633 130.84472656 C138.6704196 110.53333235 132.9857716 90.2251505 127 70 C124.6197834 78.12347812 122.24582145 86.2487752 119.875 94.375 C119.51840302 95.59697083 119.16180603 96.81894165 118.79440308 98.07794189 C112.79631875 118.65014643 106.95746255 139.26296986 101.25537109 159.91943359 C100.97454178 160.93223389 100.69371246 161.94503418 100.40437317 162.98852539 C99.8797342 164.8809529 99.35784481 166.77414557 98.8391571 168.66821289 C97.11260585 174.88739415 97.11260585 174.88739415 96 176 C94.64905018 176.09268999 93.29332909 176.11747326 91.93920898 176.11352539 C91.07839218 176.11344986 90.21757538 176.11337433 89.33067322 176.11329651 C88.39526199 176.10813522 87.45985077 176.10297394 86.49609375 176.09765625 C85.54307877 176.0962413 84.59006378 176.09482635 83.60816956 176.09336853 C80.55124835 176.08775152 77.49439923 176.07519616 74.4375 176.0625 C72.37044376 176.05748719 70.30338638 176.05292391 68.23632812 176.04882812 C63.15752412 176.03777656 58.0787743 176.02050055 53 176 C50.10242424 169.73024073 48.15178485 163.26621582 46.17578125 156.65625 C45.59994926 154.74887183 45.02411632 152.84149394 44.44825077 150.9341259 C43.82931048 148.88128323 43.21236783 146.82784988 42.5960083 144.77423096 C41.29506364 140.43991006 39.98865359 136.10724924 38.68115234 131.77490234 C38.22606546 130.26681783 37.77098744 128.75873064 37.31591797 127.25064087 C37.08659576 126.49068439 36.85727356 125.73072792 36.6210022 124.94774246 C35.90951919 122.58917722 35.19858847 120.23044611 34.48779297 117.87167358 C30.85815394 105.82883683 27.20906397 93.79197696 23.55078125 81.7578125 C23.28230944 80.87461586 23.01383762 79.99141922 22.7372303 79.08145905 C21.12951679 73.79287257 19.52133502 68.50442857 17.91299057 63.21603394 C16.6245246 58.97936006 15.33623533 54.74263248 14.0480957 50.50585938 C13.80200782 49.69651066 13.55591993 48.88716194 13.30237484 48.05328751 C12.11601873 44.15087304 10.93054573 40.24819417 9.74705505 36.34490967 C9.41524687 35.25058813 9.41524687 35.25058813 9.0767355 34.13415909 C8.64644549 32.71498973 8.2161955 31.29580823 7.78598881 29.87661362 C6.52551957 25.72169756 5.25424179 21.57026361 3.97558594 17.42089844 C3.68666473 16.47677094 3.39774353 15.53264343 3.10006714 14.55990601 C2.59322931 12.90377165 2.08236495 11.24886041 1.56619263 9.59561157 C0.53180487 6.1986154 0 3.59249908 0 0 Z " fill="#1167A0" transform="translate(2857,198)"/>
<path d="M0 0 C4.67656747 3.78350633 8.361793 8.19893949 11.6875 13.1875 C12.06519531 12.69121094 12.44289063 12.19492187 12.83203125 11.68359375 C22.5924239 -0.36260515 36.54876639 -6.03929548 51.6875 -7.8125 C66.09608261 -8.94443448 80.34941752 -6.62544067 91.77734375 2.5078125 C101.50365597 11.06060239 106.84653155 22.5249934 107.86790848 35.47487068 C107.93084515 37.87041713 107.93536287 40.25826503 107.91455078 42.65454102 C107.91484283 43.55318375 107.91513489 44.45182648 107.91543579 45.37770081 C107.91405462 48.31570463 107.8985511 51.25344733 107.8828125 54.19140625 C107.87907805 56.24120444 107.87623312 58.29100443 107.87423706 60.34080505 C107.86663462 65.71164966 107.84701548 71.08238451 107.8248291 76.45318604 C107.80068165 82.91023745 107.79157355 89.36732575 107.77992249 95.82440948 C107.76058894 105.61218244 107.72224268 115.39971501 107.6875 125.1875 C93.1675 125.1875 78.6475 125.1875 63.6875 125.1875 C63.64882812 116.88078125 63.64882812 116.88078125 63.609375 108.40625 C63.58419432 104.88797519 63.55785211 101.36978531 63.52734375 97.8515625 C63.47908012 92.27310923 63.43500869 86.69485265 63.41650391 81.11621094 C63.40130685 76.61612991 63.36680755 72.11656511 63.31919098 67.61671448 C63.30440853 65.9040629 63.29646079 64.1913376 63.29561615 62.47862244 C63.30228897 48.70262475 63.30228897 48.70262475 56.75 36.8125 C51.08897737 32.35230036 44.59098355 32.41945396 37.6875 33.1875 C34.74173534 34.25111989 32.40080737 35.57961415 29.6875 37.1875 C29.0275 37.1875 28.3675 37.1875 27.6875 37.1875 C26.99975595 38.51008472 26.34038627 39.84736503 25.6875 41.1875 C25.17692551 42.2305983 24.66635101 43.27369659 24.14030457 44.34840393 C22.50012301 48.21529451 22.24652776 51.88698653 22.25512695 56.05053711 C22.2449353 56.80258423 22.23474365 57.55463135 22.22424316 58.32946777 C22.19428187 60.79133721 22.18487342 63.25281649 22.17578125 65.71484375 C22.158922 67.4312111 22.14077008 69.1475662 22.12138367 70.86390686 C22.07401273 75.36337454 22.0441201 79.86279252 22.01794434 84.36242676 C21.98281405 89.77081865 21.92583819 95.17901977 21.87255096 100.58725739 C21.79418842 108.7873136 21.74346868 116.98712268 21.6875 125.1875 C7.1675 125.1875 -7.3525 125.1875 -22.3125 125.1875 C-22.33828125 119.73347656 -22.3640625 114.27945313 -22.390625 108.66015625 C-22.41581013 105.19201117 -22.44215577 101.72395186 -22.47265625 98.25585938 C-22.52089179 92.75870508 -22.56497371 87.26174949 -22.58349609 81.7644043 C-22.5987099 77.32915436 -22.63323851 72.89442644 -22.68080902 68.45940971 C-22.69557431 66.77270499 -22.70353821 65.08592571 -22.70438385 63.39915657 C-22.43456125 49.49707678 -22.43456125 49.49707678 -28.79473877 37.58876038 C-34.0160857 32.95885082 -38.62788728 32.90021229 -45.30078125 32.97265625 C-50.68109456 33.35646589 -53.89321455 34.99400996 -58.0625 38.5 C-62.45557742 43.74728691 -63.75855406 48.28133261 -63.74487305 55.02880859 C-63.7550647 55.79046326 -63.76525635 56.55211792 -63.77575684 57.33685303 C-63.80578028 59.83662371 -63.81513623 62.33601053 -63.82421875 64.8359375 C-63.84107338 66.5761542 -63.85922467 68.31635879 -63.87861633 70.05654907 C-63.92603748 74.62343561 -63.95589775 79.190273 -63.98205566 83.75732422 C-64.01715395 89.24411701 -64.07414422 94.73072114 -64.12744904 100.21736145 C-64.20587051 108.54071679 -64.25654578 116.86382674 -64.3125 125.1875 C-78.8325 125.1875 -93.3525 125.1875 -108.3125 125.1875 C-108.33504688 108.51564247 -108.35347909 91.84379789 -108.36431217 75.17192936 C-108.36947517 67.43142718 -108.37651793 59.69093513 -108.38793945 51.95043945 C-108.39788619 45.20622849 -108.4043534 38.46202485 -108.40658849 31.71780676 C-108.40789562 28.14463134 -108.41098158 24.5714769 -108.41823006 20.99830818 C-108.42624372 17.01587649 -108.42649114 13.03346559 -108.42602539 9.05102539 C-108.42962067 7.85772614 -108.43321594 6.66442688 -108.43692017 5.43496704 C-108.4355455 4.35658066 -108.43417084 3.27819427 -108.43275452 2.16712952 C-108.43367631 1.22413529 -108.4345981 0.28114107 -108.43554783 -0.69042873 C-108.3125 -2.8125 -108.3125 -2.8125 -107.3125 -3.8125 C-105.96155018 -3.90518999 -104.60582909 -3.92997326 -103.25170898 -3.92602539 C-102.39089218 -3.92594986 -101.53007538 -3.92587433 -100.64317322 -3.92579651 C-99.70776199 -3.92063522 -98.77235077 -3.91547394 -97.80859375 -3.91015625 C-96.85557877 -3.9087413 -95.90256378 -3.90732635 -94.92066956 -3.90586853 C-91.86374835 -3.90025152 -88.80689923 -3.88769616 -85.75 -3.875 C-83.68294376 -3.86998719 -81.61588638 -3.86542391 -79.54882812 -3.86132812 C-74.47002412 -3.85027656 -69.3912743 -3.83300055 -64.3125 -3.8125 C-63.8175 2.1275 -63.8175 2.1275 -63.3125 8.1875 C-62.3534375 7.135625 -62.3534375 7.135625 -61.375 6.0625 C-45.58301586 -9.5089257 -18.43185728 -13.00663136 0 0 Z " fill="#1167A0" transform="translate(2025.3125,248.8125)"/>
<path d="M0 0 C0.77943466 0.00222061 1.55886932 0.00444122 2.36192322 0.00672913 C3.68317955 0.00684242 3.68317955 0.00684242 5.03112793 0.00695801 C5.98841293 0.01211929 6.94569794 0.01728058 7.93199158 0.02259827 C9.39480812 0.02472069 9.39480812 0.02472069 10.88717651 0.02688599 C14.01542675 0.03250319 17.14360656 0.04505859 20.27183533 0.05775452 C22.38706867 0.0627673 24.50230313 0.06733059 26.61753845 0.07142639 C31.81482829 0.0824782 37.01207678 0.09923305 42.20933533 0.12025452 C42.21080189 0.70279401 42.21226845 1.2853335 42.21377945 1.8855257 C42.25093318 16.10140321 42.31006058 30.3170499 42.39323807 44.53273487 C42.43294084 51.40753348 42.46537753 58.28221908 42.48033142 65.15711975 C42.49479452 71.79678995 42.53000569 78.43614536 42.57764435 85.07567406 C42.59243527 87.60364924 42.60037502 90.13167446 42.60121918 92.65969276 C42.60359735 96.21178292 42.63074774 99.76291127 42.66343689 103.31483459 C42.65840652 104.35062149 42.65337616 105.38640839 42.64819336 106.45358276 C42.78004891 115.76736639 44.9460871 124.75185475 51.49839783 131.68666077 C60.47826637 139.21088852 72.08890576 139.06817597 83.20933533 138.12025452 C90.67589522 136.45901265 95.35563876 133.07152669 99.83433533 126.87025452 C103.69486749 119.14919019 104.6508249 112.22754465 104.62583923 103.64955139 C104.63442459 102.5379364 104.64300995 101.42632141 104.65185547 100.28102112 C104.67680341 96.63361674 104.68128321 92.98648622 104.68589783 89.33900452 C104.70021348 86.7983467 104.7159715 84.25769663 104.73310852 81.71705627 C104.77061086 75.72970614 104.79580153 69.74243774 104.81423318 63.75500917 C104.84975646 52.37438823 104.9133078 40.99391471 104.97909164 29.61343384 C104.99823814 25.87022434 105.00992445 22.12704667 105.02052307 18.38380432 C105.03072771 16.10780262 105.04108499 13.83180159 105.05162048 11.55580139 C105.05266281 10.50755188 105.05370514 9.45930237 105.05477905 8.37928772 C105.06023239 7.43170593 105.06568573 6.48412415 105.07130432 5.50782776 C105.07386042 4.67976372 105.07641651 3.85169968 105.07905006 2.99854279 C105.20933533 1.12025452 105.20933533 1.12025452 106.20933533 0.12025452 C107.59093647 0.02747122 108.9772157 0.00278409 110.36192322 0.00672913 C111.24276077 0.00680466 112.12359833 0.00688019 113.03112793 0.00695801 C113.98841293 0.01211929 114.94569794 0.01728058 115.93199158 0.02259827 C117.39480812 0.02472069 117.39480812 0.02472069 118.88717651 0.02688599 C122.01542675 0.03250319 125.14360656 0.04505859 128.27183533 0.05775452 C130.38706867 0.0627673 132.50230313 0.06733059 134.61753845 0.07142639 C139.81482829 0.0824782 145.01207678 0.09923305 150.20933533 0.12025452 C150.27976354 14.70763945 150.33248767 29.29500153 150.36477184 43.88252258 C150.3801678 50.65746279 150.40111604 57.43229667 150.43565369 64.20716858 C150.46902242 70.75593152 150.48623262 77.30462591 150.49396706 83.85346985 C150.49947287 86.34107695 150.51022342 88.82867863 150.5265255 91.3162384 C150.68988871 117.29797588 148.1598718 141.37063832 129.64683533 161.30775452 C112.38253817 177.68803646 90.23901443 180.64118065 67.40855408 180.39369202 C47.49432022 179.86860714 29.85114313 173.22312401 15.84214783 158.65931702 C0.88302521 141.48402809 -2.96565761 121.10921732 -2.9200592 98.99501038 C-2.92181152 97.93201721 -2.92356384 96.86902405 -2.92536926 95.77381897 C-2.92973664 92.29422834 -2.92686983 88.81468933 -2.92347717 85.33509827 C-2.92415123 82.90797923 -2.92512211 80.48086026 -2.92637634 78.05374146 C-2.92784599 72.98614352 -2.92572068 67.91856328 -2.92103577 62.85096741 C-2.91531143 56.34055407 -2.91863913 49.83018172 -2.92460823 43.31976986 C-2.9282103 38.31770515 -2.92707738 33.31565028 -2.92448044 28.31358528 C-2.9238116 25.91128599 -2.92463809 23.50898581 -2.92695999 21.10668755 C-2.92948364 17.76474995 -2.92565127 14.42288037 -2.9200592 11.08094788 C-2.92309555 9.58106071 -2.92309555 9.58106071 -2.92619324 8.0508728 C-2.92337341 7.14680695 -2.92055359 6.24274109 -2.91764832 5.3112793 C-2.91727129 4.52138579 -2.91689426 3.73149229 -2.91650581 2.91766262 C-2.74540486 0.47380175 -2.44532018 0.1642188 0 0 Z " fill="#1167A0" transform="translate(81.79066467285156,197.87974548339844)"/>
<path d="M0 0 C2.13870239 -0.36076355 2.13870239 -0.36076355 4.81689453 -0.34057617 C5.81778107 -0.34034958 6.8186676 -0.34012299 7.84988403 -0.33988953 C9.47493362 -0.31666374 9.47493362 -0.31666374 11.1328125 -0.29296875 C12.79327103 -0.28660149 12.79327103 -0.28660149 14.48727417 -0.28010559 C18.0334271 -0.26327214 21.57901797 -0.2256108 25.125 -0.1875 C27.52473139 -0.17245922 29.92447167 -0.15876977 32.32421875 -0.14648438 C38.21633859 -0.11335338 44.10812915 -0.06310777 50 0 C52.95668071 6.44401611 55.57903332 12.97012463 58.0625 19.609375 C58.44598602 20.62789047 58.82947205 21.64640594 59.22457886 22.69578552 C60.48548651 26.04628062 61.7426976 29.39815053 63 32.75 C63.89440544 35.12811962 64.78910477 37.50612873 65.68408203 39.8840332 C67.54088806 44.8182442 69.39643527 49.75292565 71.25097656 54.68798828 C75.0448136 64.78175186 78.85016997 74.87116243 82.65734863 84.9598999 C83.87616631 88.1905915 85.09391542 91.42168436 86.31152344 94.65283203 C90.63981209 106.13323096 94.98873089 117.60548239 99.36476517 129.06775093 C100.908736 133.11319351 102.45031986 137.15954667 103.9921093 141.20582104 C105.48250417 145.11598534 106.97742859 149.02437998 108.47566414 152.93154621 C109.61783328 155.913834 110.75368113 158.89852955 111.890625 161.8828125 C112.30831146 162.96763412 112.72599792 164.05245575 113.15634155 165.17015076 C113.53303986 166.16216995 113.90973816 167.15418915 114.29785156 168.17626953 C114.6283551 169.04011261 114.95885864 169.90395569 115.29937744 170.79397583 C116 173 116 173 116 176 C99.5 176 83 176 66 176 C64.185 170.781875 62.37 165.56375 60.5 160.1875 C59.63858398 157.72253052 59.63858398 157.72253052 58.75976562 155.20776367 C58.30822692 153.90295892 57.85703161 152.59803526 57.40625 151.29296875 C57.16874023 150.61737915 56.93123047 149.94178955 56.68652344 149.24572754 C55.69387733 146.35964122 55 144.07656851 55 141 C34.87 141 14.74 141 -6 141 C-6.99 144.63 -7.98 148.26 -9 152 C-9.64344687 154.03179696 -10.30730364 156.05747617 -11.0078125 158.0703125 C-11.52794922 159.56691406 -11.52794922 159.56691406 -12.05859375 161.09375 C-12.41050781 162.0940625 -12.76242187 163.094375 -13.125 164.125 C-13.48464844 165.16398438 -13.84429688 166.20296875 -14.21484375 167.2734375 C-16.86948252 174.86948252 -16.86948252 174.86948252 -18 176 C-19.50418739 176.09311889 -21.01271356 176.11746028 -22.51977539 176.11352539 C-23.96115623 176.11341209 -23.96115623 176.11341209 -25.43165588 176.11329651 C-26.476436 176.10813522 -27.52121613 176.10297394 -28.59765625 176.09765625 C-30.19364906 176.09553383 -30.19364906 176.09553383 -31.82188416 176.09336853 C-35.23545083 176.08775064 -38.648953 176.07519511 -42.0625 176.0625 C-44.37044176 176.05748731 -46.67838455 176.052924 -48.98632812 176.04882812 C-54.65757426 176.0377754 -60.32878253 176.02101987 -66 176 C-63.63801026 167.53783271 -60.62099566 159.3395148 -57.546875 151.1171875 C-57.00912484 149.67185636 -56.4716453 148.22642451 -55.93441772 146.78089905 C-54.50545075 142.93844766 -53.07256021 139.09747106 -51.63877106 135.25681686 C-50.14492504 131.25346008 -48.65451435 127.24882445 -47.16357422 123.24438477 C-44.02124422 114.80689126 -40.87349196 106.37142849 -37.7233429 97.9368515 C-37.06359781 96.170292 -36.40404221 94.40366173 -35.74450684 92.63702393 C-32.13808012 82.97722084 -28.52139834 73.32135734 -24.88691711 63.67207336 C-22.62310596 57.6607748 -20.36752257 51.64641645 -18.11346436 45.63145447 C-16.26487923 40.70088683 -14.41288875 35.77160245 -12.5602417 30.84255981 C-11.65128279 28.4223673 -10.74359072 26.00169859 -9.83721924 23.58053589 C-8.5760362 20.21249418 -7.31007357 16.84628625 -6.04296875 13.48046875 C-5.66350601 12.46382141 -5.28404327 11.44717407 -4.89308167 10.39971924 C-4.36435707 8.99952545 -4.36435707 8.99952545 -3.82495117 7.57104492 C-3.51933762 6.75681564 -3.21372406 5.94258636 -2.89884949 5.10368347 C-2 3 -2 3 0 0 Z M23 51 C20.52084724 57.89240339 18.04339066 64.78541389 15.56812286 71.67921352 C14.41881449 74.87995116 13.26891367 78.08047339 12.11767578 81.28051758 C10.7954546 84.95591671 9.47577975 88.63222744 8.15625 92.30859375 C7.74064819 93.46274277 7.32504639 94.61689178 6.89685059 95.80601501 C6.5164563 96.86703934 6.13606201 97.92806366 5.74414062 99.02124023 C5.40660767 99.96055893 5.06907471 100.89987762 4.72131348 101.86766052 C3.94659397 103.78270562 3.94659397 103.78270562 4 105 C17.2 105 30.4 105 44 105 C41.73939005 97.34568938 41.73939005 97.34568938 39.19067383 89.82568359 C38.87056839 88.94552582 38.55046295 88.06536804 38.22065735 87.15853882 C37.88616074 86.24770538 37.55166412 85.33687195 37.20703125 84.3984375 C36.85613937 83.435961 36.5052475 82.4734845 36.14372253 81.48184204 C35.0359794 78.44524726 33.92431129 75.41010732 32.8125 72.375 C32.05507721 70.30087666 31.29791332 68.22665876 30.54101562 66.15234375 C28.69699969 61.10046628 26.84976989 56.04977328 25 51 C24.34 51 23.68 51 23 51 Z " fill="#1167A1" transform="translate(1361,198)"/>
<path d="M0 0 C14.19 0 28.38 0 43 0 C43.33 30.03 43.66 60.06 44 91 C52.11871001 82.16570379 52.11871001 82.16570379 60.05078125 73.19921875 C63.18960793 69.6578171 66.41977428 66.20033126 69.65014648 62.74243164 C70.13942627 62.21641357 70.62870605 61.69039551 71.1328125 61.1484375 C71.56480957 60.68614746 71.99680664 60.22385742 72.44189453 59.74755859 C74.20669029 57.86843725 74.20669029 57.86843725 75.96508789 54.83984375 C77.7270952 52.73433763 78.66635531 52.07356394 81.37664795 51.47598267 C84.41024058 51.30456447 87.38856093 51.32598562 90.42578125 51.4140625 C91.52850876 51.42255219 92.63123627 51.43104187 93.76737976 51.43978882 C97.28342091 51.47332905 100.79715411 51.54861599 104.3125 51.625 C106.69853455 51.6550985 109.08460511 51.6824745 111.47070312 51.70703125 C117.31458721 51.77312241 123.15712873 51.87347897 129 52 C128.15933547 56.24795472 125.94292147 58.52896649 123 61.5625 C119.34304354 65.4328975 115.83234708 69.34060301 112.5 73.5 C109.30063925 77.47634836 105.97369597 81.26621233 102.5 85 C92.8297416 94.60022435 92.8297416 94.60022435 86 106 C86.6631949 107.99330315 86.6631949 107.99330315 88.0859375 109.88671875 C88.59632568 110.64710449 89.10671387 111.40749023 89.63256836 112.19091797 C90.2075708 113.01479004 90.78257324 113.83866211 91.375 114.6875 C92.59384087 116.49515531 93.81122281 118.30379496 95.02734375 120.11328125 C95.67687012 121.07057129 96.32639648 122.02786133 96.99560547 123.01416016 C100.39574721 128.07917032 103.66150836 133.22917927 106.9375 138.375 C108.28505384 140.48313838 109.63271023 142.59121122 110.98046875 144.69921875 C115.49192031 151.76675831 119.99294268 158.84095237 124.48413086 165.92138672 C125.02046143 166.76588379 125.55679199 167.61038086 126.109375 168.48046875 C126.60630859 169.26341309 127.10324219 170.04635742 127.61523438 170.85302734 C128.84233305 172.75554951 130.10630703 174.62422079 131.390625 176.48828125 C133 179 133 179 133 181 C125.83624127 181.56212472 118.6781905 181.94454623 111.49731445 182.20849609 C109.06188821 182.31854451 106.6278973 182.46828336 104.19750977 182.65966797 C88.11676136 183.89335 88.11676136 183.89335 81 181 C75.1619704 175.88842397 72.20165048 168.73340216 69.2081604 161.72381592 C67.59648984 158.09028024 65.61964049 154.93059748 63.44921875 151.6015625 C62.81435547 150.58964844 62.17949219 149.57773437 61.52539062 148.53515625 C60.61563477 147.09462891 60.61563477 147.09462891 59.6875 145.625 C59.03072266 144.57957031 58.37394531 143.53414062 57.69726562 142.45703125 C56.13412177 139.96969286 54.5684447 137.48399772 53 135 C48.82011475 137.81036654 44.80900131 140.94374187 43.46844482 146.00811768 C42.6846384 151.67270788 42.84580414 157.35722863 42.9375 163.0625 C42.958125 168.981875 42.97875 174.90125 43 181 C28.48 181 13.96 181 -1 181 C-1.02254482 157.54818481 -1.04097788 134.09637835 -1.05181217 110.64455509 C-1.05697569 99.75627823 -1.06401944 88.86800857 -1.07543945 77.97973633 C-1.0853846 68.49316431 -1.09185302 59.00659751 -1.09408849 49.52002043 C-1.09539589 44.49367245 -1.09848356 39.46733938 -1.10573006 34.44099617 C-1.11248761 29.71578103 -1.11461751 24.99058702 -1.11310768 20.26536751 C-1.11338413 18.52583705 -1.11539082 16.78630593 -1.11920547 15.04677963 C-1.12413859 12.68241015 -1.12299972 10.31812175 -1.12025452 7.95375061 C-1.12316736 7.25629276 -1.1260802 6.55883491 -1.12908131 5.84024197 C-1.11412121 1.11412121 -1.11412121 1.11412121 0 0 Z " fill="#1167A0" transform="translate(3205,193)"/>
<path d="M0 0 C10.87975715 9.75426503 15.0467562 24.1941622 15.8515625 38.328125 C16.02125403 44.66356286 15.96843437 51.00281593 15.94921875 57.33984375 C15.94735019 59.162582 15.94592836 60.98532076 15.94493103 62.80805969 C15.94114034 67.57056095 15.93134009 72.33303097 15.92022705 77.09552002 C15.90812444 82.82844142 15.90359425 88.56137334 15.89777374 94.29430389 C15.88812602 102.97226588 15.86894547 111.65015955 15.8515625 120.328125 C1.3315625 120.328125 -13.1884375 120.328125 -28.1484375 120.328125 C-28.19742188 115.40261719 -28.24640625 110.47710937 -28.296875 105.40234375 C-28.33230425 102.26235055 -28.36828864 99.122383 -28.40625 95.98242188 C-28.46631261 91.0100492 -28.52443572 86.03771198 -28.5703125 81.06518555 C-28.60747245 77.05150409 -28.6539108 73.03802302 -28.70650101 69.02451515 C-28.72488331 67.50133632 -28.74004933 65.9781148 -28.75178146 64.45487022 C-28.33759942 47.8235532 -28.33759942 47.8235532 -35.1484375 33.328125 C-42.23807463 27.97472554 -48.45023257 27.45830451 -57.1484375 28.328125 C-62.39373451 29.94635493 -66.08577558 32.07949725 -69.6484375 36.265625 C-72.42057611 41.92540799 -73.4035277 46.58205439 -73.46728516 52.89404297 C-73.48235359 53.9926339 -73.48235359 53.9926339 -73.49772644 55.11341858 C-73.52842759 57.51570913 -73.54555681 59.91788891 -73.5625 62.3203125 C-73.5812222 63.99326522 -73.60079639 65.66620861 -73.6211853 67.33914185 C-73.67240148 71.72845949 -73.7120833 76.11780772 -73.74932861 80.50726318 C-73.79649375 85.78128018 -73.85804635 91.0551467 -73.91717529 96.32904053 C-74.00525935 104.32867425 -74.07511524 112.32828101 -74.1484375 120.328125 C-88.6684375 120.328125 -103.1884375 120.328125 -118.1484375 120.328125 C-118.17098438 103.65626747 -118.18941659 86.98442289 -118.20024967 70.31255436 C-118.20541267 62.57205218 -118.21245543 54.83156013 -118.22387695 47.09106445 C-118.23382369 40.34685349 -118.2402909 33.60264985 -118.24252599 26.85843176 C-118.24383312 23.28525634 -118.24691908 19.7121019 -118.25416756 16.13893318 C-118.26218122 12.15650149 -118.26242864 8.17409059 -118.26196289 4.19165039 C-118.26555817 2.99835114 -118.26915344 1.80505188 -118.27285767 0.57559204 C-118.271483 -0.50279434 -118.27010834 -1.58118073 -118.26869202 -2.69224548 C-118.26961381 -3.63523971 -118.2705356 -4.57823393 -118.27148533 -5.54980373 C-118.1484375 -7.671875 -118.1484375 -7.671875 -117.1484375 -8.671875 C-115.79748768 -8.76456499 -114.44176659 -8.78934826 -113.08764648 -8.78540039 C-112.22682968 -8.78532486 -111.36601288 -8.78524933 -110.47911072 -8.78517151 C-109.54369949 -8.78001022 -108.60828827 -8.77484894 -107.64453125 -8.76953125 C-106.69151627 -8.7681163 -105.73850128 -8.76670135 -104.75660706 -8.76524353 C-101.69968585 -8.75962652 -98.64283673 -8.74707116 -95.5859375 -8.734375 C-93.51888126 -8.72936219 -91.45182388 -8.72479891 -89.38476562 -8.72070312 C-84.30596162 -8.70965156 -79.2272118 -8.69237555 -74.1484375 -8.671875 C-74.1484375 -5.371875 -74.1484375 -2.071875 -74.1484375 1.328125 C-73.45878906 0.79703125 -72.76914063 0.2659375 -72.05859375 -0.28125 C-50.29521243 -16.64110317 -21.93144579 -17.06665236 0 0 Z " fill="#1066A0" transform="translate(2767.1484375,253.671875)"/>
<path d="M0 0 C8.79798731 7.94262744 15.20126241 19.24022528 16.17969131 31.19564819 C16.24398853 33.58395708 16.24771069 35.96443193 16.22705078 38.35351562 C16.22734283 39.25201233 16.22763489 40.15050903 16.22793579 41.07623291 C16.22655239 44.01967326 16.2110381 46.96285436 16.1953125 49.90625 C16.19157885 51.95747743 16.18873354 54.00870666 16.18673706 56.05993652 C16.17912834 61.43901559 16.15950369 66.81798537 16.1373291 72.19702148 C16.11319878 78.66155743 16.10407654 85.12613008 16.09242249 91.59069824 C16.07307762 101.39387467 16.03473571 111.19681163 16 121 C1.48 121 -13.04 121 -28 121 C-28.03738281 115.52277344 -28.07476562 110.04554688 -28.11328125 104.40234375 C-28.14356991 100.9250992 -28.17472359 97.44790527 -28.20898438 93.97070312 C-28.2632401 88.45583695 -28.31435282 82.94107094 -28.34643555 77.42602539 C-28.37251261 72.97788623 -28.412946 68.53008478 -28.46318626 64.08215523 C-28.47982526 62.38821182 -28.49135798 60.69421003 -28.49761391 59.00019646 C-28.50728752 56.62078624 -28.53538437 54.24223422 -28.56762695 51.86303711 C-28.56619186 51.16819717 -28.56475677 50.47335724 -28.5632782 49.75746155 C-28.69578203 42.80883265 -31.04115261 36.95884739 -36 32 C-42.41911649 27.95316569 -49.61373912 28.13004402 -57 29 C-63.34253317 30.95992441 -66.92052154 34.41370859 -70.125 40.1328125 C-72.04525209 44.23049331 -72.16888284 47.88606576 -72.20532227 52.31713867 C-72.21522186 53.05884811 -72.22512146 53.80055756 -72.23532104 54.56474304 C-72.26690257 57.01578583 -72.29168021 59.466848 -72.31640625 61.91796875 C-72.33697867 63.61762495 -72.35797522 65.31727607 -72.37937927 67.016922 C-72.4345702 71.49014163 -72.48399262 75.96340721 -72.53222656 80.43670654 C-72.59129609 85.80405452 -72.65750769 91.17131854 -72.72252655 96.53859711 C-72.82049861 104.69234679 -72.90938025 112.84615035 -73 121 C-87.52 121 -102.04 121 -117 121 C-117.02254688 104.32814247 -117.04097909 87.65629789 -117.05181217 70.98442936 C-117.05697517 63.24392718 -117.06401793 55.50343513 -117.07543945 47.76293945 C-117.08538619 41.01872849 -117.0918534 34.27452485 -117.09408849 27.53030676 C-117.09539562 23.95713134 -117.09848158 20.3839769 -117.10573006 16.81080818 C-117.11374372 12.82837649 -117.11399114 8.84596559 -117.11352539 4.86352539 C-117.11712067 3.67022614 -117.12071594 2.47692688 -117.12442017 1.24746704 C-117.1230455 0.16908066 -117.12167084 -0.90930573 -117.12025452 -2.02037048 C-117.12117631 -2.96336471 -117.1220981 -3.90635893 -117.12304783 -4.87792873 C-117 -7 -117 -7 -116 -8 C-112.90918535 -8.1011692 -109.84117445 -8.13968558 -106.75 -8.1328125 C-105.82155273 -8.13376923 -104.89310547 -8.13472595 -103.93652344 -8.13571167 C-101.96940035 -8.13639355 -100.00227504 -8.13453872 -98.03515625 -8.13037109 C-95.01296974 -8.12502295 -91.99093185 -8.13031582 -88.96875 -8.13671875 C-87.06249967 -8.13605797 -85.15624943 -8.13477681 -83.25 -8.1328125 C-82.33959961 -8.13483673 -81.42919922 -8.13686096 -80.49121094 -8.13894653 C-74.11494969 -8.11494969 -74.11494969 -8.11494969 -73 -7 C-72.54540142 -4.34536879 -72.29756762 -1.67810862 -72 1 C-71.38253906 0.54109375 -70.76507813 0.0821875 -70.12890625 -0.390625 C-49.14374622 -15.59448524 -20.94483605 -16.49405839 0 0 Z " fill="#1066A0" transform="translate(383,253)"/>
<path d="M0 0 C13.59234647 11.7009149 20.57010055 26.99816333 22.11328125 44.77734375 C22.57895121 52.72345669 21.71842746 58.7516127 20.11328125 66.77734375 C-11.23671875 66.77734375 -42.58671875 66.77734375 -74.88671875 66.77734375 C-71.78153126 76.09290623 -70.3617619 80.15477497 -62.07421875 84.52734375 C-47.63870984 91.10046713 -32.63151676 90.09037066 -17.88671875 84.77734375 C-14.44459852 83.31564377 -11.06171178 81.74356206 -7.72045898 80.06420898 C-4.88662633 78.64283999 -3.1085678 77.77734375 0.11328125 77.77734375 C1.85818065 81.38036849 3.58479757 84.99153422 5.29516602 88.61108398 C5.87910763 89.84032398 6.46793135 91.06725741 7.06176758 92.29174805 C7.91606909 94.0554904 8.75124412 95.82845644 9.5859375 97.6015625 C10.09390869 98.66463623 10.60187988 99.72770996 11.12524414 100.82299805 C12.20995911 104.06642177 12.31744698 105.59621532 11.11328125 108.77734375 C8.70905532 110.41992559 6.59864158 111.62646709 3.98828125 112.83984375 C3.27124023 113.18418457 2.55419922 113.52852539 1.81542969 113.88330078 C-5.21944447 117.14144456 -12.29956954 119.15943314 -19.88671875 120.77734375 C-20.79808594 121.00164062 -21.70945312 121.2259375 -22.6484375 121.45703125 C-37.60831234 124.64555932 -55.26907175 124.34189345 -69.88671875 119.77734375 C-71.52447266 119.28427734 -71.52447266 119.28427734 -73.1953125 118.78125 C-88.86371849 113.44771722 -101.05654443 102.16692423 -108.88671875 87.77734375 C-117.7467108 69.4027956 -117.85890445 48.71093884 -111.85546875 29.47265625 C-105.24496972 12.27642566 -92.24258439 -0.36310791 -75.88671875 -8.22265625 C-51.62179845 -18.47801879 -21.14369735 -16.27978862 0 0 Z M-69.88671875 28.77734375 C-71.79988199 31.86783822 -71.88671875 32.93444192 -71.88671875 36.77734375 C-55.38671875 36.77734375 -38.88671875 36.77734375 -21.88671875 36.77734375 C-22.97579982 29.15377623 -24.21066845 26.55226928 -29.88671875 21.77734375 C-43.42515681 13.4442017 -59.62044741 17.30327579 -69.88671875 28.77734375 Z " fill="#1167A1" transform="translate(748.88671875,255.22265625)"/>
<path d="M0 0 C13.4645358 11.61338043 22.27954142 28.53051204 23.74609375 46.28515625 C23.80990234 47.35056641 23.80990234 47.35056641 23.875 48.4375 C23.92785156 49.09621094 23.98070313 49.75492187 24.03515625 50.43359375 C24.80796807 68.20826568 17.67957441 85.35159766 5.875 98.4375 C5.36839844 99.035625 4.86179687 99.63375 4.33984375 100.25 C-6.73874122 112.4446095 -23.80595348 119.41347962 -40.00195312 120.65869141 C-62.9060737 121.56973886 -82.5987847 117.83019911 -100.37109375 102.1640625 C-113.78687651 88.8814861 -121.2595307 71.99017267 -121.5625 53.125 C-121.38374931 33.71093167 -113.79671978 16.90748343 -100.12890625 3.24609375 C-72.90511321 -22.75085745 -29.03619433 -22.67763532 0 0 Z M-72.1875 31.6875 C-78.27886381 40.58683396 -79.5569388 50.65618918 -77.62109375 61.17578125 C-75.25087153 70.10136094 -71.17883619 75.1644227 -63.50390625 80.17578125 C-55.93181563 84.19184902 -47.56131567 84.81331176 -39.26953125 82.71484375 C-29.77018297 79.16516292 -25.15506532 73.976062 -20.9375 64.875 C-17.86229969 55.64939906 -18.32718363 45.7065055 -22.27734375 36.85546875 C-26.54528423 28.96982802 -32.60946849 24.23439012 -41.125 21.4375 C-53.23062623 19.96843917 -63.96843189 22.02709219 -72.1875 31.6875 Z " fill="#1167A1" transform="translate(2604.125,257.5625)"/>
<path d="M0 0 C15.7624353 13.28131123 22.58776195 31.06895215 24.6640625 51.09765625 C25.43107967 69.73617349 17.58230828 86.37506756 5.5078125 100.09375 C-6.67597412 113.07321248 -23.83053772 120.54543544 -41.48046875 121.328125 C-63.27122674 121.90379899 -82.21562237 118.16376237 -99.1953125 103.375 C-112.78615332 90.30190549 -120.53928875 72.56900428 -120.96875 53.6953125 C-120.75642315 33.56672733 -112.56232539 17.53920698 -98.796875 3.05078125 C-71.83832621 -22.46767412 -28.71322866 -21.5349215 0 0 Z M-70.65625 31.0078125 C-72.48330785 33.83123725 -72.48330785 33.83123725 -73.90625 36.9453125 C-74.40640625 37.96496094 -74.9065625 38.98460937 -75.421875 40.03515625 C-79.25381608 49.26334348 -78.32263322 58.88153393 -74.65625 68.0078125 C-71.01527693 74.88520608 -64.6135239 81.21590215 -57.0390625 83.5625 C-47.53329433 85.33898782 -39.67211607 84.57415264 -31.22265625 79.78125 C-24.62402607 75.22146598 -20.92548498 69.43090742 -19.09765625 61.62109375 C-17.22467583 50.53238668 -19.27419192 40.2646737 -25.7734375 31.0546875 C-30.41962883 26.00364132 -37.01982015 22.31635806 -43.87890625 21.734375 C-54.79911968 21.44553924 -62.40754136 23.54153764 -70.65625 31.0078125 Z " fill="#1167A1" transform="translate(1871.65625,256.9921875)"/>
<path d="M0 0 C14.19 0 28.38 0 43 0 C43.04898437 5.32125 43.09796875 10.6425 43.1484375 16.125 C43.18384458 19.50652883 43.21981642 22.88803293 43.2578125 26.26953125 C43.31799914 31.63065961 43.37615273 36.99175356 43.421875 42.35302734 C43.45888998 46.677914 43.50529288 51.00260945 43.55806351 55.32733154 C43.57652165 56.97300851 43.59166089 58.61872632 43.60334396 60.26446533 C43.62035435 62.57885094 43.64942275 64.89280679 43.68115234 67.20703125 C43.69447601 68.5216333 43.70779968 69.83623535 43.7215271 71.19067383 C44.21123019 77.88949017 45.50671052 83.79724376 50 89 C55.99143794 93.66000729 62.67418807 93.84727303 70 93 C75.10125373 91.23774871 79.40728239 88.20956657 81.86743736 83.25198269 C83.70656567 78.51139786 84.43902804 74.22857516 84.41650391 69.13110352 C84.42508926 68.39027023 84.43367462 67.64943695 84.44252014 66.88615417 C84.46737207 64.46697187 84.47193862 62.04820398 84.4765625 59.62890625 C84.49088603 57.93878443 84.50664547 56.24867422 84.52377319 54.55857849 C84.56545331 50.13182873 84.59057087 45.70515109 84.61126709 41.27825928 C84.64721959 34.16845224 84.70793422 27.05882235 84.76975632 19.94920158 C84.78888368 17.46463445 84.80058191 14.98011511 84.81118774 12.49549866 C84.82139229 10.9847096 84.83174957 9.47392156 84.84228516 7.96313477 C84.84332748 7.26864227 84.84436981 6.57414978 84.84544373 5.85861206 C84.88656482 1.11343518 84.88656482 1.11343518 86 0 C100.19 0 114.38 0 129 0 C129 42.57 129 85.14 129 129 C116.46 129 103.92 129 91 129 C90.505 124.545 90.505 124.545 90 120 C89.32195312 120.53109375 88.64390625 121.0621875 87.9453125 121.609375 C76.52328101 130.27872854 66.94130306 133.17740661 52.75 133.1875 C51.85925781 133.19974609 50.96851563 133.21199219 50.05078125 133.22460938 C35.36365611 133.25658425 22.68362029 129.36885158 12 119 C4.7929371 110.67324024 1.07512314 100.05693532 -0.1262207 89.22827148 C-0.20938443 88.49401412 -0.29254816 87.75975676 -0.378232 87.00324917 C-1.26701951 78.45649961 -1.27061709 69.93128469 -1.23046875 61.34765625 C-1.22927257 59.62796565 -1.22882471 57.90827438 -1.2290802 56.18858337 C-1.22753355 52.62641167 -1.2193757 49.06434308 -1.20581055 45.50219727 C-1.18862785 40.93252663 -1.1850027 36.36296644 -1.18575573 31.79326725 C-1.18548464 28.26149946 -1.18001651 24.7297559 -1.17275429 21.19799614 C-1.16957325 19.5110435 -1.16760153 17.82408812 -1.16686058 16.13713264 C-1.164702 13.79718387 -1.15597406 11.45735483 -1.14526367 9.11743164 C-1.14571686 8.42197235 -1.14617004 7.72651306 -1.14663696 7.00997925 C-1.11449943 2.22899885 -1.11449943 2.22899885 0 0 Z " fill="#1067A0" transform="translate(1489,245)"/>
<path d="M0 0 C11.32638442 10.37086639 15.12498014 24.19106032 16 39 C16.1717207 45.26237821 16.11689293 51.52894106 16.09765625 57.79296875 C16.09578763 59.59328675 16.09436582 61.39360526 16.09336853 63.19392395 C16.08957832 67.89724164 16.07977851 72.60052769 16.06866455 77.30383301 C16.05656062 82.96583655 16.05203152 88.62785076 16.04621124 94.28986359 C16.03656439 102.85993095 16.01738351 111.42992912 16 120 C3.13 120 -9.74 120 -23 120 C-23.33 117.36 -23.66 114.72 -24 112 C-24.70962891 112.58007812 -24.70962891 112.58007812 -25.43359375 113.171875 C-39.5243614 124.26869787 -55.60118841 125.32009193 -73 124 C-84.43516562 122.36340749 -94.83760797 116.01997001 -102 107 C-108.66324422 96.51908801 -110.45313876 85.12940981 -107.875 73.0625 C-105.18159767 63.1492831 -99.33776618 55.91631911 -91 50 C-73.97594096 40.35303321 -48.06205194 35.47456025 -28.5234375 39.51171875 C-28.02070313 39.67285156 -27.51796875 39.83398438 -27 40 C-29.26634286 30.57659429 -29.26634286 30.57659429 -35.8125 23.81640625 C-46.33256805 18.53810822 -61.20595029 19.72027761 -72.21875 22.9375 C-76.4184938 24.54189651 -80.36697749 26.53948973 -84.30859375 28.6953125 C-86.93205149 29.96706125 -89.1509096 30.48870894 -92 31 C-93.70549326 26.75700029 -95.38623294 22.5046216 -97.0625 18.25 C-97.79049805 16.44015625 -97.79049805 16.44015625 -98.53320312 14.59375 C-99.21479492 12.85351562 -99.21479492 12.85351562 -99.91015625 11.078125 C-100.33433838 10.00981445 -100.75852051 8.94150391 -101.19555664 7.84082031 C-102.01063595 4.96244009 -102.16270349 3.71452199 -101 1 C-76.874373 -20.78720925 -24.0549085 -19.55041791 0 0 Z M-67 74 C-68.73803322 77.47606644 -68.44789348 81.1994921 -68 85 C-66.0246586 88.9506828 -63.75597448 90.31112442 -59.75 91.8125 C-51.802392 94.08139298 -44.51647433 93.4014425 -37 90 C-32.72856763 87.05271167 -28.87388431 83.95240854 -27 79 C-26.71519194 76.9257375 -26.51125776 74.83928561 -26.375 72.75 C-26.30023437 71.67234375 -26.22546875 70.5946875 -26.1484375 69.484375 C-26.09945312 68.66453125 -26.05046875 67.8446875 -26 67 C-29.89495055 65.05252473 -34.71688962 65.77133554 -39 65.75 C-40.00417969 65.729375 -41.00835938 65.70875 -42.04296875 65.6875 C-51.73893948 65.6373268 -59.97656667 66.97656667 -67 74 Z " fill="#1167A1" transform="translate(2263,254)"/>
<path d="M0 0 C11.65735193 10.79149789 15.62147725 25.15144472 16.25961304 40.66772461 C16.37981793 45.7581564 16.3388216 50.84635002 16.29296875 55.9375 C16.2873568 57.79792942 16.28309429 59.65836335 16.28010559 61.51879883 C16.26878245 66.35860965 16.23942699 71.19813998 16.20599365 76.0378418 C16.17501871 80.99914763 16.16154232 85.96049985 16.14648438 90.921875 C16.11454216 100.61470495 16.06350232 110.30732893 16 120 C10.60653012 120.02464849 5.21309275 120.04283531 -0.18041992 120.05493164 C-2.01668875 120.05997231 -3.85295354 120.06680477 -5.68920898 120.07543945 C-8.32276401 120.08751672 -10.95626616 120.09323081 -13.58984375 120.09765625 C-14.82890724 120.10539818 -14.82890724 120.10539818 -16.09300232 120.11329651 C-18.06236368 120.11349205 -20.03161614 120.06204152 -22 120 C-23.96822886 118.03177114 -23.66248381 114.65191291 -24 112 C-24.70962891 112.58007812 -24.70962891 112.58007812 -25.43359375 113.171875 C-39.5243614 124.26869787 -55.60118841 125.32009193 -73 124 C-84.48521001 122.35624517 -94.76765736 115.99984783 -102 107 C-108.34010315 97.93550239 -110.04516572 85.81846084 -108.375 75 C-105.78642487 64.16034163 -99.70799839 55.74455249 -90.25219727 49.72509766 C-71.33694764 38.52406506 -48.3113122 38.6250209 -27 39 C-27.46389947 37.55744781 -27.93219809 36.11630983 -28.40234375 34.67578125 C-28.66265381 33.87309814 -28.92296387 33.07041504 -29.19116211 32.2434082 C-30.94017045 27.39232531 -33.53430932 24.95159534 -38.0625 22.6875 C-52.02038932 17.59307749 -68.04949409 20.98283149 -81.06640625 27.015625 C-83.18495739 28.05942441 -83.18495739 28.05942441 -85.8125 29.75 C-88 31 -88 31 -92 31 C-93.70549326 26.75700029 -95.38623294 22.5046216 -97.0625 18.25 C-97.79049805 16.44015625 -97.79049805 16.44015625 -98.53320312 14.59375 C-99.21479492 12.85351562 -99.21479492 12.85351562 -99.91015625 11.078125 C-100.33433838 10.00981445 -100.75852051 8.94150391 -101.19555664 7.84082031 C-102.01063595 4.96244009 -102.16270349 3.71452199 -101 1 C-76.93636207 -20.73122858 -23.96884437 -19.63119903 0 0 Z M-67 74 C-68.5992715 77.198543 -68.36127908 80.52101629 -68 84 C-66.55182734 87.62043164 -65.42584637 88.74630429 -62.0625 90.75 C-54.37193641 93.88900555 -47.32309261 93.69272622 -39.46484375 91.1015625 C-33.85944273 88.5964546 -29.41712485 84.77366012 -27 79.0625 C-25.74947688 74.99232601 -25.77342708 71.2293612 -26 67 C-29.89495055 65.05252473 -34.71688962 65.77133554 -39 65.75 C-40.00417969 65.729375 -41.00835938 65.70875 -42.04296875 65.6875 C-51.73893948 65.6373268 -59.97656667 66.97656667 -67 74 Z " fill="#1167A1" transform="translate(1133,254)"/>
<path d="M0 0 C-0.4867468 6.87286477 -3.1211197 12.61830878 -5.875 18.875 C-6.32230469 19.93203125 -6.76960937 20.9890625 -7.23046875 22.078125 C-7.66746094 23.08101563 -8.10445312 24.08390625 -8.5546875 25.1171875 C-8.95155762 26.03097168 -9.34842773 26.94475586 -9.75732422 27.88623047 C-11 30 -11 30 -14 31 C-16.49197275 29.84641931 -18.84919049 28.63268916 -21.25 27.3125 C-33.70234564 20.81906698 -47.43113238 16.40969378 -61.58203125 19.578125 C-65.24516186 20.81896924 -66.82467333 21.73701 -69 25 C-69.07272562 27.55460214 -69.07272562 27.55460214 -68 30 C-64.2083063 32.75823022 -60.53666047 33.77757433 -56 34.8125 C-54.57488605 35.15360878 -53.15043818 35.49750874 -51.7265625 35.84375 C-50.96633789 36.02808594 -50.20611328 36.21242188 -49.42285156 36.40234375 C-10.71381324 45.95088525 -10.71381324 45.95088525 -2.4453125 59.55859375 C2.79463004 69.75723898 3.72679234 80.92847925 1.31640625 92.1953125 C-2.76535261 103.00096458 -10.97615321 111.83658156 -21.375 116.75 C-45.41848952 126.87357454 -73.84705525 125.16991011 -97.91552734 115.87060547 C-109.86903941 110.87807513 -109.86903941 110.87807513 -113.28198242 106.26855469 C-114.3532425 102.88394106 -113.15930432 101.16145527 -111.67578125 97.9921875 C-111.14146484 96.84105469 -110.60714844 95.68992187 -110.05664062 94.50390625 C-109.62702026 93.61082764 -109.62702026 93.61082764 -109.1887207 92.69970703 C-108.31597589 90.88223844 -107.46984465 89.05413032 -106.62695312 87.22265625 C-102.41501244 78.27667496 -102.41501244 78.27667496 -99 76 C-97.98421875 76.53109375 -96.9684375 77.0621875 -95.921875 77.609375 C-79.31204936 86.18598175 -60.89099771 93.66177563 -42 88 C-39.6603039 86.7529818 -39.6603039 86.7529818 -38 85 C-37.25 81.5 -37.25 81.5 -38 78 C-41.75313188 75.11422542 -45.60953006 74.18742048 -50.1796875 73.16796875 C-51.59899048 72.84063414 -53.01826018 72.51315522 -54.4375 72.18554688 C-56.63879361 71.68836317 -58.84087875 71.19507781 -61.04394531 70.70581055 C-78.5588911 66.78820295 -94.99299038 62.16409099 -105.625 46.625 C-110.3129919 37.67519728 -110.26600657 26.56240115 -108.3828125 16.80078125 C-104.83877331 5.80798712 -96.98542044 -2.47134914 -87 -8 C-59.33247235 -20.93904278 -25.27158373 -16.33005504 0 0 Z " fill="#1066A0" transform="translate(1007,255)"/>
<path d="M0 0 C15.18 0 30.36 0 46 0 C47.90668918 5.08450447 49.64911457 9.9396175 51.16064453 15.11865234 C51.35454773 15.77985077 51.54845093 16.44104919 51.74822998 17.12228394 C52.37916864 19.2760431 53.00594821 21.43098934 53.6328125 23.5859375 C54.07421658 25.09438209 54.51594351 26.60273225 54.95797729 28.11099243 C56.11415721 32.0582458 57.26707094 36.00644437 58.41894531 39.95495605 C60.26878484 46.29538977 62.12191325 52.63485696 63.97829819 58.97337723 C64.62534342 61.18540327 65.26993144 63.3981352 65.91433716 65.6109314 C66.30884248 66.95988762 66.70343985 68.30881693 67.09814453 69.65771484 C67.44217316 70.83715668 67.78620178 72.01659851 68.14065552 73.23178101 C68.89444575 75.92383438 68.89444575 75.92383438 70 78 C70.27117645 77.05230743 70.54235291 76.10461487 70.82174683 75.12820435 C73.37488602 66.20886745 75.93490091 57.29152956 78.50170708 48.3761158 C79.82118821 43.79226078 81.13821436 39.20772963 82.44970703 34.62158203 C83.71482941 30.19792374 84.98629937 25.77613617 86.26224136 21.35558701 C86.74855459 19.66650685 87.2325546 17.97675894 87.71422958 16.28635025 C88.38789587 13.92364238 89.06965679 11.56341617 89.75341797 9.20361328 C89.95194366 8.50014771 90.15046936 7.79668213 90.35501099 7.07189941 C91.77189568 2.22810432 91.77189568 2.22810432 94 0 C95.91091919 -0.24050903 95.91091919 -0.24050903 98.26611328 -0.22705078 C99.14687531 -0.22689972 100.02763733 -0.22674866 100.93508911 -0.22659302 C102.36327469 -0.21110916 102.36327469 -0.21110916 103.8203125 -0.1953125 C105.28100662 -0.19106766 105.28100662 -0.19106766 106.77120972 -0.18673706 C109.88926349 -0.17551913 113.00703268 -0.1504117 116.125 -0.125 C118.23567294 -0.11497228 120.34635038 -0.10584607 122.45703125 -0.09765625 C127.63811835 -0.07557458 132.81903885 -0.04208129 138 0 C137.39239236 5.44317277 136.08139454 10.28542421 134.30712891 15.45678711 C133.89450302 16.68332001 133.89450302 16.68332001 133.47354126 17.93463135 C132.56371152 20.6342111 131.64521205 23.33075386 130.7265625 26.02734375 C130.08122608 27.93590851 129.43640963 29.84464915 128.79208374 31.7535553 C127.08872757 36.79504257 125.37791657 41.83396999 123.66564941 46.87243652 C121.96632122 51.87753113 120.27462346 56.88520253 118.58203125 61.89257812 C115.03372819 72.38440838 111.47102982 82.87129945 107.90040588 93.35555267 C107.01952586 95.94265352 106.13950453 98.5300451 105.25964355 101.11749268 C103.94486279 104.98266778 102.62682553 108.84671534 101.30576706 112.70974922 C100.8300785 114.1019019 100.35533228 115.49437696 99.88158035 116.88718987 C99.24207186 118.76633205 98.59846091 120.64407665 97.95458984 122.52172852 C97.59843597 123.56394058 97.2422821 124.60615265 96.87533569 125.6799469 C96 128 96 128 95 129 C93.40389018 129.09333705 91.80366572 129.11745372 90.20483398 129.11352539 C89.18385117 129.11344986 88.16286835 129.11337433 87.11094666 129.11329651 C86.0005452 129.10813522 84.89014374 129.10297394 83.74609375 129.09765625 C82.61551041 129.0962413 81.48492706 129.09482635 80.32008362 129.09336853 C76.69252935 129.08775019 73.06503576 129.07519458 69.4375 129.0625 C66.98502693 129.05748736 64.5325529 129.05292405 62.08007812 129.04882812 C56.05336455 129.0377748 50.02668661 129.02101884 44 129 C43.78496826 128.38582718 43.56993652 127.77165436 43.34838867 127.13887024 C34.02585091 100.51468944 24.69999348 73.89177218 15.25 47.3125 C14.93691895 46.43115387 14.62383789 45.54980774 14.30126953 44.64175415 C13.39457387 42.09023263 12.48649855 39.53920583 11.578125 36.98828125 C11.29175171 36.18187698 11.00537842 35.37547272 10.71032715 34.54463196 C9.09961249 30.02425829 7.45300812 25.5194534 5.77148438 21.02490234 C5.21542511 19.52832344 5.21542511 19.52832344 4.64813232 18.00151062 C3.93076871 16.0743041 3.20684564 14.14952248 2.47540283 12.22761536 C2.15190857 11.35610336 1.82841431 10.48459137 1.49511719 9.58666992 C1.20610535 8.82045822 0.91709351 8.05424652 0.61932373 7.26481628 C0 5 0 5 0 0 Z " fill="#1066A0" transform="translate(490,245)"/>
<path d="M0 0 C14.52 0 29.04 0 44 0 C44 11.88 44 23.76 44 36 C53.49892964 35.96040374 53.49892964 35.96040374 62.99780273 35.90991211 C64.17286377 35.90741455 65.3479248 35.90491699 66.55859375 35.90234375 C68.37315063 35.89448853 68.37315063 35.89448853 70.22436523 35.88647461 C73 36 73 36 74 37 C74.08843793 39.44830426 74.11528752 41.86820599 74.09765625 44.31640625 C74.0962413 45.04746078 74.09482635 45.77851532 74.09336853 46.53172302 C74.08775408 48.87535632 74.07519922 51.21889539 74.0625 53.5625 C74.05748686 55.14778508 74.05292363 56.73307166 74.04882812 58.31835938 C74.03862921 62.21230543 74.01905687 66.10604677 74 70 C64.1 70 54.2 70 44 70 C44.07404127 77.15391878 44.15691448 84.30659723 44.26245117 91.45996094 C44.29566947 93.8925124 44.32371099 96.32514037 44.34643555 98.7578125 C44.38003758 102.25814358 44.43235834 105.75777555 44.48828125 109.2578125 C44.49467117 110.34240753 44.5010611 111.42700256 44.50764465 112.54446411 C44.61469688 118.06417609 44.78754667 122.28634159 48 127 C53.1340257 130.85051928 58.84986465 130.66075834 65 130 C68.10461607 129.22160923 71.04499071 128.22578163 74 127 C75.9949572 133.29939188 77.06357404 139.67348956 78.125 146.1875 C78.30675781 147.26708984 78.48851562 148.34667969 78.67578125 149.45898438 C79.37916021 153.71892233 80 157.67149039 80 162 C78.02422092 162.80008365 76.04416153 163.58959921 74.0625 164.375 C72.40927734 165.03628906 72.40927734 165.03628906 70.72265625 165.7109375 C56.60384052 170.59992931 38.87092364 171.64234926 24.7265625 166.32421875 C14.0903329 161.15848546 7.63915866 154.27899156 2.859375 143.56640625 C-0.06748191 134.82574721 -0.2674443 126.71064136 -0.1953125 117.55859375 C-0.19157457 116.18140368 -0.18873129 114.80421091 -0.18673706 113.42701721 C-0.17916194 109.83165935 -0.15956741 106.23646739 -0.1373291 102.64117432 C-0.11673747 98.96067549 -0.10770709 95.28014941 -0.09765625 91.59960938 C-0.07631458 84.39965579 -0.04118376 77.19987244 0 70 C-8.25 70 -16.5 70 -25 70 C-25.02291088 65.31854289 -25.04283732 60.63727898 -25.05493164 55.95581055 C-25.05997157 54.36205386 -25.0668035 52.76830181 -25.07543945 51.17456055 C-25.08751999 48.88849747 -25.09323155 46.60249533 -25.09765625 44.31640625 C-25.10281754 43.59973282 -25.10797882 42.88305939 -25.11329651 42.14466858 C-25.11349263 40.42936328 -25.06192007 38.71418734 -25 37 C-24 36 -24 36 -21.68334961 35.88647461 C-20.68311768 35.89171143 -19.68288574 35.89694824 -18.65234375 35.90234375 C-17.19429321 35.90609009 -17.19429321 35.90609009 -15.70678711 35.90991211 C-13.84098999 35.92356812 -13.84098999 35.92356812 -11.9375 35.9375 C-7.998125 35.958125 -4.05875 35.97875 0 36 C0 24.12 0 12.24 0 0 Z " fill="#1166A0" transform="translate(1660,209)"/>
<path d="M0 0 C0.76166977 0.00222061 1.52333954 0.00444122 2.30809021 0.00672913 C3.16890701 0.00680466 4.02972382 0.00688019 4.91662598 0.00695801 C5.8520372 0.01211929 6.78744843 0.01728058 7.75120544 0.02259827 C8.70422043 0.02401321 9.65723541 0.02542816 10.63912964 0.02688599 C13.69605085 0.032503 16.75289996 0.04505836 19.80979919 0.05775452 C21.87685543 0.06276733 23.94391281 0.06733061 26.01097107 0.07142639 C31.08979752 0.08162894 36.16846725 0.10120096 41.24729919 0.12025452 C41.24729919 12.00025452 41.24729919 23.88025452 41.24729919 36.12025452 C51.14729919 36.12025452 61.04729919 36.12025452 71.24729919 36.12025452 C71.24729919 47.34025452 71.24729919 58.56025452 71.24729919 70.12025452 C61.34729919 70.12025452 51.44729919 70.12025452 41.24729919 70.12025452 C41.32146292 76.81033431 41.40444562 83.49911774 41.50975037 90.18861389 C41.54290635 92.46198198 41.57096702 94.73543054 41.59373474 97.00892639 C41.6274521 100.28596637 41.67977762 103.56227508 41.73558044 106.83900452 C41.74197037 107.84765564 41.74836029 108.85630676 41.75494385 109.89552307 C41.89063739 116.47923165 42.24494375 123.21172268 47.24729919 128.05775452 C52.74646683 130.97918732 58.94492299 130.95556144 64.90354919 129.44837952 C67.0465878 128.72951214 69.15307111 127.9700862 71.24729919 127.12025452 C72.98982995 130.22553369 73.73198388 133.01092952 74.31761169 136.51478577 C74.49163513 137.55312561 74.66565857 138.59146545 74.84495544 139.66127014 C75.1059906 141.28065491 75.1059906 141.28065491 75.37229919 142.93275452 C75.55405701 144.0007428 75.73581482 145.06873108 75.92308044 146.16908264 C76.80875186 151.55303258 77.48081505 156.66376729 77.24729919 162.12025452 C65.97887728 167.0314915 55.92617109 169.38941476 43.62229919 169.49525452 C42.65654968 169.50911194 41.69080017 169.52296936 40.69578552 169.5372467 C29.05806715 169.46181245 18.60401095 166.03857235 9.98167419 158.01087952 C-5.55152616 141.32707173 -3.15047748 118.96267572 -2.94020081 97.62025452 C-2.92339455 94.94708502 -2.91144156 92.27392068 -2.89918518 89.60072327 C-2.86899053 83.1068601 -2.81022556 76.61416048 -2.75270081 70.12025452 C-10.67270081 70.12025452 -18.59270081 70.12025452 -26.75270081 70.12025452 C-26.77561169 65.43879741 -26.79553813 60.7575335 -26.80763245 56.07606506 C-26.81267238 54.48230837 -26.8195043 52.88855633 -26.82814026 51.29481506 C-26.84022079 49.00875199 -26.84593236 46.72274985 -26.85035706 44.43666077 C-26.85551834 43.71998734 -26.86067963 43.0033139 -26.86599731 42.2649231 C-26.86619343 40.54961779 -26.81462088 38.83444185 -26.75270081 37.12025452 C-25.75270081 36.12025452 -25.75270081 36.12025452 -23.52784729 36.00672913 C-22.56950989 36.01196594 -21.61117249 36.01720276 -20.62379456 36.02259827 C-19.5893219 36.02582092 -18.55484924 36.02904358 -17.48902893 36.03236389 C-16.40041565 36.0407428 -15.31180237 36.0491217 -14.19020081 36.05775452 C-12.5514801 36.06452209 -12.5514801 36.06452209 -10.87965393 36.07142639 C-8.17061585 36.08325625 -5.46168481 36.09973908 -2.75270081 36.12025452 C-2.76055603 34.53772888 -2.76055603 34.53772888 -2.76856995 32.92323303 C-2.78661981 29.02268822 -2.79813275 25.12214712 -2.80763245 21.22157288 C-2.8126727 19.53081136 -2.81950485 17.84005423 -2.82814026 16.14930725 C-2.84021937 13.72424745 -2.84593204 11.29924508 -2.85035706 8.87416077 C-2.85551834 8.11373978 -2.86067963 7.35331879 -2.86599731 6.56985474 C-2.86619318 4.75292881 -2.81467357 2.93612324 -2.75270081 1.12025452 C-1.75270081 0.12025452 -1.75270081 0.12025452 0 0 Z " fill="#1166A0" transform="translate(2318.752700805664,208.87974548339844)"/>
<path d="M0 0 C14.19 0 28.38 0 43 0 C43 59.73 43 119.46 43 181 C28.48 181 13.96 181 -1 181 C-1.02254482 157.54818481 -1.04097788 134.09637835 -1.05181217 110.64455509 C-1.05697569 99.75627823 -1.06401944 88.86800857 -1.07543945 77.97973633 C-1.0853846 68.49316431 -1.09185302 59.00659751 -1.09408849 49.52002043 C-1.09539589 44.49367245 -1.09848356 39.46733938 -1.10573006 34.44099617 C-1.11248761 29.71578103 -1.11461751 24.99058702 -1.11310768 20.26536751 C-1.11338413 18.52583705 -1.11539082 16.78630593 -1.11920547 15.04677963 C-1.12413859 12.68241015 -1.12299972 10.31812175 -1.12025452 7.95375061 C-1.12316736 7.25629276 -1.1260802 6.55883491 -1.12908131 5.84024197 C-1.11412121 1.11412121 -1.11412121 1.11412121 0 0 Z " fill="#10669F" transform="translate(1179,193)"/>
<path d="M0 0 C-1.29149874 14.72308558 -2.99350942 29.35744398 -5 44 C-5.6997998 43.85997559 -6.39959961 43.71995117 -7.12060547 43.57568359 C-17.46927027 41.58548807 -29.55070629 39.47931198 -39.23828125 44.73828125 C-44.24311772 48.32267633 -47.09893527 53.18076966 -49 59 C-49.46419345 62.60988348 -49.46419345 62.60988348 -49.43237305 66.40405273 C-49.4425647 67.107332 -49.45275635 67.81061127 -49.46325684 68.53520203 C-49.49319019 70.83474903 -49.50262209 73.13387819 -49.51171875 75.43359375 C-49.52858011 77.03786075 -49.54673231 78.64211465 -49.56611633 80.24635315 C-49.61346452 84.44989937 -49.64337171 88.65339248 -49.66955566 92.8571167 C-49.70470055 97.91092767 -49.76166981 102.96453478 -49.81494904 108.01818085 C-49.89328489 115.67876079 -49.9440245 123.33907713 -50 131 C-64.52 131 -79.04 131 -94 131 C-94.02254688 114.32814247 -94.04097909 97.65629789 -94.05181217 80.98442936 C-94.05697517 73.24392718 -94.06401793 65.50343513 -94.07543945 57.76293945 C-94.08538619 51.01872849 -94.0918534 44.27452485 -94.09408849 37.53030676 C-94.09539562 33.95713134 -94.09848158 30.3839769 -94.10573006 26.81080818 C-94.11374372 22.82837649 -94.11399114 18.84596559 -94.11352539 14.86352539 C-94.11712067 13.67022614 -94.12071594 12.47692688 -94.12442017 11.24746704 C-94.1230455 10.16908066 -94.12167084 9.09069427 -94.12025452 7.97962952 C-94.12117631 7.03663529 -94.1220981 6.09364107 -94.12304783 5.12207127 C-94 3 -94 3 -93 2 C-91.64905018 1.90731001 -90.29332909 1.88252674 -88.93920898 1.88647461 C-88.07839218 1.88655014 -87.21757538 1.88662567 -86.33067322 1.88670349 C-85.39526199 1.89186478 -84.45985077 1.89702606 -83.49609375 1.90234375 C-82.54307877 1.9037587 -81.59006378 1.90517365 -80.60816956 1.90663147 C-77.55124835 1.91224848 -74.49439923 1.92480384 -71.4375 1.9375 C-69.37044376 1.94251281 -67.30338638 1.94707609 -65.23632812 1.95117188 C-60.15752412 1.96222344 -55.0787743 1.97949945 -50 2 C-49.505 6.95 -49.505 6.95 -49 12 C-48.05125 10.948125 -47.1025 9.89625 -46.125 8.8125 C-33.550896 -3.71090197 -16.27110482 -3.56482346 0 0 Z " fill="#10669F" transform="translate(886,243)"/>
<path d="M0 0 C14.19 0 28.38 0 43 0 C43 42.57 43 85.14 43 129 C28.48 129 13.96 129 -1 129 C-1.02254688 112.32814247 -1.04097909 95.65629789 -1.05181217 78.98442936 C-1.05697517 71.24392718 -1.06401793 63.50343513 -1.07543945 55.76293945 C-1.08538619 49.01872849 -1.0918534 42.27452485 -1.09408849 35.53030676 C-1.09539562 31.95713134 -1.09848158 28.3839769 -1.10573006 24.81080818 C-1.11374372 20.82837649 -1.11399114 16.84596559 -1.11352539 12.86352539 C-1.11712067 11.67022614 -1.12071594 10.47692688 -1.12442017 9.24746704 C-1.1230455 8.16908066 -1.12167084 7.09069427 -1.12025452 5.97962952 C-1.12117631 5.03663529 -1.1220981 4.09364107 -1.12304783 3.12207127 C-1 1 -1 1 0 0 Z " fill="#10669E" transform="translate(3356,245)"/>
<path d="M0 0 C14.19 0 28.38 0 43 0 C43 42.57 43 85.14 43 129 C28.48 129 13.96 129 -1 129 C-1.02254688 112.32814247 -1.04097909 95.65629789 -1.05181217 78.98442936 C-1.05697517 71.24392718 -1.06401793 63.50343513 -1.07543945 55.76293945 C-1.08538619 49.01872849 -1.0918534 42.27452485 -1.09408849 35.53030676 C-1.09539562 31.95713134 -1.09848158 28.3839769 -1.10573006 24.81080818 C-1.11374372 20.82837649 -1.11399114 16.84596559 -1.11352539 12.86352539 C-1.11712067 11.67022614 -1.12071594 10.47692688 -1.12442017 9.24746704 C-1.1230455 8.16908066 -1.12167084 7.09069427 -1.12025452 5.97962952 C-1.12117631 5.03663529 -1.1220981 4.09364107 -1.12304783 3.12207127 C-1 1 -1 1 0 0 Z " fill="#10669E" transform="translate(3130,245)"/>
<path d="M0 0 C14.19 0 28.38 0 43 0 C43 42.57 43 85.14 43 129 C28.48 129 13.96 129 -1 129 C-1.02254688 112.32814247 -1.04097909 95.65629789 -1.05181217 78.98442936 C-1.05697517 71.24392718 -1.06401793 63.50343513 -1.07543945 55.76293945 C-1.08538619 49.01872849 -1.0918534 42.27452485 -1.09408849 35.53030676 C-1.09539562 31.95713134 -1.09848158 28.3839769 -1.10573006 24.81080818 C-1.11374372 20.82837649 -1.11399114 16.84596559 -1.11352539 12.86352539 C-1.11712067 11.67022614 -1.12071594 10.47692688 -1.12442017 9.24746704 C-1.1230455 8.16908066 -1.12167084 7.09069427 -1.12025452 5.97962952 C-1.12117631 5.03663529 -1.1220981 4.09364107 -1.12304783 3.12207127 C-1 1 -1 1 0 0 Z " fill="#10669E" transform="translate(2419,245)"/>
<path d="M0 0 C14.19 0 28.38 0 43 0 C43 42.57 43 85.14 43 129 C28.48 129 13.96 129 -1 129 C-1.02254688 112.32814247 -1.04097909 95.65629789 -1.05181217 78.98442936 C-1.05697517 71.24392718 -1.06401793 63.50343513 -1.07543945 55.76293945 C-1.08538619 49.01872849 -1.0918534 42.27452485 -1.09408849 35.53030676 C-1.09539562 31.95713134 -1.09848158 28.3839769 -1.10573006 24.81080818 C-1.11374372 20.82837649 -1.11399114 16.84596559 -1.11352539 12.86352539 C-1.11712067 11.67022614 -1.12071594 10.47692688 -1.12442017 9.24746704 C-1.1230455 8.16908066 -1.12167084 7.09069427 -1.12025452 5.97962952 C-1.12117631 5.03663529 -1.1220981 4.09364107 -1.12304783 3.12207127 C-1 1 -1 1 0 0 Z " fill="#10669F" transform="translate(430,245)"/>
<path d="M0 0 C5.80468346 4.31379634 8.3210427 10.06941561 9.484375 17.109375 C9.85270014 23.82239778 7.87909035 30.47401668 3.5625 35.67578125 C-3.58183217 42.28061007 -10.94099437 43.39251888 -20.484375 43.16796875 C-27.83926186 42.40973299 -33.78913307 39.15926481 -38.89453125 33.81640625 C-42.95080215 27.56140906 -43.96739677 21.15307248 -42.89453125 13.81640625 C-40.39280469 5.93663649 -34.88399499 0.9803421 -27.89453125 -3.18359375 C-18.79418338 -6.2506733 -8.04173376 -5.02401099 0 0 Z " fill="#10659E" transform="translate(2456.89453125,185.18359375)"/>
<path d="M0 0 C5.13706645 3.82159336 8.85831604 8.15074342 10.08984375 14.5546875 C11.01954451 22.6036037 9.90902581 28.92395748 5.08984375 35.5546875 C-0.70683604 41.30375596 -6.97789281 43.82892071 -15.16015625 43.9296875 C-23.06285321 43.79452165 -28.66932827 41.59520882 -35.28515625 37.4296875 C-39.78994129 32.49587531 -42.05887926 26.67815951 -42.41015625 19.9921875 C-41.97358873 12.47793441 -38.98279973 7.20655425 -33.53515625 2.1171875 C-24.48956307 -5.79371113 -10.17222888 -5.99162899 0 0 Z " fill="#10659E" transform="translate(3392.91015625,184.4453125)"/>
<path d="M0 0 C5.12966574 3.81608778 8.88255909 8.15607882 10.08984375 14.5546875 C10.76477639 22.010584 10.74254888 28.41970463 6.08984375 34.5546875 C1.04470302 40.16181859 -4.47313273 43.09391967 -11.95703125 43.87109375 C-20.78077079 44.19214531 -27.35009504 42.4295087 -34.78515625 37.7421875 C-39.73730738 32.64438487 -41.62183262 27.3028947 -42.16015625 20.3046875 C-41.65797847 12.77202075 -39.61207741 7.1562458 -33.90234375 2.0625 C-24.11381828 -5.34607026 -10.69388002 -6.29889106 0 0 Z " fill="#10659E" transform="translate(3166.91015625,184.4453125)"/>
<path d="M0 0 C4.90689232 3.65953278 8.19372031 7.7079426 10.08984375 13.55859375 C10.92901708 21.17945852 10.92109503 28.31644608 6.08984375 34.55859375 C1.03613017 40.16245843 -4.46725531 43.09721558 -11.95703125 43.875 C-20.78917153 44.19635722 -28.01255944 42.87569742 -34.84765625 37.05859375 C-35.52828125 36.23359375 -36.20890625 35.40859375 -36.91015625 34.55859375 C-37.420625 33.96433594 -37.93109375 33.37007812 -38.45703125 32.7578125 C-41.90473696 27.5399138 -42.44791718 19.97048445 -41.53515625 13.87109375 C-39.72481063 7.52911863 -35.14161096 2.90644756 -29.91015625 -0.89453125 C-20.84617074 -5.76985679 -8.75454534 -5.1420208 0 0 Z " fill="#10659E" transform="translate(466.91015625,184.44140625)"/>
<path d="M0 0 C0.66 0 1.32 0 2 0 C2 3.63 2 7.26 2 11 C13.55 11 25.1 11 37 11 C37 11.33 37 11.66 37 12 C24.79 12 12.58 12 0 12 C-0.33 8.37 -0.66 4.74 -1 1 C-0.67 0.67 -0.34 0.34 0 0 Z " fill="#0B466F" transform="translate(1580,362)"/>
<path d="M0 0 C0.66 0 1.32 0 2 0 C2 3.3 2 6.6 2 10 C13.88 10 25.76 10 38 10 C38 10.33 38 10.66 38 11 C25.46 11 12.92 11 0 11 C-0.33 7.7 -0.66 4.4 -1 1 C-0.67 0.67 -0.34 0.34 0 0 Z " fill="#0B4872" transform="translate(2240,363)"/>
<path d="M0 0 C0.66 0 1.32 0 2 0 C2 3.3 2 6.6 2 10 C13.88 10 25.76 10 38 10 C38 10.33 38 10.66 38 11 C32.74894558 11.02464928 27.49792455 11.04283568 22.24682617 11.05493164 C20.45905979 11.05997218 18.67129755 11.06680454 16.88354492 11.07543945 C14.31948832 11.0875173 11.75548603 11.09323094 9.19140625 11.09765625 C7.98515343 11.10539818 7.98515343 11.10539818 6.75453186 11.11329651 C4.83598285 11.11349215 2.91754632 11.06201983 1 11 C-0.57351881 9.42648119 -0.38460149 7.67045509 -0.625 5.5 C-0.72039062 4.6853125 -0.81578125 3.870625 -0.9140625 3.03125 C-0.95660156 2.02578125 -0.95660156 2.02578125 -1 1 C-0.67 0.67 -0.34 0.34 0 0 Z " fill="#0A4973" transform="translate(1110,363)"/>
<path d="M0 0 C-1.61010527 4.07376031 -4.53822271 6.76507069 -7.625 9.75 C-8.140625 10.25660156 -8.65625 10.76320313 -9.1875 11.28515625 C-10.45383339 12.52803902 -11.7263144 13.76465276 -13 15 C-13.66 14.67 -14.32 14.34 -15 14 C-2.98984772 0 -2.98984772 0 0 0 Z " fill="#084166" transform="translate(661,255)"/>
<path d="M0 0 C0.66 0 1.32 0 2 0 C0.64763423 2.93879484 -0.89942659 5.29232911 -3 7.75 C-3.515625 8.36359375 -4.03125 8.9771875 -4.5625 9.609375 C-6 11 -6 11 -8 11 C-6.60366572 6.55711819 -4.39598172 4.13475236 -1 1 C-0.67 0.67 -0.34 0.34 0 0 Z " fill="#083A5A" transform="translate(2424,185)"/>
<path d="M0 0 C-1.44077046 3.36179774 -3.24750021 5.59156268 -6 8 C-6.66 8 -7.32 8 -8 8 C-8 9.32 -8 10.64 -8 12 C-8.66 12 -9.32 12 -10 12 C-9.848048 6.98558397 -7.07298671 4.66645254 -3.69140625 1.35546875 C-2 0 -2 0 0 0 Z " fill="#073B5F" transform="translate(3137,185)"/>
<path d="M0 0 C-1.44781793 3.44428265 -3.27694609 5.36130962 -6.125 7.75 C-7.21167969 8.67039062 -7.21167969 8.67039062 -8.3203125 9.609375 C-8.87460938 10.06828125 -9.42890625 10.5271875 -10 11 C-10 8 -10 8 -8.3203125 5.95703125 C-7.23363281 4.89548828 -7.23363281 4.89548828 -6.125 3.8125 C-5.40570312 3.09707031 -4.68640625 2.38164062 -3.9453125 1.64453125 C-2 0 -2 0 0 0 Z " fill="#05395F" transform="translate(2510,257)"/>
<path d="M0 0 C0.66 0 1.32 0 2 0 C0.59155282 3.21524305 -1.10344786 5.32183868 -3.625 7.75 C-4.57246094 8.67039062 -4.57246094 8.67039062 -5.5390625 9.609375 C-6.02117188 10.06828125 -6.50328125 10.5271875 -7 11 C-7.33 10.34 -7.66 9.68 -8 9 C-6.85459775 7.68712379 -5.70866567 6.37470979 -4.5625 5.0625 C-3.92441406 4.33160156 -3.28632812 3.60070312 -2.62890625 2.84765625 C-1.77458541 1.87860647 -0.91348825 0.91348825 0 0 Z " fill="#094770" transform="translate(844,248)"/>
<path d="M0 0 C0 3 0 3 -1.75 4.82421875 C-2.4925 5.43910156 -3.235 6.05398437 -4 6.6875 C-4.7425 7.31011719 -5.485 7.93273437 -6.25 8.57421875 C-6.8275 9.04472656 -7.405 9.51523438 -8 10 C-8 7 -8 7 -6.25 5.17578125 C-5.5075 4.56089844 -4.765 3.94601563 -4 3.3125 C-3.2575 2.68988281 -2.515 2.06726563 -1.75 1.42578125 C-1.1725 0.95527344 -0.595 0.48476562 0 0 Z " fill="#083D61" transform="translate(3363,184)"/>
<path d="M0 0 C-1.5830577 4.2742558 -4.50568404 6.26531794 -8 9 C-8 6 -8 6 -6.7578125 4.39453125 C-5.94957031 3.61142578 -5.94957031 3.61142578 -5.125 2.8125 C-4.59132813 2.28269531 -4.05765625 1.75289063 -3.5078125 1.20703125 C-2 0 -2 0 0 0 Z " fill="#073B61" transform="translate(2170,307)"/>
<path d="M0 0 C0.66 0.33 1.32 0.66 2 1 C-3.28571429 7.42857143 -3.28571429 7.42857143 -6 10 C-6.66 9.67 -7.32 9.34 -8 9 C-6.85459775 7.68712379 -5.70866567 6.37470979 -4.5625 5.0625 C-3.92441406 4.33160156 -3.28632812 3.60070312 -2.62890625 2.84765625 C-1.77458541 1.87860647 -0.91348825 0.91348825 0 0 Z " fill="#032E59" transform="translate(1775,258)"/>
<path d="M0 0 C-1.44077046 3.36179774 -3.24750021 5.59156268 -6 8 C-6.66 8 -7.32 8 -8 8 C-6.48291727 4.46014029 -4.24676932 0 0 0 Z " fill="#063A5F" transform="translate(1040,307)"/>
<path d="M0 0 C-1.29299694 2.88437779 -2.65941363 4.87219421 -5 7 C-5.99 6.67 -6.98 6.34 -8 6 C-7.0479279 4.99403703 -6.08812654 3.99538437 -5.125 3 C-4.59132813 2.443125 -4.05765625 1.88625 -3.5078125 1.3125 C-2 0 -2 0 0 0 Z " fill="#074165" transform="translate(437,185)"/>
<path d="M0 0 C0.33 0 0.66 0 1 0 C1 2.31 1 4.62 1 7 C0.01 7.33 -0.98 7.66 -2 8 C-2.33 5.69 -2.66 3.38 -3 1 C-2.34 1.66 -1.68 2.32 -1 3 C-0.67 2.01 -0.34 1.02 0 0 Z " fill="#031B29" transform="translate(561,320)"/>
</svg>
